<svg width="350" height="301" viewBox="0 0 350 301" fill="none" xmlns="http://www.w3.org/2000/svg">
<ellipse cx="174.878" cy="149.978" rx="104.878" ry="105" stroke="white" stroke-width="30"/>
<path d="M174.878 44.978C152.73 44.978 131.15 51.9978 113.232 65.0312C95.314 78.0647 81.9772 96.4427 75.1331 117.531C68.289 138.62 68.289 161.336 75.1331 182.425C81.9772 203.513 95.314 221.891 113.232 234.925" stroke="#93A4FE" stroke-width="30"/>
<path d="M174.878 44.978C170.483 44.978 166.093 45.2546 161.733 45.806" stroke="#FF74C7" stroke-width="30"/>
<path d="M172.5 253.978L188.336 283.978H226" stroke="white" stroke-width="3"/>
<path d="M10.459 48.978H12.085V43.2915H17.3496V41.9468H12.085V37.5259H18.1934V36.1812H10.459V48.978ZM19.1953 44.5483C19.1953 45.9312 19.5703 47.0591 20.3203 47.9321C21.0762 48.7993 22.1572 49.2329 23.5635 49.2329C24.4307 49.2329 25.166 49.0483 25.7695 48.6792C26.373 48.3042 26.8154 47.8999 27.0967 47.4663L26.0859 46.6489C25.8223 47.0005 25.4795 47.3052 25.0576 47.563C24.6416 47.8149 24.1436 47.9409 23.5635 47.9409C22.626 47.9409 21.9316 47.6157 21.4805 46.9653C21.0293 46.3091 20.8037 45.5034 20.8037 44.5483V44.2671C20.8037 43.312 21.0176 42.5093 21.4453 41.8589C21.873 41.2026 22.5176 40.8745 23.3789 40.8745C24.0996 40.8745 24.6475 41.1118 25.0225 41.5864C25.4033 42.061 25.5938 42.6323 25.5938 43.3003V43.4937H20.1533V44.7593H27.167V44.1177C27.167 42.7231 26.833 41.6187 26.165 40.8042C25.5029 39.9897 24.5508 39.5825 23.3086 39.5825C22.0723 39.5825 21.0762 40.019 20.3203 40.8921C19.5703 41.7651 19.1953 42.8901 19.1953 44.2671V44.5483ZM29.1357 48.978H30.709V42.5093C30.9375 42.064 31.2393 41.7007 31.6143 41.4194C31.9893 41.1323 32.4287 40.9888 32.9326 40.9888C33.5068 40.9888 33.9521 41.147 34.2686 41.4634C34.585 41.7798 34.7432 42.3101 34.7432 43.0542V48.978H36.3164V42.5093C36.5391 42.064 36.8379 41.7007 37.2129 41.4194C37.5938 41.1323 38.0332 40.9888 38.5312 40.9888C39.1113 40.9888 39.5596 41.147 39.876 41.4634C40.1924 41.7798 40.3506 42.3101 40.3506 43.0542V48.978H41.9238V43.0718C41.9238 41.8472 41.6572 40.9741 41.124 40.4526C40.5967 39.9253 39.8643 39.6616 38.9268 39.6616C38.3174 39.6616 37.7783 39.7847 37.3096 40.0308C36.8408 40.2769 36.4189 40.6724 36.0439 41.2173H35.9912C35.7686 40.6724 35.4346 40.2769 34.9893 40.0308C34.5439 39.7847 34.0137 39.6616 33.3984 39.6616C32.8301 39.6616 32.3145 39.7847 31.8516 40.0308C31.3945 40.2769 31.002 40.6108 30.6738 41.0327H30.6299L30.5596 39.8374H29.1357V48.978ZM43.8838 46.2974C43.8838 47.2173 44.1855 47.9233 44.7891 48.4155C45.3926 48.9019 46.1309 49.145 47.0039 49.145C47.7598 49.145 48.3779 49.0015 48.8584 48.7144C49.3389 48.4214 49.6846 48.0845 49.8955 47.7036C49.9131 47.938 49.9541 48.1724 50.0186 48.4067C50.0889 48.6411 50.165 48.8315 50.2471 48.978H51.7676V48.8374C51.6621 48.5796 51.5801 48.2837 51.5215 47.9497C51.4629 47.6099 51.4336 47.2495 51.4336 46.8687V42.7114C51.4336 41.6685 51.1318 40.8862 50.5283 40.3647C49.9307 39.8433 49.084 39.5825 47.9883 39.5825C46.8926 39.5825 46.0225 39.8521 45.3779 40.3911C44.7393 40.9243 44.4199 41.5542 44.4199 42.2808V42.3423H45.9844V42.2896C45.9844 41.897 46.1367 41.5601 46.4414 41.2788C46.752 40.9917 47.2559 40.8481 47.9531 40.8481C48.6504 40.8481 49.1426 41.021 49.4297 41.3667C49.7168 41.7065 49.8604 42.1548 49.8604 42.7114V43.3618H47.7861C46.6494 43.3618 45.7148 43.6196 44.9824 44.1353C44.25 44.6509 43.8838 45.3716 43.8838 46.2974ZM45.457 46.2095C45.457 45.6821 45.668 45.2632 46.0898 44.9526C46.5117 44.6421 47.1357 44.4868 47.9619 44.4868H49.8604V45.8052C49.8604 46.3091 49.5996 46.7837 49.0781 47.229C48.5566 47.6685 47.9766 47.8882 47.3379 47.8882C46.6992 47.8882 46.2246 47.7417 45.9141 47.4487C45.6094 47.1499 45.457 46.7368 45.457 46.2095ZM54.0088 48.978H55.582V35.5396H54.0088V48.978ZM57.6387 44.5483C57.6387 45.9312 58.0137 47.0591 58.7637 47.9321C59.5195 48.7993 60.6006 49.2329 62.0068 49.2329C62.874 49.2329 63.6094 49.0483 64.2129 48.6792C64.8164 48.3042 65.2588 47.8999 65.54 47.4663L64.5293 46.6489C64.2656 47.0005 63.9229 47.3052 63.501 47.563C63.085 47.8149 62.5869 47.9409 62.0068 47.9409C61.0693 47.9409 60.375 47.6157 59.9238 46.9653C59.4727 46.3091 59.2471 45.5034 59.2471 44.5483V44.2671C59.2471 43.312 59.4609 42.5093 59.8887 41.8589C60.3164 41.2026 60.9609 40.8745 61.8223 40.8745C62.543 40.8745 63.0908 41.1118 63.4658 41.5864C63.8467 42.061 64.0371 42.6323 64.0371 43.3003V43.4937H58.5967V44.7593H65.6104V44.1177C65.6104 42.7231 65.2764 41.6187 64.6084 40.8042C63.9463 39.9897 62.9941 39.5825 61.752 39.5825C60.5156 39.5825 59.5195 40.019 58.7637 40.8921C58.0137 41.7651 57.6387 42.8901 57.6387 44.2671V44.5483Z" fill="white"/>
<path d="M116.5 64.978L101.164 44.978H73.5" stroke="white" stroke-width="3"/>
<path d="M206.959 15.978H208.55V7.06592C208.55 6.89014 208.547 6.69092 208.541 6.46826C208.541 6.24561 208.538 6.04639 208.532 5.87061H208.585C208.667 6.01709 208.755 6.18115 208.849 6.36279C208.948 6.53857 209.057 6.71436 209.174 6.89014L214.931 15.978H216.627V3.18115H215.045V12.0933C215.045 12.269 215.045 12.4683 215.045 12.6909C215.051 12.9077 215.057 13.104 215.062 13.2798H214.992C214.922 13.1333 214.837 12.9722 214.737 12.7964C214.638 12.6206 214.532 12.4419 214.421 12.2603L208.664 3.18115H206.959V15.978ZM218.807 11.5483C218.807 12.9253 219.196 14.0503 219.976 14.9233C220.755 15.7964 221.798 16.2329 223.104 16.2329C224.405 16.2329 225.445 15.7964 226.225 14.9233C227.004 14.0503 227.394 12.9253 227.394 11.5483V11.2671C227.394 9.89014 227.004 8.76514 226.225 7.89209C225.445 7.01904 224.405 6.58252 223.104 6.58252C221.798 6.58252 220.755 7.01904 219.976 7.89209C219.196 8.76514 218.807 9.89014 218.807 11.2671V11.5483ZM220.415 11.2671C220.415 10.312 220.641 9.50928 221.092 8.85889C221.543 8.20264 222.211 7.87451 223.096 7.87451C223.986 7.87451 224.657 8.20264 225.108 8.85889C225.56 9.50928 225.785 10.312 225.785 11.2671V11.5483C225.785 12.5034 225.56 13.3091 225.108 13.9653C224.657 14.6157 223.986 14.9409 223.096 14.9409C222.211 14.9409 221.543 14.6157 221.092 13.9653C220.641 13.3091 220.415 12.5034 220.415 11.5483V11.2671ZM229.397 15.978H230.971V9.50928C231.193 9.05811 231.504 8.69189 231.902 8.41064C232.301 8.12939 232.761 7.98877 233.282 7.98877C233.886 7.98877 234.352 8.1499 234.68 8.47217C235.014 8.78857 235.181 9.31885 235.181 10.063V15.978H236.754V10.0718C236.754 8.84717 236.481 7.97412 235.937 7.45264C235.392 6.92529 234.662 6.66162 233.748 6.66162C233.162 6.66162 232.629 6.78467 232.148 7.03076C231.668 7.271 231.264 7.60205 230.936 8.02393H230.892L230.821 6.8374H229.397V15.978ZM239.224 15.978H240.647L240.718 14.7827H240.762C240.996 15.1636 241.354 15.4888 241.834 15.7583C242.32 16.022 242.883 16.1538 243.521 16.1538C244.676 16.1538 245.599 15.7202 246.29 14.853C246.981 13.98 247.327 12.8755 247.327 11.5396V11.2583C247.327 9.92822 246.981 8.82959 246.29 7.9624C245.599 7.09521 244.676 6.66162 243.521 6.66162C242.883 6.66162 242.335 6.77881 241.878 7.01318C241.427 7.2417 241.066 7.54639 240.797 7.92725V2.53955H239.224V15.978ZM240.797 13.2886V9.53564C240.979 9.12549 241.274 8.76221 241.685 8.4458C242.095 8.12354 242.593 7.9624 243.179 7.9624C244.052 7.9624 244.693 8.27881 245.104 8.91162C245.514 9.53857 245.719 10.3208 245.719 11.2583V11.5396C245.719 12.4771 245.514 13.2651 245.104 13.9038C244.693 14.5425 244.055 14.8618 243.188 14.8618C242.596 14.8618 242.095 14.7036 241.685 14.3872C241.28 14.0649 240.984 13.6987 240.797 13.2886ZM249.41 15.978H250.983V6.8374H249.41V15.978ZM249.208 4.0249C249.208 4.28857 249.293 4.51416 249.463 4.70166C249.633 4.8833 249.876 4.97412 250.192 4.97412C250.515 4.97412 250.761 4.8833 250.931 4.70166C251.101 4.51416 251.186 4.28857 251.186 4.0249C251.186 3.75537 251.101 3.52979 250.931 3.34814C250.761 3.1665 250.518 3.07568 250.201 3.07568C249.879 3.07568 249.633 3.1665 249.463 3.34814C249.293 3.52979 249.208 3.75537 249.208 4.0249ZM253.62 15.978H255.193V9.50928C255.416 9.05811 255.727 8.69189 256.125 8.41064C256.523 8.12939 256.983 7.98877 257.505 7.98877C258.108 7.98877 258.574 8.1499 258.902 8.47217C259.236 8.78857 259.403 9.31885 259.403 10.063V15.978H260.977V10.0718C260.977 8.84717 260.704 7.97412 260.159 7.45264C259.614 6.92529 258.885 6.66162 257.971 6.66162C257.385 6.66162 256.852 6.78467 256.371 7.03076C255.891 7.271 255.486 7.60205 255.158 8.02393H255.114L255.044 6.8374H253.62V15.978ZM262.937 13.2974C262.937 14.2173 263.238 14.9233 263.842 15.4155C264.445 15.9019 265.184 16.145 266.057 16.145C266.812 16.145 267.431 16.0015 267.911 15.7144C268.392 15.4214 268.737 15.0845 268.948 14.7036C268.966 14.938 269.007 15.1724 269.071 15.4067C269.142 15.6411 269.218 15.8315 269.3 15.978H270.82V15.8374C270.715 15.5796 270.633 15.2837 270.574 14.9497C270.516 14.6099 270.486 14.2495 270.486 13.8687V9.71143C270.486 8.66846 270.185 7.88623 269.581 7.36475C268.983 6.84326 268.137 6.58252 267.041 6.58252C265.945 6.58252 265.075 6.85205 264.431 7.39111C263.792 7.92432 263.473 8.5542 263.473 9.28076V9.34229H265.037V9.28955C265.037 8.89697 265.189 8.56006 265.494 8.27881C265.805 7.9917 266.309 7.84814 267.006 7.84814C267.703 7.84814 268.195 8.021 268.482 8.3667C268.77 8.70654 268.913 9.15479 268.913 9.71143V10.3618H266.839C265.702 10.3618 264.768 10.6196 264.035 11.1353C263.303 11.6509 262.937 12.3716 262.937 13.2974ZM264.51 13.2095C264.51 12.6821 264.721 12.2632 265.143 11.9526C265.564 11.6421 266.188 11.4868 267.015 11.4868H268.913V12.8052C268.913 13.3091 268.652 13.7837 268.131 14.229C267.609 14.6685 267.029 14.8882 266.391 14.8882C265.752 14.8882 265.277 14.7417 264.967 14.4487C264.662 14.1499 264.51 13.7368 264.51 13.2095ZM272.991 15.978H274.564V9.53564C274.746 9.11963 275.021 8.77393 275.391 8.49854C275.76 8.22314 276.205 8.08545 276.727 8.08545C276.879 8.08545 277.02 8.09424 277.148 8.11182C277.277 8.12354 277.4 8.14111 277.518 8.16455V6.70557C277.459 6.68213 277.359 6.65576 277.219 6.62646C277.078 6.59717 276.943 6.58252 276.814 6.58252C276.287 6.58252 275.833 6.72607 275.452 7.01318C275.071 7.30029 274.764 7.63721 274.529 8.02393H274.485L274.415 6.8374H272.991V15.978ZM278.361 19.6343C278.525 19.6929 278.695 19.7368 278.871 19.7661C279.053 19.7954 279.261 19.8101 279.495 19.8101C280.187 19.8101 280.767 19.5815 281.235 19.1245C281.704 18.6733 282.088 18.0347 282.387 17.2085L286.122 6.8374H284.628L282.562 12.9106C282.486 13.145 282.416 13.3618 282.352 13.561C282.287 13.7603 282.229 13.9478 282.176 14.1235H282.123C282.076 13.9478 282.021 13.7603 281.956 13.561C281.897 13.3618 281.827 13.145 281.745 12.9106L279.548 6.8374H278.019L281.438 15.9429V15.9517C281.098 16.9771 280.775 17.6509 280.471 17.9731C280.166 18.2954 279.812 18.4565 279.407 18.4565C279.231 18.4565 279.05 18.4419 278.862 18.4126C278.681 18.3833 278.514 18.3452 278.361 18.2983V19.6343Z" fill="white"/>
<path d="M168 44.978L164.5 10.478H199" stroke="white" stroke-width="3"/>
<path d="M233.459 289.978H234.997V280.67C234.997 280.489 234.994 280.284 234.988 280.055C234.982 279.827 234.968 279.63 234.944 279.466H235.015C235.05 279.63 235.103 279.827 235.173 280.055C235.243 280.284 235.313 280.489 235.384 280.67L239.022 289.978H240.438L244.076 280.67C244.146 280.489 244.217 280.29 244.287 280.073C244.357 279.85 244.41 279.648 244.445 279.466H244.516C244.492 279.642 244.478 279.841 244.472 280.064C244.466 280.287 244.463 280.489 244.463 280.67V289.978H246.036V277.181H243.936L240.139 286.884C240.068 287.06 240.001 287.245 239.937 287.438C239.878 287.625 239.825 287.81 239.778 287.992H239.717C239.67 287.81 239.614 287.625 239.55 287.438C239.491 287.245 239.427 287.06 239.356 286.884L235.56 277.181H233.459V289.978ZM248.269 287.297C248.269 288.217 248.57 288.923 249.174 289.416C249.777 289.902 250.516 290.145 251.389 290.145C252.145 290.145 252.763 290.001 253.243 289.714C253.724 289.421 254.069 289.084 254.28 288.704C254.298 288.938 254.339 289.172 254.403 289.407C254.474 289.641 254.55 289.832 254.632 289.978H256.152V289.837C256.047 289.58 255.965 289.284 255.906 288.95C255.848 288.61 255.818 288.25 255.818 287.869V283.711C255.818 282.668 255.517 281.886 254.913 281.365C254.315 280.843 253.469 280.583 252.373 280.583C251.277 280.583 250.407 280.852 249.763 281.391C249.124 281.924 248.805 282.554 248.805 283.281V283.342H250.369V283.29C250.369 282.897 250.521 282.56 250.826 282.279C251.137 281.992 251.641 281.848 252.338 281.848C253.035 281.848 253.527 282.021 253.814 282.367C254.102 282.707 254.245 283.155 254.245 283.711V284.362H252.171C251.034 284.362 250.1 284.62 249.367 285.135C248.635 285.651 248.269 286.372 248.269 287.297ZM249.842 287.209C249.842 286.682 250.053 286.263 250.475 285.953C250.896 285.642 251.521 285.487 252.347 285.487H254.245V286.805C254.245 287.309 253.984 287.784 253.463 288.229C252.941 288.668 252.361 288.888 251.723 288.888C251.084 288.888 250.609 288.742 250.299 288.449C249.994 288.15 249.842 287.737 249.842 287.209ZM258.394 289.978H259.967V276.54H258.394V289.978ZM262.023 285.548C262.023 286.931 262.398 288.059 263.148 288.932C263.904 289.799 264.985 290.233 266.392 290.233C267.259 290.233 267.994 290.048 268.598 289.679C269.201 289.304 269.644 288.9 269.925 288.466L268.914 287.649C268.65 288 268.308 288.305 267.886 288.563C267.47 288.815 266.972 288.941 266.392 288.941C265.454 288.941 264.76 288.616 264.309 287.965C263.857 287.309 263.632 286.503 263.632 285.548V285.267C263.632 284.312 263.846 283.509 264.273 282.859C264.701 282.203 265.346 281.875 266.207 281.875C266.928 281.875 267.476 282.112 267.851 282.586C268.231 283.061 268.422 283.632 268.422 284.3V284.494H262.981V285.759H269.995V285.118C269.995 283.723 269.661 282.619 268.993 281.804C268.331 280.99 267.379 280.583 266.137 280.583C264.9 280.583 263.904 281.019 263.148 281.892C262.398 282.765 262.023 283.89 262.023 285.267V285.548Z" fill="white"/>
</svg>
