<svg width="350" height="301" viewBox="0 0 350 301" fill="none" xmlns="http://www.w3.org/2000/svg">
<circle cx="175" cy="151" r="105" stroke="white" stroke-width="30"/>
<path d="M175 46C158.43 46 142.095 49.9217 127.331 57.4443C112.567 64.967 99.7929 75.8771 90.0532 89.2825C80.3136 102.688 73.8849 118.208 71.2927 134.574C68.7006 150.94 70.0186 167.688 75.1391 183.447" stroke="#93A4FE" stroke-width="30"/>
<path d="M172.5 254L188.336 284H226" stroke="white" stroke-width="3"/>
<path d="M233.459 290H235.05V281.088C235.05 280.912 235.047 280.713 235.041 280.49C235.041 280.268 235.038 280.068 235.032 279.893H235.085C235.167 280.039 235.255 280.203 235.349 280.385C235.448 280.561 235.557 280.736 235.674 280.912L241.431 290H243.127V277.203H241.545V286.115C241.545 286.291 241.545 286.49 241.545 286.713C241.551 286.93 241.557 287.126 241.562 287.302H241.492C241.422 287.155 241.337 286.994 241.237 286.818C241.138 286.643 241.032 286.464 240.921 286.282L235.164 277.203H233.459V290ZM245.307 285.57C245.307 286.947 245.696 288.072 246.476 288.945C247.255 289.818 248.298 290.255 249.604 290.255C250.905 290.255 251.945 289.818 252.725 288.945C253.504 288.072 253.894 286.947 253.894 285.57V285.289C253.894 283.912 253.504 282.787 252.725 281.914C251.945 281.041 250.905 280.604 249.604 280.604C248.298 280.604 247.255 281.041 246.476 281.914C245.696 282.787 245.307 283.912 245.307 285.289V285.57ZM246.915 285.289C246.915 284.334 247.141 283.531 247.592 282.881C248.043 282.225 248.711 281.896 249.596 281.896C250.486 281.896 251.157 282.225 251.608 282.881C252.06 283.531 252.285 284.334 252.285 285.289V285.57C252.285 286.525 252.06 287.331 251.608 287.987C251.157 288.638 250.486 288.963 249.596 288.963C248.711 288.963 248.043 288.638 247.592 287.987C247.141 287.331 246.915 286.525 246.915 285.57V285.289ZM255.897 290H257.471V283.531C257.693 283.08 258.004 282.714 258.402 282.433C258.801 282.151 259.261 282.011 259.782 282.011C260.386 282.011 260.852 282.172 261.18 282.494C261.514 282.811 261.681 283.341 261.681 284.085V290H263.254V284.094C263.254 282.869 262.981 281.996 262.437 281.475C261.892 280.947 261.162 280.684 260.248 280.684C259.662 280.684 259.129 280.807 258.648 281.053C258.168 281.293 257.764 281.624 257.436 282.046H257.392L257.321 280.859H255.897V290ZM265.082 285.184H269.969V283.733H265.082V285.184ZM271.876 290H273.3L273.37 288.805H273.414C273.648 289.186 274.006 289.511 274.486 289.78C274.973 290.044 275.535 290.176 276.174 290.176C277.328 290.176 278.251 289.742 278.942 288.875C279.634 288.002 279.979 286.897 279.979 285.562V285.28C279.979 283.95 279.634 282.852 278.942 281.984C278.251 281.117 277.328 280.684 276.174 280.684C275.535 280.684 274.987 280.801 274.53 281.035C274.079 281.264 273.719 281.568 273.449 281.949V276.562H271.876V290ZM273.449 287.311V283.558C273.631 283.147 273.927 282.784 274.337 282.468C274.747 282.146 275.245 281.984 275.831 281.984C276.704 281.984 277.346 282.301 277.756 282.934C278.166 283.561 278.371 284.343 278.371 285.28V285.562C278.371 286.499 278.166 287.287 277.756 287.926C277.346 288.564 276.707 288.884 275.84 288.884C275.248 288.884 274.747 288.726 274.337 288.409C273.933 288.087 273.637 287.721 273.449 287.311ZM281.896 286.774C281.896 287.999 282.168 288.872 282.713 289.394C283.258 289.915 283.99 290.176 284.91 290.176C285.49 290.176 286.021 290.056 286.501 289.815C286.981 289.569 287.386 289.235 287.714 288.813H287.767L287.828 290H289.252V280.859H287.679V287.328C287.456 287.779 287.146 288.146 286.747 288.427C286.349 288.708 285.892 288.849 285.376 288.849C284.767 288.849 284.295 288.69 283.961 288.374C283.633 288.058 283.469 287.53 283.469 286.792V280.859H281.896V286.774ZM291.247 287.293V287.354C291.247 288.233 291.561 288.937 292.188 289.464C292.82 289.991 293.74 290.255 294.947 290.255C296.16 290.255 297.068 289.997 297.672 289.481C298.275 288.96 298.577 288.295 298.577 287.486C298.577 286.678 298.308 286.06 297.769 285.632C297.235 285.198 296.479 284.864 295.501 284.63C294.522 284.396 293.863 284.176 293.523 283.971C293.189 283.766 293.022 283.487 293.022 283.136C293.022 282.772 293.169 282.477 293.462 282.248C293.761 282.014 294.229 281.896 294.868 281.896C295.507 281.896 295.981 282.022 296.292 282.274C296.603 282.521 296.758 282.869 296.758 283.32V283.408H298.322V283.355C298.322 282.506 298.006 281.835 297.373 281.343C296.74 280.851 295.905 280.604 294.868 280.604C293.837 280.604 293.011 280.851 292.39 281.343C291.774 281.835 291.467 282.459 291.467 283.215C291.467 283.965 291.751 284.548 292.319 284.964C292.894 285.38 293.67 285.705 294.648 285.939C295.633 286.174 296.274 286.402 296.573 286.625C296.878 286.842 297.03 287.158 297.03 287.574C297.03 287.99 296.843 288.327 296.468 288.585C296.099 288.837 295.592 288.963 294.947 288.963C294.309 288.963 293.793 288.831 293.4 288.567C293.014 288.298 292.82 287.894 292.82 287.354V287.293H291.247ZM300.643 290H302.216V280.859H300.643V290ZM300.44 278.047C300.44 278.311 300.525 278.536 300.695 278.724C300.865 278.905 301.108 278.996 301.425 278.996C301.747 278.996 301.993 278.905 302.163 278.724C302.333 278.536 302.418 278.311 302.418 278.047C302.418 277.777 302.333 277.552 302.163 277.37C301.993 277.188 301.75 277.098 301.434 277.098C301.111 277.098 300.865 277.188 300.695 277.37C300.525 277.552 300.44 277.777 300.44 278.047ZM304.853 290H306.426V283.531C306.648 283.08 306.959 282.714 307.357 282.433C307.756 282.151 308.216 282.011 308.737 282.011C309.341 282.011 309.807 282.172 310.135 282.494C310.469 282.811 310.636 283.341 310.636 284.085V290H312.209V284.094C312.209 282.869 311.937 281.996 311.392 281.475C310.847 280.947 310.117 280.684 309.203 280.684C308.617 280.684 308.084 280.807 307.604 281.053C307.123 281.293 306.719 281.624 306.391 282.046H306.347L306.276 280.859H304.853V290ZM314.125 285.57C314.125 286.953 314.5 288.081 315.25 288.954C316.006 289.821 317.087 290.255 318.493 290.255C319.36 290.255 320.096 290.07 320.699 289.701C321.303 289.326 321.745 288.922 322.026 288.488L321.016 287.671C320.752 288.022 320.409 288.327 319.987 288.585C319.571 288.837 319.073 288.963 318.493 288.963C317.556 288.963 316.861 288.638 316.41 287.987C315.959 287.331 315.733 286.525 315.733 285.57V285.289C315.733 284.334 315.947 283.531 316.375 282.881C316.803 282.225 317.447 281.896 318.309 281.896C319.029 281.896 319.577 282.134 319.952 282.608C320.333 283.083 320.523 283.654 320.523 284.322V284.516H315.083V285.781H322.097V285.14C322.097 283.745 321.763 282.641 321.095 281.826C320.433 281.012 319.48 280.604 318.238 280.604C317.002 280.604 316.006 281.041 315.25 281.914C314.5 282.787 314.125 283.912 314.125 285.289V285.57ZM323.503 287.293V287.354C323.503 288.233 323.816 288.937 324.443 289.464C325.076 289.991 325.996 290.255 327.203 290.255C328.416 290.255 329.324 289.997 329.928 289.481C330.531 288.96 330.833 288.295 330.833 287.486C330.833 286.678 330.563 286.06 330.024 285.632C329.491 285.198 328.735 284.864 327.757 284.63C326.778 284.396 326.119 284.176 325.779 283.971C325.445 283.766 325.278 283.487 325.278 283.136C325.278 282.772 325.425 282.477 325.718 282.248C326.017 282.014 326.485 281.896 327.124 281.896C327.763 281.896 328.237 282.022 328.548 282.274C328.858 282.521 329.014 282.869 329.014 283.32V283.408H330.578V283.355C330.578 282.506 330.262 281.835 329.629 281.343C328.996 280.851 328.161 280.604 327.124 280.604C326.093 280.604 325.267 280.851 324.646 281.343C324.03 281.835 323.723 282.459 323.723 283.215C323.723 283.965 324.007 284.548 324.575 284.964C325.149 285.38 325.926 285.705 326.904 285.939C327.889 286.174 328.53 286.402 328.829 286.625C329.134 286.842 329.286 287.158 329.286 287.574C329.286 287.99 329.099 288.327 328.724 288.585C328.354 288.837 327.848 288.963 327.203 288.963C326.564 288.963 326.049 288.831 325.656 288.567C325.27 288.298 325.076 287.894 325.076 287.354V287.293H323.503ZM332.257 287.293V287.354C332.257 288.233 332.57 288.937 333.197 289.464C333.83 289.991 334.75 290.255 335.957 290.255C337.17 290.255 338.078 289.997 338.682 289.481C339.285 288.96 339.587 288.295 339.587 287.486C339.587 286.678 339.317 286.06 338.778 285.632C338.245 285.198 337.489 284.864 336.511 284.63C335.532 284.396 334.873 284.176 334.533 283.971C334.199 283.766 334.032 283.487 334.032 283.136C334.032 282.772 334.179 282.477 334.472 282.248C334.771 282.014 335.239 281.896 335.878 281.896C336.517 281.896 336.991 282.022 337.302 282.274C337.612 282.521 337.768 282.869 337.768 283.32V283.408H339.332V283.355C339.332 282.506 339.016 281.835 338.383 281.343C337.75 280.851 336.915 280.604 335.878 280.604C334.847 280.604 334.021 280.851 333.399 281.343C332.784 281.835 332.477 282.459 332.477 283.215C332.477 283.965 332.761 284.548 333.329 284.964C333.903 285.38 334.68 285.705 335.658 285.939C336.643 286.174 337.284 286.402 337.583 286.625C337.888 286.842 338.04 287.158 338.04 287.574C338.04 287.99 337.853 288.327 337.478 288.585C337.108 288.837 336.602 288.963 335.957 288.963C335.318 288.963 334.803 288.831 334.41 288.567C334.023 288.298 333.83 287.894 333.83 287.354V287.293H332.257Z" fill="white"/>
<path d="M172.459 13H176.862C178.116 13 179.121 12.6807 179.877 12.042C180.633 11.3975 181.011 10.4922 181.011 9.32617C181.011 8.5 180.809 7.83496 180.404 7.33105C180 6.82129 179.479 6.47266 178.84 6.28516V6.25C179.361 6.06836 179.798 5.75488 180.149 5.30957C180.501 4.86426 180.677 4.28711 180.677 3.57812C180.677 2.41211 180.313 1.55957 179.587 1.02051C178.86 0.475586 177.864 0.203125 176.599 0.203125H172.459V13ZM174.05 11.6553V6.99707H176.862C177.741 6.99707 178.383 7.20801 178.787 7.62988C179.197 8.0459 179.402 8.61133 179.402 9.32617C179.402 10.041 179.197 10.6094 178.787 11.0312C178.383 11.4473 177.741 11.6553 176.862 11.6553H174.05ZM174.05 5.67871V1.54785H176.599C177.472 1.54785 178.102 1.72363 178.488 2.0752C178.875 2.4209 179.068 2.92187 179.068 3.57812C179.068 4.24023 178.875 4.75586 178.488 5.125C178.102 5.49414 177.472 5.67871 176.599 5.67871H174.05ZM183.05 9.77441C183.05 10.999 183.322 11.8721 183.867 12.3936C184.412 12.915 185.145 13.1758 186.064 13.1758C186.645 13.1758 187.175 13.0557 187.655 12.8154C188.136 12.5693 188.54 12.2354 188.868 11.8135H188.921L188.982 13H190.406V3.85938H188.833V10.3281C188.61 10.7793 188.3 11.1455 187.901 11.4268C187.503 11.708 187.046 11.8486 186.53 11.8486C185.921 11.8486 185.449 11.6904 185.115 11.374C184.787 11.0576 184.623 10.5303 184.623 9.79199V3.85938H183.05V9.77441ZM192.401 10.293V10.3545C192.401 11.2334 192.715 11.9365 193.342 12.4639C193.975 12.9912 194.895 13.2549 196.102 13.2549C197.314 13.2549 198.223 12.9971 198.826 12.4814C199.43 11.96 199.731 11.2949 199.731 10.4863C199.731 9.67773 199.462 9.05957 198.923 8.63184C198.39 8.19824 197.634 7.86426 196.655 7.62988C195.677 7.39551 195.018 7.17578 194.678 6.9707C194.344 6.76562 194.177 6.4873 194.177 6.13574C194.177 5.77246 194.323 5.47656 194.616 5.24805C194.915 5.01367 195.384 4.89648 196.022 4.89648C196.661 4.89648 197.136 5.02246 197.446 5.27441C197.757 5.52051 197.912 5.86914 197.912 6.32031V6.4082H199.477V6.35547C199.477 5.50586 199.16 4.83496 198.527 4.34277C197.895 3.85059 197.06 3.60449 196.022 3.60449C194.991 3.60449 194.165 3.85059 193.544 4.34277C192.929 4.83496 192.621 5.45898 192.621 6.21484C192.621 6.96484 192.905 7.54785 193.474 7.96387C194.048 8.37988 194.824 8.70508 195.803 8.93945C196.787 9.17383 197.429 9.40234 197.728 9.625C198.032 9.8418 198.185 10.1582 198.185 10.5742C198.185 10.9902 197.997 11.3271 197.622 11.585C197.253 11.8369 196.746 11.9629 196.102 11.9629C195.463 11.9629 194.947 11.8311 194.555 11.5674C194.168 11.2979 193.975 10.8936 193.975 10.3545V10.293H192.401ZM201.797 13H203.37V3.85938H201.797V13ZM201.595 1.04688C201.595 1.31055 201.68 1.53613 201.85 1.72363C202.02 1.90527 202.263 1.99609 202.579 1.99609C202.901 1.99609 203.147 1.90527 203.317 1.72363C203.487 1.53613 203.572 1.31055 203.572 1.04688C203.572 0.777344 203.487 0.551758 203.317 0.370117C203.147 0.188477 202.904 0.0976562 202.588 0.0976562C202.266 0.0976562 202.02 0.188477 201.85 0.370117C201.68 0.551758 201.595 0.777344 201.595 1.04688ZM206.007 13H207.58V6.53125C207.803 6.08008 208.113 5.71387 208.512 5.43262C208.91 5.15137 209.37 5.01074 209.892 5.01074C210.495 5.01074 210.961 5.17188 211.289 5.49414C211.623 5.81055 211.79 6.34082 211.79 7.08496V13H213.363V7.09375C213.363 5.86914 213.091 4.99609 212.546 4.47461C212.001 3.94727 211.271 3.68359 210.357 3.68359C209.771 3.68359 209.238 3.80664 208.758 4.05273C208.277 4.29297 207.873 4.62402 207.545 5.0459H207.501L207.431 3.85938H206.007V13ZM215.279 8.57031C215.279 9.95312 215.654 11.0811 216.404 11.9541C217.16 12.8213 218.241 13.2549 219.647 13.2549C220.515 13.2549 221.25 13.0703 221.854 12.7012C222.457 12.3262 222.899 11.9219 223.181 11.4883L222.17 10.6709C221.906 11.0225 221.563 11.3271 221.142 11.585C220.726 11.8369 220.228 11.9629 219.647 11.9629C218.71 11.9629 218.016 11.6377 217.564 10.9873C217.113 10.3311 216.888 9.52539 216.888 8.57031V8.28906C216.888 7.33398 217.102 6.53125 217.529 5.88086C217.957 5.22461 218.602 4.89648 219.463 4.89648C220.184 4.89648 220.731 5.13379 221.106 5.6084C221.487 6.08301 221.678 6.6543 221.678 7.32227V7.51562H216.237V8.78125H223.251V8.13965C223.251 6.74512 222.917 5.64062 222.249 4.82617C221.587 4.01172 220.635 3.60449 219.393 3.60449C218.156 3.60449 217.16 4.04102 216.404 4.91406C215.654 5.78711 215.279 6.91211 215.279 8.28906V8.57031ZM224.657 10.293V10.3545C224.657 11.2334 224.971 11.9365 225.598 12.4639C226.23 12.9912 227.15 13.2549 228.357 13.2549C229.57 13.2549 230.479 12.9971 231.082 12.4814C231.686 11.96 231.987 11.2949 231.987 10.4863C231.987 9.67773 231.718 9.05957 231.179 8.63184C230.646 8.19824 229.89 7.86426 228.911 7.62988C227.933 7.39551 227.273 7.17578 226.934 6.9707C226.6 6.76562 226.433 6.4873 226.433 6.13574C226.433 5.77246 226.579 5.47656 226.872 5.24805C227.171 5.01367 227.64 4.89648 228.278 4.89648C228.917 4.89648 229.392 5.02246 229.702 5.27441C230.013 5.52051 230.168 5.86914 230.168 6.32031V6.4082H231.732V6.35547C231.732 5.50586 231.416 4.83496 230.783 4.34277C230.15 3.85059 229.315 3.60449 228.278 3.60449C227.247 3.60449 226.421 3.85059 225.8 4.34277C225.185 4.83496 224.877 5.45898 224.877 6.21484C224.877 6.96484 225.161 7.54785 225.729 7.96387C226.304 8.37988 227.08 8.70508 228.059 8.93945C229.043 9.17383 229.685 9.40234 229.983 9.625C230.288 9.8418 230.44 10.1582 230.44 10.5742C230.44 10.9902 230.253 11.3271 229.878 11.585C229.509 11.8369 229.002 11.9629 228.357 11.9629C227.719 11.9629 227.203 11.8311 226.811 11.5674C226.424 11.2979 226.23 10.8936 226.23 10.3545V10.293H224.657ZM233.411 10.293V10.3545C233.411 11.2334 233.725 11.9365 234.352 12.4639C234.984 12.9912 235.904 13.2549 237.111 13.2549C238.324 13.2549 239.232 12.9971 239.836 12.4814C240.439 11.96 240.741 11.2949 240.741 10.4863C240.741 9.67773 240.472 9.05957 239.933 8.63184C239.399 8.19824 238.644 7.86426 237.665 7.62988C236.687 7.39551 236.027 7.17578 235.688 6.9707C235.354 6.76562 235.187 6.4873 235.187 6.13574C235.187 5.77246 235.333 5.47656 235.626 5.24805C235.925 5.01367 236.394 4.89648 237.032 4.89648C237.671 4.89648 238.146 5.02246 238.456 5.27441C238.767 5.52051 238.922 5.86914 238.922 6.32031V6.4082H240.486V6.35547C240.486 5.50586 240.17 4.83496 239.537 4.34277C238.904 3.85059 238.069 3.60449 237.032 3.60449C236.001 3.60449 235.175 3.85059 234.554 4.34277C233.938 4.83496 233.631 5.45898 233.631 6.21484C233.631 6.96484 233.915 7.54785 234.483 7.96387C235.058 8.37988 235.834 8.70508 236.812 8.93945C237.797 9.17383 238.438 9.40234 238.737 9.625C239.042 9.8418 239.194 10.1582 239.194 10.5742C239.194 10.9902 239.007 11.3271 238.632 11.585C238.263 11.8369 237.756 11.9629 237.111 11.9629C236.473 11.9629 235.957 11.8311 235.564 11.5674C235.178 11.2979 234.984 10.8936 234.984 10.3545V10.293H233.411Z" fill="white"/>
<path d="M144 51.5L133.5 7H167" stroke="white" stroke-width="3"/>
</svg>
