<svg width="362" height="301" viewBox="0 0 362 301" fill="none" xmlns="http://www.w3.org/2000/svg">
<circle cx="187" cy="150.978" r="105" stroke="white" stroke-width="30"/>
<path d="M112.754 76.7318C97.0745 92.4111 86.7615 112.652 83.2927 134.552C79.824 156.453 83.3776 178.89 93.4443 198.647" stroke="#93A4FE" stroke-width="30"/>
<path d="M154.553 51.1171C138.794 56.2375 124.471 65.015 112.754 76.7318" stroke="#FF74C7" stroke-width="30"/>
<path d="M187 45.978C175.982 45.978 165.032 47.7123 154.553 51.1171" stroke="#825AF2" stroke-width="30"/>
<path d="M184.5 253.978L200.336 283.978H238" stroke="white" stroke-width="3"/>
<path d="M243.991 289.978H245.617L249.133 280.222C249.203 280.023 249.265 279.833 249.317 279.651C249.37 279.469 249.417 279.282 249.458 279.088H249.537C249.584 279.282 249.634 279.469 249.687 279.651C249.739 279.833 249.801 280.023 249.871 280.222L253.36 289.978H255.048L250.267 277.102H248.772L243.991 289.978ZM246.039 286.612H252.974L252.49 285.276H246.531L246.039 286.612ZM255.751 287.271V287.333C255.751 288.211 256.064 288.915 256.691 289.442C257.324 289.969 258.244 290.233 259.451 290.233C260.664 290.233 261.572 289.975 262.176 289.459C262.779 288.938 263.081 288.273 263.081 287.464C263.081 286.656 262.812 286.038 262.272 285.61C261.739 285.176 260.983 284.842 260.005 284.608C259.026 284.374 258.367 284.154 258.027 283.949C257.693 283.744 257.526 283.465 257.526 283.114C257.526 282.75 257.673 282.455 257.966 282.226C258.265 281.992 258.733 281.875 259.372 281.875C260.011 281.875 260.485 282 260.796 282.252C261.106 282.499 261.262 282.847 261.262 283.298V283.386H262.826V283.333C262.826 282.484 262.51 281.813 261.877 281.321C261.244 280.829 260.409 280.583 259.372 280.583C258.341 280.583 257.515 280.829 256.894 281.321C256.278 281.813 255.971 282.437 255.971 283.193C255.971 283.943 256.255 284.526 256.823 284.942C257.397 285.358 258.174 285.683 259.152 285.917C260.137 286.152 260.778 286.38 261.077 286.603C261.382 286.82 261.534 287.136 261.534 287.552C261.534 287.968 261.347 288.305 260.972 288.563C260.603 288.815 260.096 288.941 259.451 288.941C258.812 288.941 258.297 288.809 257.904 288.545C257.518 288.276 257.324 287.872 257.324 287.333V287.271H255.751ZM265.146 289.978H266.72V280.837H265.146V289.978ZM264.944 278.025C264.944 278.289 265.029 278.514 265.199 278.702C265.369 278.883 265.612 278.974 265.929 278.974C266.251 278.974 266.497 278.883 266.667 278.702C266.837 278.514 266.922 278.289 266.922 278.025C266.922 277.755 266.837 277.53 266.667 277.348C266.497 277.167 266.254 277.076 265.938 277.076C265.615 277.076 265.369 277.167 265.199 277.348C265.029 277.53 264.944 277.755 264.944 278.025ZM268.847 287.297C268.847 288.217 269.148 288.923 269.752 289.416C270.355 289.902 271.094 290.145 271.967 290.145C272.723 290.145 273.341 290.001 273.821 289.714C274.302 289.421 274.647 289.084 274.858 288.704C274.876 288.938 274.917 289.172 274.981 289.407C275.052 289.641 275.128 289.832 275.21 289.978H276.73V289.837C276.625 289.58 276.543 289.284 276.484 288.95C276.426 288.61 276.396 288.25 276.396 287.869V283.711C276.396 282.668 276.095 281.886 275.491 281.365C274.894 280.843 274.047 280.583 272.951 280.583C271.855 280.583 270.985 280.852 270.341 281.391C269.702 281.924 269.383 282.554 269.383 283.281V283.342H270.947V283.29C270.947 282.897 271.1 282.56 271.404 282.279C271.715 281.992 272.219 281.848 272.916 281.848C273.613 281.848 274.105 282.021 274.393 282.367C274.68 282.707 274.823 283.155 274.823 283.711V284.362H272.749C271.612 284.362 270.678 284.62 269.945 285.135C269.213 285.651 268.847 286.372 268.847 287.297ZM270.42 287.209C270.42 286.682 270.631 286.263 271.053 285.953C271.475 285.642 272.099 285.487 272.925 285.487H274.823V286.805C274.823 287.309 274.562 287.784 274.041 288.229C273.52 288.668 272.939 288.888 272.301 288.888C271.662 288.888 271.188 288.742 270.877 288.449C270.572 288.15 270.42 287.737 270.42 287.209ZM278.901 289.978H280.475V283.509C280.697 283.058 281.008 282.692 281.406 282.411C281.805 282.129 282.265 281.989 282.786 281.989C283.39 281.989 283.855 282.15 284.184 282.472C284.518 282.789 284.685 283.319 284.685 284.063V289.978H286.258V284.072C286.258 282.847 285.985 281.974 285.44 281.453C284.896 280.925 284.166 280.662 283.252 280.662C282.666 280.662 282.133 280.785 281.652 281.031C281.172 281.271 280.768 281.602 280.439 282.024H280.396L280.325 280.837H278.901V289.978Z" fill="white"/>
<path d="M41.459 37.978H49.0791V36.6333H43.085V25.1812H41.459V37.978ZM50.292 35.2974C50.292 36.2173 50.5938 36.9233 51.1973 37.4155C51.8008 37.9019 52.5391 38.145 53.4121 38.145C54.168 38.145 54.7861 38.0015 55.2666 37.7144C55.7471 37.4214 56.0928 37.0845 56.3037 36.7036C56.3213 36.938 56.3623 37.1724 56.4268 37.4067C56.4971 37.6411 56.5732 37.8315 56.6553 37.978H58.1758V37.8374C58.0703 37.5796 57.9883 37.2837 57.9297 36.9497C57.8711 36.6099 57.8418 36.2495 57.8418 35.8687V31.7114C57.8418 30.6685 57.54 29.8862 56.9365 29.3647C56.3389 28.8433 55.4922 28.5825 54.3965 28.5825C53.3008 28.5825 52.4307 28.8521 51.7861 29.3911C51.1475 29.9243 50.8281 30.5542 50.8281 31.2808V31.3423H52.3926V31.2896C52.3926 30.897 52.5449 30.5601 52.8496 30.2788C53.1602 29.9917 53.6641 29.8481 54.3613 29.8481C55.0586 29.8481 55.5508 30.021 55.8379 30.3667C56.125 30.7065 56.2686 31.1548 56.2686 31.7114V32.3618H54.1943C53.0576 32.3618 52.123 32.6196 51.3906 33.1353C50.6582 33.6509 50.292 34.3716 50.292 35.2974ZM51.8652 35.2095C51.8652 34.6821 52.0762 34.2632 52.498 33.9526C52.9199 33.6421 53.5439 33.4868 54.3701 33.4868H56.2686V34.8052C56.2686 35.3091 56.0078 35.7837 55.4863 36.229C54.9648 36.6685 54.3848 36.8882 53.7461 36.8882C53.1074 36.8882 52.6328 36.7417 52.3223 36.4487C52.0176 36.1499 51.8652 35.7368 51.8652 35.2095ZM59.0723 30.0503H64.2666V28.8374H59.0723V30.0503ZM60.707 35.7017C60.707 36.5806 60.9033 37.2222 61.2959 37.6265C61.6943 38.0308 62.2275 38.2329 62.8955 38.2329C63.1768 38.2329 63.4375 38.2065 63.6777 38.1538C63.918 38.1069 64.1113 38.0483 64.2578 37.978V36.686C64.0996 36.7446 63.9414 36.7915 63.7832 36.8267C63.625 36.8618 63.4668 36.8794 63.3086 36.8794C62.9512 36.8794 62.6904 36.7915 62.5264 36.6157C62.3623 36.4341 62.2803 36.1294 62.2803 35.7017V26.4819H60.707V29.312V29.5581V35.7017ZM66.0332 37.978H67.6064V28.8374H66.0332V37.978ZM65.8311 26.0249C65.8311 26.2886 65.916 26.5142 66.0859 26.7017C66.2559 26.8833 66.499 26.9741 66.8154 26.9741C67.1377 26.9741 67.3838 26.8833 67.5537 26.7017C67.7236 26.5142 67.8086 26.2886 67.8086 26.0249C67.8086 25.7554 67.7236 25.5298 67.5537 25.3481C67.3838 25.1665 67.1406 25.0757 66.8242 25.0757C66.502 25.0757 66.2559 25.1665 66.0859 25.3481C65.916 25.5298 65.8311 25.7554 65.8311 26.0249ZM70.2432 37.978H71.8164V31.5093C72.0391 31.0581 72.3496 30.6919 72.748 30.4106C73.1465 30.1294 73.6064 29.9888 74.1279 29.9888C74.7314 29.9888 75.1973 30.1499 75.5254 30.4722C75.8594 30.7886 76.0264 31.3188 76.0264 32.063V37.978H77.5996V32.0718C77.5996 30.8472 77.3271 29.9741 76.7822 29.4526C76.2373 28.9253 75.5078 28.6616 74.5938 28.6616C74.0078 28.6616 73.4746 28.7847 72.9941 29.0308C72.5137 29.271 72.1094 29.6021 71.7812 30.0239H71.7373L71.667 28.8374H70.2432V37.978ZM78.9531 37.978H80.7285L83.4707 33.7681L83.5762 33.7593L86.8545 28.8374H85.0879L82.5039 32.9155L82.4072 32.9331L78.9531 37.978ZM79.1289 28.8374L82.4072 33.7593L82.4863 33.7769L85.2285 37.978H87.0303L83.585 32.9331L83.5059 32.9155L80.9307 28.8374H79.1289Z" fill="white"/>
<path d="M3.5332 99.0659H5.11523L7.60254 89.4507C7.65527 89.2632 7.69922 89.0815 7.73438 88.9058C7.76953 88.7241 7.80176 88.5366 7.83105 88.3433H7.90137C7.93066 88.5366 7.96289 88.7241 7.99805 88.9058C8.03906 89.0815 8.08301 89.2632 8.12988 89.4507L10.6172 99.0659H12.208L15.3281 86.1812H13.7285L11.6104 95.7524C11.5693 95.9458 11.5371 96.104 11.5137 96.2271C11.4902 96.3501 11.4668 96.5083 11.4434 96.7017H11.3643C11.3408 96.5083 11.3174 96.3501 11.2939 96.2271C11.2764 96.104 11.2412 95.9458 11.1885 95.7524L8.70996 86.1812H7.04883L4.64941 95.7524C4.60254 95.9458 4.56738 96.104 4.54395 96.2271C4.52051 96.3501 4.49707 96.5083 4.47363 96.7017H4.39453C4.37109 96.5083 4.34766 96.3501 4.32422 96.2271C4.30664 96.104 4.27441 95.9458 4.22754 95.7524L2.03027 86.1812H0.404297L3.5332 99.0659ZM17.0068 98.978H18.5801V92.5093C18.8027 92.064 19.1133 91.7007 19.5117 91.4194C19.9102 91.1323 20.3701 90.9888 20.8916 90.9888C21.4951 90.9888 21.9609 91.1499 22.2891 91.4722C22.623 91.7886 22.79 92.3159 22.79 93.0542V98.978H24.3633V93.0718C24.3633 91.8472 24.0908 90.9741 23.5459 90.4526C23.001 89.9253 22.3037 89.6616 21.4541 89.6616C20.8564 89.6616 20.3086 89.7817 19.8105 90.022C19.3125 90.2622 18.9023 90.5815 18.5801 90.98V85.5396H17.0068V98.978ZM26.9121 98.978H28.4854V89.8374H26.9121V98.978ZM26.71 87.0249C26.71 87.2886 26.7949 87.5142 26.9648 87.7017C27.1348 87.8833 27.3779 87.9741 27.6943 87.9741C28.0166 87.9741 28.2627 87.8833 28.4326 87.7017C28.6025 87.5142 28.6875 87.2886 28.6875 87.0249C28.6875 86.7554 28.6025 86.5298 28.4326 86.3481C28.2627 86.1665 28.0195 86.0757 27.7031 86.0757C27.3809 86.0757 27.1348 86.1665 26.9648 86.3481C26.7949 86.5298 26.71 86.7554 26.71 87.0249ZM29.8477 91.0503H35.042V89.8374H29.8477V91.0503ZM31.4824 96.7017C31.4824 97.5806 31.6787 98.2222 32.0713 98.6265C32.4697 99.0308 33.0029 99.2329 33.6709 99.2329C33.9521 99.2329 34.2129 99.2065 34.4531 99.1538C34.6934 99.1069 34.8867 99.0483 35.0332 98.978V97.686C34.875 97.7446 34.7168 97.7915 34.5586 97.8267C34.4004 97.8618 34.2422 97.8794 34.084 97.8794C33.7266 97.8794 33.4658 97.7915 33.3018 97.6157C33.1377 97.4341 33.0557 97.1294 33.0557 96.7017V87.4819H31.4824V90.312V90.5581V96.7017ZM36.1758 94.5483C36.1758 95.9312 36.5508 97.0591 37.3008 97.9321C38.0566 98.7993 39.1377 99.2329 40.5439 99.2329C41.4111 99.2329 42.1465 99.0483 42.75 98.6792C43.3535 98.3042 43.7959 97.8999 44.0771 97.4663L43.0664 96.6489C42.8027 97.0005 42.46 97.3052 42.0381 97.563C41.6221 97.8149 41.124 97.9409 40.5439 97.9409C39.6064 97.9409 38.9121 97.6157 38.4609 96.9653C38.0098 96.3091 37.7842 95.5034 37.7842 94.5483V94.2671C37.7842 93.312 37.998 92.5093 38.4258 91.8589C38.8535 91.2026 39.498 90.8745 40.3594 90.8745C41.0801 90.8745 41.6279 91.1118 42.0029 91.5864C42.3838 92.061 42.5742 92.6323 42.5742 93.3003V93.4937H37.1338V94.7593H44.1475V94.1177C44.1475 92.7231 43.8135 91.6187 43.1455 90.8042C42.4834 89.9897 41.5312 89.5825 40.2891 89.5825C39.0527 89.5825 38.0566 90.019 37.3008 90.8921C36.5508 91.7651 36.1758 92.8901 36.1758 94.2671V94.5483Z" fill="white"/>
<path d="M94 106.978L77.1637 92.978H49.5" stroke="white" stroke-width="3"/>
<path d="M135.5 54.978L120.164 34.978H92.5" stroke="white" stroke-width="3"/>
<path d="M207.959 16.978H212.362C213.616 16.978 214.621 16.6587 215.377 16.02C216.133 15.3755 216.511 14.4702 216.511 13.3042C216.511 12.478 216.309 11.813 215.904 11.3091C215.5 10.7993 214.979 10.4507 214.34 10.2632V10.228C214.861 10.0464 215.298 9.73291 215.649 9.2876C216.001 8.84229 216.177 8.26514 216.177 7.55615C216.177 6.39014 215.813 5.5376 215.087 4.99854C214.36 4.45361 213.364 4.18115 212.099 4.18115H207.959V16.978ZM209.55 15.6333V10.9751H212.362C213.241 10.9751 213.883 11.186 214.287 11.6079C214.697 12.0239 214.902 12.5894 214.902 13.3042C214.902 14.019 214.697 14.5874 214.287 15.0093C213.883 15.4253 213.241 15.6333 212.362 15.6333H209.55ZM209.55 9.65674V5.52588H212.099C212.972 5.52588 213.602 5.70166 213.988 6.05322C214.375 6.39893 214.568 6.8999 214.568 7.55615C214.568 8.21826 214.375 8.73389 213.988 9.10303C213.602 9.47217 212.972 9.65674 212.099 9.65674H209.55ZM218.708 16.978H220.281V3.53955H218.708V16.978ZM222.382 14.2974C222.382 15.2173 222.684 15.9233 223.287 16.4155C223.891 16.9019 224.629 17.145 225.502 17.145C226.258 17.145 226.876 17.0015 227.356 16.7144C227.837 16.4214 228.183 16.0845 228.394 15.7036C228.411 15.938 228.452 16.1724 228.517 16.4067C228.587 16.6411 228.663 16.8315 228.745 16.978H230.266V16.8374C230.16 16.5796 230.078 16.2837 230.02 15.9497C229.961 15.6099 229.932 15.2495 229.932 14.8687V10.7114C229.932 9.66846 229.63 8.88623 229.026 8.36475C228.429 7.84326 227.582 7.58252 226.486 7.58252C225.391 7.58252 224.521 7.85205 223.876 8.39111C223.237 8.92432 222.918 9.5542 222.918 10.2808V10.3423H224.482V10.2896C224.482 9.89697 224.635 9.56006 224.939 9.27881C225.25 8.9917 225.754 8.84814 226.451 8.84814C227.148 8.84814 227.641 9.021 227.928 9.3667C228.215 9.70654 228.358 10.1548 228.358 10.7114V11.3618H226.284C225.147 11.3618 224.213 11.6196 223.48 12.1353C222.748 12.6509 222.382 13.3716 222.382 14.2974ZM223.955 14.2095C223.955 13.6821 224.166 13.2632 224.588 12.9526C225.01 12.6421 225.634 12.4868 226.46 12.4868H228.358V13.8052C228.358 14.3091 228.098 14.7837 227.576 15.229C227.055 15.6685 226.475 15.8882 225.836 15.8882C225.197 15.8882 224.723 15.7417 224.412 15.4487C224.107 15.1499 223.955 14.7368 223.955 14.2095ZM231.883 12.5483C231.883 13.9312 232.255 15.0591 232.999 15.9321C233.749 16.7993 234.777 17.2329 236.084 17.2329C237.291 17.2329 238.208 16.9077 238.835 16.2573C239.468 15.6011 239.784 14.8599 239.784 14.0337V13.981H238.264V14.0337C238.264 14.5493 238.088 14.9976 237.736 15.3784C237.391 15.7534 236.84 15.9409 236.084 15.9409C235.199 15.9409 234.546 15.6157 234.124 14.9653C233.702 14.3091 233.491 13.5034 233.491 12.5483V12.2671C233.491 11.3062 233.702 10.5005 234.124 9.8501C234.552 9.19971 235.205 8.87451 236.084 8.87451C236.84 8.87451 237.391 9.06494 237.736 9.4458C238.082 9.8208 238.255 10.2632 238.255 10.7729V10.8257H239.784V10.7729C239.784 9.95264 239.471 9.21729 238.844 8.56689C238.217 7.91064 237.297 7.58252 236.084 7.58252C234.777 7.58252 233.749 8.01904 232.999 8.89209C232.255 9.75928 231.883 10.8843 231.883 12.2671V12.5483ZM241.665 16.978H243.238V13.8931L248.951 7.8374H247.158L243.238 12.0474V3.53955H241.665V16.978ZM247.527 16.978H249.373L244.952 11.1333L243.968 12.2144L247.527 16.978Z" fill="white"/>
<path d="M169 45.978L165.5 11.478H200" stroke="white" stroke-width="3"/>
</svg>
