<svg width="442" height="301" viewBox="0 0 442 301" fill="none" xmlns="http://www.w3.org/2000/svg">
<circle cx="207" cy="150.978" r="105" stroke="white" stroke-width="30"/>
<path d="M116.067 203.478C123.517 216.382 133.628 227.552 145.728 236.247C157.828 244.941 171.64 250.961 186.246 253.906C200.852 256.852 215.917 256.654 230.441 253.328C244.965 250.002 258.615 243.622 270.483 234.614" stroke="#93A4FE" stroke-width="30"/>
<path d="M116.067 98.478C106.945 114.279 102.097 132.184 102.001 150.428C101.906 168.673 106.566 186.628 115.523 202.523" stroke="#FF74C7" stroke-width="30"/>
<path d="M181.598 49.097C168.757 52.2985 156.638 57.8987 145.877 65.6024" stroke="#FCEB8E" stroke-width="30"/>
<path d="M149.813 62.9176C134.98 72.5501 122.821 85.7733 114.463 101.36" stroke="#9966F6" stroke-width="30"/>
<path d="M207 45.978C198.192 45.978 189.419 47.0863 180.888 49.2768" stroke="#5172F7" stroke-width="30"/>
<path d="M56.459 37.978H57.9971V28.6704C57.9971 28.4888 57.9941 28.2837 57.9883 28.0552C57.9824 27.8267 57.9678 27.6304 57.9443 27.4663H58.0146C58.0498 27.6304 58.1025 27.8267 58.1729 28.0552C58.2432 28.2837 58.3135 28.4888 58.3838 28.6704L62.0225 37.978H63.4375L67.0762 28.6704C67.1465 28.4888 67.2168 28.2896 67.2871 28.0728C67.3574 27.8501 67.4102 27.6479 67.4453 27.4663H67.5156C67.4922 27.6421 67.4775 27.8413 67.4717 28.064C67.4658 28.2866 67.4629 28.4888 67.4629 28.6704V37.978H69.0361V25.1812H66.9355L63.1387 34.8843C63.0684 35.0601 63.001 35.2446 62.9365 35.438C62.8779 35.6255 62.8252 35.8101 62.7783 35.9917H62.7168C62.6699 35.8101 62.6143 35.6255 62.5498 35.438C62.4912 35.2446 62.4268 35.0601 62.3564 34.8843L58.5596 25.1812H56.459V37.978ZM71.8574 37.978H73.4307V28.8374H71.8574V37.978ZM71.6553 26.0249C71.6553 26.2886 71.7402 26.5142 71.9102 26.7017C72.0801 26.8833 72.3232 26.9741 72.6396 26.9741C72.9619 26.9741 73.208 26.8833 73.3779 26.7017C73.5479 26.5142 73.6328 26.2886 73.6328 26.0249C73.6328 25.7554 73.5479 25.5298 73.3779 25.3481C73.208 25.1665 72.9648 25.0757 72.6484 25.0757C72.3262 25.0757 72.0801 25.1665 71.9102 25.3481C71.7402 25.5298 71.6553 25.7554 71.6553 26.0249ZM75.5137 33.5483C75.5137 34.8784 75.8594 35.98 76.5508 36.853C77.2422 37.7202 78.168 38.1538 79.3281 38.1538C79.9668 38.1538 80.5264 38.019 81.0068 37.7495C81.4873 37.48 81.8447 37.1548 82.0791 36.7739H82.123L82.1934 37.978H83.6172V24.5396H82.0439V29.9185C81.7744 29.5376 81.4141 29.2329 80.9629 29.0044C80.5176 28.7759 79.9727 28.6616 79.3281 28.6616C78.1738 28.6616 77.248 29.0981 76.5508 29.9712C75.8594 30.8384 75.5137 31.937 75.5137 33.2671V33.5483ZM77.1221 33.5483V33.2671C77.1221 32.3296 77.3271 31.5444 77.7373 30.9116C78.1475 30.2788 78.792 29.9624 79.6709 29.9624C80.251 29.9624 80.7461 30.1206 81.1562 30.437C81.5664 30.7534 81.8623 31.1167 82.0439 31.5269V35.2798C81.8623 35.6899 81.5664 36.0562 81.1562 36.3784C80.7461 36.7007 80.251 36.8618 79.6709 36.8618C78.792 36.8618 78.1475 36.5454 77.7373 35.9126C77.3271 35.2739 77.1221 34.4858 77.1221 33.5483ZM85.1113 28.8374L87.915 37.978H89.1719L91.1758 31.9927C91.252 31.7642 91.3223 31.5386 91.3867 31.3159C91.4512 31.0874 91.5127 30.8589 91.5713 30.6304H91.624C91.6768 30.8589 91.7354 31.0874 91.7998 31.3159C91.8701 31.5386 91.9404 31.7642 92.0107 31.9927L94.0146 37.978H95.2715L98.084 28.8374H96.6338L94.9902 34.8843C94.9258 35.1128 94.876 35.3062 94.8408 35.4644C94.8057 35.6167 94.7676 35.8042 94.7266 36.0269H94.6738C94.627 35.8042 94.583 35.6167 94.542 35.4644C94.501 35.312 94.4395 35.1187 94.3574 34.8843L92.3096 28.8374H90.9648L88.9697 34.8843C88.8936 35.1187 88.835 35.312 88.7939 35.4644C88.7529 35.6167 88.709 35.8042 88.6621 36.0269H88.6094C88.5684 35.8042 88.5273 35.6167 88.4863 35.4644C88.4453 35.312 88.3926 35.1187 88.3281 34.8843L86.6318 28.8374H85.1113ZM99.0156 33.5483C99.0156 34.9312 99.3906 36.0591 100.141 36.9321C100.896 37.7993 101.978 38.2329 103.384 38.2329C104.251 38.2329 104.986 38.0483 105.59 37.6792C106.193 37.3042 106.636 36.8999 106.917 36.4663L105.906 35.6489C105.643 36.0005 105.3 36.3052 104.878 36.563C104.462 36.8149 103.964 36.9409 103.384 36.9409C102.446 36.9409 101.752 36.6157 101.301 35.9653C100.85 35.3091 100.624 34.5034 100.624 33.5483V33.2671C100.624 32.312 100.838 31.5093 101.266 30.8589C101.693 30.2026 102.338 29.8745 103.199 29.8745C103.92 29.8745 104.468 30.1118 104.843 30.5864C105.224 31.061 105.414 31.6323 105.414 32.3003V32.4937H99.9736V33.7593H106.987V33.1177C106.987 31.7231 106.653 30.6187 105.985 29.8042C105.323 28.9897 104.371 28.5825 103.129 28.5825C101.893 28.5825 100.896 29.019 100.141 29.8921C99.3906 30.7651 99.0156 31.8901 99.0156 33.2671V33.5483ZM108.394 35.271V35.3325C108.394 36.2114 108.707 36.9146 109.334 37.4419C109.967 37.9692 110.887 38.2329 112.094 38.2329C113.307 38.2329 114.215 37.9751 114.818 37.4595C115.422 36.938 115.724 36.2729 115.724 35.4644C115.724 34.6558 115.454 34.0376 114.915 33.6099C114.382 33.1763 113.626 32.8423 112.647 32.6079C111.669 32.3735 111.01 32.1538 110.67 31.9487C110.336 31.7437 110.169 31.4653 110.169 31.1138C110.169 30.7505 110.315 30.4546 110.608 30.2261C110.907 29.9917 111.376 29.8745 112.015 29.8745C112.653 29.8745 113.128 30.0005 113.438 30.2524C113.749 30.4985 113.904 30.8472 113.904 31.2983V31.3862H115.469V31.3335C115.469 30.4839 115.152 29.813 114.52 29.3208C113.887 28.8286 113.052 28.5825 112.015 28.5825C110.983 28.5825 110.157 28.8286 109.536 29.3208C108.921 29.813 108.613 30.437 108.613 31.1929C108.613 31.9429 108.897 32.5259 109.466 32.9419C110.04 33.3579 110.816 33.6831 111.795 33.9175C112.779 34.1519 113.421 34.3804 113.72 34.603C114.024 34.8198 114.177 35.1362 114.177 35.5522C114.177 35.9683 113.989 36.3052 113.614 36.563C113.245 36.8149 112.738 36.9409 112.094 36.9409C111.455 36.9409 110.939 36.8091 110.547 36.5454C110.16 36.2759 109.967 35.8716 109.967 35.3325V35.271H108.394ZM116.436 30.0503H121.63V28.8374H116.436V30.0503ZM118.07 35.7017C118.07 36.5806 118.267 37.2222 118.659 37.6265C119.058 38.0308 119.591 38.2329 120.259 38.2329C120.54 38.2329 120.801 38.2065 121.041 38.1538C121.281 38.1069 121.475 38.0483 121.621 37.978V36.686C121.463 36.7446 121.305 36.7915 121.146 36.8267C120.988 36.8618 120.83 36.8794 120.672 36.8794C120.314 36.8794 120.054 36.7915 119.89 36.6157C119.726 36.4341 119.644 36.1294 119.644 35.7017V26.4819H118.07V29.312V29.5581V35.7017Z" fill="white"/>
<path d="M167.5 50.478L154.164 31.978H126.5" stroke="white" stroke-width="3"/>
<path d="M204.5 253.978L220.336 283.978H258" stroke="white" stroke-width="3"/>
<path d="M265.512 289.978H267.138V277.181H265.512V289.978ZM269.915 289.978H271.488V283.509C271.711 283.058 272.021 282.692 272.42 282.411C272.818 282.129 273.278 281.989 273.8 281.989C274.403 281.989 274.869 282.15 275.197 282.472C275.531 282.789 275.698 283.319 275.698 284.063V289.978H277.271V284.072C277.271 282.847 276.999 281.974 276.454 281.453C275.909 280.925 275.18 280.662 274.266 280.662C273.68 280.662 273.146 280.785 272.666 281.031C272.186 281.271 271.781 281.602 271.453 282.024H271.409L271.339 280.837H269.915V289.978ZM278.467 282.05H283.661V280.837H278.467V282.05ZM280.102 287.702C280.102 288.581 280.298 289.222 280.69 289.626C281.089 290.031 281.622 290.233 282.29 290.233C282.571 290.233 282.832 290.207 283.072 290.154C283.312 290.107 283.506 290.048 283.652 289.978V288.686C283.494 288.745 283.336 288.792 283.178 288.827C283.02 288.862 282.861 288.879 282.703 288.879C282.346 288.879 282.085 288.792 281.921 288.616C281.757 288.434 281.675 288.129 281.675 287.702V278.482H280.102V281.312V281.558V287.702ZM284.795 285.548C284.795 286.931 285.17 288.059 285.92 288.932C286.676 289.799 287.757 290.233 289.163 290.233C290.03 290.233 290.766 290.048 291.369 289.679C291.973 289.304 292.415 288.9 292.696 288.466L291.686 287.649C291.422 288 291.079 288.305 290.657 288.563C290.241 288.815 289.743 288.941 289.163 288.941C288.226 288.941 287.531 288.616 287.08 287.965C286.629 287.309 286.403 286.503 286.403 285.548V285.267C286.403 284.312 286.617 283.509 287.045 282.859C287.473 282.203 288.117 281.875 288.979 281.875C289.699 281.875 290.247 282.112 290.622 282.586C291.003 283.061 291.193 283.632 291.193 284.3V284.494H285.753V285.759H292.767V285.118C292.767 283.723 292.433 282.619 291.765 281.804C291.103 280.99 290.15 280.583 288.908 280.583C287.672 280.583 286.676 281.019 285.92 281.892C285.17 282.765 284.795 283.89 284.795 285.267V285.548ZM294.735 289.978H296.309V283.536C296.49 283.12 296.766 282.774 297.135 282.499C297.504 282.223 297.949 282.085 298.471 282.085C298.623 282.085 298.764 282.094 298.893 282.112C299.021 282.124 299.145 282.141 299.262 282.165V280.706C299.203 280.682 299.104 280.656 298.963 280.626C298.822 280.597 298.688 280.583 298.559 280.583C298.031 280.583 297.577 280.726 297.196 281.013C296.815 281.3 296.508 281.637 296.273 282.024H296.229L296.159 280.837H294.735V289.978ZM300.765 289.978H302.338V283.509C302.561 283.058 302.871 282.692 303.27 282.411C303.668 282.129 304.128 281.989 304.649 281.989C305.253 281.989 305.719 282.15 306.047 282.472C306.381 282.789 306.548 283.319 306.548 284.063V289.978H308.121V284.072C308.121 282.847 307.849 281.974 307.304 281.453C306.759 280.925 306.029 280.662 305.115 280.662C304.529 280.662 303.996 280.785 303.516 281.031C303.035 281.271 302.631 281.602 302.303 282.024H302.259L302.188 280.837H300.765V289.978ZM310.081 287.297C310.081 288.217 310.383 288.923 310.986 289.416C311.59 289.902 312.328 290.145 313.201 290.145C313.957 290.145 314.575 290.001 315.056 289.714C315.536 289.421 315.882 289.084 316.093 288.704C316.11 288.938 316.151 289.172 316.216 289.407C316.286 289.641 316.362 289.832 316.444 289.978H317.965V289.837C317.859 289.58 317.777 289.284 317.719 288.95C317.66 288.61 317.631 288.25 317.631 287.869V283.711C317.631 282.668 317.329 281.886 316.726 281.365C316.128 280.843 315.281 280.583 314.186 280.583C313.09 280.583 312.22 280.852 311.575 281.391C310.937 281.924 310.617 282.554 310.617 283.281V283.342H312.182V283.29C312.182 282.897 312.334 282.56 312.639 282.279C312.949 281.992 313.453 281.848 314.15 281.848C314.848 281.848 315.34 282.021 315.627 282.367C315.914 282.707 316.058 283.155 316.058 283.711V284.362H313.983C312.847 284.362 311.912 284.62 311.18 285.135C310.447 285.651 310.081 286.372 310.081 287.297ZM311.654 287.209C311.654 286.682 311.865 286.263 312.287 285.953C312.709 285.642 313.333 285.487 314.159 285.487H316.058V286.805C316.058 287.309 315.797 287.784 315.275 288.229C314.754 288.668 314.174 288.888 313.535 288.888C312.896 288.888 312.422 288.742 312.111 288.449C311.807 288.15 311.654 287.737 311.654 287.209ZM318.861 282.05H324.056V280.837H318.861V282.05ZM320.496 287.702C320.496 288.581 320.692 289.222 321.085 289.626C321.483 290.031 322.017 290.233 322.685 290.233C322.966 290.233 323.227 290.207 323.467 290.154C323.707 290.107 323.9 290.048 324.047 289.978V288.686C323.889 288.745 323.73 288.792 323.572 288.827C323.414 288.862 323.256 288.879 323.098 288.879C322.74 288.879 322.479 288.792 322.315 288.616C322.151 288.434 322.069 288.129 322.069 287.702V278.482H320.496V281.312V281.558V287.702ZM325.822 289.978H327.396V280.837H325.822V289.978ZM325.62 278.025C325.62 278.289 325.705 278.514 325.875 278.702C326.045 278.883 326.288 278.974 326.604 278.974C326.927 278.974 327.173 278.883 327.343 278.702C327.513 278.514 327.598 278.289 327.598 278.025C327.598 277.755 327.513 277.53 327.343 277.348C327.173 277.167 326.93 277.076 326.613 277.076C326.291 277.076 326.045 277.167 325.875 277.348C325.705 277.53 325.62 277.755 325.62 278.025ZM329.479 285.548C329.479 286.925 329.868 288.05 330.647 288.923C331.427 289.796 332.47 290.233 333.776 290.233C335.077 290.233 336.117 289.796 336.896 288.923C337.676 288.05 338.065 286.925 338.065 285.548V285.267C338.065 283.89 337.676 282.765 336.896 281.892C336.117 281.019 335.077 280.583 333.776 280.583C332.47 280.583 331.427 281.019 330.647 281.892C329.868 282.765 329.479 283.89 329.479 285.267V285.548ZM331.087 285.267C331.087 284.312 331.312 283.509 331.764 282.859C332.215 282.203 332.883 281.875 333.768 281.875C334.658 281.875 335.329 282.203 335.78 282.859C336.231 283.509 336.457 284.312 336.457 285.267V285.548C336.457 286.503 336.231 287.309 335.78 287.965C335.329 288.616 334.658 288.941 333.768 288.941C332.883 288.941 332.215 288.616 331.764 287.965C331.312 287.309 331.087 286.503 331.087 285.548V285.267ZM340.069 289.978H341.643V283.509C341.865 283.058 342.176 282.692 342.574 282.411C342.973 282.129 343.433 281.989 343.954 281.989C344.558 281.989 345.023 282.15 345.352 282.472C345.686 282.789 345.853 283.319 345.853 284.063V289.978H347.426V284.072C347.426 282.847 347.153 281.974 346.608 281.453C346.063 280.925 345.334 280.662 344.42 280.662C343.834 280.662 343.301 280.785 342.82 281.031C342.34 281.271 341.936 281.602 341.607 282.024H341.563L341.493 280.837H340.069V289.978ZM349.386 287.297C349.386 288.217 349.688 288.923 350.291 289.416C350.895 289.902 351.633 290.145 352.506 290.145C353.262 290.145 353.88 290.001 354.36 289.714C354.841 289.421 355.187 289.084 355.397 288.704C355.415 288.938 355.456 289.172 355.521 289.407C355.591 289.641 355.667 289.832 355.749 289.978H357.27V289.837C357.164 289.58 357.082 289.284 357.023 288.95C356.965 288.61 356.936 288.25 356.936 287.869V283.711C356.936 282.668 356.634 281.886 356.03 281.365C355.433 280.843 354.586 280.583 353.49 280.583C352.395 280.583 351.524 280.852 350.88 281.391C350.241 281.924 349.922 282.554 349.922 283.281V283.342H351.486V283.29C351.486 282.897 351.639 282.56 351.943 282.279C352.254 281.992 352.758 281.848 353.455 281.848C354.152 281.848 354.645 282.021 354.932 282.367C355.219 282.707 355.362 283.155 355.362 283.711V284.362H353.288C352.151 284.362 351.217 284.62 350.484 285.135C349.752 285.651 349.386 286.372 349.386 287.297ZM350.959 287.209C350.959 286.682 351.17 286.263 351.592 285.953C352.014 285.642 352.638 285.487 353.464 285.487H355.362V286.805C355.362 287.309 355.102 287.784 354.58 288.229C354.059 288.668 353.479 288.888 352.84 288.888C352.201 288.888 351.727 288.742 351.416 288.449C351.111 288.15 350.959 287.737 350.959 287.209ZM359.511 289.978H361.084V276.54H359.511V289.978Z" fill="white"/>
<path d="M306 107.978L328.836 88.978H358.5" stroke="white" stroke-width="3"/>
<path d="M363.791 91.4888C363.791 92.6489 364.207 93.563 365.039 94.231C365.877 94.8989 366.987 95.2329 368.37 95.2329C369.747 95.2329 370.84 94.8989 371.648 94.231C372.457 93.563 372.861 92.7046 372.861 91.6558C372.861 90.6128 372.554 89.8013 371.938 89.2212C371.323 88.6411 370.339 88.1548 368.985 87.7622C367.638 87.3696 366.744 87.0093 366.305 86.6812C365.871 86.353 365.654 85.9048 365.654 85.3364C365.654 84.7153 365.868 84.2231 366.296 83.8599C366.724 83.4966 367.386 83.3149 368.282 83.3149C369.179 83.3149 369.853 83.5259 370.304 83.9478C370.761 84.3638 370.989 84.9175 370.989 85.6089V85.7495H372.615V85.6089C372.615 84.5308 372.223 83.6489 371.438 82.9634C370.658 82.272 369.606 81.9263 368.282 81.9263C366.958 81.9263 365.921 82.2544 365.171 82.9106C364.427 83.5669 364.055 84.3901 364.055 85.3804C364.055 86.3823 364.342 87.1528 364.916 87.6919C365.496 88.2251 366.472 88.6968 367.843 89.1069C369.167 89.4995 370.066 89.8745 370.541 90.2319C371.016 90.5835 371.253 91.0581 371.253 91.6558C371.253 92.312 371.004 92.8423 370.506 93.2466C370.014 93.645 369.302 93.8442 368.37 93.8442C367.438 93.8442 366.712 93.6479 366.19 93.2554C365.675 92.8628 365.417 92.2739 365.417 91.4888V91.3394H363.791V91.4888ZM374.285 90.5483C374.285 91.9253 374.675 93.0503 375.454 93.9233C376.233 94.7964 377.276 95.2329 378.583 95.2329C379.884 95.2329 380.924 94.7964 381.703 93.9233C382.482 93.0503 382.872 91.9253 382.872 90.5483V90.2671C382.872 88.8901 382.482 87.7651 381.703 86.8921C380.924 86.019 379.884 85.5825 378.583 85.5825C377.276 85.5825 376.233 86.019 375.454 86.8921C374.675 87.7651 374.285 88.8901 374.285 90.2671V90.5483ZM375.894 90.2671C375.894 89.312 376.119 88.5093 376.57 87.8589C377.021 87.2026 377.689 86.8745 378.574 86.8745C379.465 86.8745 380.136 87.2026 380.587 87.8589C381.038 88.5093 381.264 89.312 381.264 90.2671V90.5483C381.264 91.5034 381.038 92.3091 380.587 92.9653C380.136 93.6157 379.465 93.9409 378.574 93.9409C377.689 93.9409 377.021 93.6157 376.57 92.9653C376.119 92.3091 375.894 91.5034 375.894 90.5483V90.2671ZM384.788 91.7524C384.788 92.9771 385.061 93.8501 385.605 94.3716C386.15 94.8931 386.883 95.1538 387.803 95.1538C388.383 95.1538 388.913 95.0337 389.394 94.7935C389.874 94.5474 390.278 94.2134 390.606 93.7915H390.659L390.721 94.978H392.145V85.8374H390.571V92.3062C390.349 92.7573 390.038 93.1235 389.64 93.4048C389.241 93.686 388.784 93.8267 388.269 93.8267C387.659 93.8267 387.188 93.6685 386.854 93.3521C386.525 93.0356 386.361 92.5083 386.361 91.77V85.8374H384.788V91.7524ZM393.428 87.0503H398.622V85.8374H393.428V87.0503ZM395.062 92.7017C395.062 93.5806 395.259 94.2222 395.651 94.6265C396.05 95.0308 396.583 95.2329 397.251 95.2329C397.532 95.2329 397.793 95.2065 398.033 95.1538C398.273 95.1069 398.467 95.0483 398.613 94.978V93.686C398.455 93.7446 398.297 93.7915 398.139 93.8267C397.98 93.8618 397.822 93.8794 397.664 93.8794C397.307 93.8794 397.046 93.7915 396.882 93.6157C396.718 93.4341 396.636 93.1294 396.636 92.7017V83.4819H395.062V86.312V86.5581V92.7017ZM400.31 94.978H401.883V88.5093C402.105 88.064 402.416 87.7007 402.814 87.4194C403.213 87.1323 403.673 86.9888 404.194 86.9888C404.798 86.9888 405.264 87.1499 405.592 87.4722C405.926 87.7886 406.093 88.3159 406.093 89.0542V94.978H407.666V89.0718C407.666 87.8472 407.394 86.9741 406.849 86.4526C406.304 85.9253 405.606 85.6616 404.757 85.6616C404.159 85.6616 403.611 85.7817 403.113 86.022C402.615 86.2622 402.205 86.5815 401.883 86.98V81.5396H400.31V94.978ZM409.582 90.5483C409.582 91.9312 409.957 93.0591 410.707 93.9321C411.463 94.7993 412.544 95.2329 413.95 95.2329C414.817 95.2329 415.553 95.0483 416.156 94.6792C416.76 94.3042 417.202 93.8999 417.483 93.4663L416.473 92.6489C416.209 93.0005 415.866 93.3052 415.444 93.563C415.028 93.8149 414.53 93.9409 413.95 93.9409C413.013 93.9409 412.318 93.6157 411.867 92.9653C411.416 92.3091 411.19 91.5034 411.19 90.5483V90.2671C411.19 89.312 411.404 88.5093 411.832 87.8589C412.26 87.2026 412.904 86.8745 413.766 86.8745C414.486 86.8745 415.034 87.1118 415.409 87.5864C415.79 88.061 415.98 88.6323 415.98 89.3003V89.4937H410.54V90.7593H417.554V90.1177C417.554 88.7231 417.22 87.6187 416.552 86.8042C415.89 85.9897 414.938 85.5825 413.695 85.5825C412.459 85.5825 411.463 86.019 410.707 86.8921C409.957 87.7651 409.582 88.8901 409.582 90.2671V90.5483ZM419.013 92.2974C419.013 93.2173 419.314 93.9233 419.918 94.4155C420.521 94.9019 421.26 95.145 422.133 95.145C422.889 95.145 423.507 95.0015 423.987 94.7144C424.468 94.4214 424.813 94.0845 425.024 93.7036C425.042 93.938 425.083 94.1724 425.147 94.4067C425.218 94.6411 425.294 94.8315 425.376 94.978H426.896V94.8374C426.791 94.5796 426.709 94.2837 426.65 93.9497C426.592 93.6099 426.562 93.2495 426.562 92.8687V88.7114C426.562 87.6685 426.261 86.8862 425.657 86.3647C425.06 85.8433 424.213 85.5825 423.117 85.5825C422.021 85.5825 421.151 85.8521 420.507 86.3911C419.868 86.9243 419.549 87.5542 419.549 88.2808V88.3423H421.113V88.2896C421.113 87.897 421.266 87.5601 421.57 87.2788C421.881 86.9917 422.385 86.8481 423.082 86.8481C423.779 86.8481 424.271 87.021 424.559 87.3667C424.846 87.7065 424.989 88.1548 424.989 88.7114V89.3618H422.915C421.778 89.3618 420.844 89.6196 420.111 90.1353C419.379 90.6509 419.013 91.3716 419.013 92.2974ZM420.586 92.2095C420.586 91.6821 420.797 91.2632 421.219 90.9526C421.641 90.6421 422.265 90.4868 423.091 90.4868H424.989V91.8052C424.989 92.3091 424.729 92.7837 424.207 93.229C423.686 93.6685 423.105 93.8882 422.467 93.8882C421.828 93.8882 421.354 93.7417 421.043 93.4487C420.738 93.1499 420.586 92.7368 420.586 92.2095ZM428.505 92.271V92.3325C428.505 93.2114 428.818 93.9146 429.445 94.4419C430.078 94.9692 430.998 95.2329 432.205 95.2329C433.418 95.2329 434.326 94.9751 434.93 94.4595C435.533 93.938 435.835 93.2729 435.835 92.4644C435.835 91.6558 435.565 91.0376 435.026 90.6099C434.493 90.1763 433.737 89.8423 432.759 89.6079C431.78 89.3735 431.121 89.1538 430.781 88.9487C430.447 88.7437 430.28 88.4653 430.28 88.1138C430.28 87.7505 430.427 87.4546 430.72 87.2261C431.019 86.9917 431.487 86.8745 432.126 86.8745C432.765 86.8745 433.239 87.0005 433.55 87.2524C433.86 87.4985 434.016 87.8472 434.016 88.2983V88.3862H435.58V88.3335C435.58 87.4839 435.264 86.813 434.631 86.3208C433.998 85.8286 433.163 85.5825 432.126 85.5825C431.095 85.5825 430.269 85.8286 429.647 86.3208C429.032 86.813 428.725 87.437 428.725 88.1929C428.725 88.9429 429.009 89.5259 429.577 89.9419C430.151 90.3579 430.928 90.6831 431.906 90.9175C432.891 91.1519 433.532 91.3804 433.831 91.603C434.136 91.8198 434.288 92.1362 434.288 92.5522C434.288 92.9683 434.101 93.3052 433.726 93.563C433.356 93.8149 432.85 93.9409 432.205 93.9409C431.566 93.9409 431.051 93.8091 430.658 93.5454C430.271 93.2759 430.078 92.8716 430.078 92.3325V92.271H428.505ZM436.547 87.0503H441.741V85.8374H436.547V87.0503ZM438.182 92.7017C438.182 93.5806 438.378 94.2222 438.771 94.6265C439.169 95.0308 439.702 95.2329 440.37 95.2329C440.651 95.2329 440.912 95.2065 441.152 95.1538C441.393 95.1069 441.586 95.0483 441.732 94.978V93.686C441.574 93.7446 441.416 93.7915 441.258 93.8267C441.1 93.8618 440.941 93.8794 440.783 93.8794C440.426 93.8794 440.165 93.7915 440.001 93.6157C439.837 93.4341 439.755 93.1294 439.755 92.7017V83.4819H438.182V86.312V86.5581V92.7017Z" fill="white"/>
<path d="M233.791 13.4888C233.791 14.6489 234.207 15.563 235.039 16.231C235.877 16.8989 236.987 17.2329 238.37 17.2329C239.747 17.2329 240.84 16.8989 241.648 16.231C242.457 15.563 242.861 14.7046 242.861 13.6558C242.861 12.6128 242.554 11.8013 241.938 11.2212C241.323 10.6411 240.339 10.1548 238.985 9.76221C237.638 9.36963 236.744 9.00928 236.305 8.68115C235.871 8.35303 235.654 7.90479 235.654 7.33643C235.654 6.71533 235.868 6.22314 236.296 5.85986C236.724 5.49658 237.386 5.31494 238.282 5.31494C239.179 5.31494 239.853 5.52588 240.304 5.94775C240.761 6.36377 240.989 6.91748 240.989 7.60889V7.74951H242.615V7.60889C242.615 6.53076 242.223 5.64893 241.438 4.96338C240.658 4.27197 239.606 3.92627 238.282 3.92627C236.958 3.92627 235.921 4.25439 235.171 4.91064C234.427 5.56689 234.055 6.39014 234.055 7.38037C234.055 8.38232 234.342 9.15283 234.916 9.69189C235.496 10.2251 236.472 10.6968 237.843 11.1069C239.167 11.4995 240.066 11.8745 240.541 12.2319C241.016 12.5835 241.253 13.0581 241.253 13.6558C241.253 14.312 241.004 14.8423 240.506 15.2466C240.014 15.645 239.302 15.8442 238.37 15.8442C237.438 15.8442 236.712 15.6479 236.19 15.2554C235.675 14.8628 235.417 14.2739 235.417 13.4888V13.3394H233.791V13.4888ZM244.285 12.5483C244.285 13.9253 244.675 15.0503 245.454 15.9233C246.233 16.7964 247.276 17.2329 248.583 17.2329C249.884 17.2329 250.924 16.7964 251.703 15.9233C252.482 15.0503 252.872 13.9253 252.872 12.5483V12.2671C252.872 10.8901 252.482 9.76514 251.703 8.89209C250.924 8.01904 249.884 7.58252 248.583 7.58252C247.276 7.58252 246.233 8.01904 245.454 8.89209C244.675 9.76514 244.285 10.8901 244.285 12.2671V12.5483ZM245.894 12.2671C245.894 11.312 246.119 10.5093 246.57 9.85889C247.021 9.20264 247.689 8.87451 248.574 8.87451C249.465 8.87451 250.136 9.20264 250.587 9.85889C251.038 10.5093 251.264 11.312 251.264 12.2671V12.5483C251.264 13.5034 251.038 14.3091 250.587 14.9653C250.136 15.6157 249.465 15.9409 248.574 15.9409C247.689 15.9409 247.021 15.6157 246.57 14.9653C246.119 14.3091 245.894 13.5034 245.894 12.5483V12.2671ZM254.788 13.7524C254.788 14.9771 255.061 15.8501 255.605 16.3716C256.15 16.8931 256.883 17.1538 257.803 17.1538C258.383 17.1538 258.913 17.0337 259.394 16.7935C259.874 16.5474 260.278 16.2134 260.606 15.7915H260.659L260.721 16.978H262.145V7.8374H260.571V14.3062C260.349 14.7573 260.038 15.1235 259.64 15.4048C259.241 15.686 258.784 15.8267 258.269 15.8267C257.659 15.8267 257.188 15.6685 256.854 15.3521C256.525 15.0356 256.361 14.5083 256.361 13.77V7.8374H254.788V13.7524ZM263.428 9.05029H268.622V7.8374H263.428V9.05029ZM265.062 14.7017C265.062 15.5806 265.259 16.2222 265.651 16.6265C266.05 17.0308 266.583 17.2329 267.251 17.2329C267.532 17.2329 267.793 17.2065 268.033 17.1538C268.273 17.1069 268.467 17.0483 268.613 16.978V15.686C268.455 15.7446 268.297 15.7915 268.139 15.8267C267.98 15.8618 267.822 15.8794 267.664 15.8794C267.307 15.8794 267.046 15.7915 266.882 15.6157C266.718 15.4341 266.636 15.1294 266.636 14.7017V5.48193H265.062V8.31201V8.55811V14.7017ZM270.31 16.978H271.883V10.5093C272.105 10.064 272.416 9.70068 272.814 9.41943C273.213 9.13232 273.673 8.98877 274.194 8.98877C274.798 8.98877 275.264 9.1499 275.592 9.47217C275.926 9.78857 276.093 10.3159 276.093 11.0542V16.978H277.666V11.0718C277.666 9.84717 277.394 8.97412 276.849 8.45264C276.304 7.92529 275.606 7.66162 274.757 7.66162C274.159 7.66162 273.611 7.78174 273.113 8.02197C272.615 8.26221 272.205 8.58154 271.883 8.97998V3.53955H270.31V16.978ZM279.072 7.8374L281.876 16.978H283.133L285.137 10.9927C285.213 10.7642 285.283 10.5386 285.348 10.3159C285.412 10.0874 285.474 9.85889 285.532 9.63037H285.585C285.638 9.85889 285.696 10.0874 285.761 10.3159C285.831 10.5386 285.901 10.7642 285.972 10.9927L287.976 16.978H289.232L292.045 7.8374H290.595L288.951 13.8843C288.887 14.1128 288.837 14.3062 288.802 14.4644C288.767 14.6167 288.729 14.8042 288.688 15.0269H288.635C288.588 14.8042 288.544 14.6167 288.503 14.4644C288.462 14.312 288.4 14.1187 288.318 13.8843L286.271 7.8374H284.926L282.931 13.8843C282.854 14.1187 282.796 14.312 282.755 14.4644C282.714 14.6167 282.67 14.8042 282.623 15.0269H282.57C282.529 14.8042 282.488 14.6167 282.447 14.4644C282.406 14.312 282.354 14.1187 282.289 13.8843L280.593 7.8374H279.072ZM292.977 12.5483C292.977 13.9312 293.352 15.0591 294.102 15.9321C294.857 16.7993 295.938 17.2329 297.345 17.2329C298.212 17.2329 298.947 17.0483 299.551 16.6792C300.154 16.3042 300.597 15.8999 300.878 15.4663L299.867 14.6489C299.604 15.0005 299.261 15.3052 298.839 15.563C298.423 15.8149 297.925 15.9409 297.345 15.9409C296.407 15.9409 295.713 15.6157 295.262 14.9653C294.811 14.3091 294.585 13.5034 294.585 12.5483V12.2671C294.585 11.312 294.799 10.5093 295.227 9.85889C295.654 9.20264 296.299 8.87451 297.16 8.87451C297.881 8.87451 298.429 9.11182 298.804 9.58643C299.185 10.061 299.375 10.6323 299.375 11.3003V11.4937H293.935V12.7593H300.948V12.1177C300.948 10.7231 300.614 9.61865 299.946 8.8042C299.284 7.98975 298.332 7.58252 297.09 7.58252C295.854 7.58252 294.857 8.01904 294.102 8.89209C293.352 9.76514 292.977 10.8901 292.977 12.2671V12.5483ZM302.354 14.271V14.3325C302.354 15.2114 302.668 15.9146 303.295 16.4419C303.928 16.9692 304.848 17.2329 306.055 17.2329C307.268 17.2329 308.176 16.9751 308.779 16.4595C309.383 15.938 309.685 15.2729 309.685 14.4644C309.685 13.6558 309.415 13.0376 308.876 12.6099C308.343 12.1763 307.587 11.8423 306.608 11.6079C305.63 11.3735 304.971 11.1538 304.631 10.9487C304.297 10.7437 304.13 10.4653 304.13 10.1138C304.13 9.75049 304.276 9.45459 304.569 9.22607C304.868 8.9917 305.337 8.87451 305.976 8.87451C306.614 8.87451 307.089 9.00049 307.399 9.25244C307.71 9.49854 307.865 9.84717 307.865 10.2983V10.3862H309.43V10.3335C309.43 9.48389 309.113 8.81299 308.48 8.3208C307.848 7.82861 307.013 7.58252 305.976 7.58252C304.944 7.58252 304.118 7.82861 303.497 8.3208C302.882 8.81299 302.574 9.43701 302.574 10.1929C302.574 10.9429 302.858 11.5259 303.427 11.9419C304.001 12.3579 304.777 12.6831 305.756 12.9175C306.74 13.1519 307.382 13.3804 307.681 13.603C307.985 13.8198 308.138 14.1362 308.138 14.5522C308.138 14.9683 307.95 15.3052 307.575 15.563C307.206 15.8149 306.699 15.9409 306.055 15.9409C305.416 15.9409 304.9 15.8091 304.508 15.5454C304.121 15.2759 303.928 14.8716 303.928 14.3325V14.271H302.354ZM310.396 9.05029H315.591V7.8374H310.396V9.05029ZM312.031 14.7017C312.031 15.5806 312.228 16.2222 312.62 16.6265C313.019 17.0308 313.552 17.2329 314.22 17.2329C314.501 17.2329 314.762 17.2065 315.002 17.1538C315.242 17.1069 315.436 17.0483 315.582 16.978V15.686C315.424 15.7446 315.266 15.7915 315.107 15.8267C314.949 15.8618 314.791 15.8794 314.633 15.8794C314.275 15.8794 314.015 15.7915 313.851 15.6157C313.687 15.4341 313.604 15.1294 313.604 14.7017V5.48193H312.031V8.31201V8.55811V14.7017Z" fill="white"/>
<path d="M195.5 45.978L192 11.478H226.5" stroke="white" stroke-width="3"/>
<path d="M12.5332 112.066H14.1152L16.6025 102.451C16.6553 102.263 16.6992 102.082 16.7344 101.906C16.7695 101.724 16.8018 101.537 16.8311 101.343H16.9014C16.9307 101.537 16.9629 101.724 16.998 101.906C17.0391 102.082 17.083 102.263 17.1299 102.451L19.6172 112.066H21.208L24.3281 99.1812H22.7285L20.6104 108.752C20.5693 108.946 20.5371 109.104 20.5137 109.227C20.4902 109.35 20.4668 109.508 20.4434 109.702H20.3643C20.3408 109.508 20.3174 109.35 20.2939 109.227C20.2764 109.104 20.2412 108.946 20.1885 108.752L17.71 99.1812H16.0488L13.6494 108.752C13.6025 108.946 13.5674 109.104 13.5439 109.227C13.5205 109.35 13.4971 109.508 13.4736 109.702H13.3945C13.3711 109.508 13.3477 109.35 13.3242 109.227C13.3066 109.104 13.2744 108.946 13.2275 108.752L11.0303 99.1812H9.4043L12.5332 112.066ZM25.1719 107.548C25.1719 108.931 25.5469 110.059 26.2969 110.932C27.0527 111.799 28.1338 112.233 29.54 112.233C30.4072 112.233 31.1426 112.048 31.7461 111.679C32.3496 111.304 32.792 110.9 33.0732 110.466L32.0625 109.649C31.7988 110 31.4561 110.305 31.0342 110.563C30.6182 110.815 30.1201 110.941 29.54 110.941C28.6025 110.941 27.9082 110.616 27.457 109.965C27.0059 109.309 26.7803 108.503 26.7803 107.548V107.267C26.7803 106.312 26.9941 105.509 27.4219 104.859C27.8496 104.203 28.4941 103.875 29.3555 103.875C30.0762 103.875 30.624 104.112 30.999 104.586C31.3799 105.061 31.5703 105.632 31.5703 106.3V106.494H26.1299V107.759H33.1436V107.118C33.1436 105.723 32.8096 104.619 32.1416 103.804C31.4795 102.99 30.5273 102.583 29.2852 102.583C28.0488 102.583 27.0527 103.019 26.2969 103.892C25.5469 104.765 25.1719 105.89 25.1719 107.267V107.548ZM34.5498 109.271V109.333C34.5498 110.211 34.8633 110.915 35.4902 111.442C36.123 111.969 37.043 112.233 38.25 112.233C39.4629 112.233 40.3711 111.975 40.9746 111.459C41.5781 110.938 41.8799 110.273 41.8799 109.464C41.8799 108.656 41.6104 108.038 41.0713 107.61C40.5381 107.176 39.7822 106.842 38.8037 106.608C37.8252 106.374 37.166 106.154 36.8262 105.949C36.4922 105.744 36.3252 105.465 36.3252 105.114C36.3252 104.75 36.4717 104.455 36.7646 104.226C37.0635 103.992 37.5322 103.875 38.1709 103.875C38.8096 103.875 39.2842 104 39.5947 104.252C39.9053 104.499 40.0605 104.847 40.0605 105.298V105.386H41.625V105.333C41.625 104.484 41.3086 103.813 40.6758 103.321C40.043 102.829 39.208 102.583 38.1709 102.583C37.1396 102.583 36.3135 102.829 35.6924 103.321C35.0771 103.813 34.7695 104.437 34.7695 105.193C34.7695 105.943 35.0537 106.526 35.6221 106.942C36.1963 107.358 36.9727 107.683 37.9512 107.917C38.9355 108.152 39.5771 108.38 39.876 108.603C40.1807 108.82 40.333 109.136 40.333 109.552C40.333 109.968 40.1455 110.305 39.7705 110.563C39.4014 110.815 38.8945 110.941 38.25 110.941C37.6113 110.941 37.0957 110.809 36.7031 110.545C36.3164 110.276 36.123 109.872 36.123 109.333V109.271H34.5498ZM42.5918 104.05H47.7861V102.837H42.5918V104.05ZM44.2266 109.702C44.2266 110.581 44.4229 111.222 44.8154 111.626C45.2139 112.031 45.7471 112.233 46.415 112.233C46.6963 112.233 46.957 112.207 47.1973 112.154C47.4375 112.107 47.6309 112.048 47.7773 111.978V110.686C47.6191 110.745 47.4609 110.792 47.3027 110.827C47.1445 110.862 46.9863 110.879 46.8281 110.879C46.4707 110.879 46.21 110.792 46.0459 110.616C45.8818 110.434 45.7998 110.129 45.7998 109.702V100.482H44.2266V103.312V103.558V109.702ZM9.98438 126.975C9.98438 128.961 10.4795 130.502 11.4697 131.598C12.46 132.688 13.7109 133.233 15.2227 133.233C16.7285 133.233 17.877 132.82 18.668 131.994C19.459 131.167 19.9072 130.166 20.0127 128.988L20.0215 128.874H18.3955L18.3867 128.979C18.3105 129.805 18.0146 130.491 17.499 131.036C16.9893 131.575 16.2334 131.844 15.2314 131.844C14.1709 131.844 13.3037 131.417 12.6299 130.561C11.9619 129.7 11.6279 128.504 11.6279 126.975V126.184C11.6279 124.538 11.9619 123.316 12.6299 122.519C13.3037 121.716 14.168 121.315 15.2227 121.315C16.2891 121.315 17.083 121.584 17.6045 122.124C18.1318 122.657 18.3955 123.342 18.3955 124.18V124.286H20.0215V124.18C20.0215 122.991 19.5967 121.986 18.7471 121.166C17.9033 120.339 16.7285 119.926 15.2227 119.926C13.7227 119.926 12.4746 120.471 11.4785 121.561C10.4824 122.651 9.98438 124.192 9.98438 126.184V126.975ZM21.4629 128.548C21.4629 129.925 21.8525 131.05 22.6318 131.923C23.4111 132.796 24.4541 133.233 25.7607 133.233C27.0615 133.233 28.1016 132.796 28.8809 131.923C29.6602 131.05 30.0498 129.925 30.0498 128.548V128.267C30.0498 126.89 29.6602 125.765 28.8809 124.892C28.1016 124.019 27.0615 123.583 25.7607 123.583C24.4541 123.583 23.4111 124.019 22.6318 124.892C21.8525 125.765 21.4629 126.89 21.4629 128.267V128.548ZM23.0713 128.267C23.0713 127.312 23.2969 126.509 23.748 125.859C24.1992 125.203 24.8672 124.875 25.752 124.875C26.6426 124.875 27.3135 125.203 27.7646 125.859C28.2158 126.509 28.4414 127.312 28.4414 128.267V128.548C28.4414 129.503 28.2158 130.309 27.7646 130.965C27.3135 131.616 26.6426 131.941 25.752 131.941C24.8672 131.941 24.1992 131.616 23.748 130.965C23.2969 130.309 23.0713 129.503 23.0713 128.548V128.267ZM31.5439 130.297C31.5439 131.217 31.8457 131.923 32.4492 132.416C33.0527 132.902 33.791 133.145 34.6641 133.145C35.4199 133.145 36.0381 133.001 36.5186 132.714C36.999 132.421 37.3447 132.084 37.5557 131.704C37.5732 131.938 37.6143 132.172 37.6787 132.407C37.749 132.641 37.8252 132.832 37.9072 132.978H39.4277V132.837C39.3223 132.58 39.2402 132.284 39.1816 131.95C39.123 131.61 39.0938 131.25 39.0938 130.869V126.711C39.0938 125.668 38.792 124.886 38.1885 124.365C37.5908 123.843 36.7441 123.583 35.6484 123.583C34.5527 123.583 33.6826 123.852 33.0381 124.391C32.3994 124.924 32.0801 125.554 32.0801 126.281V126.342H33.6445V126.29C33.6445 125.897 33.7969 125.56 34.1016 125.279C34.4121 124.992 34.916 124.848 35.6133 124.848C36.3105 124.848 36.8027 125.021 37.0898 125.367C37.377 125.707 37.5205 126.155 37.5205 126.711V127.362H35.4463C34.3096 127.362 33.375 127.62 32.6426 128.135C31.9102 128.651 31.5439 129.372 31.5439 130.297ZM33.1172 130.209C33.1172 129.682 33.3281 129.263 33.75 128.953C34.1719 128.642 34.7959 128.487 35.6221 128.487H37.5205V129.805C37.5205 130.309 37.2598 130.784 36.7383 131.229C36.2168 131.668 35.6367 131.888 34.998 131.888C34.3594 131.888 33.8848 131.742 33.5742 131.449C33.2695 131.15 33.1172 130.737 33.1172 130.209ZM41.0361 130.271V130.333C41.0361 131.211 41.3496 131.915 41.9766 132.442C42.6094 132.969 43.5293 133.233 44.7363 133.233C45.9492 133.233 46.8574 132.975 47.4609 132.459C48.0645 131.938 48.3662 131.273 48.3662 130.464C48.3662 129.656 48.0967 129.038 47.5576 128.61C47.0244 128.176 46.2686 127.842 45.29 127.608C44.3115 127.374 43.6523 127.154 43.3125 126.949C42.9785 126.744 42.8115 126.465 42.8115 126.114C42.8115 125.75 42.958 125.455 43.251 125.226C43.5498 124.992 44.0186 124.875 44.6572 124.875C45.2959 124.875 45.7705 125 46.0811 125.252C46.3916 125.499 46.5469 125.847 46.5469 126.298V126.386H48.1113V126.333C48.1113 125.484 47.7949 124.813 47.1621 124.321C46.5293 123.829 45.6943 123.583 44.6572 123.583C43.626 123.583 42.7998 123.829 42.1787 124.321C41.5635 124.813 41.2559 125.437 41.2559 126.193C41.2559 126.943 41.54 127.526 42.1084 127.942C42.6826 128.358 43.459 128.683 44.4375 128.917C45.4219 129.152 46.0635 129.38 46.3623 129.603C46.667 129.82 46.8193 130.136 46.8193 130.552C46.8193 130.968 46.6318 131.305 46.2568 131.563C45.8877 131.815 45.3809 131.941 44.7363 131.941C44.0977 131.941 43.582 131.809 43.1895 131.545C42.8027 131.276 42.6094 130.872 42.6094 130.333V130.271H41.0361ZM49.0781 125.05H54.2725V123.837H49.0781V125.05ZM50.7129 130.702C50.7129 131.581 50.9092 132.222 51.3018 132.626C51.7002 133.031 52.2334 133.233 52.9014 133.233C53.1826 133.233 53.4434 133.207 53.6836 133.154C53.9238 133.107 54.1172 133.048 54.2637 132.978V131.686C54.1055 131.745 53.9473 131.792 53.7891 131.827C53.6309 131.862 53.4727 131.879 53.3145 131.879C52.957 131.879 52.6963 131.792 52.5322 131.616C52.3682 131.434 52.2861 131.129 52.2861 130.702V121.482H50.7129V124.312V124.558V130.702Z" fill="white"/>
<path d="M102 125.978L85.1637 111.978H57.5" stroke="white" stroke-width="3"/>
<path d="M0.458984 69.978H2.0498V61.0659C2.0498 60.8901 2.04688 60.6909 2.04102 60.4683C2.04102 60.2456 2.03809 60.0464 2.03223 59.8706H2.08496C2.16699 60.0171 2.25488 60.1812 2.34863 60.3628C2.44824 60.5386 2.55664 60.7144 2.67383 60.8901L8.43066 69.978H10.127V57.1812H8.54492V66.0933C8.54492 66.269 8.54492 66.4683 8.54492 66.6909C8.55078 66.9077 8.55664 67.104 8.5625 67.2798H8.49219C8.42188 67.1333 8.33691 66.9722 8.2373 66.7964C8.1377 66.6206 8.03223 66.4419 7.9209 66.2603L2.16406 57.1812H0.458984V69.978ZM12.3066 65.5483C12.3066 66.9253 12.6963 68.0503 13.4756 68.9233C14.2549 69.7964 15.2979 70.2329 16.6045 70.2329C17.9053 70.2329 18.9453 69.7964 19.7246 68.9233C20.5039 68.0503 20.8936 66.9253 20.8936 65.5483V65.2671C20.8936 63.8901 20.5039 62.7651 19.7246 61.8921C18.9453 61.019 17.9053 60.5825 16.6045 60.5825C15.2979 60.5825 14.2549 61.019 13.4756 61.8921C12.6963 62.7651 12.3066 63.8901 12.3066 65.2671V65.5483ZM13.915 65.2671C13.915 64.312 14.1406 63.5093 14.5918 62.8589C15.043 62.2026 15.7109 61.8745 16.5957 61.8745C17.4863 61.8745 18.1572 62.2026 18.6084 62.8589C19.0596 63.5093 19.2852 64.312 19.2852 65.2671V65.5483C19.2852 66.5034 19.0596 67.3091 18.6084 67.9653C18.1572 68.6157 17.4863 68.9409 16.5957 68.9409C15.7109 68.9409 15.043 68.6157 14.5918 67.9653C14.1406 67.3091 13.915 66.5034 13.915 65.5483V65.2671ZM22.8975 69.978H24.4707V63.5356C24.6523 63.1196 24.9277 62.7739 25.2969 62.4985C25.666 62.2231 26.1113 62.0854 26.6328 62.0854C26.7852 62.0854 26.9258 62.0942 27.0547 62.1118C27.1836 62.1235 27.3066 62.1411 27.4238 62.1646V60.7056C27.3652 60.6821 27.2656 60.6558 27.125 60.6265C26.9844 60.5972 26.8496 60.5825 26.7207 60.5825C26.1934 60.5825 25.7393 60.7261 25.3584 61.0132C24.9775 61.3003 24.6699 61.6372 24.4355 62.0239H24.3916L24.3213 60.8374H22.8975V69.978ZM28.1094 62.0503H33.3037V60.8374H28.1094V62.0503ZM29.7441 67.7017C29.7441 68.5806 29.9404 69.2222 30.333 69.6265C30.7314 70.0308 31.2646 70.2329 31.9326 70.2329C32.2139 70.2329 32.4746 70.2065 32.7148 70.1538C32.9551 70.1069 33.1484 70.0483 33.2949 69.978V68.686C33.1367 68.7446 32.9785 68.7915 32.8203 68.8267C32.6621 68.8618 32.5039 68.8794 32.3457 68.8794C31.9883 68.8794 31.7275 68.7915 31.5635 68.6157C31.3994 68.4341 31.3174 68.1294 31.3174 67.7017V58.4819H29.7441V61.312V61.5581V67.7017ZM34.9912 69.978H36.5645V63.5093C36.7871 63.064 37.0977 62.7007 37.4961 62.4194C37.8945 62.1323 38.3545 61.9888 38.876 61.9888C39.4795 61.9888 39.9453 62.1499 40.2734 62.4722C40.6074 62.7886 40.7744 63.3159 40.7744 64.0542V69.978H42.3477V64.0718C42.3477 62.8472 42.0752 61.9741 41.5303 61.4526C40.9854 60.9253 40.2881 60.6616 39.4385 60.6616C38.8408 60.6616 38.293 60.7817 37.7949 61.022C37.2969 61.2622 36.8867 61.5815 36.5645 61.98V56.5396H34.9912V69.978ZM44.2637 65.5483C44.2637 66.9312 44.6387 68.0591 45.3887 68.9321C46.1445 69.7993 47.2256 70.2329 48.6318 70.2329C49.499 70.2329 50.2344 70.0483 50.8379 69.6792C51.4414 69.3042 51.8838 68.8999 52.165 68.4663L51.1543 67.6489C50.8906 68.0005 50.5479 68.3052 50.126 68.563C49.71 68.8149 49.2119 68.9409 48.6318 68.9409C47.6943 68.9409 47 68.6157 46.5488 67.9653C46.0977 67.3091 45.8721 66.5034 45.8721 65.5483V65.2671C45.8721 64.312 46.0859 63.5093 46.5137 62.8589C46.9414 62.2026 47.5859 61.8745 48.4473 61.8745C49.168 61.8745 49.7158 62.1118 50.0908 62.5864C50.4717 63.061 50.6621 63.6323 50.6621 64.3003V64.4937H45.2217V65.7593H52.2354V65.1177C52.2354 63.7231 51.9014 62.6187 51.2334 61.8042C50.5713 60.9897 49.6191 60.5825 48.377 60.5825C47.1406 60.5825 46.1445 61.019 45.3887 61.8921C44.6387 62.7651 44.2637 63.8901 44.2637 65.2671V65.5483ZM53.6943 67.2974C53.6943 68.2173 53.9961 68.9233 54.5996 69.4155C55.2031 69.9019 55.9414 70.145 56.8145 70.145C57.5703 70.145 58.1885 70.0015 58.6689 69.7144C59.1494 69.4214 59.4951 69.0845 59.7061 68.7036C59.7236 68.938 59.7646 69.1724 59.8291 69.4067C59.8994 69.6411 59.9756 69.8315 60.0576 69.978H61.5781V69.8374C61.4727 69.5796 61.3906 69.2837 61.332 68.9497C61.2734 68.6099 61.2441 68.2495 61.2441 67.8687V63.7114C61.2441 62.6685 60.9424 61.8862 60.3389 61.3647C59.7412 60.8433 58.8945 60.5825 57.7988 60.5825C56.7031 60.5825 55.833 60.8521 55.1885 61.3911C54.5498 61.9243 54.2305 62.5542 54.2305 63.2808V63.3423H55.7949V63.2896C55.7949 62.897 55.9473 62.5601 56.252 62.2788C56.5625 61.9917 57.0664 61.8481 57.7637 61.8481C58.4609 61.8481 58.9531 62.021 59.2402 62.3667C59.5273 62.7065 59.6709 63.1548 59.6709 63.7114V64.3618H57.5967C56.46 64.3618 55.5254 64.6196 54.793 65.1353C54.0605 65.6509 53.6943 66.3716 53.6943 67.2974ZM55.2676 67.2095C55.2676 66.6821 55.4785 66.2632 55.9004 65.9526C56.3223 65.6421 56.9463 65.4868 57.7725 65.4868H59.6709V66.8052C59.6709 67.3091 59.4102 67.7837 58.8887 68.229C58.3672 68.6685 57.7871 68.8882 57.1484 68.8882C56.5098 68.8882 56.0352 68.7417 55.7246 68.4487C55.4199 68.1499 55.2676 67.7368 55.2676 67.2095ZM63.1865 67.271V67.3325C63.1865 68.2114 63.5 68.9146 64.127 69.4419C64.7598 69.9692 65.6797 70.2329 66.8867 70.2329C68.0996 70.2329 69.0078 69.9751 69.6113 69.4595C70.2148 68.938 70.5166 68.2729 70.5166 67.4644C70.5166 66.6558 70.2471 66.0376 69.708 65.6099C69.1748 65.1763 68.4189 64.8423 67.4404 64.6079C66.4619 64.3735 65.8027 64.1538 65.4629 63.9487C65.1289 63.7437 64.9619 63.4653 64.9619 63.1138C64.9619 62.7505 65.1084 62.4546 65.4014 62.2261C65.7002 61.9917 66.1689 61.8745 66.8076 61.8745C67.4463 61.8745 67.9209 62.0005 68.2314 62.2524C68.542 62.4985 68.6973 62.8472 68.6973 63.2983V63.3862H70.2617V63.3335C70.2617 62.4839 69.9453 61.813 69.3125 61.3208C68.6797 60.8286 67.8447 60.5825 66.8076 60.5825C65.7764 60.5825 64.9502 60.8286 64.3291 61.3208C63.7139 61.813 63.4062 62.437 63.4062 63.1929C63.4062 63.9429 63.6904 64.5259 64.2588 64.9419C64.833 65.3579 65.6094 65.6831 66.5879 65.9175C67.5723 66.1519 68.2139 66.3804 68.5127 66.603C68.8174 66.8198 68.9697 67.1362 68.9697 67.5522C68.9697 67.9683 68.7822 68.3052 68.4072 68.563C68.0381 68.8149 67.5312 68.9409 66.8867 68.9409C66.248 68.9409 65.7324 68.8091 65.3398 68.5454C64.9531 68.2759 64.7598 67.8716 64.7598 67.3325V67.271H63.1865ZM71.2285 62.0503H76.4229V60.8374H71.2285V62.0503ZM72.8633 67.7017C72.8633 68.5806 73.0596 69.2222 73.4521 69.6265C73.8506 70.0308 74.3838 70.2329 75.0518 70.2329C75.333 70.2329 75.5938 70.2065 75.834 70.1538C76.0742 70.1069 76.2676 70.0483 76.4141 69.978V68.686C76.2559 68.7446 76.0977 68.7915 75.9395 68.8267C75.7812 68.8618 75.623 68.8794 75.4648 68.8794C75.1074 68.8794 74.8467 68.7915 74.6826 68.6157C74.5186 68.4341 74.4365 68.1294 74.4365 67.7017V58.4819H72.8633V61.312V61.5581V67.7017Z" fill="white"/>
<path d="M127 77.978L110.164 63.978H82.5" stroke="white" stroke-width="3"/>
</svg>
