<svg width="447" height="300" viewBox="0 0 447 300" fill="none" xmlns="http://www.w3.org/2000/svg">
<circle cx="203" cy="150" r="105" stroke="white" stroke-width="30"/>
<path d="M112.067 202.5C119.239 214.922 128.881 225.743 140.396 234.296C151.912 242.848 165.058 248.95 179.023 252.226C192.988 255.501 207.476 255.881 221.594 253.341C235.711 250.8 249.159 245.395 261.106 237.457" stroke="#93A4FE" stroke-width="30"/>
<path d="M119.143 86.8094C106.814 103.17 99.5409 122.781 98.2189 143.224C96.8968 163.668 101.584 184.051 111.703 201.864" stroke="#FF74C7" stroke-width="30"/>
<path d="M263.226 63.9891C252.385 56.3984 240.207 50.9255 227.334 47.8585" stroke="#FCEB8E" stroke-opacity="0.6" stroke-width="30"/>
<path d="M226.62 47.6911C206.659 43.0828 185.786 44.4143 166.572 51.5216C147.358 58.629 130.643 71.2018 118.486 87.691" stroke="#825AF2" stroke-width="30"/>
<path d="M299 214L320 231.5H350" stroke="white" stroke-width="3"/>
<path d="M356.791 234.511C356.791 235.671 357.207 236.585 358.039 237.253C358.877 237.921 359.987 238.255 361.37 238.255C362.747 238.255 363.84 237.921 364.648 237.253C365.457 236.585 365.861 235.727 365.861 234.678C365.861 233.635 365.554 232.823 364.938 232.243C364.323 231.663 363.339 231.177 361.985 230.784C360.638 230.392 359.744 230.031 359.305 229.703C358.871 229.375 358.654 228.927 358.654 228.358C358.654 227.737 358.868 227.245 359.296 226.882C359.724 226.519 360.386 226.337 361.282 226.337C362.179 226.337 362.853 226.548 363.304 226.97C363.761 227.386 363.989 227.939 363.989 228.631V228.771H365.615V228.631C365.615 227.553 365.223 226.671 364.438 225.985C363.658 225.294 362.606 224.948 361.282 224.948C359.958 224.948 358.921 225.276 358.171 225.933C357.427 226.589 357.055 227.412 357.055 228.402C357.055 229.404 357.342 230.175 357.916 230.714C358.496 231.247 359.472 231.719 360.843 232.129C362.167 232.521 363.066 232.896 363.541 233.254C364.016 233.605 364.253 234.08 364.253 234.678C364.253 235.334 364.004 235.864 363.506 236.269C363.014 236.667 362.302 236.866 361.37 236.866C360.438 236.866 359.712 236.67 359.19 236.277C358.675 235.885 358.417 235.296 358.417 234.511V234.361H356.791V234.511ZM367.285 233.57C367.285 234.947 367.675 236.072 368.454 236.945C369.233 237.818 370.276 238.255 371.583 238.255C372.884 238.255 373.924 237.818 374.703 236.945C375.482 236.072 375.872 234.947 375.872 233.57V233.289C375.872 231.912 375.482 230.787 374.703 229.914C373.924 229.041 372.884 228.604 371.583 228.604C370.276 228.604 369.233 229.041 368.454 229.914C367.675 230.787 367.285 231.912 367.285 233.289V233.57ZM368.894 233.289C368.894 232.334 369.119 231.531 369.57 230.881C370.021 230.225 370.689 229.896 371.574 229.896C372.465 229.896 373.136 230.225 373.587 230.881C374.038 231.531 374.264 232.334 374.264 233.289V233.57C374.264 234.525 374.038 235.331 373.587 235.987C373.136 236.638 372.465 236.963 371.574 236.963C370.689 236.963 370.021 236.638 369.57 235.987C369.119 235.331 368.894 234.525 368.894 233.57V233.289ZM377.876 241.683H379.449V236.91C379.719 237.291 380.079 237.599 380.53 237.833C380.987 238.062 381.535 238.176 382.174 238.176C383.328 238.176 384.251 237.742 384.942 236.875C385.634 236.008 385.979 234.906 385.979 233.57V233.289C385.979 231.947 385.634 230.846 384.942 229.984C384.251 229.117 383.328 228.684 382.174 228.684C381.535 228.684 380.973 228.818 380.486 229.088C380.006 229.357 379.648 229.683 379.414 230.063H379.37L379.3 228.859H377.876V241.683ZM379.449 235.302V231.558C379.631 231.147 379.927 230.784 380.337 230.468C380.747 230.146 381.245 229.984 381.831 229.984C382.704 229.984 383.346 230.301 383.756 230.934C384.166 231.566 384.371 232.352 384.371 233.289V233.57C384.371 234.508 384.166 235.296 383.756 235.935C383.346 236.567 382.704 236.884 381.831 236.884C381.245 236.884 380.747 236.723 380.337 236.4C379.927 236.078 379.631 235.712 379.449 235.302ZM387.983 238H389.557V231.531C389.779 231.086 390.09 230.723 390.488 230.441C390.887 230.154 391.347 230.011 391.868 230.011C392.472 230.011 392.938 230.172 393.266 230.494C393.6 230.811 393.767 231.338 393.767 232.076V238H395.34V232.094C395.34 230.869 395.067 229.996 394.522 229.475C393.978 228.947 393.28 228.684 392.431 228.684C391.833 228.684 391.285 228.804 390.787 229.044C390.289 229.284 389.879 229.604 389.557 230.002V224.562H387.983V238ZM397.256 233.57C397.256 234.947 397.646 236.072 398.425 236.945C399.204 237.818 400.247 238.255 401.554 238.255C402.854 238.255 403.895 237.818 404.674 236.945C405.453 236.072 405.843 234.947 405.843 233.57V233.289C405.843 231.912 405.453 230.787 404.674 229.914C403.895 229.041 402.854 228.604 401.554 228.604C400.247 228.604 399.204 229.041 398.425 229.914C397.646 230.787 397.256 231.912 397.256 233.289V233.57ZM398.864 233.289C398.864 232.334 399.09 231.531 399.541 230.881C399.992 230.225 400.66 229.896 401.545 229.896C402.436 229.896 403.106 230.225 403.558 230.881C404.009 231.531 404.234 232.334 404.234 233.289V233.57C404.234 234.525 404.009 235.331 403.558 235.987C403.106 236.638 402.436 236.963 401.545 236.963C400.66 236.963 399.992 236.638 399.541 235.987C399.09 235.331 398.864 234.525 398.864 233.57V233.289ZM407.847 238H409.42V231.531C409.648 231.086 409.95 230.723 410.325 230.441C410.7 230.154 411.14 230.011 411.644 230.011C412.218 230.011 412.663 230.169 412.979 230.485C413.296 230.802 413.454 231.332 413.454 232.076V238H415.027V231.531C415.25 231.086 415.549 230.723 415.924 230.441C416.305 230.154 416.744 230.011 417.242 230.011C417.822 230.011 418.271 230.169 418.587 230.485C418.903 230.802 419.062 231.332 419.062 232.076V238H420.635V232.094C420.635 230.869 420.368 229.996 419.835 229.475C419.308 228.947 418.575 228.684 417.638 228.684C417.028 228.684 416.489 228.807 416.021 229.053C415.552 229.299 415.13 229.694 414.755 230.239H414.702C414.479 229.694 414.146 229.299 413.7 229.053C413.255 228.807 412.725 228.684 412.109 228.684C411.541 228.684 411.025 228.807 410.562 229.053C410.105 229.299 409.713 229.633 409.385 230.055H409.341L409.271 228.859H407.847V238ZM422.551 233.57C422.551 234.947 422.94 236.072 423.72 236.945C424.499 237.818 425.542 238.255 426.849 238.255C428.149 238.255 429.189 237.818 429.969 236.945C430.748 236.072 431.138 234.947 431.138 233.57V233.289C431.138 231.912 430.748 230.787 429.969 229.914C429.189 229.041 428.149 228.604 426.849 228.604C425.542 228.604 424.499 229.041 423.72 229.914C422.94 230.787 422.551 231.912 422.551 233.289V233.57ZM424.159 233.289C424.159 232.334 424.385 231.531 424.836 230.881C425.287 230.225 425.955 229.896 426.84 229.896C427.73 229.896 428.401 230.225 428.853 230.881C429.304 231.531 429.529 232.334 429.529 233.289V233.57C429.529 234.525 429.304 235.331 428.853 235.987C428.401 236.638 427.73 236.963 426.84 236.963C425.955 236.963 425.287 236.638 424.836 235.987C424.385 235.331 424.159 234.525 424.159 233.57V233.289ZM433.142 238H434.715V231.558C434.896 231.142 435.172 230.796 435.541 230.521C435.91 230.245 436.355 230.107 436.877 230.107C437.029 230.107 437.17 230.116 437.299 230.134C437.428 230.146 437.551 230.163 437.668 230.187V228.728C437.609 228.704 437.51 228.678 437.369 228.648C437.229 228.619 437.094 228.604 436.965 228.604C436.438 228.604 435.983 228.748 435.603 229.035C435.222 229.322 434.914 229.659 434.68 230.046H434.636L434.565 228.859H433.142V238ZM438.441 233.57C438.441 234.953 438.816 236.081 439.566 236.954C440.322 237.821 441.403 238.255 442.81 238.255C443.677 238.255 444.412 238.07 445.016 237.701C445.619 237.326 446.062 236.922 446.343 236.488L445.332 235.671C445.068 236.022 444.726 236.327 444.304 236.585C443.888 236.837 443.39 236.963 442.81 236.963C441.872 236.963 441.178 236.638 440.727 235.987C440.275 235.331 440.05 234.525 440.05 233.57V233.289C440.05 232.334 440.264 231.531 440.691 230.881C441.119 230.225 441.764 229.896 442.625 229.896C443.346 229.896 443.894 230.134 444.269 230.608C444.649 231.083 444.84 231.654 444.84 232.322V232.516H439.399V233.781H446.413V233.14C446.413 231.745 446.079 230.641 445.411 229.826C444.749 229.012 443.797 228.604 442.555 228.604C441.318 228.604 440.322 229.041 439.566 229.914C438.816 230.787 438.441 231.912 438.441 233.289V233.57Z" fill="white"/>
<path d="M200.5 253L216.336 283H254" stroke="white" stroke-width="3"/>
<path d="M261.459 289H263.085V283.313H268.35V281.969H263.085V277.548H269.193V276.203H261.459V289ZM270.731 289H272.305V282.558C272.486 282.142 272.762 281.796 273.131 281.521C273.5 281.245 273.945 281.107 274.467 281.107C274.619 281.107 274.76 281.116 274.889 281.134C275.018 281.146 275.141 281.163 275.258 281.187V279.728C275.199 279.704 275.1 279.678 274.959 279.648C274.818 279.619 274.684 279.604 274.555 279.604C274.027 279.604 273.573 279.748 273.192 280.035C272.812 280.322 272.504 280.659 272.27 281.046H272.226L272.155 279.859H270.731V289ZM276.031 284.57C276.031 285.953 276.406 287.081 277.156 287.954C277.912 288.821 278.993 289.255 280.399 289.255C281.267 289.255 282.002 289.07 282.605 288.701C283.209 288.326 283.651 287.922 283.933 287.488L282.922 286.671C282.658 287.022 282.315 287.327 281.894 287.585C281.478 287.837 280.979 287.963 280.399 287.963C279.462 287.963 278.768 287.638 278.316 286.987C277.865 286.331 277.64 285.525 277.64 284.57V284.289C277.64 283.334 277.854 282.531 278.281 281.881C278.709 281.225 279.354 280.896 280.215 280.896C280.936 280.896 281.483 281.134 281.858 281.608C282.239 282.083 282.43 282.654 282.43 283.322V283.516H276.989V284.781H284.003V284.14C284.003 282.745 283.669 281.641 283.001 280.826C282.339 280.012 281.387 279.604 280.145 279.604C278.908 279.604 277.912 280.041 277.156 280.914C276.406 281.787 276.031 282.912 276.031 284.289V284.57ZM285.409 286.293V286.354C285.409 287.233 285.723 287.937 286.35 288.464C286.982 288.991 287.902 289.255 289.109 289.255C290.322 289.255 291.23 288.997 291.834 288.481C292.438 287.96 292.739 287.295 292.739 286.486C292.739 285.678 292.47 285.06 291.931 284.632C291.397 284.198 290.642 283.864 289.663 283.63C288.685 283.396 288.025 283.176 287.686 282.971C287.352 282.766 287.185 282.487 287.185 282.136C287.185 281.772 287.331 281.477 287.624 281.248C287.923 281.014 288.392 280.896 289.03 280.896C289.669 280.896 290.144 281.022 290.454 281.274C290.765 281.521 290.92 281.869 290.92 282.32V282.408H292.484V282.355C292.484 281.506 292.168 280.835 291.535 280.343C290.902 279.851 290.067 279.604 289.03 279.604C287.999 279.604 287.173 279.851 286.552 280.343C285.937 280.835 285.629 281.459 285.629 282.215C285.629 282.965 285.913 283.548 286.481 283.964C287.056 284.38 287.832 284.705 288.811 284.939C289.795 285.174 290.437 285.402 290.735 285.625C291.04 285.842 291.192 286.158 291.192 286.574C291.192 286.99 291.005 287.327 290.63 287.585C290.261 287.837 289.754 287.963 289.109 287.963C288.471 287.963 287.955 287.831 287.562 287.567C287.176 287.298 286.982 286.894 286.982 286.354V286.293H285.409ZM294.726 289H296.299V282.531C296.521 282.086 296.832 281.723 297.23 281.441C297.629 281.154 298.089 281.011 298.61 281.011C299.214 281.011 299.68 281.172 300.008 281.494C300.342 281.811 300.509 282.338 300.509 283.076V289H302.082V283.094C302.082 281.869 301.81 280.996 301.265 280.475C300.72 279.947 300.022 279.684 299.173 279.684C298.575 279.684 298.027 279.804 297.529 280.044C297.031 280.284 296.621 280.604 296.299 281.002V275.562H294.726V289ZM304.552 289H306.125V282.531C306.354 282.086 306.655 281.723 307.03 281.441C307.405 281.154 307.845 281.011 308.349 281.011C308.923 281.011 309.368 281.169 309.685 281.485C310.001 281.802 310.159 282.332 310.159 283.076V289H311.732V282.531C311.955 282.086 312.254 281.723 312.629 281.441C313.01 281.154 313.449 281.011 313.947 281.011C314.527 281.011 314.976 281.169 315.292 281.485C315.608 281.802 315.767 282.332 315.767 283.076V289H317.34V283.094C317.34 281.869 317.073 280.996 316.54 280.475C316.013 279.947 315.28 279.684 314.343 279.684C313.733 279.684 313.194 279.807 312.726 280.053C312.257 280.299 311.835 280.694 311.46 281.239H311.407C311.185 280.694 310.851 280.299 310.405 280.053C309.96 279.807 309.43 279.684 308.814 279.684C308.246 279.684 307.73 279.807 307.268 280.053C306.811 280.299 306.418 280.633 306.09 281.055H306.046L305.976 279.859H304.552V289ZM319.3 286.319C319.3 287.239 319.602 287.945 320.205 288.438C320.809 288.924 321.547 289.167 322.42 289.167C323.176 289.167 323.794 289.023 324.274 288.736C324.755 288.443 325.101 288.106 325.312 287.726C325.329 287.96 325.37 288.194 325.435 288.429C325.505 288.663 325.581 288.854 325.663 289H327.184V288.859C327.078 288.602 326.996 288.306 326.938 287.972C326.879 287.632 326.85 287.271 326.85 286.891V282.733C326.85 281.69 326.548 280.908 325.944 280.387C325.347 279.865 324.5 279.604 323.404 279.604C322.309 279.604 321.438 279.874 320.794 280.413C320.155 280.946 319.836 281.576 319.836 282.303V282.364H321.4V282.312C321.4 281.919 321.553 281.582 321.857 281.301C322.168 281.014 322.672 280.87 323.369 280.87C324.066 280.87 324.559 281.043 324.846 281.389C325.133 281.729 325.276 282.177 325.276 282.733V283.384H323.202C322.065 283.384 321.131 283.642 320.398 284.157C319.666 284.673 319.3 285.394 319.3 286.319ZM320.873 286.231C320.873 285.704 321.084 285.285 321.506 284.975C321.928 284.664 322.552 284.509 323.378 284.509H325.276V285.827C325.276 286.331 325.016 286.806 324.494 287.251C323.973 287.69 323.393 287.91 322.754 287.91C322.115 287.91 321.641 287.764 321.33 287.471C321.025 287.172 320.873 286.759 320.873 286.231ZM329.354 289H330.928V282.531C331.15 282.08 331.461 281.714 331.859 281.433C332.258 281.151 332.718 281.011 333.239 281.011C333.843 281.011 334.309 281.172 334.637 281.494C334.971 281.811 335.138 282.341 335.138 283.085V289H336.711V283.094C336.711 281.869 336.438 280.996 335.894 280.475C335.349 279.947 334.619 279.684 333.705 279.684C333.119 279.684 332.586 279.807 332.105 280.053C331.625 280.293 331.221 280.624 330.893 281.046H330.849L330.778 279.859H329.354V289Z" fill="white"/>
<path d="M0.219727 111.484C0.219727 112.656 0.583008 113.579 1.30957 114.253C2.04199 114.921 3 115.255 4.18359 115.255C5.37305 115.255 6.33105 114.897 7.05762 114.183C7.78418 113.468 8.14746 112.492 8.14746 111.256V102.203H6.52148V111.247C6.52148 112.097 6.31348 112.747 5.89746 113.198C5.48145 113.644 4.91016 113.866 4.18359 113.866C3.44531 113.866 2.87109 113.664 2.46094 113.26C2.05078 112.85 1.8457 112.255 1.8457 111.476V111.388H0.219727V111.484ZM10.6611 111.774C10.6611 112.999 10.9336 113.872 11.4785 114.394C12.0234 114.915 12.7559 115.176 13.6758 115.176C14.2559 115.176 14.7861 115.056 15.2666 114.815C15.7471 114.569 16.1514 114.235 16.4795 113.813H16.5322L16.5938 115H18.0176V105.859H16.4443V112.328C16.2217 112.779 15.9111 113.146 15.5127 113.427C15.1143 113.708 14.6572 113.849 14.1416 113.849C13.5322 113.849 13.0605 113.69 12.7266 113.374C12.3984 113.058 12.2344 112.53 12.2344 111.792V105.859H10.6611V111.774ZM20.5752 115H22.1484V108.531C22.3711 108.08 22.6816 107.714 23.0801 107.433C23.4785 107.151 23.9385 107.011 24.46 107.011C25.0635 107.011 25.5293 107.172 25.8574 107.494C26.1914 107.811 26.3584 108.341 26.3584 109.085V115H27.9316V109.094C27.9316 107.869 27.6592 106.996 27.1143 106.475C26.5693 105.947 25.8398 105.684 24.9258 105.684C24.3398 105.684 23.8066 105.807 23.3262 106.053C22.8457 106.293 22.4414 106.624 22.1133 107.046H22.0693L21.999 105.859H20.5752V115ZM30.4805 115H32.0537V105.859H30.4805V115ZM30.2783 103.047C30.2783 103.311 30.3633 103.536 30.5332 103.724C30.7031 103.905 30.9463 103.996 31.2627 103.996C31.585 103.996 31.8311 103.905 32.001 103.724C32.1709 103.536 32.2559 103.311 32.2559 103.047C32.2559 102.777 32.1709 102.552 32.001 102.37C31.8311 102.188 31.5879 102.098 31.2715 102.098C30.9492 102.098 30.7031 102.188 30.5332 102.37C30.3633 102.552 30.2783 102.777 30.2783 103.047ZM34.1367 110.57C34.1367 111.947 34.5264 113.072 35.3057 113.945C36.085 114.818 37.1279 115.255 38.4346 115.255C39.7354 115.255 40.7754 114.818 41.5547 113.945C42.334 113.072 42.7236 111.947 42.7236 110.57V110.289C42.7236 108.912 42.334 107.787 41.5547 106.914C40.7754 106.041 39.7354 105.604 38.4346 105.604C37.1279 105.604 36.085 106.041 35.3057 106.914C34.5264 107.787 34.1367 108.912 34.1367 110.289V110.57ZM35.7451 110.289C35.7451 109.334 35.9707 108.531 36.4219 107.881C36.873 107.225 37.541 106.896 38.4258 106.896C39.3164 106.896 39.9873 107.225 40.4385 107.881C40.8896 108.531 41.1152 109.334 41.1152 110.289V110.57C41.1152 111.525 40.8896 112.331 40.4385 112.987C39.9873 113.638 39.3164 113.963 38.4258 113.963C37.541 113.963 36.873 113.638 36.4219 112.987C35.9707 112.331 35.7451 111.525 35.7451 110.57V110.289ZM44.7275 115H46.3008V108.558C46.4824 108.142 46.7578 107.796 47.127 107.521C47.4961 107.245 47.9414 107.107 48.4629 107.107C48.6152 107.107 48.7559 107.116 48.8848 107.134C49.0137 107.146 49.1367 107.163 49.2539 107.187V105.728C49.1953 105.704 49.0957 105.678 48.9551 105.648C48.8145 105.619 48.6797 105.604 48.5508 105.604C48.0234 105.604 47.5693 105.748 47.1885 106.035C46.8076 106.322 46.5 106.659 46.2656 107.046H46.2217L46.1514 105.859H44.7275V115Z" fill="white"/>
<path d="M98 125L81.1637 111H53.5" stroke="white" stroke-width="3"/>
<path d="M70.791 33.5107C70.791 34.6709 71.207 35.585 72.0391 36.2529C72.877 36.9209 73.9873 37.2549 75.3701 37.2549C76.7471 37.2549 77.8398 36.9209 78.6484 36.2529C79.457 35.585 79.8613 34.7266 79.8613 33.6777C79.8613 32.6348 79.5537 31.8232 78.9385 31.2432C78.3232 30.6631 77.3389 30.1768 75.9854 29.7842C74.6377 29.3916 73.7441 29.0312 73.3047 28.7031C72.8711 28.375 72.6543 27.9268 72.6543 27.3584C72.6543 26.7373 72.8682 26.2451 73.2959 25.8818C73.7236 25.5186 74.3857 25.3369 75.2822 25.3369C76.1787 25.3369 76.8525 25.5479 77.3037 25.9697C77.7607 26.3857 77.9893 26.9395 77.9893 27.6309V27.7715H79.6152V27.6309C79.6152 26.5527 79.2227 25.6709 78.4375 24.9854C77.6582 24.2939 76.6064 23.9482 75.2822 23.9482C73.958 23.9482 72.9209 24.2764 72.1709 24.9326C71.4268 25.5889 71.0547 26.4121 71.0547 27.4023C71.0547 28.4043 71.3418 29.1748 71.916 29.7139C72.4961 30.2471 73.4717 30.7188 74.8428 31.1289C76.167 31.5215 77.0664 31.8965 77.541 32.2539C78.0156 32.6055 78.2529 33.0801 78.2529 33.6777C78.2529 34.334 78.0039 34.8643 77.5059 35.2686C77.0137 35.667 76.3018 35.8662 75.3701 35.8662C74.4385 35.8662 73.7119 35.6699 73.1904 35.2773C72.6748 34.8848 72.417 34.2959 72.417 33.5107V33.3613H70.791V33.5107ZM81.2852 32.5703C81.2852 33.9531 81.6602 35.0811 82.4102 35.9541C83.166 36.8213 84.2471 37.2549 85.6533 37.2549C86.5205 37.2549 87.2559 37.0703 87.8594 36.7012C88.4629 36.3262 88.9053 35.9219 89.1865 35.4883L88.1758 34.6709C87.9121 35.0225 87.5693 35.3271 87.1475 35.585C86.7314 35.8369 86.2334 35.9629 85.6533 35.9629C84.7158 35.9629 84.0215 35.6377 83.5703 34.9873C83.1191 34.3311 82.8936 33.5254 82.8936 32.5703V32.2891C82.8936 31.334 83.1074 30.5312 83.5352 29.8809C83.9629 29.2246 84.6074 28.8965 85.4688 28.8965C86.1895 28.8965 86.7373 29.1338 87.1123 29.6084C87.4932 30.083 87.6836 30.6543 87.6836 31.3223V31.5156H82.2432V32.7812H89.2568V32.1396C89.2568 30.7451 88.9229 29.6406 88.2549 28.8262C87.5928 28.0117 86.6406 27.6045 85.3984 27.6045C84.1621 27.6045 83.166 28.041 82.4102 28.9141C81.6602 29.7871 81.2852 30.9121 81.2852 32.2891V32.5703ZM91.2256 37H92.7988V30.5312C93.0215 30.0801 93.332 29.7139 93.7305 29.4326C94.1289 29.1514 94.5889 29.0107 95.1104 29.0107C95.7139 29.0107 96.1797 29.1719 96.5078 29.4941C96.8418 29.8105 97.0088 30.3408 97.0088 31.085V37H98.582V31.0938C98.582 29.8691 98.3096 28.9961 97.7646 28.4746C97.2197 27.9473 96.4902 27.6836 95.5762 27.6836C94.9902 27.6836 94.457 27.8066 93.9766 28.0527C93.4961 28.293 93.0918 28.624 92.7637 29.0459H92.7197L92.6494 27.8594H91.2256V37ZM101.131 37H102.704V27.8594H101.131V37ZM100.929 25.0469C100.929 25.3105 101.014 25.5361 101.184 25.7236C101.354 25.9053 101.597 25.9961 101.913 25.9961C102.235 25.9961 102.481 25.9053 102.651 25.7236C102.821 25.5361 102.906 25.3105 102.906 25.0469C102.906 24.7773 102.821 24.5518 102.651 24.3701C102.481 24.1885 102.238 24.0977 101.922 24.0977C101.6 24.0977 101.354 24.1885 101.184 24.3701C101.014 24.5518 100.929 24.7773 100.929 25.0469ZM104.787 32.5703C104.787 33.9473 105.177 35.0723 105.956 35.9453C106.735 36.8184 107.778 37.2549 109.085 37.2549C110.386 37.2549 111.426 36.8184 112.205 35.9453C112.984 35.0723 113.374 33.9473 113.374 32.5703V32.2891C113.374 30.9121 112.984 29.7871 112.205 28.9141C111.426 28.041 110.386 27.6045 109.085 27.6045C107.778 27.6045 106.735 28.041 105.956 28.9141C105.177 29.7871 104.787 30.9121 104.787 32.2891V32.5703ZM106.396 32.2891C106.396 31.334 106.621 30.5312 107.072 29.8809C107.523 29.2246 108.191 28.8965 109.076 28.8965C109.967 28.8965 110.638 29.2246 111.089 29.8809C111.54 30.5312 111.766 31.334 111.766 32.2891V32.5703C111.766 33.5254 111.54 34.3311 111.089 34.9873C110.638 35.6377 109.967 35.9629 109.076 35.9629C108.191 35.9629 107.523 35.6377 107.072 34.9873C106.621 34.3311 106.396 33.5254 106.396 32.5703V32.2891ZM115.378 37H116.951V30.5576C117.133 30.1416 117.408 29.7959 117.777 29.5205C118.146 29.2451 118.592 29.1074 119.113 29.1074C119.266 29.1074 119.406 29.1162 119.535 29.1338C119.664 29.1455 119.787 29.1631 119.904 29.1865V27.7275C119.846 27.7041 119.746 27.6777 119.605 27.6484C119.465 27.6191 119.33 27.6045 119.201 27.6045C118.674 27.6045 118.22 27.748 117.839 28.0352C117.458 28.3223 117.15 28.6592 116.916 29.0459H116.872L116.802 27.8594H115.378V37Z" fill="white"/>
<path d="M169 50.5L154.164 31H126.5" stroke="white" stroke-width="3"/>
<path d="M294.984 24.9971C294.984 26.9893 295.479 28.5303 296.47 29.6201C297.466 30.71 298.743 31.2549 300.302 31.2549C301.86 31.2549 303.135 30.71 304.125 29.6201C305.121 28.5303 305.619 26.9893 305.619 24.9971V24.2061C305.619 22.2139 305.121 20.6729 304.125 19.583C303.135 18.4932 301.86 17.9482 300.302 17.9482C298.743 17.9482 297.466 18.4932 296.47 19.583C295.479 20.6729 294.984 22.2139 294.984 24.2061V24.9971ZM296.628 24.9971V24.2061C296.628 22.665 296.962 21.4697 297.63 20.6201C298.304 19.7646 299.194 19.3369 300.302 19.3369C301.409 19.3369 302.3 19.7646 302.974 20.6201C303.647 21.4697 303.984 22.665 303.984 24.2061V24.9971C303.984 26.5381 303.647 27.7363 302.974 28.5918C302.3 29.4414 301.409 29.8662 300.302 29.8662C299.194 29.8662 298.304 29.4414 297.63 28.5918C296.962 27.7363 296.628 26.5381 296.628 24.9971ZM306.621 23.0723H311.815V21.8594H306.621V23.0723ZM308.256 28.7236C308.256 29.6025 308.452 30.2441 308.845 30.6484C309.243 31.0527 309.776 31.2549 310.444 31.2549C310.726 31.2549 310.986 31.2285 311.227 31.1758C311.467 31.1289 311.66 31.0703 311.807 31V29.708C311.648 29.7666 311.49 29.8135 311.332 29.8486C311.174 29.8838 311.016 29.9014 310.857 29.9014C310.5 29.9014 310.239 29.8135 310.075 29.6377C309.911 29.4561 309.829 29.1514 309.829 28.7236V19.5039H308.256V22.334V22.5801V28.7236ZM313.503 31H315.076V24.5312C315.299 24.0859 315.609 23.7227 316.008 23.4414C316.406 23.1543 316.866 23.0107 317.388 23.0107C317.991 23.0107 318.457 23.1719 318.785 23.4941C319.119 23.8105 319.286 24.3379 319.286 25.0762V31H320.859V25.0938C320.859 23.8691 320.587 22.9961 320.042 22.4746C319.497 21.9473 318.8 21.6836 317.95 21.6836C317.353 21.6836 316.805 21.8037 316.307 22.0439C315.809 22.2842 315.398 22.6035 315.076 23.002V17.5615H313.503V31ZM322.775 26.5703C322.775 27.9531 323.15 29.0811 323.9 29.9541C324.656 30.8213 325.737 31.2549 327.144 31.2549C328.011 31.2549 328.746 31.0703 329.35 30.7012C329.953 30.3262 330.396 29.9219 330.677 29.4883L329.666 28.6709C329.402 29.0225 329.06 29.3271 328.638 29.585C328.222 29.8369 327.724 29.9629 327.144 29.9629C326.206 29.9629 325.512 29.6377 325.061 28.9873C324.609 28.3311 324.384 27.5254 324.384 26.5703V26.2891C324.384 25.334 324.598 24.5312 325.025 23.8809C325.453 23.2246 326.098 22.8965 326.959 22.8965C327.68 22.8965 328.228 23.1338 328.603 23.6084C328.983 24.083 329.174 24.6543 329.174 25.3223V25.5156H323.733V26.7812H330.747V26.1396C330.747 24.7451 330.413 23.6406 329.745 22.8262C329.083 22.0117 328.131 21.6045 326.889 21.6045C325.652 21.6045 324.656 22.041 323.9 22.9141C323.15 23.7871 322.775 24.9121 322.775 26.2891V26.5703ZM332.716 31H334.289V24.5576C334.471 24.1416 334.746 23.7959 335.115 23.5205C335.484 23.2451 335.93 23.1074 336.451 23.1074C336.604 23.1074 336.744 23.1162 336.873 23.1338C337.002 23.1455 337.125 23.1631 337.242 23.1865V21.7275C337.184 21.7041 337.084 21.6777 336.943 21.6484C336.803 21.6191 336.668 21.6045 336.539 21.6045C336.012 21.6045 335.558 21.748 335.177 22.0352C334.796 22.3223 334.488 22.6592 334.254 23.0459H334.21L334.14 21.8594H332.716V31Z" fill="white"/>
<path d="M246.5 53.5L256.5 25.5H287.5" stroke="white" stroke-width="3"/>
</svg>
