<svg width="100" height="100" viewBox="0 0 100 100" fill="none" xmlns="http://www.w3.org/2000/svg">
<path fill-rule="evenodd" clip-rule="evenodd" d="M23.1002 28.3225C20.3987 28.854 18.4326 29.9611 18.2801 31.0377C18.0053 32.9761 18.3783 33.1579 20.871 32.3006C23.3428 31.4501 26.3951 31.2775 28.0225 31.8963C29.3147 32.3875 30.2806 34.2514 30.2806 36.2529V37.8163L26.1569 37.6602C22.4146 37.519 21.8856 37.5906 20.4361 38.4366C18.118 39.7892 17.004 41.6422 17.006 44.143C17.0088 48.105 19.4613 50.4158 23.6662 50.4183C25.7184 50.4195 26.4571 50.2071 28.3391 49.0737L30.5747 47.7276L31.5885 48.9732L32.602 50.2187L34.0563 49.4515C35.6555 48.6075 35.7581 48.2876 34.9072 46.7991C34.4824 46.056 34.3263 44.2174 34.309 39.7586C34.2901 34.7663 34.1569 33.4391 33.5373 32.0749C31.9965 28.6822 28.2043 27.3188 23.1002 28.3225ZM71.0835 29.0314C66.8652 31.0096 66.1069 35.8461 69.5675 38.6989C70.3476 39.3418 72.3037 40.2551 73.9427 40.7419C78.6759 42.1467 80.0119 43.8018 78.2096 46.0278C77.1994 47.2754 73.0363 47.5932 70.136 46.6446C67.428 45.7591 67.2933 45.7945 67.2933 47.3921C67.2933 49.3232 68.8635 50.102 73.237 50.3406C78.6348 50.6347 82.1337 48.6268 82.7682 44.8712C83.3439 41.4632 81.1972 39.0385 76.295 37.5588C74.7183 37.0828 73.0435 36.335 72.5736 35.8972C71.3586 34.7651 71.4447 32.9161 72.7526 32.0592C74.0585 31.2035 77.8198 31.1918 79.8434 32.0375C81.5262 32.7407 81.7765 32.6128 81.7765 31.051C81.7765 29.2696 80.2835 28.5603 76.1936 28.399C73.4144 28.2891 72.3982 28.415 71.0835 29.0314ZM36.7369 29.6003C36.7474 30.0979 38.0621 34.8504 39.6581 40.1609L42.5604 49.8164L44.4014 49.9363C45.5524 50.0115 46.4045 49.8607 46.6748 49.534C46.9126 49.2467 47.8709 45.7531 48.8043 41.7702C49.7376 37.7873 50.6215 34.3938 50.7683 34.2288C50.9156 34.0643 51.818 37.2325 52.7739 41.2693C53.7298 45.3065 54.6836 48.9357 54.8932 49.3344C55.1942 49.9065 55.6733 50.0341 57.1603 49.9379L59.0459 49.8164L62.3597 39.7586C64.1822 34.2268 65.5907 29.4747 65.4901 29.1979C65.3863 28.9127 64.6268 28.6951 63.7344 28.6951C62.8695 28.6951 61.9836 28.9216 61.7659 29.1979C61.5483 29.4747 60.485 33.1853 59.4036 37.4441C58.3217 41.7026 57.3405 45.1878 57.2226 45.1886C57.1047 45.189 56.1456 41.5851 55.0912 37.1794C53.7696 31.6585 52.9819 29.095 52.5566 28.932C51.2559 28.4328 49.2202 28.6898 48.8598 29.3991C48.663 29.7865 47.714 33.4966 46.7517 37.6445C45.7889 41.7923 44.8825 45.051 44.7373 44.8861C44.5925 44.7211 43.6225 41.1502 42.5821 36.9509C41.5421 32.7512 40.4756 29.1782 40.2129 29.0113C39.9502 28.8443 39.0563 28.7047 38.2263 28.7011C36.9224 28.6959 36.72 28.8182 36.7369 29.6003ZM29.3754 40.6155C30.0911 40.8074 30.2806 41.147 30.2806 42.2393C30.2806 45.2783 28.2107 47.2014 24.9395 47.2014C22.679 47.2014 21.2689 45.8633 21.2689 43.7186C21.2689 41.4552 22.8069 40.3605 25.9783 40.3677C27.349 40.3705 28.8778 40.4824 29.3754 40.6155ZM78.1557 55.1233C76.0335 55.4785 73.3931 56.5201 72.7144 57.27C72.0164 58.0413 72.0739 58.0513 76.7186 57.9576C83.1282 57.8284 83.2719 58.0477 81.0744 64.5993C80.4995 66.3132 80.1688 67.852 80.339 68.019C80.8785 68.548 84.1095 64.5631 84.9145 62.3766C86.0104 59.3991 86.296 57.1393 85.6821 56.2997C84.8469 55.1575 81.2804 54.6003 78.1557 55.1233ZM14.0252 56.7953C13.5376 57.5842 20.2148 62.5604 25.2787 65.1823C37.5705 71.5468 52.9573 72.8902 65.8852 68.7283C72.3073 66.6604 80.3274 62.1155 79.608 60.9512C79.157 60.2214 78.2651 60.367 74.1326 61.8435C68.8647 63.7259 61.9828 65.204 55.8684 65.7668C44.121 66.8475 30.5936 64.2199 19.1716 58.6391C14.3684 56.2924 14.3419 56.2828 14.0252 56.7953Z" fill="white"/>
</svg>
