<svg width="100" height="100" viewBox="0 0 100 100" fill="none" xmlns="http://www.w3.org/2000/svg">
<path fill-rule="evenodd" clip-rule="evenodd" d="M43.024 27.7507C37.7272 29.7385 33.373 32.8281 30.7733 36.4425C26.9067 41.8216 26 44.6803 26 51.5008C26 56.9926 26.2575 58.0707 28.6011 62.393C31.1802 67.1496 34.4107 70.3283 39.1048 72.7298C42.8914 74.6665 43.9048 74.3763 43.9048 71.3538C43.9048 68.8212 43.7958 68.7229 40.7253 68.4966C37.9451 68.2924 37.2335 67.8315 35.0613 64.8342C33.6952 62.9484 32.5547 61.1488 32.5265 60.8342C32.4114 59.5267 34.2187 60.4311 36.7177 62.9294C39.949 66.1606 43.2274 66.5462 44.4602 63.8399C45.2061 62.2025 45.0065 61.9945 41.4964 60.7473C36.8008 59.0795 34.7688 56.1012 34.765 50.8791C34.7634 48.8616 35.1558 46.4738 35.6381 45.5732C36.1196 44.6726 36.5752 42.4684 36.6499 40.6749C36.7246 38.8806 37.0088 37.1907 37.2808 36.9187C37.5528 36.646 39.2404 36.9515 41.0309 37.5968C45.1505 39.081 56.2819 39.1397 59.0575 37.6913C60.1524 37.1206 61.4697 36.6513 61.9855 36.6483C63.0278 36.6429 63.9566 39.5161 63.6198 41.7043C63.5002 42.4829 63.8545 43.9427 64.4076 44.9484C65.795 47.4696 65.6693 53.4094 64.1676 56.3138C62.6987 59.1542 60.3931 60.8128 56.96 61.4993C55.2069 61.8498 54.7139 62.2345 55.2853 62.8052C55.731 63.2509 56.0952 65.9465 56.0952 68.7961C56.0952 73.225 56.2888 73.9763 57.4286 73.9702C60.0869 73.9557 66.5966 69.4528 69.2069 65.8239C73.0941 60.4174 74 57.5671 74 50.7389C74 45.2364 73.7448 44.1728 71.376 39.8041C68.6568 34.7884 64.189 30.6673 59.1429 28.5195C55.3242 26.8943 46.4366 26.47 43.024 27.7507Z" fill="white"/>
</svg>
