<svg width="100" height="100" viewBox="0 0 100 100" fill="none" xmlns="http://www.w3.org/2000/svg">
<path d="M71.5961 46.3738H50.4478V55.0661H62.5292C62.0082 57.8758 60.4278 60.2522 58.0455 61.8444C56.0319 63.1906 53.4623 63.9867 50.4419 63.9867C44.5944 63.9867 39.6483 60.0357 37.8805 54.7266C37.4357 53.3803 37.1781 51.9404 37.1781 50.4595C37.1781 48.9786 37.4357 47.5386 37.8805 46.1924C39.6541 40.8892 44.6002 36.9381 50.4478 36.9381C53.7432 36.9381 56.6992 38.0737 59.0289 40.298L65.4676 33.8534C61.5751 30.2243 56.5002 28 50.4478 28C41.6735 28 34.0817 33.0339 30.3882 40.3741C28.8663 43.4061 28 46.8362 28 50.4653C28 54.0945 28.8663 57.5187 30.3882 60.5508C34.0817 67.8909 41.6735 72.9248 50.4478 72.9248C56.5119 72.9248 61.5927 70.9113 65.3037 67.4812C69.5474 63.5711 72 57.8114 72 50.9687C72 49.3766 71.8595 47.8489 71.5961 46.3738Z" fill="white"/>
</svg>
