<svg width="100" height="100" viewBox="0 0 100 100" fill="none" xmlns="http://www.w3.org/2000/svg">
<path fill-rule="evenodd" clip-rule="evenodd" d="M47.4503 20.0491C43.3205 20.2736 39.9462 20.7538 36.2301 21.6457C33.1891 22.3757 29.9107 23.4834 27.5129 24.5912L27 24.8282L27.0394 26.0533C27.0764 27.2068 27.1117 29.1968 27.2553 38.2328C27.2881 40.2952 27.3405 44.4599 27.3718 47.4877C27.4288 53.0085 27.4534 53.6365 27.6713 55.1192C28.1721 58.529 29.6597 62.3663 31.8073 65.7885C35.5308 71.7221 41.4397 76.9522 47.2436 79.452C48.511 79.9978 49.4404 80.2904 50.2648 80.4032L50.8056 80.4772L51.4458 80.2653C52.3519 79.9653 52.8699 79.7433 54.185 79.0909C55.7331 78.323 56.7338 77.7358 58.8181 76.3725C59.4844 75.9367 59.5356 75.902 59.6933 75.7789C59.7641 75.7237 60.2074 75.3925 60.6783 75.043C61.1493 74.6936 61.6143 74.3356 61.7118 74.2475C61.9384 74.0426 62.0828 73.9207 62.4003 73.6664C62.5413 73.5535 62.8426 73.285 63.07 73.0697C63.2974 72.8544 63.5613 72.6146 63.6565 72.5368C64.1093 72.1667 65.8046 70.3991 66.0392 70.0523C66.0903 69.9768 66.2138 69.8203 66.3136 69.7045C66.4134 69.5886 66.5881 69.379 66.7018 69.2387C66.8155 69.0984 66.9417 68.9492 66.9823 68.9073C67.0229 68.8653 67.0561 68.8116 67.0561 68.7878C67.0561 68.7641 67.1624 68.6039 67.2923 68.4319C67.4223 68.2598 67.5286 68.0935 67.5286 68.0624C67.5286 68.0313 67.6083 67.9305 67.7057 67.8386C67.8032 67.7467 67.8829 67.6248 67.8829 67.5678C67.8829 67.5109 67.9094 67.4643 67.9419 67.4643C67.9744 67.4643 68.001 67.4245 68.001 67.3757C68.001 67.327 68.027 67.2872 68.0589 67.2872C68.0907 67.2872 68.1335 67.2207 68.1539 67.1395C68.1742 67.0583 68.2146 66.9919 68.2436 66.9919C68.2726 66.9919 68.2962 66.9573 68.2962 66.9151C68.2962 66.8728 68.4025 66.6747 68.5325 66.4747C68.6624 66.2747 68.7687 66.0855 68.7687 66.0541C68.7687 66.0227 68.8617 65.8752 68.9754 65.7263C69.089 65.5773 69.1822 65.4358 69.1824 65.4117C69.1826 65.3876 69.2181 65.3015 69.2613 65.2203C69.3045 65.1391 69.4953 64.7803 69.6852 64.4231C69.8752 64.0658 70.0523 63.7646 70.0788 63.7538C70.1052 63.7429 70.1269 63.6951 70.1269 63.6475C70.1269 63.5596 70.2906 63.2074 70.3566 63.1534C70.3764 63.1372 70.4229 63.0442 70.4599 62.9467C70.4969 62.8493 70.7174 62.3311 70.9501 61.7952C71.4949 60.54 71.4519 60.6447 71.6051 60.2007C72.3398 58.0708 72.5458 57.3639 72.7847 56.1537C73.0242 54.9409 73.0818 54.3101 73.1382 52.2875C73.2224 49.2641 73.4109 33.5905 73.4497 26.3925L73.4634 23.8532L73.1386 23.6983C72.6933 23.486 70.5891 22.7712 69.4447 22.4436C65.5862 21.3388 60.9322 20.5646 55.9245 20.1944C53.4904 20.0145 49.3837 19.9441 47.4503 20.0491ZM54.1234 21.5184C54.5294 21.553 55.3797 21.6208 56.0131 21.669C59.2244 21.9131 63.1806 22.4791 66.1408 23.1178C66.4656 23.1879 66.8426 23.268 66.9787 23.2958C67.3999 23.3819 69.3029 23.8655 69.8316 24.0209C71.2726 24.4443 72.1235 24.7259 72.1383 24.7841C72.1446 24.8087 72.3034 27.6925 72.396 29.4633C72.4452 30.4052 72.4999 31.2756 72.5175 31.3973C72.5351 31.5192 72.5297 31.6188 72.5054 31.6188C72.4811 31.6188 72.0623 31.4609 71.5746 31.2678C70.02 30.6525 69.5208 30.482 67.6467 29.9262C66.2607 29.5152 64.1034 29.0087 62.4204 28.699C60.925 28.4239 59.3687 28.203 57.8142 28.0453C57.3595 27.9992 56.735 27.9339 56.4265 27.9002C55.619 27.8122 54.0856 27.7313 52.337 27.6846L50.8164 27.6439V30.3105V32.977H61.6822H72.5481V33.3609V33.7447H61.7118H50.8754V36.4021C50.8754 37.8637 50.8754 39.0794 50.8754 39.1038C50.8754 39.1282 55.7318 39.1614 61.6675 39.1776L72.4595 39.2072L72.477 39.6058L72.4944 40.0044H65.9368H59.3792V42.3961V44.7877H65.9046H72.43V44.987C72.43 45.0966 72.4134 45.2694 72.3931 45.3709L72.3562 45.5554H65.8677H59.3792V48.5376V51.5198H65.8455H72.3119V51.9332V52.3466H65.9377H59.5636L59.533 52.5976C59.5163 52.7356 59.4867 53.0339 59.4674 53.2603C59.4207 53.8072 59.2009 54.7198 58.9409 55.4469C58.8246 55.7717 58.7296 56.0474 58.7296 56.0594C58.7296 56.0715 58.7715 56.0467 58.8228 56.0041C59.1411 55.7399 59.5147 54.4845 59.6743 53.1427C59.7129 52.8185 59.7486 52.549 59.7537 52.5438C59.7588 52.5387 62.5799 52.5268 66.0227 52.5175L72.2824 52.5006L72.2628 53.0879C72.233 53.9778 72.0457 55.3137 71.8055 56.3488C71.592 57.2687 71.159 58.7433 70.9518 59.2559C70.8927 59.402 70.7472 59.7874 70.6283 60.1121C70.0605 61.6644 68.833 64.1743 67.8533 65.786C67.3822 66.5612 67.3628 66.5939 67.3138 66.6966C67.2905 66.7453 67.2163 66.8649 67.1489 66.9624C67.0815 67.0598 66.9998 67.1832 66.9674 67.2365C65.9334 68.9383 63.8552 71.2709 61.948 72.8703C60.8739 73.771 60.5895 73.9992 60.1512 74.3115C59.8981 74.4918 59.5478 74.7478 59.3727 74.8803C59.0565 75.1196 57.9345 75.8779 57.3123 76.2728C56.3142 76.9061 56.2201 76.962 54.9797 77.6597C54.0742 78.1689 51.7447 79.2495 51.1855 79.4197L51.0526 79.4602V70.3405V61.2209L51.4512 61.1804C51.6704 61.1581 51.9062 61.1258 51.9751 61.1087C52.0714 61.0848 52.1088 61.1106 52.1363 61.2201C52.1947 61.453 52.4052 61.6771 52.5654 61.6771C52.7116 61.6771 52.9586 61.4796 53.0127 61.3194C53.034 61.2562 53.1051 61.2915 53.2873 61.4556C53.4803 61.6295 53.5814 61.6771 53.7574 61.6771C54.0239 61.6771 54.1234 61.5939 54.1234 61.3712C54.1234 61.1751 53.9553 60.7322 53.8807 60.7322C53.7431 60.7322 53.8521 60.6155 54.0496 60.5514C54.5598 60.386 55.4451 59.8878 55.9836 59.4632C56.3046 59.2101 57.769 58.7458 60.1764 58.1339C61.9398 57.6856 62.2888 57.6312 63.3653 57.6367C65.4585 57.6473 66.8367 58.1604 68.5915 59.5828C69.1547 60.0392 69.1702 60.0479 69.2732 59.9624C69.4006 59.8567 69.3834 59.7127 69.2485 59.7555C69.1724 59.7796 69.0406 59.7115 68.8276 59.538C67.021 58.0667 65.9355 57.5894 64.0055 57.4175C62.5333 57.2864 60.8203 57.5965 57.7257 58.5546C56.4248 58.9572 56.2562 59.0259 55.9245 59.2883C54.9239 60.0799 53.1106 60.7335 51.4445 60.9029C51.124 60.9355 50.8534 60.9708 50.8429 60.9812C50.8324 60.9917 50.8047 65.1797 50.7812 70.2879L50.7387 79.5755L50.3789 79.5581L50.0192 79.5408L50.004 75.3332L49.9889 71.1256L43.4786 71.1256H36.9683L36.6315 70.7489C36.4462 70.5417 36.3111 70.3557 36.3313 70.3356C36.3514 70.3154 39.4461 70.2989 43.2083 70.2989H50.0487V68.8616C50.0487 68.0711 50.0311 66.8221 50.0097 66.0861L49.9708 64.7479H41.0461H32.1215L31.9023 64.3666C31.7817 64.157 31.683 63.9709 31.683 63.9532C31.683 63.9356 35.802 63.9211 40.8363 63.9211H49.9896V62.4448V60.9684H49.7757C48.9297 60.9684 47.3658 60.5441 46.3676 60.0436C45.7274 59.7228 44.8341 59.1441 44.3357 58.7276L43.9789 58.4296L36.6091 58.4146L29.2393 58.3996L29.1333 58.0453C29.0749 57.8504 29.0268 57.6711 29.0264 57.6467C29.026 57.6223 32.2562 57.6024 36.2046 57.6024H43.3837L43.2468 57.4196C42.8255 56.8572 42.4517 56.2809 42.2544 55.8898C41.798 54.9848 41.4788 53.8588 41.3966 52.8636L41.3539 52.3471L34.7616 52.3321L28.1693 52.3171L28.1331 48.7443C28.1131 46.7793 28.0801 44.0953 28.0596 42.7799C28.0392 41.4645 28.0088 39.219 27.9921 37.7899C27.9754 36.3608 27.9456 34.6146 27.9259 33.9094L27.8899 32.6274L28.2068 32.4837C29.5827 31.8602 31.6672 31.0606 32.8346 30.7086C33.1269 30.6205 33.4325 30.5234 33.5137 30.4929C33.5949 30.4623 33.8075 30.398 33.9861 30.3498C34.1647 30.3017 34.5102 30.2077 34.7538 30.141C38.1141 29.2204 41.287 28.6559 45.3539 28.2549C46.2951 28.1621 48.3459 28.046 49.0448 28.046H49.7239L49.7389 33.6118C49.7539 39.1285 49.7551 39.1776 49.8718 39.1776C49.9887 39.1776 49.9896 39.1334 49.9896 33.4853C49.9896 28.3491 49.9805 27.7895 49.8962 27.7571C49.684 27.6757 47.2396 27.7649 46.033 27.8982C45.7245 27.9323 45.1 27.9996 44.6453 28.0476C42.4151 28.2835 39.5484 28.758 37.4703 29.2352C37.1292 29.3135 36.6775 29.4154 36.4664 29.4617C35.0774 29.766 32.4527 30.5214 31.1414 30.9942C29.8937 31.4442 29.6094 31.5579 28.8189 31.9234C28.3967 32.1187 28.0114 32.2828 27.9626 32.2882C27.8856 32.2967 27.8756 32.087 27.8858 30.6739C27.8923 29.7807 27.9153 28.298 27.9369 27.3788L27.9763 25.7076L28.5747 25.4073C32.1508 23.6127 40.6365 21.8993 48.1294 21.4589C49.1511 21.3988 53.1942 21.4389 54.1234 21.5184ZM48.3361 22.0938C48.2874 22.1116 48.1878 22.1806 48.1147 22.2471C47.9879 22.3624 47.9818 22.4097 47.9818 23.2697C47.9818 24.1199 47.9894 24.1803 48.1147 24.3255C48.1881 24.4106 48.3532 24.5039 48.4838 24.534C48.6137 24.5641 49.4555 24.5892 50.3544 24.59L51.9889 24.5914L52.1112 24.747C52.2658 24.9434 52.2674 25.1482 52.1156 25.3C52.0102 25.4054 51.9193 25.4181 51.274 25.4174C50.8761 25.4171 49.986 25.4489 49.2957 25.4882L48.0409 25.5598V25.9085V26.2572L50.0634 26.22C51.1758 26.1996 52.2495 26.1684 52.4494 26.1508C53.0334 26.0991 53.0278 26.1094 53.0499 25.0308C53.0604 24.5199 53.0539 24.0421 53.0356 23.9688C52.9783 23.7409 52.7752 23.7208 51.1158 23.7791C49.2833 23.8435 49.1077 23.8281 48.9678 23.5913C48.8272 23.3531 48.8427 23.1346 49.0126 22.9648L49.1575 22.8198H51.109H53.0604V22.4359V22.0521L50.7426 22.0568C49.4678 22.0593 48.3848 22.076 48.3361 22.0938ZM54.7434 22.166C54.4906 22.227 54.3126 22.3326 54.2428 22.4629C54.2056 22.5324 54.1824 23.2332 54.1824 24.2857C54.1824 25.8639 54.1909 26.006 54.2922 26.1311C54.4151 26.2829 54.3891 26.2787 56.4855 26.4813C57.1838 26.5487 57.9678 26.628 58.2276 26.6575C58.4874 26.6869 58.8275 26.7124 58.9833 26.7141L59.2664 26.7173L59.249 26.3187L59.2315 25.9201L57.7847 25.8223C55.9438 25.6978 55.3988 25.632 55.2155 25.5119L55.0682 25.4154L55.0691 24.28C55.0697 23.6555 55.0896 23.1154 55.1134 23.0796C55.2326 22.9011 55.4252 22.8703 56.0315 22.9331C56.8169 23.0145 58.6149 23.2267 59.0101 23.2847L59.3201 23.3301V22.9273C59.3201 22.6449 59.2981 22.5243 59.2463 22.5238C59.1739 22.523 58.6536 22.4739 56.1607 22.2323C55.4787 22.1662 54.9206 22.1146 54.9206 22.1177C54.9206 22.1207 54.8409 22.1425 54.7434 22.166ZM44.9996 22.2602C44.6423 22.3013 43.885 22.3918 43.3166 22.4613C42.7482 22.5308 42.1436 22.6038 41.9731 22.6234L41.6631 22.6592L41.6632 23.2562C41.6632 23.5845 41.6808 24.5508 41.7022 25.4034L41.7411 26.9535H41.8826C41.9605 26.9535 42.1422 26.9238 42.2865 26.8875L42.5489 26.8214V26.2126C42.5489 25.564 42.592 25.451 42.863 25.3888C42.9993 25.3575 44.967 25.1828 45.1895 25.1823C45.4036 25.1817 45.7225 25.5184 45.9567 25.9923L46.1764 26.4367L46.5721 26.3999C47.2015 26.3414 47.1885 26.3683 46.8821 25.758C46.7343 25.4638 46.5457 25.1209 46.4631 24.996L46.3129 24.769L46.565 24.4954L46.8172 24.222L46.7756 23.4221C46.7327 22.5943 46.6648 22.3461 46.4497 22.231C46.307 22.1546 45.8338 22.1642 44.9996 22.2602ZM60.0878 24.6737C60.0878 27.0951 60.0365 26.8666 60.5948 26.9322L60.9145 26.9698V26.1349C60.9145 25.6757 60.9259 25.3 60.9397 25.3C60.9536 25.3 61.226 25.3508 61.545 25.4128C61.8641 25.4748 62.5703 25.6007 63.1143 25.6927L64.1034 25.8599V26.7255V27.591L64.4774 27.6561C64.683 27.692 64.8959 27.7212 64.9505 27.7212C65.0419 27.7212 65.0485 27.5508 65.0342 25.5564L65.0188 23.3916L64.6349 23.2831C64.4238 23.2234 64.2179 23.1745 64.1773 23.1744C64.1214 23.1742 64.1034 23.3962 64.1034 24.088V25.0018L63.941 24.9739C63.7607 24.9428 63.0658 24.8226 62.0366 24.6444C61.6631 24.5798 61.2578 24.5113 61.136 24.4923L60.9145 24.4578V23.5808V22.7039L60.7522 22.6706C60.6628 22.6523 60.4937 22.6119 60.3762 22.5809C60.2588 22.5499 60.1458 22.5245 60.1252 22.5245C60.1046 22.5245 60.0878 23.4916 60.0878 24.6737ZM39.5371 22.9951C39.4235 23.0218 39.0381 23.1021 38.6809 23.1736C38.3236 23.2451 37.7921 23.3514 37.4998 23.4099C37.2075 23.4683 36.7424 23.56 36.4664 23.6137C35.7682 23.7492 35.6219 23.803 35.4494 23.9875C35.1109 24.3493 35.096 24.4346 35.1701 25.583C35.2072 26.1582 35.2549 26.899 35.2762 27.2294C35.3103 27.7593 35.3321 27.8484 35.4619 27.9865C35.5564 28.0871 35.6514 28.1333 35.7277 28.116C35.7929 28.1012 36.112 28.034 36.4368 27.9667C36.7616 27.8993 37.2798 27.7909 37.5884 27.7256C37.8969 27.6604 38.5958 27.5139 39.1415 27.4002C39.8125 27.2604 40.1922 27.1519 40.3145 27.0648C40.6487 26.8268 40.6658 26.7095 40.6211 24.963L40.5807 23.3874L40.3985 23.1931C40.1967 22.978 39.9 22.9097 39.5371 22.9951ZM45.5657 23.1317C45.7149 23.2463 45.7969 23.4439 45.7959 23.6869C45.794 24.1843 45.5541 24.3829 44.852 24.4685C42.9671 24.698 42.6539 24.7218 42.5761 24.6414C42.5103 24.5733 42.4588 24.0143 42.4833 23.6331C42.4982 23.4006 42.6881 23.3552 44.5272 23.1454C45.3811 23.0479 45.4553 23.0469 45.5657 23.1317ZM49.2311 23.1335C49.1886 23.1847 49.1625 23.2879 49.1731 23.3628L49.1924 23.4989H51.2444H53.2965L53.2965 23.307L53.2966 23.1151H51.8294C51.0224 23.1151 50.125 23.0982 49.8353 23.0777C49.3962 23.0465 49.2956 23.0558 49.2311 23.1335ZM55.3438 23.2135C55.3222 23.2351 55.3045 23.3348 55.3046 23.435L55.3049 23.617L55.7328 23.6292C55.9682 23.6359 56.36 23.6689 56.6036 23.7024C56.8472 23.736 57.4053 23.8047 57.8438 23.8552C58.7319 23.9575 59.2104 24.0273 59.453 24.0899C59.6075 24.1297 59.6154 24.1216 59.6154 23.9221C59.6154 23.8069 59.5938 23.6992 59.5674 23.6829C59.4924 23.6366 58.4893 23.4852 57.5485 23.3783C57.0775 23.3248 56.4929 23.2584 56.2493 23.2307C55.6979 23.1682 55.3949 23.1624 55.3438 23.2135ZM44.5567 23.4181C44.3131 23.4465 43.8299 23.5095 43.483 23.5581C43.136 23.6067 42.8238 23.6465 42.7891 23.6465C42.7544 23.6465 42.726 23.7396 42.726 23.8532C42.726 24.0906 42.7306 24.0916 43.4052 23.9997C44.3924 23.8653 45.3961 23.7655 45.4467 23.7968C45.508 23.8346 45.5212 23.5894 45.4657 23.4447C45.4256 23.3401 45.2664 23.3355 44.5567 23.4181ZM66.1703 25.8611C66.1703 27.079 66.1771 28.0756 66.1853 28.0756C66.2152 28.0756 67.0124 28.3129 69.1393 28.9552C70.3338 29.3159 71.3369 29.611 71.3686 29.611C71.4016 29.611 71.4261 29.3882 71.4261 29.0887V28.5665L70.9389 28.4344C70.6709 28.3618 70.0265 28.1833 69.5068 28.0378C68.9872 27.8924 68.3228 27.7064 68.0305 27.6246C67.0123 27.3398 67.1152 27.4124 67.1152 26.9785C67.1152 26.7509 67.1402 26.5992 67.1777 26.5992C67.2121 26.5992 67.8167 26.7746 68.5212 26.989C70.259 27.5179 70.4519 27.577 70.8946 27.7171C71.1057 27.7838 71.2984 27.8386 71.3227 27.8389C71.3471 27.8392 71.367 27.6128 71.367 27.3359C71.367 26.7619 71.4194 26.8163 70.661 26.6016C69.5699 26.2927 67.2568 25.5803 67.2155 25.5404C67.1895 25.5153 67.1762 25.3342 67.1859 25.1381L67.2038 24.7813L68.8573 25.2771C69.7667 25.5498 70.6813 25.8259 70.8898 25.8908C71.0983 25.9557 71.292 26.0087 71.3203 26.0087C71.3486 26.0087 71.3641 25.7898 71.3546 25.5223L71.3375 25.0359L70.3041 24.7558C69.7357 24.6017 69.1776 24.4517 69.0639 24.4223C68.9503 24.3929 68.2639 24.2064 67.5387 24.0077C66.8134 23.8091 66.2088 23.6465 66.1952 23.6465C66.1815 23.6465 66.1703 24.6431 66.1703 25.8611ZM39.46 24.0842L39.6257 24.2267L39.6454 25.234L39.6652 26.2414L39.5169 26.3787C39.3705 26.5144 38.8934 26.6469 37.736 26.8735C37.4762 26.9244 37.1573 26.9886 37.0274 27.0163C36.6413 27.0984 36.3753 27.0815 36.2741 26.9683C36.2022 26.8879 36.1722 26.6455 36.139 25.8774C36.0812 24.5389 36.1069 24.5042 37.3131 24.2872C37.6756 24.222 38.2247 24.1214 38.5332 24.0635C39.2862 23.9224 39.2713 23.922 39.46 24.0842ZM47.6892 24.3257C47.6891 24.6164 47.887 24.9731 48.1327 25.1249L48.3566 25.2633L49.6898 25.1921C50.4231 25.1529 51.229 25.1213 51.4807 25.1219C51.8174 25.1226 51.9384 25.1026 51.9384 25.0461C51.9384 24.8417 51.8189 24.8276 50.0782 24.8276H48.3597L48.1131 24.6677C47.9776 24.5798 47.8267 24.427 47.7779 24.3281L47.6893 24.1485L47.6892 24.3257ZM38.7694 24.2951C38.6882 24.3219 38.2099 24.4143 37.7065 24.5004C36.4808 24.71 36.3482 24.7705 36.3482 25.119C36.3482 25.2543 36.416 25.2725 36.5705 25.1787C36.7542 25.067 39.143 24.657 39.2566 24.7176C39.3454 24.765 39.36 24.7449 39.36 24.5758C39.36 24.2575 39.1647 24.1647 38.7694 24.2951ZM33.2184 24.4127C32.8657 24.5133 32.1827 24.7265 29.6752 25.5187L28.7599 25.8078L28.7823 28.0785C28.7946 29.3273 28.8092 30.3549 28.8147 30.3618C28.8202 30.3688 29.0683 30.2891 29.3662 30.1847L29.9077 29.9948L29.9243 29.2309L29.9409 28.4671L30.6496 28.2409C31.0393 28.1164 31.5974 27.9371 31.8897 27.8425C32.182 27.748 32.7799 27.561 33.2184 27.427C34.2416 27.1145 34.3884 27.0479 34.4313 26.8768C34.4505 26.8004 34.4578 26.2525 34.4476 25.6593L34.429 24.5809L34.2633 24.4385C34.0599 24.2637 33.7664 24.2565 33.2184 24.4127ZM46.8406 24.6236C46.6894 24.8056 46.6817 24.8359 46.7585 24.9454C46.8321 25.0507 46.8526 25.055 46.9158 24.9789C46.9824 24.8987 47.0822 24.4086 47.03 24.4185C47.0176 24.4209 46.9324 24.5132 46.8406 24.6236ZM67.4695 25.2682C67.4695 25.3201 67.5816 25.388 67.75 25.4383C68.9901 25.8088 71.4604 26.5571 71.5241 26.5815C71.5686 26.5986 71.6032 26.5731 71.6032 26.5234C71.6032 26.4152 71.3764 26.3223 70.4222 26.0398C70.0162 25.9196 69.2165 25.6774 68.6452 25.5016C68.0739 25.3258 67.5756 25.1819 67.5379 25.1819C67.5003 25.1819 67.4695 25.2208 67.4695 25.2682ZM33.3627 25.4904C33.4217 25.5745 33.4546 25.7516 33.4546 25.9844C33.4546 26.3857 33.3291 26.6207 33.0869 26.673C33.0131 26.6889 32.3054 26.9065 31.5144 27.1565C30.7233 27.4064 30.0391 27.5968 29.9938 27.5794C29.8828 27.5368 29.8752 26.4654 29.9852 26.3777C30.0258 26.3453 30.5241 26.1715 31.0925 25.9914C31.6609 25.8114 32.3252 25.5987 32.5688 25.5187C33.1349 25.3329 33.2496 25.3289 33.3627 25.4904ZM44.7634 25.4773C44.6335 25.5027 44.1789 25.5523 43.7533 25.5875C43.3276 25.6227 42.9356 25.6683 42.8822 25.6888C42.7922 25.7233 42.7431 26.0061 42.8147 26.0777C42.831 26.0939 42.997 26.0871 43.1838 26.0625C43.3705 26.0379 43.7491 26.0033 44.0252 25.9857C44.3013 25.9681 44.6812 25.9356 44.8693 25.9136C45.1917 25.8758 45.2219 25.8834 45.3915 26.0445C45.5918 26.2347 45.7795 26.567 45.8882 26.924C45.9412 27.0978 45.9893 27.1573 46.0704 27.1491C46.8799 27.0676 47.4836 26.9973 47.499 26.9827C47.5095 26.9727 47.4749 26.881 47.4222 26.779L47.3263 26.5936L46.8125 26.6342C46.53 26.6565 46.2346 26.6987 46.1563 26.7278C45.9827 26.7923 45.9563 26.7652 45.835 26.399C45.6938 25.973 45.4609 25.6079 45.266 25.5071C45.1714 25.4582 45.0728 25.421 45.0468 25.4246C45.0209 25.4282 44.8933 25.4519 44.7634 25.4773ZM32.0964 25.9616C31.593 26.1238 30.9486 26.3269 30.6645 26.4131L30.1479 26.5697L30.1477 26.7911C30.1477 26.913 30.1542 27.0125 30.1624 27.0123C30.1705 27.0122 30.496 26.9091 30.8858 26.7832C31.2755 26.6573 31.946 26.4432 32.3756 26.3074C32.8053 26.1716 33.1683 26.0421 33.1822 26.0195C33.2294 25.9431 33.1461 25.6543 33.0786 25.6606C33.0418 25.6641 32.5998 25.7995 32.0964 25.9616ZM61.1508 25.8399C61.1508 26.034 61.1613 26.0433 61.4608 26.1114C61.6313 26.1502 61.9568 26.2104 62.1842 26.2453C62.5541 26.302 63.3189 26.4401 63.6753 26.5147C63.7948 26.5396 63.8082 26.5197 63.8082 26.3156V26.0887L63.4096 26.0219C63.1904 25.9851 62.6921 25.899 62.3023 25.8304C61.0419 25.6088 61.1508 25.6079 61.1508 25.8399ZM53.1895 26.1312C53.0414 26.3683 52.8067 26.4048 51.1412 26.4496C50.2642 26.4733 49.4803 26.4992 49.3991 26.5072C49.3179 26.5151 48.9126 26.5258 48.4985 26.5309L47.7456 26.5402V26.7563V26.9725L49.3548 26.9282C50.2399 26.9038 51.4114 26.8663 51.9582 26.8449L52.9523 26.8059L53.1245 26.613C53.2448 26.4783 53.2966 26.3583 53.2966 26.2144C53.2966 25.9738 53.2907 25.9692 53.1895 26.1312ZM53.8888 26.0973C53.8868 26.343 54.0109 26.6416 54.1843 26.8077C54.3824 26.9975 54.3957 26.9995 56.8398 27.2175C57.4082 27.2681 58.0593 27.3343 58.2867 27.3644C58.514 27.3946 58.8794 27.4362 59.0986 27.4569L59.4973 27.4944V27.2857C59.4973 27.0487 59.5537 27.0685 58.5524 26.9547C58.0376 26.8963 57.5019 26.8447 55.2454 26.6363C54.3543 26.554 54.1331 26.4728 53.986 26.1742C53.9148 26.0298 53.8896 26.0099 53.8888 26.0973ZM40.7867 26.9345C40.6357 27.2922 40.3434 27.4238 39.0759 27.7049C38.4364 27.8467 37.8334 27.9749 37.736 27.9898C37.4524 28.033 37.0095 28.12 36.4115 28.2499C35.6759 28.4096 35.5121 28.405 35.2898 28.2179C35.0692 28.0323 35.056 28.124 35.2546 28.4628C35.4804 28.848 35.5834 28.8608 36.6463 28.6347C37.1482 28.528 37.7183 28.4214 37.9132 28.3978C38.108 28.3741 38.2808 28.3361 38.297 28.3131C38.3133 28.2901 38.5524 28.2279 38.8285 28.1748C40.3052 27.8908 40.5536 27.7859 40.7668 27.3562C40.8423 27.2042 40.8954 27.0049 40.8849 26.9133L40.8658 26.7469L40.7867 26.9345ZM67.4104 27.0605C67.4104 27.1527 67.4893 27.1961 67.8091 27.28C68.2762 27.4026 68.8118 27.5499 69.3887 27.7145C69.6161 27.7794 70.1742 27.9376 70.6289 28.0662C71.0836 28.1947 71.5022 28.3187 71.559 28.3417C71.6158 28.3647 71.6623 28.3598 71.6623 28.331C71.6623 28.2707 71.4294 28.1721 70.9241 28.0183C70.7293 27.959 70.3904 27.8546 70.1712 27.7863C69.952 27.7181 69.6065 27.6117 69.4035 27.55C68.1778 27.1775 67.6048 27.0036 67.5138 26.9764C67.4402 26.9545 67.4104 26.9787 67.4104 27.0605ZM34.5393 27.1792C34.4413 27.3038 34.2515 27.3897 33.683 27.5669C33.2814 27.6921 32.6869 27.8851 32.3621 27.9957C32.0373 28.1064 31.707 28.2109 31.6281 28.2279C31.5492 28.2449 31.1971 28.3518 30.8456 28.4654L30.2067 28.672V28.8757C30.2067 28.9878 30.2233 29.0795 30.2436 29.0795C30.2882 29.0795 31.5468 28.696 31.9192 28.569C32.4803 28.3776 33.9645 27.9091 34.1284 27.8717C34.4049 27.8085 34.6947 27.4775 34.6947 27.2252C34.6947 27.1083 34.6881 27.0141 34.68 27.0158C34.6719 27.0177 34.6086 27.0911 34.5393 27.1792ZM42.3181 27.1663C41.6005 27.2884 41.5942 27.2912 41.6151 27.4723C41.6358 27.652 41.6385 27.6524 42.416 27.5715C42.8662 27.5247 42.8853 27.5066 42.7939 27.2146C42.7567 27.0957 42.7418 27.0942 42.3181 27.1663ZM59.8516 27.3259V27.5211L60.3092 27.5949C60.561 27.6354 60.8532 27.6834 60.9588 27.7015C61.146 27.7336 61.1508 27.7291 61.1508 27.5211C61.1508 27.4038 61.1398 27.3079 61.1264 27.3079C61.113 27.3079 60.8938 27.268 60.6392 27.2193C60.3847 27.1706 60.1033 27.1307 60.014 27.1307C59.8696 27.1307 59.8516 27.1523 59.8516 27.3259ZM63.8672 28.046C63.8672 28.1703 63.8966 28.254 63.941 28.256C63.9817 28.2577 64.3005 28.3192 64.6497 28.3927L65.2845 28.5261V28.3009C65.2845 28.177 65.2646 28.0753 65.2402 28.075C65.2158 28.0747 64.9343 28.0215 64.6144 27.9569C63.8496 27.8023 63.8672 27.8002 63.8672 28.046ZM65.9341 28.516C65.9341 28.7187 65.9372 28.7211 66.3622 28.8443C66.5977 28.9126 66.9498 29.0178 67.1447 29.078C67.3396 29.1383 67.7382 29.2579 68.0305 29.3439C68.3228 29.4299 68.6284 29.5236 68.7096 29.552C68.7908 29.5804 69.3223 29.7408 69.8907 29.9082C70.4591 30.0757 71.0646 30.2633 71.2364 30.3252C71.6483 30.4736 71.6623 30.4708 71.6623 30.2382C71.6623 30.0009 71.7183 30.0276 70.3631 29.6173C67.3581 28.7073 66.032 28.3118 65.9858 28.3118C65.9574 28.3118 65.9341 28.4037 65.9341 28.516ZM29.7933 30.3234C28.5616 30.7529 28.6042 30.7307 28.6238 30.932C28.6337 31.0337 28.6683 31.1159 28.7008 31.1149C28.7333 31.1138 29.0848 31.0075 29.482 30.8787L30.204 30.6444L30.2054 30.4229C30.2068 30.1697 30.2229 30.1736 29.7933 30.3234ZM41.545 30.2521C41.1654 30.3341 40.6808 30.597 40.4274 30.8582C40.0641 31.2328 39.8315 31.7287 39.657 32.5005L39.5045 33.1754L38.886 33.3193C38.5458 33.3985 37.9815 33.5351 37.6319 33.6229C37.2823 33.7107 36.9834 33.7696 36.9675 33.7538C36.9069 33.6931 36.9427 33.1049 37.0267 32.7823C37.1797 32.1952 37.4502 31.7411 37.9205 31.2828C38.1601 31.0493 38.3561 30.8433 38.3561 30.8251C38.3561 30.8069 38.2165 30.7923 38.046 30.7927C37.5163 30.7937 36.8679 31.0456 36.5792 31.3624C36.1163 31.8704 35.9824 32.2811 35.9386 33.3264L35.9053 34.1188L34.5207 34.5806C33.5193 34.9146 33.1239 35.023 33.0925 34.9722C33.002 34.8259 32.9761 34.3401 33.0399 33.9881C33.162 33.3149 33.4869 32.7314 34.1123 32.0619L34.4881 31.6596L34.2632 31.7016C33.3471 31.8724 32.5976 32.5354 32.3205 33.4199C32.2075 33.7806 32.1638 34.4447 32.2172 34.9912C32.2656 35.4867 32.2604 35.5542 32.1691 35.624C31.9794 35.769 31.0638 36.284 30.9957 36.284C30.9585 36.284 30.9117 36.2183 30.8915 36.1382C30.8714 36.0579 30.753 35.8852 30.6285 35.7543C30.4376 35.5536 30.3651 35.5163 30.1655 35.5163C30.0156 35.5163 29.8553 35.5663 29.7282 35.6526C29.5446 35.7774 29.5277 35.8138 29.5294 36.0831C29.5307 36.2942 29.57 36.4316 29.6687 36.5702C29.7443 36.6764 29.7967 36.7718 29.785 36.7823C29.7733 36.7927 29.6309 36.8681 29.4685 36.9497C29.0549 37.1575 28.9358 37.3061 28.9424 37.6067C28.9563 38.2457 29.5084 38.4147 30.1835 37.9865L30.4589 37.8118L30.6505 37.9975C30.9546 38.2922 31.4929 38.3459 31.7773 38.11C31.9167 37.9942 31.8792 37.5455 31.703 37.2218C31.6165 37.063 31.5568 36.923 31.5701 36.9107C31.6879 36.8026 33.7782 35.836 34.6062 35.5068C36.365 34.8074 38.2332 34.2428 39.5667 34.0077C40.7099 33.8062 40.9039 33.7889 42.0469 33.786C43.0599 33.7835 43.3149 33.802 43.8387 33.9162C44.7792 34.1212 45.4348 34.3987 46.0572 34.8552L46.3471 35.0677L46.3042 34.8934C46.2401 34.6338 46.0095 34.2653 45.7559 34.0175C45.4802 33.7482 44.778 33.3884 44.2482 33.2449L43.8534 33.1381L43.9347 32.9807C44.0441 32.7693 44.4918 32.3629 44.7723 32.2203C45.0399 32.0843 45.5665 31.9404 46.0626 31.8677L46.4169 31.8158L46.0626 31.6466C45.7811 31.5122 45.6038 31.4724 45.2006 31.4527C44.6421 31.4256 44.3525 31.5122 43.9329 31.8323C43.6853 32.0212 43.2495 32.5706 43.102 32.8799L42.9995 33.0951L42.1246 33.1076C41.6434 33.1145 41.1102 33.1211 40.9397 33.1224L40.6296 33.1246L40.6498 32.918C40.677 32.6394 40.9194 31.9546 41.0998 31.6468C41.3505 31.219 42.0262 30.6435 42.4606 30.4877C42.7235 30.3935 42.8143 30.3371 42.7559 30.3044C42.6339 30.2362 41.7878 30.1996 41.545 30.2521ZM42.6885 30.8235C42.079 31.1278 41.6041 31.5542 41.3452 32.03C41.1402 32.4066 41.1719 32.5592 41.3809 32.2025C41.6784 31.695 42.388 31.1365 43.0361 30.9001C43.2839 30.8097 43.3756 30.7464 43.3756 30.666C43.3756 30.5053 43.2837 30.5263 42.6885 30.8235ZM38.6396 31.2084C38.422 31.3718 38.1615 31.6097 38.0606 31.7371C37.8365 32.0201 37.4696 32.7127 37.472 32.8485C37.4729 32.9029 37.5707 32.7656 37.6893 32.5433C37.9298 32.0922 38.4226 31.5609 38.8449 31.297C39.0096 31.1941 39.1238 31.0793 39.1238 31.0165C39.1238 30.8614 39.0768 30.88 38.6396 31.2084ZM34.4722 32.3717C33.969 32.8746 33.6863 33.2953 33.6087 33.6561C33.5816 33.7823 33.6262 33.7322 33.7636 33.4823C33.9965 33.0588 34.415 32.5905 34.8812 32.2316C35.2448 31.9519 35.3031 31.855 35.1077 31.855C35.0375 31.855 34.7786 32.0655 34.4722 32.3717ZM45.4093 32.3285C45.0528 32.4425 44.5814 32.8147 44.6509 32.9272C44.686 32.9837 44.7336 32.9618 44.9996 32.7671C45.295 32.5507 45.6091 32.4826 46.3283 32.4787C46.9669 32.4753 47.0074 32.468 47.0074 32.357C47.0074 32.2471 46.9639 32.238 46.3874 32.2264C45.9101 32.2169 45.6848 32.2404 45.4093 32.3285ZM41.1363 32.5981C41.1391 32.6669 41.1531 32.6809 41.1719 32.6338C41.189 32.5912 41.1869 32.5402 41.1673 32.5206C41.1476 32.501 41.1337 32.5358 41.1363 32.5981ZM41.1021 34.2774C39.0645 34.406 36.2977 35.1949 33.6023 36.4158C32.3915 36.9643 32.1918 37.0775 32.2908 37.1597C32.3607 37.2177 32.5102 37.1682 33.0783 36.8994C36.6492 35.2089 40.0595 34.364 42.6802 34.5206C43.2976 34.5574 44.2026 34.7241 44.5272 34.8606C45.0977 35.1008 45.3483 35.2284 45.7066 35.4619C45.9349 35.6105 46.1581 35.7766 46.2026 35.831C46.3167 35.97 46.541 35.9537 46.6497 35.7984C46.8009 35.5827 46.7661 35.5078 46.5678 35.6216C46.4006 35.7176 46.3875 35.7164 46.2282 35.5913C44.8421 34.5023 43.3988 34.1323 41.1021 34.2774ZM29.0847 36.5463C29.0847 36.5931 29.1087 36.6462 29.1382 36.6644C29.1676 36.6827 29.1778 36.6444 29.1608 36.5793C29.1247 36.4415 29.0847 36.424 29.0847 36.5463ZM39.246 37.4075C38.4615 37.6897 38.0307 38.2299 37.7338 39.304L37.5764 39.8733L37.2267 39.9421C37.0343 39.9799 36.5846 40.0857 36.2275 40.1771C35.8703 40.2685 35.5681 40.3269 35.5559 40.3067C35.52 40.2474 35.6267 39.6609 35.733 39.3332C35.9059 38.8004 36.1861 38.339 36.6078 37.8932L36.8452 37.6422H36.6368C36.0977 37.6422 35.512 38.0223 35.2479 38.5436C35.0077 39.0175 34.9272 39.3426 34.8899 39.9895C34.8707 40.3222 34.8255 40.6169 34.7896 40.6442C34.7348 40.6859 34.0149 41.0084 33.2309 41.3424C33.0373 41.4249 33.0364 41.4245 32.9504 41.2187C32.899 41.0957 32.8641 40.8203 32.8641 40.538C32.8641 39.9713 33.0145 39.4802 33.3351 39.0005C33.6726 38.4953 33.6695 38.5108 33.4157 38.6167C32.954 38.8095 32.6968 39.0028 32.4923 39.311C32.1713 39.7945 32.0741 40.2051 32.0764 41.0674L32.0784 41.8055L31.4033 42.1303C31.0319 42.309 30.7105 42.4617 30.6888 42.4696C30.6672 42.4776 30.5977 42.3582 30.5344 42.2041C30.3777 41.8234 30.2011 41.6579 29.9516 41.6579C29.4419 41.6579 29.2684 42.1724 29.6161 42.6524C29.7136 42.7869 29.7928 42.9172 29.7923 42.9418C29.7918 42.9665 29.6423 43.0511 29.4602 43.13C29.0441 43.3102 28.8868 43.5333 28.9368 43.8724C28.985 44.1991 29.1361 44.3351 29.4504 44.3345C29.711 44.334 30.1242 44.1611 30.2621 43.9948C30.3716 43.863 30.4232 43.8788 30.4885 44.0643C30.5199 44.1536 30.6192 44.2998 30.709 44.3891C31.0052 44.6836 31.6178 44.5835 31.7075 44.2259C31.7573 44.0274 31.6591 43.6749 31.4808 43.4122L31.3378 43.2016L32.1158 42.8185C33.4261 42.1734 34.3815 41.7786 35.6396 41.3625C37.548 40.7314 38.9795 40.4948 40.5517 40.5505L41.4269 40.5815V39.9977C41.4269 39.4255 41.4296 39.4139 41.5646 39.4139C41.6588 39.4139 41.7475 39.3442 41.8451 39.1932C42.029 38.9092 42.4555 38.6322 43.0177 38.4319C43.2632 38.3443 43.4864 38.2535 43.5135 38.23C43.6195 38.1382 42.9914 37.967 42.5489 37.967C41.7873 37.967 41.3149 38.3141 40.8547 39.2117C40.7309 39.4531 40.5898 39.6618 40.5411 39.6755C40.4923 39.6891 40.0074 39.7184 39.4633 39.7405C38.3238 39.7868 38.3862 39.8275 38.6246 39.1938C38.9334 38.373 39.4072 37.8224 40.0735 37.5103C40.2305 37.4367 40.3601 37.3566 40.3615 37.3322C40.3665 37.2397 39.5616 37.294 39.246 37.4075ZM41.1021 37.5714C41.0696 37.6012 40.8896 37.6551 40.7021 37.6913C40.3327 37.7624 39.9391 37.9665 39.6816 38.2201C39.4742 38.4247 39.1828 38.8781 39.1828 38.9965C39.1828 39.0465 39.2426 38.9969 39.3157 38.8864C39.6717 38.3478 40.1883 37.9999 40.8025 37.8851C40.9567 37.8563 41.1096 37.806 41.1423 37.7733C41.2208 37.6948 41.1817 37.4983 41.1021 37.5714ZM37.2917 37.8076C36.8105 38.1128 36.2855 38.8464 36.1422 39.4139C36.1217 39.4951 36.198 39.3746 36.3116 39.1462C36.5109 38.7456 36.9806 38.2275 37.4362 37.9058C37.7241 37.7026 37.5953 37.615 37.2917 37.8076ZM28.4353 38.0742C28.4352 38.1007 28.4905 38.2512 28.5582 38.4087C28.6631 38.6523 28.7242 38.7134 28.9678 38.8182C29.4058 39.0067 29.9676 38.9454 30.2643 38.677C30.3549 38.595 30.3815 38.5922 30.4227 38.6602C30.5461 38.8631 30.764 38.9414 31.2051 38.9414C31.7633 38.9414 32.0791 38.8024 32.2627 38.4757C32.454 38.1353 32.4193 38.0837 32.1786 38.3502C31.9202 38.6361 31.6338 38.7258 31.0784 38.6944C30.7425 38.6754 30.653 38.6469 30.5239 38.5178L30.37 38.3639L30.1694 38.4999C29.6517 38.8513 28.8539 38.7124 28.5529 38.2186C28.4883 38.1127 28.4354 38.0478 28.4353 38.0742ZM44.2319 38.4125C44.1669 38.4376 43.8879 38.529 43.6118 38.6156C43.0719 38.7851 42.7046 38.973 42.5245 39.1719C42.3585 39.3553 42.4454 39.3814 42.6836 39.2197C42.9314 39.0516 43.07 38.9952 43.7306 38.7941C44.3204 38.6145 44.3981 38.5733 44.3706 38.4552C44.3561 38.3929 44.3152 38.3804 44.2319 38.4125ZM34.1569 38.6285C33.8719 38.9382 33.6347 39.3247 33.5149 39.6745C33.4491 39.8666 33.4068 40.0353 33.4208 40.0493C33.4349 40.0634 33.4809 39.9594 33.523 39.8182C33.5651 39.677 33.7673 39.3388 33.9723 39.0666C34.3389 38.5798 34.4549 38.3047 34.1569 38.6285ZM39.0942 39.1776C39.0742 39.2101 39.0859 39.2367 39.1203 39.2367C39.1546 39.2367 39.1828 39.2101 39.1828 39.1776C39.1828 39.1452 39.1711 39.1186 39.1568 39.1186C39.1424 39.1186 39.1143 39.1452 39.0942 39.1776ZM41.9987 46.4265C42.0242 52.5812 42.0314 52.9388 42.1428 53.5277C42.2471 54.0788 42.3511 54.4445 42.5713 55.0335C42.6076 55.131 42.745 55.4249 42.8765 55.6867C44.1777 58.2782 46.7133 60.0231 49.6123 60.322C52.2647 60.5955 54.6045 59.7907 56.3969 57.9884C57.3575 57.0226 58.0307 55.9339 58.4283 54.7035C58.8169 53.5013 58.8076 53.6548 58.8333 48.0357C58.8461 45.2262 58.8383 42.2565 58.816 41.4364L58.7753 39.9453H50.3736H41.972L41.9987 46.4265ZM58.2812 46.4265C58.3243 52.6185 58.3117 53.0959 58.0815 53.9907C57.7066 55.448 57.086 56.5355 56.017 57.6086C55.0813 58.5477 54.14 59.1263 52.9718 59.4803C51.9565 59.7879 51.747 59.8169 50.5506 59.8161C49.6066 59.8153 49.3396 59.7946 48.8676 59.6854C47.798 59.438 46.8256 59.0264 46.0225 58.481C45.5046 58.1294 45.4181 58.0551 44.7929 57.4275C43.9369 56.568 43.2888 55.5204 42.9086 54.3816C42.5465 53.2972 42.5505 53.3821 42.5342 46.6332L42.5193 40.4768H50.3796H58.2399L58.2812 46.4265ZM53.0465 41.8802C52.8295 42.4881 52.6707 43.0027 52.6938 43.0237C52.7168 43.0447 52.7931 43.0793 52.8633 43.1004C52.9701 43.1326 52.9974 43.1096 53.0304 42.9594C53.0696 42.7809 53.0719 42.7799 53.4727 42.7799C53.8689 42.7799 53.8767 42.7829 53.9385 42.9602C53.9958 43.1245 54.0132 43.1343 54.1361 43.0703C54.2103 43.0317 54.2775 42.9951 54.2853 42.9889C54.3082 42.971 53.5306 40.8653 53.4837 40.8178C53.4603 40.7942 53.2636 41.2723 53.0465 41.8802ZM38.3492 41.07C36.7036 41.3312 34.9762 41.9154 32.9165 42.9071C32.433 43.1398 32.0373 43.3535 32.0373 43.3818C32.0373 43.5111 32.2279 43.477 32.6037 43.2805C34.51 42.2834 37.0856 41.4281 38.7228 41.2484C39.7464 41.136 40.9188 41.2129 41.3009 41.4175C41.41 41.4758 41.4269 41.469 41.4269 41.3668C41.4269 41.2126 41.3162 41.1595 40.7562 41.0445C40.1551 40.9211 39.2252 40.9309 38.3492 41.07ZM54.5958 41.9827V43.0161H54.7696C54.9318 43.0161 54.9445 42.9994 54.9615 42.7652C54.9761 42.5642 55.0039 42.5107 55.101 42.4968C55.1907 42.484 55.2807 42.5644 55.4477 42.8068C55.5717 42.9869 55.6898 43.1334 55.7103 43.1323C55.7306 43.1313 55.7962 43.0935 55.8559 43.0483C55.9599 42.9694 55.9581 42.9568 55.8116 42.7412C55.6214 42.4612 55.6208 42.4028 55.8076 42.3177C56.0955 42.1865 56.1658 41.6372 55.938 41.2991C55.7775 41.0609 55.4939 40.9603 54.9649 40.9538L54.5958 40.9493V41.9827ZM45.0882 41.1855C45.0882 41.3232 45.1144 41.3626 45.2063 41.3626C45.319 41.3626 45.3244 41.402 45.3244 42.2228V43.083L45.4868 43.0643L45.6492 43.0457L45.6655 42.2041C45.6791 41.5099 45.6972 41.3626 45.7689 41.3626C45.8262 41.3626 45.8559 41.3021 45.8559 41.1855V41.0083H45.472H45.0882V41.1855ZM48.2771 41.1855C48.2771 41.3232 48.3033 41.3626 48.3952 41.3626C48.5079 41.3626 48.5133 41.402 48.5133 42.2189V43.0752H48.6609H48.8086V42.2189C48.8086 41.402 48.814 41.3626 48.9267 41.3626C49.0186 41.3626 49.0448 41.3232 49.0448 41.1855V41.0083H48.6609H48.2771V41.1855ZM49.6353 41.1855C49.6353 41.3232 49.6615 41.3626 49.7534 41.3626C49.8661 41.3626 49.8715 41.402 49.8715 42.2189V43.0752H50.0192H50.1668V42.2189C50.1668 41.402 50.1722 41.3626 50.2849 41.3626C50.3768 41.3626 50.403 41.3232 50.403 41.1855V41.0083H50.0192H49.6353V41.1855ZM51.3774 41.0904C51.149 41.1921 51.0257 41.3386 50.9377 41.6125C50.76 42.1661 50.9486 42.9878 51.2944 43.1667C51.862 43.4602 52.3504 43.0155 52.3514 42.2041L52.3518 41.9532H52.027C51.7055 41.9532 51.7022 41.9549 51.7022 42.1303C51.7022 42.2799 51.7252 42.3075 51.8498 42.3075C52.0126 42.3075 52.0406 42.4226 51.9412 42.6839C51.8168 43.0111 51.4736 43.0103 51.3181 42.6825C51.1746 42.3801 51.1464 42.1033 51.2289 41.8086C51.3279 41.455 51.4642 41.3381 51.7212 41.3863C51.8667 41.4136 51.9432 41.3984 51.999 41.3313C52.166 41.13 51.6967 40.9482 51.3774 41.0904ZM56.4855 41.1855C56.4855 41.3232 56.5117 41.3626 56.6036 41.3626C56.7163 41.3626 56.7217 41.402 56.7217 42.2189V43.0752H56.8694H57.017V42.2189C57.017 41.402 57.0224 41.3626 57.1351 41.3626C57.227 41.3626 57.2532 41.3232 57.2532 41.1855V41.0083H56.8694H56.4855V41.1855ZM43.6686 41.1536C43.4491 41.2731 43.3535 41.4904 43.3925 41.7814C43.4361 42.1065 43.5729 42.2329 43.9608 42.3065C44.3488 42.3801 44.4386 42.4483 44.4386 42.67C44.4386 42.8078 44.3978 42.8603 44.2272 42.9417C44.0286 43.0364 44.0054 43.0364 43.842 42.9427C43.7087 42.8662 43.6321 42.8566 43.5133 42.9018L43.3584 42.9607L43.4946 43.1056C43.8792 43.515 44.7929 43.2454 44.7929 42.7225C44.7929 42.315 44.5179 42.0495 44.006 41.9628C43.7757 41.9238 43.7583 41.9073 43.7418 41.7117C43.7267 41.5331 43.7477 41.4916 43.8844 41.4294C44.0064 41.3737 44.0833 41.3724 44.2067 41.4235C44.3266 41.4731 44.401 41.4734 44.4923 41.4246C44.6607 41.3344 44.6474 41.2639 44.4415 41.1575C44.2269 41.0465 43.8688 41.0447 43.6686 41.1536ZM46.3876 42.027C46.3878 42.8911 46.4652 43.136 46.7751 43.2538C47.0921 43.3743 47.3781 43.325 47.6136 43.1093L47.8342 42.9072L47.8546 42.0759L47.875 41.2445H47.6922H47.5094V42.0019C47.5094 42.7173 47.5018 42.7664 47.3727 42.8877C47.2113 43.0393 47.0537 43.0508 46.873 42.9242C46.7484 42.837 46.7417 42.7918 46.7417 42.0384V41.2445H46.5645H46.3874L46.3876 42.027ZM55.5084 41.3616C55.7949 41.4705 55.8424 41.9312 55.5805 42.0603C55.5098 42.0951 55.3391 42.1408 55.2011 42.1617L54.9501 42.1998V41.7517V41.3036H55.153C55.2645 41.3036 55.4244 41.3297 55.5084 41.3616ZM53.6305 42.1137C53.7388 42.4248 53.7384 42.4256 53.4675 42.4256C53.2809 42.4256 53.2324 42.406 53.2575 42.3407C53.2754 42.294 53.3201 42.1445 53.3567 42.0084C53.4329 41.7255 53.5049 41.7531 53.6305 42.1137ZM29.087 42.466C29.0835 42.5712 29.2018 42.8596 29.2348 42.8266C29.2507 42.8107 29.2244 42.7074 29.1764 42.5969C29.1285 42.4865 29.0883 42.4275 29.087 42.466ZM39.415 42.7804C38.3389 42.9626 37.5919 43.9818 37.4381 45.4773C37.4113 45.7381 37.3726 45.8532 37.3026 45.8809C37.2486 45.9022 36.8591 46.024 36.4368 46.1517C35.7279 46.366 35.6635 46.3762 35.5961 46.2842C35.4849 46.1326 35.4443 45.8241 35.4763 45.3763C35.5117 44.8815 35.7845 44.2683 36.1917 43.7684C36.4974 43.393 36.469 43.3639 35.9767 43.5481C35.0487 43.8953 34.6417 44.7847 34.8065 46.1051C34.8468 46.4285 34.8581 46.7115 34.8316 46.734C34.7912 46.7682 33.7144 47.2325 33.3845 47.358C33.2353 47.4147 33.1003 46.8931 33.1003 46.2596C33.1003 45.6881 33.245 45.1145 33.4988 44.6802L33.6479 44.425L33.4184 44.4662C32.8638 44.5658 32.4721 44.8796 32.3105 45.3538C32.1678 45.7725 32.1881 46.4777 32.3621 47.1499C32.442 47.4584 32.5078 47.7507 32.5082 47.7995C32.5086 47.8482 32.2958 48.032 32.0351 48.2079L31.5613 48.5277L31.2561 48.1851C31.0882 47.9968 30.861 47.8051 30.7513 47.7593C30.5733 47.6849 30.5286 47.6874 30.335 47.782C29.8956 47.9968 29.881 48.4216 30.2966 48.9071L30.5072 49.153L30.2187 49.2992C30.0601 49.3796 29.8448 49.5428 29.7403 49.6618C29.5369 49.8934 29.5303 50.0543 29.7096 50.4054C29.904 50.786 30.4999 50.687 30.9718 50.1957L31.1758 49.9833L31.4612 50.2644C31.7112 50.5106 31.7774 50.5454 31.9953 50.5448C32.3287 50.5439 32.6255 50.4117 32.6931 50.2341C32.758 50.0633 32.5424 49.5303 32.3376 49.3549C32.2699 49.297 32.2148 49.2222 32.2153 49.1889C32.2161 49.1162 32.8587 48.6935 33.6318 48.2571C35.9699 46.9371 38.5323 46.2168 40.6874 46.274L41.427 46.2936L41.4269 45.1863C41.4269 44.4573 41.4058 44.0791 41.3653 44.0791C41.2301 44.0791 40.7226 44.6334 40.54 44.9804C40.4335 45.183 40.3412 45.3556 40.335 45.3639C40.3003 45.4106 38.2091 45.6092 38.1695 45.5696C38.0876 45.4878 38.2264 44.8476 38.412 44.4511C38.6526 43.937 38.9294 43.597 39.5921 43.0014C39.9216 42.7053 39.9141 42.6959 39.415 42.7804ZM40.1572 43.0843C39.4949 43.6135 39.1526 44.013 38.8567 44.6022C38.6417 45.0303 38.6813 45.1138 38.9026 44.6992C39.0864 44.3548 39.8644 43.5145 40.2972 43.1931C40.4173 43.1039 40.4875 43.0061 40.4744 42.9467C40.4566 42.867 40.3965 42.8931 40.1572 43.0843ZM36.699 43.8216C36.3301 44.1735 36.0859 44.5342 36.0223 44.8212C35.9925 44.9553 36.0254 44.9241 36.1675 44.6839C36.337 44.3974 36.6199 44.0806 37.0163 43.7333C37.1035 43.6569 37.175 43.5705 37.175 43.5414C37.175 43.421 37.0286 43.5072 36.699 43.8216ZM50.1963 44.0452C50.0989 44.089 49.9007 44.2474 49.7559 44.3972C49.6111 44.547 49.4637 44.6696 49.4284 44.6696C49.3931 44.6696 49.1661 44.7887 48.9239 44.9344C48.4675 45.209 48.1629 45.2706 47.9158 45.1383C47.8513 45.1038 47.7402 45.0839 47.6687 45.094C47.5499 45.111 47.5626 45.138 47.8188 45.4133C47.9728 45.5787 48.0813 45.7315 48.0599 45.7528C48.0386 45.7742 47.9037 45.7916 47.7601 45.7916C47.4426 45.7916 46.8344 46.1097 46.6343 46.3802C46.5615 46.4787 46.4737 46.5593 46.4392 46.5593C46.4047 46.5593 46.3109 46.6109 46.2309 46.6738L46.0853 46.7884L46.2423 46.8912C46.3739 46.9775 46.4289 46.9829 46.5828 46.9248C46.8126 46.8381 46.9405 46.9296 46.768 47.0575C46.6605 47.1372 46.6595 47.1491 46.752 47.243C46.8449 47.3374 46.8701 47.3325 47.1722 47.162C47.4785 46.9891 47.5058 46.9841 47.7495 47.056C48.056 47.1466 48.0899 47.2165 47.9275 47.423C47.8599 47.5089 47.8046 47.629 47.8046 47.6899C47.8046 47.7508 47.7473 47.8469 47.6773 47.9034C47.093 48.3748 46.8198 48.7104 46.6507 49.1643C46.4394 49.7318 46.3668 49.8663 46.2721 49.8663C46.1 49.8663 45.6856 49.5533 45.6117 49.3675C45.4958 49.0762 45.3245 48.8624 45.2068 48.8624C45.0459 48.8624 44.7914 49.1047 44.5567 49.4812C44.443 49.6636 44.2494 49.9511 44.1266 50.1201C44.0036 50.2891 43.8885 50.4938 43.8707 50.575C43.8373 50.7273 43.6421 51.2817 43.5484 51.4903C43.5192 51.5553 43.4431 51.6749 43.3791 51.7561C43.2119 51.9684 43.1623 52.2183 43.2784 52.2629C43.399 52.3092 44.0252 52.0126 44.0252 51.9092C44.0252 51.8654 43.9854 51.7965 43.9366 51.7561C43.8025 51.6447 43.8296 51.4772 44.0207 51.2359C44.1156 51.116 44.2228 50.9053 44.2589 50.7677C44.3407 50.4561 44.678 49.8829 44.9107 49.6599C45.0793 49.4984 45.0906 49.4959 45.2008 49.5956C45.3592 49.739 45.7968 50.399 45.7968 50.4944C45.7968 50.5374 45.8396 50.6796 45.892 50.8104C45.9753 51.0187 46.016 51.0527 46.2208 51.0855C46.3722 51.1097 46.4859 51.1709 46.5439 51.2594C46.7417 51.5612 46.564 51.6728 45.662 51.8131C45.378 51.8573 45.1204 51.924 45.0895 51.9612C45.0288 52.0343 45.1223 54.3287 45.1967 54.5905C45.2197 54.6716 45.3047 54.7697 45.3856 54.8085C45.4665 54.8472 45.6093 55.0001 45.7028 55.1482C45.7964 55.2963 45.9038 55.4174 45.9414 55.4174C46.0239 55.4174 46.3471 55.0845 46.4395 54.9043C46.5218 54.7436 46.4554 54.6938 46.1895 54.7167C45.9209 54.7399 45.6787 54.5449 45.6787 54.3055C45.6787 54.2067 45.6497 54.0511 45.6142 53.9596C45.5148 53.7037 45.5401 52.7603 45.6523 52.5353C45.7717 52.2959 45.9471 52.2892 46.7178 52.4942C47.5088 52.7047 47.5518 52.6994 48.2001 52.3129L48.3889 52.2004L48.5544 52.3513C49.0546 52.8074 49.4941 52.9369 50.5451 52.938C51.0029 52.9386 51.41 52.9596 51.4498 52.985C51.5046 53.0198 51.507 53.0861 51.4595 53.258C51.367 53.593 51.4362 53.8247 51.7324 54.1717C52.0774 54.5758 52.0736 54.6929 51.7022 55.1097C51.5398 55.2919 51.4069 55.4614 51.4069 55.4863C51.4069 55.5112 51.1345 55.7096 50.8016 55.9271C50.0642 56.4088 49.9158 56.5402 49.6587 56.9391C49.4159 57.3159 49.4113 57.3675 49.6205 57.3617C49.9323 57.353 50.1958 57.2188 50.2027 57.0651C50.2062 56.9871 50.2129 56.8775 50.2175 56.8217C50.2227 56.7586 50.4918 56.5627 50.9274 56.305C51.3133 56.0767 51.6439 55.8898 51.6621 55.8898C51.7292 55.8898 52.5046 55.3917 52.6666 55.2445C52.8258 55.1 52.832 55.0751 52.7956 54.7313C52.761 54.4033 52.7708 54.3544 52.9027 54.2011L53.048 54.0322L53.2903 54.2818C53.4235 54.419 53.712 54.6178 53.9313 54.7234C54.3142 54.9078 54.3298 54.9236 54.3243 55.1221C54.3212 55.2358 54.2236 55.534 54.1075 55.7847C53.9343 56.1587 53.8097 56.3229 53.4137 56.6988C53.1482 56.9508 52.8767 57.2639 52.8104 57.3944C52.7442 57.5251 52.6271 57.707 52.5504 57.7988C52.3945 57.9853 52.3691 58.1643 52.4921 58.2114C52.5367 58.2286 52.7028 58.2005 52.8612 58.1491C53.0194 58.0978 53.1856 58.0463 53.2302 58.0348C53.2895 58.0194 53.3017 57.9532 53.2754 57.7886C53.2528 57.6469 53.2665 57.5305 53.3123 57.4748C53.4216 57.3418 53.9504 56.983 54.1587 56.9003C54.2909 56.8479 54.3781 56.747 54.4733 56.5365C54.5457 56.3763 54.7491 56.0928 54.9252 55.9066C55.1013 55.7203 55.2454 55.5295 55.2454 55.4826C55.2454 55.4356 55.2884 55.3497 55.3409 55.2917C55.4489 55.1723 55.4341 55.1395 54.9845 54.504C54.8034 54.248 54.7475 54.1086 54.727 53.862C54.6973 53.5042 54.771 53.3197 55.1324 52.8456C55.4465 52.4334 55.5407 52.177 55.5407 51.7337C55.5407 51.3813 55.5541 51.3419 55.7224 51.2003C55.9403 51.0169 56.0931 51.0092 56.4348 51.1642C56.7718 51.3171 57.1392 51.3185 57.3205 51.1675L57.4599 51.0514L57.2783 51.0494C57.1667 51.0482 57.0471 50.9947 56.9682 50.9108C56.8102 50.7425 56.8061 50.6562 56.9527 50.5778C57.1232 50.4865 57.3123 50.1425 57.3123 49.9233V49.7286L57.1204 49.9435C56.8745 50.2188 56.677 50.2683 56.4964 50.1C56.3017 49.9186 56.3557 49.8017 56.6848 49.6917C56.9678 49.597 57.1942 49.3978 57.1942 49.2432C57.1942 49.1333 57.0847 49.0776 56.9996 49.1445C56.9605 49.1753 56.8597 49.2168 56.7757 49.2368C56.6459 49.2677 56.6007 49.2393 56.4751 49.0474L56.3273 48.8217L56.554 48.5786C56.735 48.3846 56.7806 48.2904 56.7799 48.1118C56.7791 47.908 56.6969 47.6746 56.6497 47.7421C56.639 47.7574 56.5911 47.8871 56.5432 48.0303C56.4937 48.1781 56.3836 48.3442 56.2887 48.4142L56.1214 48.5376L56.0075 48.3973C55.8277 48.1759 55.8045 47.989 55.9382 47.8405C56.0025 47.7692 56.117 47.5977 56.1929 47.4594C56.2687 47.3211 56.3943 47.1662 56.4721 47.1152C56.6014 47.0305 56.7808 46.7086 56.7808 46.5612C56.7808 46.4504 56.6123 46.498 56.5737 46.6197C56.5502 46.6938 56.3707 46.8174 56.1007 46.9455C55.577 47.1941 55.443 47.3498 55.3903 47.7712C55.3394 48.1792 55.2208 48.2953 55.063 48.0918C55.0013 48.0122 54.9338 47.8464 54.913 47.7233C54.866 47.4448 54.7698 47.4675 54.6586 47.7835C54.5388 48.124 54.6304 48.381 55.0931 49.0016C55.5274 49.5841 55.7769 50.0722 55.7769 50.3392C55.7769 50.5056 55.4748 51.0474 55.382 51.0474C55.3629 51.0474 55.2339 50.943 55.0955 50.8154C54.957 50.6878 54.7282 50.5217 54.5869 50.4463C54.3355 50.3121 54.3 50.3097 52.9141 50.328C51.4598 50.3472 51.1456 50.3136 50.9031 50.1131C50.6467 49.9011 50.5802 49.7359 50.5802 49.3108C50.5802 48.6191 50.9061 48.1546 51.392 48.154C51.5308 48.1539 51.6513 48.2149 51.8283 48.3747L52.0727 48.5956L52.0465 48.2331C52.0246 47.93 51.9894 47.8354 51.8317 47.6559C51.728 47.5377 51.6431 47.4154 51.6431 47.384C51.6431 47.3527 51.7494 47.327 51.8792 47.327C52.066 47.327 52.1629 47.3701 52.344 47.5337C52.602 47.7669 52.647 47.7828 52.647 47.641C52.647 47.4307 52.3907 47.0201 52.167 46.8721C51.9858 46.7522 51.9515 46.7033 52.0042 46.6398C52.1015 46.5226 52.3721 46.5414 52.5451 46.6775C52.7246 46.8187 52.8242 46.8285 52.8242 46.7049C52.8242 46.6037 52.7135 46.4947 52.2229 46.1122C52.0383 45.9684 51.8691 45.7909 51.8468 45.7178C51.8245 45.6447 51.7661 45.5391 51.7169 45.4832C51.6369 45.392 51.638 45.3654 51.727 45.2295C51.8445 45.0502 52.0418 44.9649 52.3387 44.9649C52.5353 44.9649 52.5461 44.9567 52.4608 44.8714C52.3188 44.7295 51.7358 44.7021 51.3479 44.8192C50.6258 45.037 50.2258 44.9716 50.2258 44.6358C50.2258 44.4275 50.3789 44.1537 50.5205 44.1088C50.5858 44.0881 50.6392 44.0464 50.6392 44.0161C50.6392 43.9368 50.4029 43.9524 50.1963 44.0452ZM28.6125 44.3379C28.6129 44.4726 28.8535 44.7925 29.0398 44.9061C29.3043 45.0674 29.5956 45.0535 29.9745 44.8616L30.295 44.6992L30.5124 44.9354C30.7259 45.1672 30.7375 45.1715 31.1327 45.1696C31.4678 45.1679 31.5772 45.1407 31.7847 45.0075C32.0145 44.8599 32.2145 44.5921 32.2145 44.4318C32.2145 44.3952 32.1425 44.4508 32.0545 44.5554C31.6155 45.0772 30.7555 45.1033 30.3806 44.6063L30.2849 44.4794L29.9953 44.6335C29.7967 44.7393 29.6148 44.7877 29.4169 44.7877C29.1547 44.7877 29.1044 44.764 28.8702 44.5298C28.7283 44.3879 28.6123 44.3015 28.6125 44.3379ZM34.045 44.5653C33.8689 44.7543 33.6458 45.1507 33.6017 45.3527C33.5729 45.4843 33.6061 45.4517 33.7396 45.2172C33.8362 45.0475 33.9976 44.8262 34.0983 44.7255C34.199 44.6248 34.2814 44.5179 34.2814 44.4879C34.2814 44.393 34.1722 44.4287 34.045 44.5653ZM49.7157 45.3161C49.9492 45.4049 50.1057 45.5627 50.275 45.8802C50.4257 46.1626 50.4325 46.2144 50.4325 47.0669C50.4325 48.0086 50.4059 48.1126 50.1393 48.2117C49.9107 48.2967 49.8715 48.2257 49.8715 47.7264C49.8715 47.1551 49.7159 46.1251 49.5926 45.8802C49.5435 45.7828 49.4526 45.6474 49.3905 45.5793C49.1758 45.3441 49.3718 45.1853 49.7157 45.3161ZM39.2714 46.7944C38.142 46.9521 37.2121 47.1839 36.1447 47.5738C35.3303 47.8713 32.805 49.1411 32.805 49.2532C32.805 49.3811 32.9426 49.3507 33.3161 49.1405C33.7714 48.884 35.28 48.1445 35.7293 47.9574C36.2545 47.7388 37.079 47.4682 37.6378 47.3312C38.8767 47.0273 40.4589 46.8564 41.0873 46.9587C41.3918 47.0082 41.4269 47.0033 41.4269 46.9111C41.4269 46.8545 41.3848 46.7921 41.3334 46.7724C41.2102 46.725 39.6483 46.7417 39.2714 46.7944ZM31.9241 47.3675C31.9169 47.472 32.0359 47.7615 32.0715 47.7259C32.0885 47.709 32.0633 47.6057 32.0156 47.4963C31.9679 47.387 31.9267 47.329 31.9241 47.3675ZM29.5571 48.6387C29.5571 48.7397 29.7458 49.0986 29.7989 49.0986C29.8336 49.0986 29.802 48.999 29.7288 48.8772C29.5727 48.6175 29.5571 48.5959 29.5571 48.6387ZM29.2618 50.6536C29.2618 50.8007 29.5992 51.2033 29.788 51.2815C30.0482 51.3892 30.4435 51.3217 30.8636 51.0978L31.2134 50.9114L31.3449 51.0311C31.5659 51.2323 31.7192 51.2836 32.0993 51.2836C32.6544 51.2836 33.1663 50.961 33.1576 50.6165C33.1566 50.5774 33.1285 50.5923 33.0952 50.6495C33.0196 50.7793 32.5428 51.0248 32.2649 51.0769C32.0075 51.1252 31.6479 51.0332 31.3819 50.8511L31.1811 50.7135L30.8071 50.91C30.5129 51.0645 30.3626 51.1065 30.1031 51.1065C29.7889 51.1065 29.7608 51.0937 29.5175 50.8397C29.3768 50.693 29.2618 50.6092 29.2618 50.6536ZM62.3161 53.5329C62.0634 53.5924 61.6768 53.7798 61.4299 53.9623C61.0529 54.241 60.643 55.0498 60.5032 55.7907C60.4621 56.0084 60.4109 56.1974 60.3894 56.2107C60.3679 56.2239 59.9126 56.3461 59.3776 56.482C58.8418 56.6182 58.3837 56.7659 58.3579 56.8109C58.3321 56.8558 58.1461 57.0957 57.9445 57.3442C57.743 57.5926 57.5384 57.8501 57.49 57.9164C57.3861 58.0586 57.2776 58.0819 58.4933 57.7012C60.499 57.0731 61.5689 56.8937 63.3085 56.8937C64.8733 56.8937 65.6857 57.0456 66.8052 57.5476C67.3021 57.7704 68.0731 58.2805 68.4882 58.6611L68.8277 58.9725L68.8263 58.7451C68.8225 58.1341 68.5044 57.5378 67.9862 57.1703C67.7994 57.0379 67.6467 56.9066 67.6467 56.8785C67.6467 56.8506 67.7802 56.6863 67.9435 56.5137C68.2626 56.1763 68.7771 55.8702 69.2935 55.7104L69.6149 55.611L69.3247 55.4404C68.9317 55.2096 68.27 55.1679 67.862 55.3484C67.4827 55.5162 67.1639 55.7871 66.8687 56.1925C66.7297 56.3833 66.5995 56.5394 66.5792 56.5394C66.559 56.5394 66.2394 56.4199 65.8691 56.2738C65.4989 56.1277 65.166 56.0081 65.1293 56.008C65.0927 56.008 65.0274 55.9653 64.9842 55.9133C64.9173 55.8326 64.9352 55.7617 65.1049 55.4343C65.437 54.7937 66.1209 54.2008 66.7904 53.9728C66.905 53.9338 66.9052 53.9302 66.7982 53.8514C66.7375 53.8067 66.5109 53.7299 66.2946 53.6807C65.9604 53.6047 65.8514 53.6029 65.5695 53.6684C64.8286 53.8407 64.393 54.2582 63.8924 55.276L63.5639 55.9441L62.874 55.9084C62.4946 55.8888 62.1273 55.8518 62.0578 55.8262C61.9319 55.7797 61.9319 55.778 62.0326 55.4065C62.2117 54.7467 62.537 54.2536 63.078 53.8219C63.353 53.6024 63.387 53.5552 63.2959 53.5194C63.1485 53.4613 62.5871 53.469 62.3161 53.5329ZM63.8489 53.7107C63.4997 53.8949 62.9648 54.4788 62.7224 54.9401C62.6015 55.1701 62.524 55.3583 62.5502 55.3583C62.5764 55.3583 62.6642 55.2325 62.7453 55.0787C62.9384 54.7127 63.5318 54.1113 63.8672 53.9415C64.1437 53.8016 64.2341 53.7139 64.1846 53.6338C64.1435 53.5673 64.1031 53.5765 63.8489 53.7107ZM67.2333 54.2647C66.903 54.3532 66.4202 54.5961 66.1906 54.7893C65.9537 54.9887 65.5056 55.6373 65.5752 55.6803C65.6062 55.6994 65.7143 55.5947 65.8155 55.4477C66.073 55.0734 66.5496 54.7334 67.0601 54.5597C67.2991 54.4785 67.5209 54.3857 67.5529 54.3537C67.6671 54.2395 67.5005 54.1931 67.2333 54.2647ZM70.1269 55.958C69.4076 56.1531 69.0575 56.2829 68.7899 56.4538C68.4627 56.6629 68.3879 56.7441 68.442 56.8316C68.461 56.8624 68.5888 56.8121 68.726 56.7199C69.0508 56.5016 69.2913 56.4048 69.8316 56.2752C70.3038 56.1619 70.4222 56.101 70.4222 55.9712C70.4222 55.88 70.4153 55.8797 70.1269 55.958ZM60.2354 59.6928C59.8594 59.8117 59.6639 59.9355 59.3705 60.2404C58.8932 60.7364 58.6291 61.4211 58.5707 62.3138C58.5509 62.6154 58.5147 62.8745 58.49 62.8897C58.4166 62.9351 56.9376 63.3896 56.8634 63.3896C56.6082 63.3896 56.5459 62.1486 56.7686 61.4999C56.841 61.2888 56.9649 61.0031 57.0438 60.8651C57.2149 60.5659 57.1582 60.5512 56.7455 60.7878C56.2896 61.0494 55.9193 61.4958 55.7775 61.9547C55.6287 62.4366 55.629 62.762 55.7786 63.3561C55.8719 63.7263 55.881 63.8344 55.822 63.8716C55.781 63.8975 55.4103 64.0927 54.9984 64.3051L54.2494 64.6916L54.0301 64.2742C53.8579 63.9466 53.7546 63.824 53.5495 63.7037C53.3132 63.5652 53.2665 63.5572 53.0605 63.6188C52.8084 63.6944 52.5289 63.9829 52.5289 64.1677C52.5289 64.3694 52.7108 64.684 52.9352 64.8707L53.149 65.0484L52.9616 65.2082C52.6623 65.4633 52.4699 65.7971 52.4699 66.0612C52.4699 66.2484 52.5099 66.3351 52.6707 66.4958C52.7811 66.6063 52.9298 66.6966 53.0013 66.6966C53.2361 66.6966 53.5352 66.5078 53.7155 66.2458C53.8131 66.104 53.9128 65.988 53.9372 65.988C53.9616 65.988 54.0128 66.0743 54.0511 66.1799C54.1683 66.5032 54.4585 66.8058 54.6934 66.8499C54.9794 66.9035 55.2784 66.7552 55.4005 66.4991C55.4885 66.3147 55.4878 66.2839 55.3905 66.0704C55.3329 65.9439 55.1948 65.744 55.0837 65.6263L54.8816 65.4123L55.0509 65.2917C55.6659 64.8538 57.1274 64.2255 58.2899 63.8993C59.7389 63.4926 60.7617 63.3305 61.8784 63.3306C63.5042 63.3308 64.6799 63.7324 65.5635 64.5894C65.7333 64.7539 65.8876 64.8731 65.9066 64.8541C65.9716 64.7891 65.7559 64.1824 65.5349 63.8085C65.4134 63.603 65.1525 63.2693 64.9551 63.0669C64.6766 62.7813 64.6059 62.6737 64.6395 62.5866C64.7237 62.3678 65.2139 61.962 65.699 61.7095L66.1905 61.4536L65.959 61.3363C65.5765 61.1426 65.3952 61.1279 65.0381 61.2615C64.6328 61.4132 64.2859 61.7069 63.9798 62.1576L63.7426 62.507L63.4358 62.4731C63.2671 62.4544 62.9099 62.4095 62.6419 62.3734C62.1737 62.3102 62.1547 62.3017 62.1553 62.1548C62.1561 61.9546 62.2906 61.517 62.4431 61.2181C62.609 60.893 63.072 60.4297 63.4429 60.2179L63.7497 60.0426L63.519 59.9665C63.1457 59.8433 62.6143 59.9099 62.3168 60.1172C61.8665 60.431 61.3951 61.2838 61.2008 62.1363C61.1466 62.3737 61.1007 62.4534 61.0074 62.4715C60.2256 62.6226 59.5788 62.7244 59.5423 62.7019C59.5175 62.6865 59.4973 62.4525 59.4973 62.1817C59.4973 61.3213 59.803 60.5901 60.4305 59.9498C60.7321 59.642 60.7495 59.6105 60.6174 59.6142C60.5373 59.6163 60.3653 59.6517 60.2354 59.6928ZM61.1899 59.9643C60.7905 60.3379 60.4206 60.865 60.246 61.3092C60.0752 61.7438 60.1373 61.7048 60.3848 61.2222C60.6214 60.7607 61.0266 60.2748 61.4734 59.9172C61.6424 59.7817 61.6894 59.7119 61.6429 59.6654C61.5963 59.6188 61.4707 59.7017 61.1899 59.9643ZM63.9863 60.4466C63.5633 60.689 63.0247 61.232 62.8605 61.5813C62.6925 61.9387 62.7452 61.9941 62.9401 61.665C63.1462 61.3169 63.5857 60.9035 64.0444 60.6263C64.3981 60.4125 64.4841 60.3168 64.3588 60.2766C64.332 60.268 64.1644 60.3445 63.9863 60.4466ZM57.8592 60.6436C57.6447 60.9038 57.3362 61.5084 57.2866 61.7656C57.2679 61.8631 57.2691 61.903 57.2894 61.8542C57.3755 61.6473 57.6824 61.0546 57.7176 61.0275C57.7386 61.0112 57.8307 60.8975 57.9222 60.7747C58.1467 60.4737 58.0924 60.3606 57.8592 60.6436ZM53.7691 60.6964C53.7691 60.7091 53.7278 60.7354 53.6774 60.7548C53.6248 60.7749 53.6012 60.765 53.6218 60.7316C53.6565 60.6754 53.7691 60.6485 53.7691 60.6964ZM51.8289 61.7952C52.0045 62.3354 52.4993 62.5232 52.9055 62.2037C53.051 62.0893 53.0523 62.0894 53.3305 62.2374C53.4839 62.3189 53.673 62.3857 53.7507 62.3857C54.0634 62.3857 54.5958 61.9857 54.5958 61.7508C54.5958 61.6945 54.5115 61.7395 54.3594 61.8769C54.0562 62.1508 53.6286 62.1885 53.2592 61.9739C53.0798 61.8696 53.0692 61.8697 52.9049 61.978C52.8118 62.0394 52.6372 62.0899 52.5169 62.09C52.3052 62.0904 51.9988 61.9895 51.9962 61.9185C51.9954 61.8994 51.9424 61.8173 51.8782 61.7361L51.7616 61.5885L51.8289 61.7952ZM66.6587 61.8265C66.1064 62.0003 65.2869 62.5414 65.3706 62.6769C65.3965 62.7188 65.5331 62.6561 65.7549 62.5005C65.9441 62.3678 66.2942 62.1871 66.5328 62.0989C66.8123 61.9958 66.9736 61.9028 66.9862 61.8375C67.0086 61.7209 66.9953 61.7205 66.6587 61.8265ZM61.1508 63.7783C59.823 64.0114 58.5686 64.3306 57.578 64.6877C56.9441 64.9161 55.7769 65.51 55.7769 65.6041C55.7769 65.7302 55.8496 65.7159 56.2164 65.5174C57.751 64.6871 60.4105 63.9819 62.007 63.982C63.5349 63.982 64.6674 64.4789 65.64 65.5759C66.0854 66.0783 66.1963 66.0974 66.3186 65.6927C66.3618 65.5496 66.3596 65.5483 66.2473 65.6484C66.1836 65.7052 66.1015 65.7518 66.0648 65.7518C66.0282 65.7518 65.7782 65.5238 65.5094 65.2451C64.477 64.1751 63.6519 63.8133 62.1547 63.7746C61.6837 63.7624 61.232 63.7641 61.1508 63.7783ZM52.1156 64.5301C52.1156 64.63 52.3119 65.0431 52.3594 65.0431C52.389 65.0431 52.3563 64.9302 52.2866 64.7921C52.1517 64.5245 52.1156 64.4692 52.1156 64.5301ZM51.8801 66.3885C51.8785 66.5532 52.0596 66.8799 52.293 67.133C52.6925 67.5664 53.0626 67.6169 53.6298 67.3153L53.8979 67.1727L54.0476 67.3506C54.2389 67.5781 54.5945 67.7596 54.8486 67.7596C55.1324 67.7596 55.6629 67.4729 55.8211 67.2341C56.0197 66.9343 55.9814 66.8385 55.7626 67.0877C55.2807 67.6366 54.5525 67.6658 54.071 67.1553L53.8753 66.9478L53.6302 67.0835C53.2698 67.2831 52.9848 67.3194 52.6829 67.2041C52.3907 67.0926 52.245 66.9525 52.0321 66.5785C51.9488 66.4324 51.8805 66.3469 51.8801 66.3885ZM57.4599 67.552C56.9421 67.7623 56.5364 68.2108 56.3965 68.7274C56.2932 69.1091 56.2944 69.5948 56.3998 70.0997C56.4379 70.2825 56.4324 70.2876 55.8617 70.5962L55.2851 70.908L55.1773 70.7747C55.0307 70.5938 54.832 69.9299 54.832 69.621C54.832 69.4823 54.8722 69.2551 54.9213 69.1161C54.9703 68.977 54.9966 68.8494 54.9797 68.8324C54.9368 68.7896 54.6102 69.1106 54.4788 69.3245C54.2314 69.7273 54.2763 70.3291 54.6014 70.9688C54.8051 71.3696 54.8265 71.3221 54.2148 71.8281L53.7788 72.1887L53.6536 71.9861C53.4647 71.6806 53.141 71.4209 52.9489 71.4209C52.7421 71.4209 52.4698 71.6628 52.4701 71.8462C52.4705 72.0571 52.6772 72.346 52.9516 72.5193L53.2014 72.677L53.0571 72.8029C52.5387 73.2551 52.4402 73.6482 52.7745 73.9295C52.9822 74.1042 53.1407 74.0963 53.4204 73.8972C53.5644 73.7946 53.8998 73.3485 53.9655 73.1723C53.9799 73.1335 54.1155 73.2226 54.2786 73.3781C54.7648 73.8415 55.0423 73.9215 55.3192 73.6784C55.4576 73.5569 55.4499 73.2787 55.3026 73.0718C55.2366 72.9791 55.0475 72.8157 54.8824 72.7088L54.5822 72.5142L54.8695 72.2601C55.5772 71.6342 56.8238 70.9255 57.7361 70.6304C59.1402 70.1764 60.828 70.3643 61.9325 71.0977C62.1514 71.243 62.344 71.3619 62.3606 71.3619C62.3773 71.3619 62.3909 71.2749 62.3909 71.1686C62.3909 70.921 62.1325 70.6017 61.7567 70.3848C61.602 70.2956 61.4665 70.2152 61.4555 70.2062C61.4445 70.1973 61.547 69.999 61.6833 69.7657C61.9663 69.281 62.5489 68.6673 62.7812 68.609L62.9384 68.5695L62.7975 68.4914C62.5813 68.3716 62.1106 68.3914 61.819 68.5326C61.5198 68.6773 61.1056 69.1296 60.914 69.5206C60.8394 69.6726 60.7718 69.8054 60.7637 69.8158C60.7555 69.8262 60.5801 69.7829 60.374 69.7195C60.1679 69.6562 59.8582 69.5852 59.6858 69.5618L59.3724 69.5192L59.4128 69.3333C59.4839 69.0066 59.7863 68.4329 60.0386 68.1463C60.1731 67.9935 60.4318 67.7842 60.6136 67.6812L60.9441 67.4939L60.6017 67.4761C59.8871 67.4389 59.2382 67.9372 58.7619 68.8887C58.6142 69.1837 58.4933 69.469 58.4933 69.5225C58.4933 69.5979 58.3432 69.6556 57.829 69.7777C57.3966 69.8805 57.144 69.9155 57.1056 69.8781C57.0731 69.8465 57.0376 69.6027 57.0267 69.3363C57.0008 68.7056 57.1469 68.2998 57.5866 67.7816C57.7621 67.5746 57.8852 67.4059 57.8601 67.4067C57.8348 67.4075 57.6548 67.4728 57.4599 67.552ZM58.1598 67.7724C57.8699 68.0792 57.5454 68.6146 57.5513 68.7763C57.5527 68.818 57.619 68.7272 57.6984 68.5746C57.7779 68.4221 57.9905 68.1461 58.1709 67.9613C58.3513 67.7765 58.491 67.586 58.4814 67.538C58.4699 67.4809 58.3585 67.5622 58.1598 67.7724ZM61.1192 67.9294C60.72 68.1108 59.816 69.1049 59.9409 69.2253C59.9638 69.2474 60.0245 69.199 60.0756 69.1178C60.1268 69.0366 60.3473 68.7916 60.5657 68.5734C60.9049 68.2343 61.0149 68.162 61.3224 68.0765C61.5334 68.0178 61.6822 67.9438 61.6822 67.8975C61.6822 67.785 61.4024 67.8008 61.1192 67.9294ZM55.4318 68.8226C55.2523 69.1149 55.273 69.2505 55.4561 68.9811C55.5395 68.8584 55.5967 68.726 55.5832 68.6869C55.5698 68.6478 55.5017 68.7089 55.4318 68.8226ZM63.3457 68.8262C63.1069 68.9219 62.5451 69.3975 62.316 69.698C61.957 70.1688 62.0639 70.1617 62.528 69.6839C62.8324 69.3705 63.0595 69.1949 63.2956 69.0905C63.4902 69.0044 63.631 68.9046 63.631 68.8528C63.631 68.7525 63.5486 68.7448 63.3457 68.8262ZM53.9512 70.8894C53.9517 70.9986 54.1119 71.3585 54.1186 71.2653C54.1212 71.2284 54.0846 71.1088 54.0371 70.9996C53.9897 70.8903 53.951 70.8407 53.9512 70.8894ZM58.4048 70.9741C57.6449 71.1635 57.0018 71.4302 56.3314 71.8339C55.6294 72.2566 55.3904 72.4431 55.4425 72.5275C55.4669 72.5669 55.6305 72.4927 55.8789 72.3295C57.8967 71.0043 59.7952 70.7096 61.3279 71.4839C61.5715 71.607 61.9013 71.817 62.0608 71.9506C62.2203 72.0843 62.3916 72.1858 62.4414 72.1762C62.5412 72.157 62.7116 71.8881 62.7704 71.6571C62.7962 71.5557 62.77 71.5789 62.6866 71.7309C62.5263 72.0234 62.4009 72.0152 61.9965 71.6857C61.0422 70.9083 59.7199 70.6464 58.4048 70.9741ZM52.0567 72.2359C52.0564 72.3463 52.2097 72.6267 52.3208 72.7189C52.388 72.7747 52.4342 72.7794 52.4787 72.7349C52.5232 72.6904 52.5042 72.652 52.414 72.6037C52.3438 72.5661 52.2348 72.4507 52.1717 72.3472C52.1086 72.2438 52.0569 72.1936 52.0567 72.2359ZM53.8983 74.0508C53.5569 74.5351 53.161 74.6609 52.6741 74.4397C52.5429 74.3801 52.3635 74.2458 52.2755 74.1413C52.1004 73.9332 52.0546 74.0226 52.2162 74.2571C52.3442 74.4428 52.4434 74.5236 52.7311 74.6766C53.1551 74.9021 53.5907 74.7367 53.9122 74.228L54.0732 73.9733L54.3388 74.2314C54.7933 74.6731 55.2963 74.7221 55.6407 74.3582C55.8372 74.1505 55.9542 73.9538 55.9538 73.8312C55.9537 73.7885 55.9033 73.836 55.8418 73.9369C55.6195 74.3014 55.1432 74.4665 54.7478 74.3162C54.6647 74.2846 54.4815 74.1526 54.3406 74.0227L54.0845 73.7867L53.8983 74.0508Z" fill="white"/>
</svg>
