<svg width="100" height="100" viewBox="0 0 100 100" fill="none" xmlns="http://www.w3.org/2000/svg">
<g clip-path="url(#clip0_36_2960)">
<path d="M48.9559 51.3501C49.0266 51.3636 49.0973 51.3761 49.1678 51.3887L48.9559 51.3501ZM49.534 51.4464C49.6164 51.4587 49.6987 51.4696 49.7812 51.4804L49.534 51.4464ZM50.1453 51.5197C50.2257 51.527 50.3057 51.5339 50.3861 51.5401L50.1453 51.5197ZM50.4722 51.546C50.5401 51.5509 50.608 51.555 50.6759 51.5585L50.4722 51.546ZM50.7748 51.5637C50.8552 51.5673 50.9356 51.5703 51.0161 51.5729L50.7748 51.5637ZM51.096 51.5739C51.2757 51.5786 51.4555 51.5788 51.6351 51.5744L51.096 51.5739ZM51.721 51.5729C51.8048 51.5704 51.8885 51.5672 51.9722 51.5632L51.721 51.5729ZM52.0513 51.5595C52.1239 51.5554 52.1953 51.5509 52.2675 51.546L52.0513 51.5595ZM52.3425 51.5408C52.421 51.5348 52.4998 51.5282 52.5778 51.5209L52.3425 51.5408ZM52.9807 51.4759C53.0412 51.4688 53.1013 51.461 53.1612 51.4516L52.9807 51.4759ZM64.0178 31.175C63.9527 31.1399 63.8859 31.108 63.8177 31.0794L64.0178 31.175ZM63.3621 30.9391C63.2784 30.922 63.1939 30.909 63.1089 30.9003L63.3621 30.9391ZM79.0712 43.2077L79.0256 43.2141L79.0712 43.2077ZM20.4283 39.643C20.1372 39.3758 19.9159 39.0414 19.7839 38.6689C19.6765 38.3578 19.5374 37.9692 19.5374 37.6392C19.5443 36.1512 20.4127 35.046 21.3476 34.5343C21.7725 34.302 21.9302 34.1426 21.9951 34.0607C21.9639 34.047 21.9308 34.0385 21.8969 34.0357C20.6244 34.0357 19.972 33.5413 19.6517 33.1228C19.3482 32.7308 19.1933 32.2255 19.1933 31.6729C19.1933 31.4044 19.2311 31.1234 19.3056 30.836C19.6642 30.2436 20.0049 30.4064 20.2135 30.7094C20.3465 30.8991 21.2575 31.5449 22.3799 31.6474C23.1968 31.725 23.637 32.1245 23.866 32.4436C24.13 32.8131 24.2312 33.2583 24.2312 33.6371C24.2312 33.792 24.2137 33.9375 24.1804 34.0669C24.0574 34.566 23.5315 35.016 22.7991 35.5891L22.3837 35.9336C21.7755 36.4658 21.4408 37.0582 21.4408 37.5601C21.4408 37.6855 21.4628 37.8078 21.5051 37.9207C21.5226 37.967 21.5437 38.0117 21.5685 38.0541C21.8403 38.5142 22.6085 38.8028 23.7226 38.4129C24.2376 38.2343 25.229 37.6103 25.8344 37.0101C26.5467 36.2995 27.4974 36.129 28.4129 36.0566C29.2068 35.9967 29.6955 35.802 30.0397 35.415C31.0569 34.2689 32.0358 34.1078 32.952 34.0397C33.3026 34.0127 33.3215 33.9876 33.3671 33.9259C33.8722 33.2534 34.391 32.8973 34.8565 32.6901C35.2113 32.5323 35.5354 32.4604 35.8009 32.4022L36.123 32.323L36.2035 32.2946C36.7135 32.1304 37.1083 31.9944 38.1459 31.2932L38.1901 31.2653L38.1903 31.2648L38.2339 31.2376L38.2343 31.2374L38.2781 31.2116L38.2788 31.2114L38.3226 31.1863L38.3233 31.1861L38.3673 31.1629L38.3687 31.1624L38.4122 31.1397L38.4136 31.1392L38.4574 31.1179L38.4593 31.1175L38.5033 31.0971L38.505 31.0962L38.5492 31.0777L38.5511 31.077L38.5951 31.0588L38.5975 31.0583L38.6417 31.0418L38.6438 31.0406L38.6876 31.025L38.7342 31.0094L38.7373 31.0087L38.7808 30.9947L38.7836 30.994L38.8279 30.9812L38.8309 30.9805L38.8747 30.9684L38.878 30.9675L38.922 30.9571L38.926 30.9561L38.9693 30.9462L38.9729 30.9453L39.0171 30.9363L39.0209 30.9353L39.0647 30.9273L39.0687 30.9266L39.1124 30.9192L39.1165 30.9188L39.1597 30.9124L39.1642 30.9114L39.2078 30.9065L39.2123 30.9055L39.2551 30.9008L39.2598 30.9005L39.3031 30.8965L39.3081 30.8961L39.3511 30.893L39.3561 30.8925L39.3984 30.8899L39.4034 30.8897L39.4462 30.8878L39.494 30.8864H39.499L39.5416 30.8859H39.5945L39.6367 30.8864L39.6416 30.8866H39.6466C39.6769 30.8873 39.7071 30.8892 39.7374 30.8908L39.7791 30.8935L39.785 30.8939L39.8259 30.897L39.8321 30.8975L39.873 30.9015L39.8794 30.9022L39.9201 30.9062L39.9267 30.9067L39.9671 30.9117L39.9735 30.9126L40.0137 30.9176L40.0206 30.9188L40.0603 30.9247L40.067 30.9259L40.1069 30.932L40.114 30.9334L40.1531 30.9403L40.1604 30.9415L40.1992 30.9486L40.2063 30.9502C40.2683 30.9618 40.3293 30.9755 40.3891 30.9902L40.4268 30.9997L40.4343 31.0018C40.4947 31.0174 40.5543 31.034 40.6129 31.0515L40.6477 31.0624L40.6562 31.065C40.7726 31.1016 40.8854 31.143 40.9947 31.1868L41.0255 31.1996L41.0657 31.2161C43.2846 28.2017 46.7928 26.1959 50.78 26.0144V26.0135C50.9763 26.0047 51.1728 26.0002 51.3693 26C51.4991 26.0001 51.629 26.0021 51.7589 26.0059C51.8234 26.008 51.888 26.0106 51.9524 26.0132H51.9531C52.017 26.0163 52.0815 26.0194 52.1456 26.0234C56.0039 26.2552 59.4018 28.1983 61.5902 31.1035C61.9027 30.9949 62.2431 30.9162 62.5906 30.8925L62.5999 30.892L62.6328 30.8899L62.6671 30.8882L62.6753 30.8878L62.6843 30.8875L62.7179 30.8866L62.7269 30.8861L62.7605 30.8859L62.7695 30.8856L62.8038 30.8854H62.8121L62.8464 30.8856H62.8549L62.8972 30.8864L62.9318 30.8878L62.9393 30.888L62.9739 30.8897L62.9819 30.8901L63.0167 30.8925L63.0233 30.893L63.0586 30.8958L63.0654 30.8963L63.1009 30.8998L63.1073 30.9005C63.1923 30.9092 63.2767 30.9222 63.3604 30.9393L63.3976 30.9469L63.4025 30.9481L63.4392 30.9568L63.4444 30.9578L63.4813 30.9673L63.4863 30.9684L63.5236 30.9784L63.5277 30.9796L63.566 30.9902L63.5695 30.9914L63.6069 31.003L63.6112 31.0042L63.6492 31.0167L63.6526 31.0176L63.6937 31.0321L63.7323 31.0458L63.7346 31.047L63.773 31.0619L63.7753 31.0628L63.8144 31.0784L63.8167 31.0796C63.8841 31.108 63.9509 31.1395 64.0169 31.1752L64.018 31.1759L64.0571 31.1967L64.0575 31.1972L64.0966 31.2197L64.0973 31.2199L64.1363 31.2436L64.1368 31.2438L64.1754 31.2682V31.2684L64.2144 31.2935C64.9293 31.7794 65.3423 31.9934 65.6948 32.1333C65.8533 32.1964 66.0004 32.244 66.1565 32.2948L66.2386 32.3232L66.5641 32.4025C66.7406 32.4413 66.9421 32.486 67.1605 32.5574C67.7067 32.7353 68.3594 33.0807 68.9926 33.9261C69.0385 33.9879 69.0589 34.0129 69.4111 34.0399C70.3264 34.1083 71.3036 34.2691 72.325 35.4153C72.6666 35.8023 73.153 35.9967 73.9466 36.0568C74.8676 36.1292 75.8152 36.2995 76.5261 37.0104C77.1321 37.6105 78.1224 38.2346 78.6388 38.4132C79.7525 38.803 80.5244 38.5144 80.7898 38.0543C80.848 37.9573 80.887 37.8506 80.9069 37.7378C80.9173 37.6792 80.9226 37.6199 80.9228 37.5604C80.9228 37.0584 80.5876 36.4661 79.981 35.9338L79.9056 35.8711L79.5616 35.5894C78.8321 35.0162 78.306 34.5663 78.1792 34.0671C78.1458 33.9377 78.1314 33.7922 78.1314 33.6373C78.1314 33.2583 78.235 32.8134 78.4938 32.4439C78.7244 32.1247 79.1694 31.7252 79.981 31.6476C81.1094 31.5452 82.0154 30.8994 82.1479 30.7096C82.3601 30.4066 82.6974 30.2439 83.0546 30.8362C83.1303 31.1236 83.1682 31.4047 83.1682 31.6731C83.1682 32.2288 83.0132 32.731 82.71 33.123C82.3875 33.5415 81.7372 34.0359 80.4627 34.0359C80.4357 34.0359 80.3981 34.0484 80.3666 34.061C80.4298 34.1431 80.5876 34.3025 81.0134 34.5346C81.9482 35.0465 82.8176 36.1517 82.8254 37.6394C82.8254 37.9694 82.688 38.3578 82.577 38.6691C82.4611 38.9956 82.2773 39.2939 82.0377 39.5442C82.0052 39.5778 81.9714 39.6109 81.9357 39.6433C81.4091 40.1325 80.532 40.5164 79.0705 40.4291C78.9166 40.4197 78.763 40.4058 78.6099 40.3875C78.5721 41.1248 78.3698 42.0013 78.0852 42.4434C77.9987 42.5823 77.9816 42.6755 77.9816 42.7211C77.9816 42.7403 77.9835 42.7514 77.9835 42.7595C77.9925 42.7625 78.6319 43.1399 78.6319 43.1399L78.7351 43.1921C78.7351 43.1921 78.7952 43.2205 78.803 43.2269C78.8122 43.2236 79.0239 43.2141 79.0239 43.2141L79.0658 43.2082L79.07 43.2077C79.4698 43.1697 80.0804 42.974 80.3399 43.6988C80.4078 43.8912 80.4492 44.0587 80.4882 44.207C80.5674 44.5102 80.6353 44.7354 80.9008 44.9401C80.9008 44.9401 81.032 44.8275 81.1811 44.695C81.2962 44.5933 81.4091 44.4891 81.5196 44.3825C81.7046 44.193 82.0469 44.2893 82.2936 44.3825C82.5432 44.4771 82.8521 44.6922 83.0705 44.8166C83.2902 44.9398 83.4114 45.0962 83.4745 45.2828C83.5405 45.469 83.6931 45.5923 83.9259 45.7155C84.1506 45.8432 84.4728 46.2525 84.4728 46.8049C84.4728 46.8895 84.4823 46.9619 84.5062 47.0388C84.5225 47.0897 84.5447 47.1427 84.5752 47.203C84.8894 47.8363 84.6372 48.1551 84.4553 48.2895C84.2107 48.4726 83.7792 48.5483 83.3737 48.4821L83.3771 48.5861L82.785 48.5071C82.5555 48.4785 82.2529 48.5372 82.0722 48.5748L82.0296 48.5861C81.6081 48.6699 81.0569 48.5272 80.7472 48.0243C80.7359 48.0056 80.7245 47.9869 80.7139 47.9671C80.5559 47.6896 80.3098 47.432 80.1894 47.3608C80.0156 47.4086 79.7409 47.4734 79.414 47.44C79.1107 47.4095 78.7608 47.2931 78.4051 46.9984C78.3462 46.9494 78.2868 46.8952 78.2279 46.8366C77.7051 46.3121 77.0153 46.2047 76.5817 46.2712L76.3231 46.3171C75.7894 46.4136 75.1228 46.5366 74.5071 46.1609C74.3538 46.0675 74.1328 45.9712 73.9161 45.8797C73.3571 45.6363 72.7792 45.3853 72.7005 44.8561C72.6872 44.7617 72.585 44.5893 72.501 44.452C72.4272 44.3307 72.3468 44.198 72.2846 44.0558C72.2247 43.92 72.1817 43.7755 72.1777 43.6246C71.9946 43.6716 71.8055 43.6909 71.6168 43.6818C71.5501 43.6785 71.4836 43.6719 71.4176 43.6622L71.1749 43.6246C70.7659 43.5548 69.9093 43.414 69.6365 43.5136C69.0934 43.7095 67.3843 43.8041 66.9156 43.697C66.9156 43.697 66.7432 43.6591 66.5807 43.6246C66.4246 43.7857 66.2504 43.9368 66.0674 44.0714C66.4104 44.0901 66.712 44.0475 66.9192 44.101L67.3497 44.2145C67.4872 44.1739 67.8233 44.1786 68.0142 44.1959L68.5186 44.2337L69.0939 44.2891C69.3711 44.3447 69.6654 44.4643 69.615 45.0075C69.5956 45.175 69.5019 45.4118 69.361 45.5509C69.2834 45.636 68.9827 46.072 68.9167 46.2092L68.8952 46.252C68.7781 46.5016 68.6044 46.7308 68.0989 46.7308C68.0347 46.7299 67.9705 46.7325 67.9066 46.7384C67.8912 46.7793 67.8498 46.8552 67.8498 46.8552C67.736 47.114 67.5716 47.4743 67.2575 47.6827L67.1735 47.743C66.9213 47.9231 66.5012 48.2197 65.858 47.9862L65.6366 47.907C65.0759 47.705 64.2281 47.4019 63.8002 47.168L63.7401 47.1349C63.3415 46.9168 63.2533 46.873 63.1085 46.8933L63.028 46.9059C62.7224 46.9487 62.1462 47.026 61.7478 46.3656L61.7114 46.3083C59.8224 48.901 56.9833 50.7568 53.7065 51.3626L53.692 51.3657C53.5804 51.3861 53.4678 51.405 53.3552 51.4227L53.3133 51.4289L53.1593 51.4516C53.0994 51.4606 53.0394 51.4686 52.9788 51.4762L52.869 51.4899L52.6959 51.5086L52.5759 51.5211C52.4979 51.5285 52.4191 51.5351 52.3406 51.541L52.266 51.546C52.1939 51.5509 52.1225 51.5557 52.0498 51.5595L51.9708 51.5637C51.8871 51.5677 51.8038 51.5708 51.7196 51.5734L51.6342 51.5748C51.4545 51.5793 51.2747 51.5791 51.0951 51.5744L51.0146 51.5734C50.9342 51.5708 50.8538 51.5677 50.7734 51.5642L50.675 51.5587C50.6071 51.555 50.5392 51.5514 50.4713 51.5462L50.3849 51.5405C50.3046 51.5343 50.2243 51.5275 50.1441 51.5202L50.0254 51.5079L49.868 51.4908L49.7803 51.4807C49.6977 51.4705 49.6153 51.4591 49.5331 51.4464L49.4335 51.4317L49.2575 51.4043L49.1669 51.3891C49.0962 51.3766 49.0254 51.3643 48.9549 51.3506L48.8024 51.3201L48.7243 51.3042C48.62 51.2815 48.5149 51.259 48.4113 51.2339L48.3839 51.2276L48.2209 51.1878L48.1371 51.1663C48.0399 51.1412 47.9432 51.1142 47.8467 51.0873L47.8121 51.0771C44.9389 50.2482 42.4836 48.4388 40.8284 46.0353L40.6106 46.367C40.216 47.0275 39.6409 46.9499 39.3313 46.9073L39.2508 46.8948C39.1065 46.8744 39.0152 46.9182 38.6204 47.1363L38.557 47.1694C38.1305 47.4034 37.286 47.7064 36.7222 47.9084L36.5004 47.9877C35.8576 48.2211 35.4361 47.924 35.1886 47.7445L35.1018 47.6841C34.7874 47.476 34.6247 47.1157 34.5092 46.8567C34.5092 46.8567 34.4714 46.7807 34.4529 46.7398C34.3889 46.7339 34.3245 46.7314 34.2601 46.7322C33.7594 46.7322 33.5808 46.503 33.4655 46.2534L33.4452 46.2106C33.3773 46.0734 33.0804 45.6374 32.9983 45.5523C32.8595 45.4134 32.7608 45.1764 32.7452 45.0089C32.6932 44.4658 32.9915 44.3461 33.2661 44.2905L33.8417 44.2351L34.347 44.1973C34.5348 44.18 34.8712 44.1753 35.0084 44.216L35.4394 44.1024C35.6445 44.049 35.9492 44.0915 36.2891 44.0728C36.1084 43.9359 35.9374 43.7866 35.7774 43.626C35.613 43.6605 35.4422 43.6984 35.4422 43.6984C34.9722 43.8055 33.2661 43.7109 32.7263 43.515C32.4519 43.4154 31.596 43.556 31.1851 43.626L30.9386 43.6636C30.6871 43.7022 30.4304 43.6894 30.184 43.626C30.171 43.9352 30.0035 44.216 29.8599 44.4535C29.7764 44.5907 29.6707 44.7631 29.6579 44.8575C29.5841 45.3867 28.9991 45.6377 28.4418 45.8811C28.2253 45.9726 28.0077 46.0689 27.8532 46.1624C27.2419 46.538 26.5722 46.415 26.0369 46.3185L25.7776 46.2726C25.3464 46.2061 24.6561 46.3135 24.1321 46.838C23.3309 47.6373 22.5337 47.4615 22.1706 47.3622C22.0504 47.4334 21.8027 47.691 21.6459 47.9685C21.3431 48.5183 20.7647 48.6744 20.329 48.5876L20.2852 48.5762C20.1064 48.5386 19.8076 48.4799 19.5788 48.5086L18.9832 48.5876L18.9896 48.4835C18.582 48.5497 18.1491 48.4738 17.9035 48.2909C17.723 48.1566 17.4702 47.8377 17.7895 47.2044C17.8636 47.0525 17.8889 46.947 17.8889 46.8063C17.8889 46.2537 18.2085 45.8447 18.4327 45.7169C18.6679 45.5937 18.8226 45.4704 18.8855 45.2843C18.9472 45.0976 19.0684 44.9412 19.2884 44.818C19.506 44.6936 19.8156 44.4785 20.0638 44.3839C20.3115 44.2907 20.6538 44.1944 20.8404 44.3839C21.0285 44.567 21.4592 44.9412 21.4592 44.9412C21.8545 44.6361 21.8167 44.2843 22.0215 43.6998C22.2777 42.975 22.8907 43.1706 23.2886 43.2087L23.3342 43.2151C23.3342 43.2151 23.5488 43.2245 23.5552 43.2279C23.5663 43.2215 23.6264 43.1931 23.6264 43.1931L23.726 43.1408C23.726 43.1408 24.3684 42.7635 24.3748 42.7604C24.3777 42.7526 24.3777 42.7413 24.3777 42.7221C24.3777 42.6764 24.3621 42.5832 24.2752 42.4444C23.9895 42.002 23.7875 41.1258 23.7508 40.3884C23.6477 40.4007 23.5481 40.4109 23.4501 40.4187C21.894 40.5436 20.9693 40.15 20.4283 39.643Z" fill="#CFCFCF"/>
<path d="M24.2591 39.8498C24.2591 39.8498 24.1294 41.1047 24.6948 42.2107C24.6948 42.2107 25.1138 42.8044 24.6787 43.1857L23.8127 43.6891C23.8127 43.6891 23.6963 43.7757 23.31 43.7464C23.31 43.7464 22.7761 43.6142 22.5977 43.85C22.5977 43.85 22.4428 44.3035 22.2488 44.6772C22.2488 44.6772 21.8544 45.5833 21.2018 45.8735C21.2018 45.8735 20.6816 45.9927 20.5238 46.4439C20.5238 46.4439 20.3561 46.7604 20.0202 46.7743C20.0202 46.7743 19.7697 46.8538 19.6038 47.4119C19.6038 47.4119 19.5135 47.7729 19.5182 48.0496C19.5182 48.0496 19.9454 47.9936 20.2239 48.0943C20.2239 48.0943 20.9085 48.3243 21.2146 47.7603C21.2146 47.7603 21.806 46.7476 22.2445 46.9C22.2445 46.9 23.1255 47.1947 23.7476 46.5517C23.7476 46.5517 24.6023 45.618 25.8095 45.8101C25.8095 45.8101 27.1692 46.0855 27.5934 45.7718C27.5934 45.7718 28.4509 45.3235 28.7726 45.2123C28.7726 45.2123 29.1662 45.0967 29.2069 44.6657C29.2069 44.6657 29.4463 44.0594 29.6204 43.8573L28.9718 43.85C28.9718 43.85 28.3844 44.8379 27.3864 45.1357C27.3864 45.1357 26.8406 45.3538 25.7451 45.1766C25.7451 45.1766 24.1723 44.8204 22.7907 46.3123C22.7907 46.3123 22.602 46.5851 22.3325 46.476C22.3325 46.476 23.0959 45.1743 24.7719 44.8658C24.7719 44.8658 25.3205 44.7492 25.778 44.8234C25.778 44.8234 28.0355 44.8897 29.0823 42.6672C29.0823 42.6672 28.969 40.7724 29.4688 40.3236C29.4688 40.3236 29.6618 40.2645 29.6233 40.6309C29.6233 40.6309 29.2798 42.6159 29.9249 43.0003C29.9249 43.0003 30.2994 43.2946 30.9922 43.1857C30.9922 43.1857 32.0426 42.9348 32.8963 43.081C32.8963 43.081 34.2092 43.3925 35.3373 43.2484C35.3373 43.2484 35.0445 42.7999 35.102 42.2636C35.102 42.2636 35.2635 41.8797 35.4488 42.1267C35.4488 42.1267 35.8828 43.5607 37.0692 43.991C37.0692 43.991 38.1287 44.3768 38.1115 45.7207C38.1115 45.7207 37.9492 45.905 36.5443 46.4041C36.5443 46.4041 36.0193 46.57 35.8502 46.1777C35.8502 46.1777 35.1727 44.7276 34.583 44.7723L33.4756 44.8622C33.4756 44.8622 33.0978 44.959 33.376 45.2618C33.376 45.2618 33.7552 45.7659 33.9102 46.0668C33.9102 46.0668 33.9554 46.3239 34.3116 46.2693C34.3116 46.2693 34.8058 46.0244 35.0845 46.9437C35.0845 46.9437 35.3395 47.4033 35.7712 47.5503C35.7712 47.5503 36.175 47.6851 36.554 47.4724C36.554 47.4724 38.3828 46.8011 38.7012 46.5631C38.7012 46.5631 39.0967 46.3417 39.4104 46.4481C39.4104 46.4481 39.959 46.5789 40.1849 46.146L40.7517 45.2691C40.7517 45.2691 40.8761 45.0531 40.8589 44.7818C40.8589 44.7818 40.9102 44.5131 40.6836 44.2399C40.6836 44.2399 40.4695 44.0135 40.4357 43.8495L40.0316 42.9C40.0316 42.9 39.8679 42.6464 39.6881 42.5421L39.1488 42.5816C39.1488 42.5816 39.5199 43.5302 39.7917 43.9167C39.7917 43.9167 40.1596 44.4792 40.1409 44.8369C40.1409 44.8369 40.1165 45.0877 40.0177 45.1922C40.0177 45.1922 39.8932 45.3914 39.8431 45.4882C39.8431 45.4882 39.6796 45.843 39.5469 45.9218C39.5469 45.9218 39.3174 46.0576 39.2616 46.063C39.2616 46.063 39.1618 46.0907 39.2358 45.9118C39.2358 45.9118 39.5382 45.2757 39.5183 44.9356C39.5183 44.9356 39.577 44.5812 39.3262 44.3737C39.3262 44.3737 38.7386 43.4462 38.6544 43.169C38.6544 43.169 38.4701 42.798 38.3719 42.7344C38.3719 42.7344 38.1666 42.4645 38.498 42.3382C38.498 42.3382 39.3236 42.1517 39.4714 42.0505C39.4714 42.0505 39.8684 41.9303 40.1262 41.1036C40.1262 41.1036 40.4813 40.1393 40.4761 39.5442C40.4761 39.5442 41.1721 40.8859 40.0621 42.2504C40.0621 42.2504 40.9405 42.5094 41.3038 42.2504C41.3038 42.2504 42.3979 42.0905 42.6092 42.0323C42.6092 42.0323 42.8843 41.9658 42.7272 42.161C42.7272 42.161 42.3972 42.6303 42.3693 42.9378C42.3693 42.9378 42.348 43.1827 42.1474 43.326C42.1474 43.326 41.5255 43.7615 41.4708 44.1786C41.4708 44.1786 41.3379 44.58 41.6125 44.484C41.6125 44.484 41.9849 44.3115 42.1164 44.4852C42.1164 44.4852 42.155 44.5034 42.0114 44.6645C42.0114 44.6645 41.6378 44.9895 41.6099 45.4257C41.6099 45.4257 41.679 45.9291 41.811 46.0909C41.811 46.0909 41.9792 46.3242 42.2451 46.2501C42.2451 46.2501 42.3156 46.1931 42.4429 46.2314C42.4429 46.2314 42.5744 46.231 42.9179 46.1122C42.9179 46.1122 43.4385 45.9691 43.6126 45.9076C43.6126 45.9076 44.2755 45.6706 44.6024 45.6871C44.6024 45.6871 44.8151 45.6637 45.0862 45.7179C45.0862 45.7179 45.9151 45.812 46.4674 45.2015C46.4674 45.2015 46.8878 44.8681 47.0304 45.1918C47.0304 45.1918 48.0389 46.5449 49.6711 46.1884C49.6711 46.1884 48.3724 45.6542 48.0356 44.9268C48.0356 44.9268 47.9906 44.3092 47.3103 43.4514C47.3103 43.4514 47.1024 43.1668 47.303 43.0928C47.303 43.0928 47.4191 43.006 47.6725 43.2603C47.6725 43.2603 48.3187 43.8803 48.5522 44.4478C48.5522 44.4478 49.3549 45.6606 50.5116 45.253C50.5116 45.253 49.6035 44.9027 49.1767 44.2493C49.1767 44.2493 48.913 43.3651 48.0263 42.7072C48.0263 42.7072 47.9916 41.7134 47.5781 41.1549C47.5781 41.1549 47.3673 40.2217 47.3105 40.0036C47.3105 40.0036 47.0874 39.1839 47.0889 38.9575C47.0889 38.9575 47.1627 37.8868 46.4724 37.0534C46.4724 37.0534 46.0099 36.1618 45.2896 35.5406C45.2896 35.5406 44.7422 34.8643 44.3351 34.4501C44.3351 34.4501 43.7995 33.8223 42.6319 33.0031C42.6319 33.0031 42.1032 32.6187 41.7159 32.2054C41.7159 32.2054 39.6562 30.7229 38.1682 31.9121C38.1682 31.9121 37.1406 32.6111 36.2824 32.8276C36.2824 32.8276 34.5186 33.0329 33.7666 34.2571C33.7666 34.2571 33.7023 34.4832 32.9914 34.5693C32.9914 34.5693 31.4299 34.3808 30.2802 35.9165C30.2802 35.9165 29.746 36.4379 28.6886 36.5647C28.6886 36.5647 26.9641 36.3882 25.8414 37.7104C25.8414 37.7104 23.0084 40.1817 21.3191 38.579C21.3191 38.579 20.4439 37.7503 21.4445 36.2498C21.4445 36.2498 22.0792 35.4839 23.1619 34.6836C23.1619 34.6836 24.0403 34.0648 23.6376 33.1027C23.6376 33.1027 23.425 32.173 22.1085 32.1484C22.1085 32.1484 20.4566 31.8293 19.7886 30.9952C19.7886 30.9952 19.0427 33.6222 21.9701 33.5784C21.9701 33.5784 22.733 33.6912 22.4667 34.2968C22.4667 34.2968 22.0927 34.8149 21.5907 35.0034C21.5907 35.0034 20.7076 35.3897 20.3085 36.6757C20.3085 36.6757 19.4167 38.9267 21.5926 39.7956C22.43 40.0849 23.3973 39.9998 24.2591 39.8498ZM20.0699 45.1544C20.1879 45.0557 20.3608 45.0002 20.5143 45.0361C20.8607 45.1106 20.6511 45.4106 20.6511 45.4106C20.5108 45.6729 20.0531 46.1155 20.0531 46.1155C19.6459 46.4204 19.3235 46.0573 19.3235 46.0573C19.0219 45.76 19.4143 45.6161 19.4143 45.6161C19.6426 45.5234 20.0699 45.1544 20.0699 45.1544ZM19.1969 46.5614C19.1969 46.5614 19.3235 46.6549 19.2559 46.8394C19.2559 46.8394 18.9327 47.7239 18.9479 48.0208C18.9479 48.0208 18.2327 48.1485 18.1336 47.7956C18.1336 47.7956 18.1145 47.6593 18.2311 47.4618C18.2311 47.4618 18.3524 47.2775 18.3839 46.9404C18.3839 46.9404 18.3733 46.0921 18.9228 46.3168C19.0318 46.3779 19.1179 46.4666 19.1969 46.5614ZM44.4023 44.7664C44.2764 44.7634 44.2445 44.7172 44.2596 44.5786C44.3441 44.1932 44.653 44.0269 44.653 44.0269C45.2326 43.6806 45.3031 44.0274 45.3031 44.0274C45.4093 44.646 44.9203 44.7239 44.9203 44.7239C44.8226 44.7574 44.4023 44.7664 44.4023 44.7664ZM46.1507 42.0039C46.1613 41.7136 46.1859 41.0685 45.8909 40.8381C45.7821 40.7516 45.3516 40.2801 45.3516 40.2801C45.2861 40.1658 45.2357 40.1587 45.2357 40.1587C45.147 40.1502 45.0325 40.3565 45.0325 40.3565C44.7259 40.9481 44.42 40.876 44.42 40.876C44.4174 40.7681 44.4896 40.6477 44.4896 40.6477C44.6376 40.3603 44.7841 40.0722 44.9293 39.7833C44.974 39.6807 45.0152 39.5439 45.0152 39.5439C45.3111 39.0852 45.59 39.4344 45.59 39.4344C45.7145 39.6773 46.378 40.4689 46.378 40.4689C46.5252 40.6439 46.5393 40.832 46.5393 40.832C46.6931 41.9161 46.1507 42.0039 46.1507 42.0039ZM40.0392 35.4593C39.9486 35.2963 39.986 35.13 40.077 34.9715C40.2824 34.6569 40.4742 35.0001 40.4742 35.0001C41.1832 35.9885 40.6597 37.4681 40.6597 37.4681C40.5868 36.1063 40.0392 35.4593 40.0392 35.4593ZM78.1045 39.8498C78.1045 39.8498 78.2342 41.1047 77.6688 42.2107C77.6688 42.2107 77.2499 42.8044 77.6849 43.1857L78.5512 43.6891C78.5512 43.6891 78.6673 43.7757 79.0539 43.7464C79.0539 43.7464 79.5875 43.6142 79.7657 43.85C79.7657 43.85 79.9208 44.3035 80.1146 44.6772C80.1146 44.6772 80.5096 45.5833 81.1623 45.8735C81.1623 45.8735 81.6823 45.9927 81.8396 46.4439C81.8396 46.4439 82.0078 46.7604 82.3432 46.7743C82.3432 46.7743 82.5942 46.8538 82.7598 47.4119C82.7598 47.4119 82.8504 47.7729 82.8459 48.0496C82.8459 48.0496 82.4184 47.9936 82.1398 48.0943C82.1398 48.0943 81.4554 48.3243 81.1493 47.7603C81.1493 47.7603 80.5579 46.7476 80.1193 46.9C80.1193 46.9 79.2386 47.1947 78.6162 46.5517C78.6162 46.5517 77.7618 45.618 76.5544 45.8101C76.5544 45.8101 75.1951 46.0855 74.7707 45.7718C74.7707 45.7718 73.9132 45.3235 73.5915 45.2123C73.5915 45.2123 73.1976 45.0967 73.1574 44.6657C73.1574 44.6657 72.9178 44.0594 72.7436 43.8573L73.3921 43.85C73.3921 43.85 73.9792 44.8379 74.9772 45.1357C74.9772 45.1357 75.5235 45.3538 76.6185 45.1766C76.6185 45.1766 78.1916 44.8204 79.5731 46.3123C79.5731 46.3123 79.7621 46.5851 80.0311 46.476C80.0311 46.476 79.2682 45.1743 77.5919 44.8658C77.5919 44.8658 77.0436 44.7492 76.5856 44.8234C76.5856 44.8234 74.3281 44.8897 73.2809 42.6672C73.2809 42.6672 73.3947 40.7724 72.8948 40.3236C72.8948 40.3236 72.7023 40.2645 72.7401 40.6309C72.7401 40.6309 73.0833 42.6159 72.4387 43.0003C72.4387 43.0003 72.064 43.2946 71.3711 43.1857C71.3711 43.1857 70.3211 42.9348 69.4675 43.081C69.4675 43.081 68.1542 43.3925 67.026 43.2484C67.026 43.2484 67.3191 42.7999 67.2616 42.2636C67.2616 42.2636 67.0998 41.8797 66.9146 42.1267C66.9146 42.1267 66.4805 43.5607 65.2939 43.991C65.2939 43.991 64.2344 44.3768 64.2517 45.7207C64.2517 45.7207 64.4144 45.905 65.8196 46.4041C65.8196 46.4041 66.3447 46.57 66.5139 46.1777C66.5139 46.1777 67.1907 44.7276 67.7807 44.7723L68.8885 44.8622C68.8885 44.8622 69.266 44.959 68.9876 45.2618C68.9876 45.2618 68.6088 45.7659 68.4534 46.0668C68.4534 46.0668 68.4087 46.3239 68.0522 46.2693C68.0522 46.2693 67.558 46.0244 67.2789 46.9437C67.2789 46.9437 67.0244 47.4033 66.5927 47.5503C66.5927 47.5503 66.1886 47.6851 65.8099 47.4724C65.8099 47.4724 63.981 46.8011 63.6629 46.5631C63.6629 46.5631 63.2671 46.3417 62.9537 46.4481C62.9537 46.4481 62.4056 46.5789 62.1797 46.146L61.6129 45.2691C61.6129 45.2691 61.488 45.0531 61.5055 44.7818C61.5055 44.7818 61.4539 44.5131 61.6808 44.2399C61.6808 44.2399 61.8951 44.0135 61.9287 43.8495L62.3329 42.9C62.3329 42.9 62.4966 42.6464 62.6762 42.5421L63.216 42.5816C63.216 42.5816 62.8444 43.5302 62.5723 43.9167C62.5723 43.9167 62.2045 44.4792 62.2232 44.8369C62.2232 44.8369 62.2478 45.0877 62.3464 45.1922C62.3464 45.1922 62.4709 45.3914 62.5212 45.4882C62.5212 45.4882 62.684 45.843 62.8172 45.9218C62.8172 45.9218 63.0464 46.0576 63.1025 46.063C63.1025 46.063 63.2025 46.0907 63.1275 45.9118C63.1275 45.9118 62.8262 45.2757 62.8453 44.9356C62.8453 44.9356 62.7871 44.5812 63.0374 44.3737C63.0374 44.3737 63.6255 43.4462 63.7102 43.169C63.7102 43.169 63.8938 42.798 63.9922 42.7344C63.9922 42.7344 64.1975 42.4645 63.8661 42.3382C63.8661 42.3382 63.0407 42.1517 62.8929 42.0505C62.8929 42.0505 62.4959 41.9303 62.2378 41.1036C62.2378 41.1036 61.883 40.1393 61.888 39.5442C61.888 39.5442 61.192 40.8859 62.3022 42.2504C62.3022 42.2504 61.4239 42.5094 61.0605 42.2504C61.0605 42.2504 59.9666 42.0905 59.7547 42.0323C59.7547 42.0323 59.4803 41.9658 59.6369 42.161C59.6369 42.161 59.9666 42.6303 59.995 42.9378C59.995 42.9378 60.0159 43.1827 60.2169 43.326C60.2169 43.326 60.8388 43.7615 60.893 44.1786C60.893 44.1786 61.0262 44.58 60.7513 44.484C60.7513 44.484 60.3792 44.3115 60.2477 44.4852C60.2477 44.4852 60.2091 44.5034 60.3527 44.6645C60.3527 44.6645 60.7262 44.9895 60.7539 45.4257C60.7539 45.4257 60.6848 45.9291 60.5526 46.0909C60.5526 46.0909 60.3846 46.3242 60.1188 46.2501C60.1188 46.2501 60.0485 46.1931 59.9205 46.2314C59.9205 46.2314 59.7892 46.231 59.4457 46.1122C59.4457 46.1122 58.9251 45.9691 58.751 45.9076C58.751 45.9076 58.0881 45.6706 57.761 45.6871C57.761 45.6871 57.5483 45.6637 57.2772 45.7179C57.2772 45.7179 56.4481 45.812 55.8957 45.2015C55.8957 45.2015 55.4753 44.8681 55.3332 45.1918C55.3332 45.1918 54.3245 46.5449 52.692 46.1884C52.692 46.1884 53.9914 45.6542 54.328 44.9268C54.328 44.9268 54.3725 44.3092 55.0528 43.4514C55.0528 43.4514 55.2605 43.1668 55.0599 43.0928C55.0599 43.0928 54.944 43.006 54.6904 43.2603C54.6904 43.2603 54.0449 43.8803 53.8112 44.4478C53.8112 44.4478 53.008 45.6606 51.8517 45.253C51.8517 45.253 52.7594 44.9027 53.1862 44.2493C53.1862 44.2493 53.4499 43.3651 54.3373 42.7072C54.3373 42.7072 54.3718 41.7134 54.7855 41.1549C54.7855 41.1549 54.9965 40.2217 55.0528 40.0036C55.0528 40.0036 55.2757 39.1839 55.2743 38.9575C55.2743 38.9575 55.2005 37.8868 55.891 37.0534C55.891 37.0534 56.3532 36.1618 57.0742 35.5406C57.0742 35.5406 57.6214 34.8643 58.0283 34.4501C58.0283 34.4501 58.5641 33.8223 59.7317 33.0031C59.7317 33.0031 60.2602 32.6187 60.6472 32.2054C60.6472 32.2054 62.7067 30.7229 64.1951 31.9121C64.1951 31.9121 65.2227 32.6111 66.0815 32.8276C66.0815 32.8276 67.8448 33.0329 68.5963 34.2571C68.5963 34.2571 68.6607 34.4832 69.3715 34.5693C69.3715 34.5693 70.933 34.3808 72.0829 35.9165C72.0829 35.9165 72.6171 36.4379 73.6747 36.5647C73.6747 36.5647 75.3983 36.3882 76.521 37.7104C76.521 37.7104 79.3543 40.1817 81.0438 38.579C81.0438 38.579 81.9186 37.7503 80.9182 36.2498C80.9182 36.2498 80.2837 35.4839 79.2012 34.6836C79.2012 34.6836 78.3222 34.0648 78.7253 33.1027C78.7253 33.1027 78.9379 32.173 80.2544 32.1484C80.2544 32.1484 81.9063 31.8293 82.5741 30.9952C82.5741 30.9952 83.3204 33.6222 80.3925 33.5784C80.3925 33.5784 79.6294 33.6912 79.896 34.2968C79.896 34.2968 80.27 34.8149 80.772 35.0034C80.772 35.0034 81.655 35.3897 82.0544 36.6757C82.0544 36.6757 82.9464 38.9267 80.7696 39.7956C79.9334 40.0849 78.9663 39.9998 78.1045 39.8498ZM82.294 45.1544C82.1757 45.0557 82.0028 45.0002 81.8497 45.0361C81.5029 45.1106 81.7128 45.4106 81.7128 45.4106C81.8533 45.6729 82.311 46.1155 82.311 46.1155C82.7186 46.4204 83.0406 46.0573 83.0406 46.0573C83.3417 45.76 82.949 45.6161 82.949 45.6161C82.7212 45.5234 82.294 45.1544 82.294 45.1544ZM83.1664 46.5614C83.1664 46.5614 83.0406 46.6549 83.1075 46.8394C83.1075 46.8394 83.4307 47.7239 83.4158 48.0208C83.4158 48.0208 84.1313 48.1485 84.2298 47.7956C84.2298 47.7956 84.2489 47.6593 84.1325 47.4618C84.1325 47.4618 84.0112 47.2775 83.9797 46.9404C83.9797 46.9404 83.9906 46.0921 83.4411 46.3168C83.3318 46.3779 83.2457 46.4666 83.1664 46.5614ZM57.9611 44.7664C58.0872 44.7634 58.1196 44.7172 58.104 44.5786C58.0193 44.1932 57.7108 44.0269 57.7108 44.0269C57.1313 43.6806 57.0605 44.0274 57.0605 44.0274C56.9548 44.646 57.4435 44.7239 57.4435 44.7239C57.5412 44.7574 57.9611 44.7664 57.9611 44.7664ZM56.2132 42.0039C56.2023 41.7136 56.1775 41.0685 56.4729 40.8381C56.5822 40.7516 57.0123 40.2801 57.0123 40.2801C57.0778 40.1658 57.1282 40.1587 57.1282 40.1587C57.2164 40.1502 57.3316 40.3565 57.3316 40.3565C57.6377 40.9481 57.9441 40.876 57.9441 40.876C57.9464 40.7681 57.8738 40.6477 57.8738 40.6477C57.7259 40.3603 57.5794 40.0722 57.4343 39.7833C57.4019 39.7049 57.3732 39.625 57.3484 39.5439C57.0525 39.0852 56.7738 39.4344 56.7738 39.4344C56.6494 39.6773 55.9861 40.4689 55.9861 40.4689C55.8983 40.5718 55.842 40.6979 55.824 40.832C55.671 41.9161 56.2132 42.0039 56.2132 42.0039ZM62.3244 35.4593C62.415 35.2963 62.3777 35.13 62.2866 34.9715C62.0812 34.6569 61.8899 35.0001 61.8899 35.0001C61.1807 35.9885 61.7042 37.4681 61.7042 37.4681C61.7766 36.1063 62.3244 35.4593 62.3244 35.4593Z" fill="white"/>
<path d="M10.0131 55.9405V74.0706H13.6714V59.4007H15.395C15.395 59.4007 18.0856 59.2795 18.0856 61.7289C18.0856 64.1782 15.6969 64.1172 15.6969 64.1172H14.8199V68.2903L18.479 74.0711H22.7719L17.6624 66.658C17.6624 66.658 21.8651 66.2952 21.8651 61.7293C21.8651 57.1642 18.6903 55.9412 14.4578 55.9412L10.0131 55.9405ZM63.5004 64.4207C63.5004 64.4207 65.1024 63.1745 65.1024 60.8129C65.1024 58.4502 63.3864 56.3202 59.7325 56.3202H53.6132V74.0708H61.1504C61.1504 74.0708 66.5527 74.0096 66.5527 69.1277C66.5529 66.2937 65.4527 65.2084 63.5004 64.4207ZM60.5522 70.9814H57.272V59.4153H59.0252C59.0252 59.4153 61.4078 59.2365 61.4078 61.3151C61.4078 63.3938 59.5125 63.2104 59.5125 63.2104H58.4208V66.3264H60.5514C61.11 66.3264 62.8894 66.5972 62.8894 68.6449C62.8891 70.6921 60.5522 70.9814 60.5522 70.9814ZM86.5701 55.584H89.9869V74.0708H86.5701V55.584ZM80.6897 55.584H84.1515V74.0708H80.6897V55.584ZM67.5824 63.2412H71.0892V69.439C71.0892 69.439 71.2113 71.5262 73.1759 71.5262C75.1405 71.5262 75.1114 69.439 75.1114 69.439V63.2705H78.6482V69.6514C78.6482 69.6514 79.1021 74.6402 73.2662 74.6402C67.431 74.6402 67.5824 70.2561 67.5824 69.47V63.2412ZM44.3313 55.584V63.9672C44.3313 63.9672 42.638 62.6673 40.7018 62.6673C38.7675 62.6673 35.502 64.0277 35.502 68.3208C35.502 72.6141 38.2839 74.2478 40.6722 74.2478C43.0612 74.2478 44.3917 72.6751 44.3917 72.6751V74.0713H47.8378V55.5843H44.3313V55.584ZM41.67 71.2229C41.4884 71.2229 39.2207 71.2534 39.2207 68.472C39.2207 65.6898 41.6999 65.5992 41.6999 65.5992C41.6999 65.5992 44.482 65.6898 44.482 68.4112C44.482 71.1325 41.8513 71.2229 41.67 71.2229ZM28.608 62.6668C34.4737 62.6668 34.2317 68.3816 34.2317 68.3816V69.2881H26.28C26.28 70.5877 27.3682 71.7069 28.85 71.7069C30.3313 71.7069 31.0874 70.2859 31.0874 70.2859L33.8989 71.6764C32.599 73.6424 30.8454 74.4278 28.8803 74.4278C22.7723 74.4278 22.6514 69.3487 22.6514 68.714C22.6514 68.0786 22.7428 62.6668 28.608 62.6668ZM26.3401 67.2014H30.6947C30.6947 67.2014 30.5132 65.1462 28.5479 65.1462C26.5826 65.146 26.3401 67.2014 26.3401 67.2014Z" fill="white"/>
</g>
<defs>
<clipPath id="clip0_36_2960">
<rect width="80" height="48.64" fill="white" transform="translate(10 26)"/>
</clipPath>
</defs>
</svg>
