<svg width="100" height="100" viewBox="0 0 100 100" fill="none" xmlns="http://www.w3.org/2000/svg">
<path d="M68.4428 28.0019C64.0739 28.0019 60.4328 30.9065 59.3161 35.2535C57.303 28.7216 52.1503 28.007 50.0009 28.007C47.8519 28.007 42.7012 28.7216 40.6843 35.252C39.5672 30.9091 35.9256 28.007 31.5578 28.007C26.1983 28.007 22 31.8384 22 36.7294C22 38.8924 22.5344 40.6192 23.1802 42.4921L30.4573 63.0713C32.894 69.8963 37.8581 70.9154 40.5999 70.9154C44.9009 70.9154 48.2524 68.7126 50.0002 64.8086C51.7496 68.7301 55.1015 70.9441 59.4003 70.9441C62.1389 70.9441 67.0979 69.9232 69.5471 63.073L76.8643 42.4239L76.9213 42.2535C77.0049 41.9888 77.0893 41.7405 77.169 41.5047C77.5586 40.3519 78 39.0453 78 37.444C78 31.9731 73.9807 28.0019 68.4428 28.0019ZM71.8923 40.6621L64.5751 61.3112C63.6817 63.8093 62.196 65.6691 59.4003 65.6691C56.7812 65.6691 55.2349 64.2096 54.4623 61.7089L50.0591 47.9659H49.9394L45.539 61.7089C44.7649 64.2101 43.2181 65.6403 40.5997 65.6403C37.8036 65.6403 36.3165 63.796 35.4247 61.2976L28.1672 40.7736C27.5722 39.0477 27.2749 37.9798 27.2749 36.729C27.2749 34.825 29.0606 33.2819 31.5578 33.2819C33.6403 33.2819 35.1274 34.6548 35.6034 36.6773L40.5413 53.0479H40.6594L45.6567 37.038C46.3123 34.7182 47.5014 33.2819 50.0009 33.2819C52.499 33.2819 53.6883 34.7158 54.3426 37.0356L59.3402 53.0479H59.4583L64.3977 36.6773C64.873 34.6548 66.3599 33.2769 68.4428 33.2769C70.9401 33.2769 72.7251 34.8256 72.7251 37.444C72.7251 38.3954 72.3072 39.3511 71.8923 40.6619V40.6621Z" fill="white"/>
</svg>
