<svg width="100" height="22" viewBox="0 0 100 22" fill="none" xmlns="http://www.w3.org/2000/svg">
<path fill-rule="evenodd" clip-rule="evenodd" d="M0 0.249802C0 0.893802 0.334589 2.0794 0.760555 2.9444C2.39861 6.271 6.57948 7.5415 9.9108 5.7252C10.8142 5.2327 12.0472 3.9809 12.5198 3.0764C12.9326 2.2866 13.2805 1.0747 13.2805 0.426601V0H6.64024H0V0.249802ZM15.56 7.9156V15.8313L15.8417 15.5084C16.3917 14.8784 28.6079 0.2329 28.6799 0.1175C28.7363 0.0268003 27.2454 0 22.1565 0H15.56V7.9156ZM69.772 7.036V9.5507L69.3158 9.1524C68.1701 8.1522 66.2888 8.0117 64.8003 8.8151C64.2277 9.1242 63.4344 9.9287 63.1423 10.4965C62.8332 11.0973 62.6363 11.9467 62.6363 12.6792C62.6363 14.9017 64.0802 16.6357 66.2416 17.009C67.3559 17.2014 68.5604 16.8602 69.357 16.1266C69.5375 15.9604 69.7048 15.8244 69.7286 15.8244C69.7525 15.8244 69.772 16.0677 69.772 16.365V16.9056H70.664H71.556V10.7134V4.5213H70.664H69.772V7.036ZM92.141 4.5833C92.1027 4.6212 92.0714 7.4093 92.0714 10.779V16.9056H93.0129H93.9544V15.791V14.6764L94.6729 13.9193L95.3915 13.1622L96.6884 15.0093L97.9853 16.8564L98.9927 16.8844C99.5467 16.8999 100 16.8902 100 16.863C100 16.8359 99.2641 15.776 98.3647 14.5078C97.4653 13.2396 96.7294 12.1504 96.7294 12.0874C96.7294 12.0243 97.412 11.236 98.2462 10.3356C99.0804 9.4352 99.7966 8.6433 99.8378 8.5756C99.8958 8.4803 99.6724 8.4532 98.8413 8.4544L97.7701 8.4559L95.887 10.5159L94.004 12.576L93.9544 8.5732L93.9049 4.5704L93.0578 4.5423C92.5919 4.5269 92.1793 4.5452 92.141 4.5833ZM6.65173 13.6957L0.0725473 21.5742L6.64271 21.5995C10.2564 21.6135 13.2284 21.6094 13.2473 21.5908C13.2662 21.572 13.2703 18.0153 13.2563 13.6869L13.2309 5.8171L6.65173 13.6957ZM46.2941 8.3626C45.0103 8.6126 43.7986 9.5541 43.202 10.7653C42.8729 11.4335 42.8644 11.4812 42.8643 12.6792C42.8642 13.8564 42.8774 13.9354 43.1799 14.5686C43.6122 15.4737 44.2685 16.1431 45.1347 16.5626C46.9485 17.4409 49.2992 17.1873 50.6843 15.9637L50.9722 15.7094L50.3781 15.1202L49.784 14.531L49.3008 14.8349C49.035 15.0021 48.66 15.1823 48.4673 15.2353C47.9896 15.367 46.8365 15.3579 46.3685 15.2188C45.6771 15.0134 45.0935 14.3863 44.8507 13.5883L44.7834 13.3672H48.1103H51.4371L51.4463 13.0969C51.4834 12.0025 51.3043 11.2012 50.8197 10.2955C50.0076 8.7774 48.1774 7.9957 46.2941 8.3626ZM56.1337 8.4025C54.6314 8.7266 53.5862 9.7037 53.2567 11.0921C53.1646 11.4802 53.1246 12.4382 53.1235 14.2764L53.1219 16.9056H54.0634H55.005V14.2138V11.5221L55.2804 10.9993C55.6524 10.293 56.2499 9.9739 57.1857 9.9816C58.074 9.9887 58.6167 10.2861 58.9639 10.9562C59.2148 11.4401 59.2173 11.4694 59.2489 14.1751L59.2806 16.9056H60.1656H61.0505V14.1222C61.0505 11.0285 61.0031 10.7059 60.4244 9.8625C59.9694 9.1996 59.0581 8.6092 58.186 8.4125C57.368 8.228 56.952 8.2259 56.1337 8.4025ZM76.8262 8.3614C74.7731 8.7621 73.3399 10.5371 73.3399 12.6792C73.3399 15.0515 74.819 16.6784 77.297 17.0321C78.6662 17.2275 80.2091 16.8282 81.1674 16.0306L81.5122 15.7436L80.9696 15.1697C80.6711 14.854 80.3981 14.5826 80.363 14.5666C80.3278 14.5506 80.0839 14.6727 79.8209 14.8381C79.1961 15.2311 78.8013 15.3322 77.8989 15.3302C76.5637 15.3273 75.7431 14.7604 75.3777 13.5883L75.3087 13.3672H78.6966H82.0845L82.02 12.7037C81.9289 11.7685 81.7766 11.1376 81.4993 10.5471C80.7148 8.8767 78.7925 7.9777 76.8262 8.3614ZM85.9608 8.3585C84.5817 8.6291 83.6016 9.6724 83.6101 10.8608C83.6199 12.241 84.3868 12.8716 86.6454 13.357C87.8072 13.6065 88.3778 13.8223 88.5063 14.0606C88.6707 14.365 88.6132 14.7157 88.3476 15.0286C87.6674 15.8304 85.8729 15.6071 85.0973 14.6242L84.8482 14.3084L84.2698 14.5825C83.9517 14.7333 83.5904 14.9323 83.4667 15.0248L83.2418 15.193L83.538 15.5984C84.5485 16.9817 87.1739 17.5275 88.8228 16.697C90.095 16.0562 90.7179 14.6389 90.2331 13.4883C89.8895 12.6726 89.2615 12.3155 87.3226 11.8329C85.8208 11.4591 85.4956 11.2852 85.45 10.8311C85.3825 10.1603 85.902 9.7927 86.9177 9.7927C87.6264 9.7927 88.0577 9.9597 88.554 10.426L88.8524 10.7063L89.5712 10.3127C90.3806 9.8694 90.3893 9.8156 89.7433 9.2531C88.8328 8.4603 87.2953 8.0967 85.9608 8.3585ZM34.1923 9.2882V10.1237H36.686H39.1799L36.6365 12.6726L34.0932 15.2214V16.0635V16.9056H37.8593H41.6254V16.1209V15.3362L39.0527 15.31L36.48 15.2838L39.0527 12.6633L41.6254 10.0429V9.2478V8.4528H37.9088H34.1923V9.2882ZM48.3223 10.2006C48.8077 10.4463 48.9936 10.648 49.2491 11.2066C49.6296 12.0387 49.7583 11.9912 47.1259 11.9912C45.3281 11.9912 44.797 11.9631 44.7978 11.8683C44.7997 11.6281 45.2702 10.7588 45.5236 10.5274C46.1663 9.9407 47.5008 9.7848 48.3223 10.2006ZM78.444 10.0356C79.0275 10.1937 79.4754 10.5762 79.7421 11.1442C80.1657 12.0465 80.3031 11.9912 77.6404 11.9912H75.3006L75.3677 11.7209C75.4762 11.2837 75.894 10.6446 76.2234 10.412C76.8386 9.9775 77.6944 9.8325 78.444 10.0356ZM67.9847 10.181C68.7434 10.4044 69.5004 11.1699 69.727 11.9425C70.2638 13.774 68.7941 15.5756 66.9018 15.4054C65.5364 15.2826 64.5436 14.2596 64.4431 12.872C64.3847 12.0656 64.6399 11.4177 65.25 10.824C65.9999 10.0941 66.9395 9.8731 67.9847 10.181ZM20.8622 15.1837C19.3969 15.5042 18.3569 16.0908 17.3273 17.1775C16.3084 18.2529 15.56 19.9363 15.56 21.1526V21.6234H22.2116H28.8632L28.7947 21.0582C28.6391 19.7761 28.2482 18.7722 27.4984 17.7302C26.0621 15.7342 23.2609 14.6592 20.8622 15.1837Z" fill="white"/>
</svg>
