<svg width="1258" height="408" viewBox="0 0 1258 408" fill="none" xmlns="http://www.w3.org/2000/svg">
<g opacity="0.75">
<path d="M364.695 334.027V363.519H366.344V203.418L369.641 204.119V363.519H371.29V204.469L374.587 205.17V349.918H376.235V205.52L379.533 206.221V349.918H381.181V206.571L384.478 207.272V320.336L386.127 320.08V207.622L389.424 208.323V319.569L391.073 319.314V208.673L394.37 209.374V318.803L396.431 318.484V208.137L382.418 204.866L359.749 199.482V332.653L361.398 333.111V202.367L364.695 203.068V334.027Z" fill="url(#paint0_linear_764_70)"/>
<path d="M328.426 298.811V355.276H330.074V208.323L331.311 208.06L331.723 207.972L333.372 207.622V355.276H335.02V207.272L338.317 206.571V355.276H339.966V206.221L343.263 205.52V328.074L344.912 328.532V205.17L348.209 204.469V329.447L349.858 329.905V204.119L353.155 203.418V330.821L354.803 331.279V203.068L358.101 202.367V332.195L359.749 332.653V199.482L336.257 204.526L323.274 207.313V298.811H325.128V209.374L328.426 208.673V298.811Z" fill="url(#paint1_linear_764_70)"/>
<path fill-rule="evenodd" clip-rule="evenodd" d="M214.259 238.224V384.951L226.624 389.897V388.018L217.144 384.16V377.978L226.624 382.056V377.978L217.144 374.12V367.937L226.624 372.016V367.937L217.144 364.079V357.897L226.624 361.976V357.897L217.144 354.039V347.857L226.624 351.935V347.593L217.144 343.735V337.553L226.624 341.632V337.29L217.144 333.432V327.249L226.624 331.328V328.258L217.144 324.364V318.182L231.243 324.248L238.529 322.763L217.144 314.06V307.878L247.497 320.937L252.59 319.899V262.953V257.595V255.535L214.259 238.224ZM217.144 248.528V242.346L250.117 256.532V261.947L217.144 248.528ZM217.144 257.595V251.413L250.117 265.599V271.014L217.144 257.595ZM217.144 267.075V260.893L250.117 275.078V280.494L217.144 267.075ZM217.144 276.142V269.96L250.117 284.146V289.561L217.144 276.142ZM217.144 285.622V279.44L250.117 293.625V299.041L217.144 285.622ZM217.144 294.689V288.507L250.117 302.693V308.108L217.144 294.689ZM217.144 304.169V297.986L250.117 312.172V317.588L217.144 304.169Z" fill="url(#paint2_linear_764_70)"/>
<path d="M336.257 204.526L359.749 199.482L382.418 204.866V194.536L362.931 189.93L359.749 189.178L356.452 189.93L336.257 194.536V204.526Z" fill="url(#paint3_linear_764_70)"/>
<path d="M356.452 189.93L359.749 189.178L362.931 189.93L359.749 124.47L356.452 189.93Z" fill="url(#paint4_linear_764_70)"/>
<path d="M646.608 279.027V281.913V341.263H644.135H637.952H634.655H628.473H627.236V376.296H624.351H618.169H614.46V397.315H670.513H698.127V376.296H696.89H693.593H690.09H682.053V341.263H674.634V310.763L665.154 305.405V288.507L646.608 279.027Z" fill="url(#paint5_linear_764_70)"/>
<path fill-rule="evenodd" clip-rule="evenodd" d="M560.468 255.535V397.315H579.427V281.913V279.027H614.46V218.441H508.536V255.535H560.468ZM511.834 227.921V221.738H526.671V227.921H511.834ZM529.968 227.921V221.738H544.806V227.921H529.968ZM511.834 236.576V230.393H526.671V236.576H511.834ZM511.834 245.231V239.049H526.671V245.231H511.834ZM529.968 236.576V230.393H544.806V236.576H529.968Z" fill="url(#paint6_linear_764_70)"/>
<path d="M492.462 255.535V397.315H495.76V258.832H501.942V397.315H505.651V258.832H511.834V397.315H515.131V258.832H521.313V397.315H525.023V258.832H531.205V397.315H534.914V258.832H541.097V397.315H544.806V258.832H550.988V397.315H554.285V258.832H560.468V255.535H508.536H492.462Z" fill="url(#paint7_linear_764_70)"/>
<path d="M585.609 397.315H589.318V281.913H585.609V397.315Z" fill="url(#paint8_linear_764_70)"/>
<path d="M595.501 397.315H599.21V281.913H595.501V397.315Z" fill="url(#paint9_linear_764_70)"/>
<path d="M605.392 397.315H608.277V281.913H605.392V397.315Z" fill="url(#paint10_linear_764_70)"/>
<path d="M614.46 376.296H618.169V281.913H614.46V376.296Z" fill="url(#paint11_linear_764_70)"/>
<path d="M627.236 341.263H628.473V281.913H624.351V376.296H627.236V341.263Z" fill="url(#paint12_linear_764_70)"/>
<path d="M637.952 341.263V281.913H634.655V341.263H637.952Z" fill="url(#paint13_linear_764_70)"/>
<path d="M646.608 341.263V281.913H644.135V341.263H646.608Z" fill="url(#paint14_linear_764_70)"/>
<path d="M585.609 279.027H579.427V281.913H585.609H589.318H595.501H599.21H605.392H608.277H614.46H618.169H624.351H628.473H634.655H637.952H644.135H646.608V279.027H644.135H637.952H634.655H628.473H624.351H618.169H614.46H608.277H605.392H599.21H595.501H589.318H585.609Z" fill="url(#paint15_linear_764_70)"/>
<path d="M875.352 407.619H882.359V397.315H875.352V402.467V407.619Z" fill="url(#paint16_linear_764_70)"/>
<path d="M886.068 407.619H893.075V397.315H886.068V407.619Z" fill="url(#paint17_linear_764_70)"/>
<path d="M896.965 407.619H903.972V397.315H896.965V407.619Z" fill="url(#paint18_linear_764_70)"/>
<path d="M907.5 407.619H914.507V397.315H907.5V407.619Z" fill="url(#paint19_linear_764_70)"/>
<path d="M918.216 407.619H925.223V397.315H918.216V407.619Z" fill="url(#paint20_linear_764_70)"/>
<path d="M933.054 407.619H935.527V397.315H928.52V407.619H933.054Z" fill="url(#paint21_linear_764_70)"/>
<path d="M746.761 99.6361L749.234 98.9167L751.752 99.6361L749.234 0L746.761 99.6361Z" fill="url(#paint22_linear_764_70)"/>
<path d="M737.899 107.778L749.234 105.099V98.9167L746.761 99.6361L737.899 102.214V107.778Z" fill="url(#paint23_linear_764_70)"/>
<path d="M749.234 105.099L760.774 107.778V102.214L751.752 99.6361L749.234 98.9167V105.099Z" fill="url(#paint24_linear_764_70)"/>
<path d="M698.127 376.296V397.315H698.539V168.374L701.836 167.694V397.315H703.485V167.354L706.782 166.673V397.315H708.431V166.333L711.728 165.653V397.315H713.376V165.313L716.674 164.632V397.315H718.322V164.292L721.619 163.612V397.315H723.268V163.271L726.565 162.591V397.315H728.214V162.251L731.511 161.57V397.315H733.16V161.23L736.457 160.55V397.315H738.106V160.21L741.403 159.529V397.315H743.051V159.189L746.349 158.518V397.315H749.234V152.909L710.903 161.189L705.545 162.347L703.485 162.792L690.09 165.685V376.296H693.593V169.395L696.89 168.714V376.296H698.127Z" fill="url(#paint25_linear_764_70)"/>
<path d="M808.584 304.581V166.673L795.395 163.509L749.234 152.909V397.315H752.531V158.518L755.828 159.189V397.315H757.477V159.529L760.774 160.21V397.315H762.423V160.55L765.72 161.23V397.315H767.368V161.57L770.666 162.251V310.763L772.314 310.494V162.591L775.611 163.271V309.957L777.26 309.688V163.612L780.557 164.292V309.15L782.206 308.882V164.632L785.503 165.313V308.344L787.152 308.075V165.653L790.449 166.333V307.538L792.098 307.269V166.673L795.395 167.354V306.731L797.043 306.462V167.694L800.341 168.374V305.925L801.989 305.656V168.714L805.286 169.395V305.118L808.584 304.581Z" fill="url(#paint26_linear_764_70)"/>
<path d="M772.314 397.315H775.611V309.957L772.314 310.494V397.315Z" fill="url(#paint27_linear_764_70)"/>
<path d="M777.26 397.315H780.557V309.15L777.26 309.688V397.315Z" fill="url(#paint28_linear_764_70)"/>
<path d="M782.206 397.315H785.503V308.344L782.206 308.882V397.315Z" fill="url(#paint29_linear_764_70)"/>
<path d="M801.989 376.296H805.286V312.412V305.118L801.989 305.656V376.296Z" fill="url(#paint30_linear_764_70)"/>
<path fill-rule="evenodd" clip-rule="evenodd" d="M703.485 143.429V162.792L705.545 162.347L710.903 161.189L749.234 152.909V133.125L716.261 140.552L703.485 143.429ZM710.903 143.841L705.545 145.078V160.74L710.903 159.529V143.841ZM718.322 142.193L712.964 143.429V159.091L718.322 157.881V142.193ZM725.741 140.552L720.383 141.788V157.45L725.741 156.239V140.552ZM733.16 138.895L727.802 140.132V155.794L733.16 154.583V138.895ZM740.578 137.221L735.22 138.457V154.119L740.578 152.909V137.221ZM747.585 135.572L742.227 136.809V152.47L747.585 151.26V135.572Z" fill="url(#paint31_linear_764_70)"/>
<path fill-rule="evenodd" clip-rule="evenodd" d="M749.234 152.909L795.395 163.509V143.429L782.618 140.577L749.234 133.125V152.909ZM787.976 143.841L793.334 145.078V160.74L787.976 159.529V143.841ZM780.557 142.193L785.915 143.429V159.091L780.557 157.881V142.193ZM773.139 140.552L778.497 141.788V157.45L773.139 156.239V140.552ZM765.72 138.895L771.078 140.132V155.794L765.72 154.583V138.895ZM758.301 137.221L763.659 138.457V154.119L758.301 152.909V137.221ZM751.294 135.572L756.652 136.809V152.47L751.294 151.26V135.572Z" fill="url(#paint32_linear_764_70)"/>
<path fill-rule="evenodd" clip-rule="evenodd" d="M716.261 140.552L749.234 133.125V117.464L726.565 122.281L716.261 124.47V140.552ZM724.505 124.916L719.146 126.152V138.483L724.505 137.266V124.916ZM731.923 123.26L726.565 124.496V136.797L731.923 135.58V123.26ZM739.342 121.585L733.984 122.822V135.111L739.342 133.893V121.585ZM746.349 119.936L740.991 121.173V133.519L746.349 132.301V119.936Z" fill="url(#paint33_linear_764_70)"/>
<path fill-rule="evenodd" clip-rule="evenodd" d="M749.234 133.125L782.618 140.577V124.47L772.314 122.308L749.234 117.464V133.125ZM773.963 124.916L779.321 126.152V138.483L773.963 137.266V124.916ZM766.544 123.26L771.902 124.496V136.797L766.544 135.58V123.26ZM759.125 121.585L764.483 122.822V135.111L759.125 133.893V121.585ZM752.119 119.936L757.477 121.173V133.519L752.119 132.301V119.936Z" fill="url(#paint34_linear_764_70)"/>
<path fill-rule="evenodd" clip-rule="evenodd" d="M32.5 407.619H0L116.167 397.315V376.708H123.586V349.918L132.653 345.384V376.708H139.248V371.762H149.551V255.535L214.259 238.224V384.951L226.624 389.897V388.018V382.056V377.978V372.016V367.937V361.976V357.897V351.935V347.593V341.632V337.29V331.328V328.258V325.189L231.243 324.248L238.529 322.763L247.497 320.937L252.59 319.899L271.136 316.121V337.965H276.494V298.811H301.636V279.027L318.122 282.325V298.811H323.274H325.128H328.426V355.276H330.074H333.372H335.02H338.317H339.966H343.263V328.074L344.912 328.532L348.209 329.447L349.858 329.905L353.155 330.821L354.803 331.279L358.101 332.195L359.749 332.653L361.398 333.111L364.695 334.027V363.519H366.344H369.641H371.29H373.762V349.918H374.587H376.235H379.533H381.181H382.418V320.655L384.478 320.336L386.127 320.08L389.424 319.569L391.073 319.314L392.722 319.059L394.37 318.803L396.431 318.484L411.681 316.121V279.027L440.119 271.197V298.811H448.362V305.405H470.618V316.121H480.922V397.315H492.462H495.76H501.942H505.651H511.834H515.131H521.313H525.023H531.205H534.914H541.097H544.806H550.988H554.285H560.468H579.427H585.609H589.318H595.501H599.21H605.392H608.277H614.46H618.169H624.351H628.473H634.655H637.952H644.135H670.513H698.127H698.539H701.836H703.485H706.782H708.431H711.728H713.376H716.674H718.322H721.619H723.268H726.565H728.214H731.511H733.16H736.457H738.106H741.403H743.051H745.524H746.349H749.234H770.666V310.763L772.314 310.494V397.315H775.611V309.957L777.26 309.688V397.315H780.557V309.15L782.206 308.882V397.315H785.503V308.344L787.152 308.075L790.449 307.538L792.098 307.269L795.395 306.731L797.043 306.462L800.341 305.925L801.989 305.656V376.296H805.286V312.412V305.118L808.584 304.581L817.239 303.344V266.251L896.372 279.027V328.074H939.236V337.141L957.783 340.587L1009.3 350.479V397.729H1016.1H1018.37H1022.9H1028.67L1072.36 399.144L1085.55 399.571L1098.74 399.998L1257.5 407.619H1219.5H1124.29H935.527V397.315V332.607H928.52V397.315V407.619H925.223V397.315V332.607H918.216V397.315V407.619H914.507V397.315V332.607H907.5V397.315V407.619H903.972V397.315V332.607H896.965V397.315V407.619H893.075V397.315V332.607H886.068V397.315V407.619H882.359V397.315V332.607H875.352V397.315V402.467V407.619H32.5ZM163.977 254.71L152.024 258.008V263.778L163.977 260.893V254.71ZM179.639 250.589L167.686 253.886V259.656L179.639 256.771V250.589ZM195.712 246.467L183.76 249.765V255.535L195.712 252.65V246.467ZM211.374 242.346L199.422 245.643V251.413L211.374 248.528V242.346ZM163.977 263.778L152.024 267.075V272.845L163.977 269.96V263.778ZM179.639 259.656L167.686 262.953V268.724L179.639 265.839V259.656ZM195.712 255.535L183.76 258.832V264.602L195.712 261.717V255.535ZM211.374 251.413L199.422 254.71V260.481L211.374 257.595V251.413ZM163.977 273.257L152.024 276.555V282.325L163.977 279.44V273.257ZM179.639 269.136L167.686 272.433V278.203L179.639 275.318V269.136ZM195.712 265.014L183.76 268.311V274.082L195.712 271.197V265.014ZM211.374 260.893L199.422 264.19V269.96L211.374 267.075V260.893ZM163.977 282.325L152.024 285.622V291.392L163.977 288.507V282.325ZM179.639 278.203L167.686 281.5V287.271L179.639 284.385V278.203ZM195.712 274.082L183.76 277.379V283.149L195.712 280.264V274.082ZM211.374 269.96L199.422 273.257V279.027L211.374 276.142V269.96ZM163.977 291.804L152.024 295.101V300.872L163.977 297.986V291.804ZM179.639 287.683L167.686 290.98V296.75L179.639 293.865V287.683ZM195.712 283.561L183.76 286.858V292.628L195.712 289.743V283.561ZM211.374 279.44L199.422 282.737V288.507L211.374 285.622V279.44ZM163.977 300.872L152.024 304.169V309.939L163.977 307.054V300.872ZM179.639 296.75L167.686 300.047V305.817L179.639 302.932V296.75ZM195.712 292.628L183.76 295.926V301.696L195.712 298.811V292.628ZM211.374 288.507L199.422 291.804V297.574L211.374 294.689V288.507ZM163.977 310.351L152.024 313.648V319.418L163.977 316.533V310.351ZM179.639 306.23L167.686 309.527V315.297L179.639 312.412V306.23ZM195.712 302.108L183.76 305.405V311.175L195.712 308.29V302.108ZM211.374 297.986L199.422 301.284V307.054L211.374 304.169V297.986ZM163.977 320.243L152.024 323.54V329.31L163.977 326.425V320.243ZM179.639 316.121L167.686 319.418V325.189L179.639 322.303V316.121ZM195.712 312L183.76 315.297V321.067L195.712 318.182V312ZM211.374 307.878L199.422 311.175V316.945L211.374 314.06V307.878ZM163.977 330.547L152.024 333.844V339.614L163.977 336.729V330.547ZM179.639 326.425L167.686 329.722V335.492L179.639 332.607V326.425ZM195.712 322.303L183.76 325.601V331.371L195.712 328.486V322.303ZM211.374 318.182L199.422 321.479V327.249L211.374 324.364V318.182ZM163.977 339.614L152.024 342.911V348.681L163.977 345.796V339.614ZM179.639 335.492L167.686 338.79V344.56L179.639 341.675V335.492ZM195.712 331.371L183.76 334.668V340.438L195.712 337.553V331.371ZM211.374 327.249L199.422 330.547V336.317L211.374 333.432V327.249ZM163.977 349.918L152.024 353.215V358.985L163.977 356.1V349.918ZM179.639 345.796L167.686 349.093V354.864L179.639 351.978V345.796ZM195.712 341.675L183.76 344.972V350.742L195.712 347.857V341.675ZM211.374 337.553L199.422 340.85V346.621L211.374 343.735V337.553ZM163.977 360.222L152.024 363.519V369.289L163.977 366.404V360.222ZM179.639 356.1L167.686 359.397V365.167L179.639 362.282V356.1ZM958.195 343.884L972.62 346.769V351.715L958.195 348.83V343.884ZM974.681 347.016L989.107 349.902V354.847L974.681 351.962V347.016ZM991.167 350.479L1005.59 353.364V358.309L991.167 355.424V350.479ZM941.709 340.587L956.134 343.472V348.418L941.709 345.533V340.587ZM958.195 351.715L972.62 354.6V359.546L958.195 356.661V351.715ZM974.681 354.847L989.107 357.732V362.678L974.681 359.793V354.847ZM991.167 358.309L1005.59 361.195V366.14L991.167 363.255V358.309ZM941.709 348.418L956.134 351.303V356.249L941.709 353.364V348.418ZM974.681 362.266L989.107 365.151V370.097L974.681 367.212V362.266ZM991.167 365.728L1005.59 368.613V373.559L991.167 370.674V365.728Z" fill="url(#paint35_linear_764_70)"/>
<path fill-rule="evenodd" clip-rule="evenodd" d="M1009.3 350.479V336.317L1016.1 339.894L1017.24 340.491L1018.37 341.087L1022.9 343.472V397.729H1028.67V373.559V199.07L1003.94 143.429L998.998 122.281L995.289 72.951L991.167 122.281L984.985 143.429L957.783 199.07V340.587L1009.3 350.479Z" fill="url(#paint36_linear_764_70)"/>
<path d="M1018.37 397.729V341.087L1017.24 340.491L1016.1 339.894V397.729H1018.37Z" fill="url(#paint37_linear_764_70)"/>
<path fill-rule="evenodd" clip-rule="evenodd" d="M726.565 122.281L749.234 117.464V105.099L737.899 107.778L726.565 110.457V122.281ZM733.542 110.585L728.184 111.822V120.349L733.542 119.121V110.585ZM740.96 108.911L735.602 110.147V118.648L740.96 117.421V108.911ZM747.967 107.262L742.609 108.498V117.043L747.967 115.815V107.262Z" fill="url(#paint38_linear_764_70)"/>
<path fill-rule="evenodd" clip-rule="evenodd" d="M749.234 117.464L772.314 122.308V110.457L760.774 107.778L749.234 105.099V117.464ZM765.308 110.585L770.666 111.822V120.349L765.308 119.121V110.585ZM757.889 108.911L763.247 110.147V118.648L757.889 117.421V108.911ZM750.882 107.262L756.24 108.498V117.043L750.882 115.815V107.262Z" fill="url(#paint39_linear_764_70)"/>
<path d="M1028.67 373.559V397.729L1072.36 399.144V390.721H1062.06V373.559H1028.67Z" fill="url(#paint40_linear_764_70)"/>
<path d="M1072.36 390.721V399.144L1085.55 399.571V396.491V387.424H1078.54V346.208H1072.36V390.721Z" fill="url(#paint41_linear_764_70)"/>
<path d="M1085.55 396.491V399.571L1098.74 399.998V396.491H1085.55Z" fill="url(#paint42_linear_764_70)"/>
</g>
<defs>
<linearGradient id="paint0_linear_764_70" x1="626" y1="0" x2="626" y2="407.619" gradientUnits="userSpaceOnUse">
<stop stop-color="#FF5ABD"/>
<stop offset="1" stop-color="#390D8D"/>
</linearGradient>
<linearGradient id="paint1_linear_764_70" x1="626" y1="0" x2="626" y2="407.619" gradientUnits="userSpaceOnUse">
<stop stop-color="#FF5ABD"/>
<stop offset="1" stop-color="#390D8D"/>
</linearGradient>
<linearGradient id="paint2_linear_764_70" x1="626" y1="0" x2="626" y2="407.619" gradientUnits="userSpaceOnUse">
<stop stop-color="#FF5ABD"/>
<stop offset="1" stop-color="#390D8D"/>
</linearGradient>
<linearGradient id="paint3_linear_764_70" x1="626" y1="0" x2="626" y2="407.619" gradientUnits="userSpaceOnUse">
<stop stop-color="#FF5ABD"/>
<stop offset="1" stop-color="#390D8D"/>
</linearGradient>
<linearGradient id="paint4_linear_764_70" x1="626" y1="0" x2="626" y2="407.619" gradientUnits="userSpaceOnUse">
<stop stop-color="#FF5ABD"/>
<stop offset="1" stop-color="#390D8D"/>
</linearGradient>
<linearGradient id="paint5_linear_764_70" x1="626" y1="0" x2="626" y2="407.619" gradientUnits="userSpaceOnUse">
<stop stop-color="#FF5ABD"/>
<stop offset="1" stop-color="#390D8D"/>
</linearGradient>
<linearGradient id="paint6_linear_764_70" x1="626" y1="0" x2="626" y2="407.619" gradientUnits="userSpaceOnUse">
<stop stop-color="#FF5ABD"/>
<stop offset="1" stop-color="#390D8D"/>
</linearGradient>
<linearGradient id="paint7_linear_764_70" x1="626" y1="0" x2="626" y2="407.619" gradientUnits="userSpaceOnUse">
<stop stop-color="#FF5ABD"/>
<stop offset="1" stop-color="#390D8D"/>
</linearGradient>
<linearGradient id="paint8_linear_764_70" x1="626" y1="0" x2="626" y2="407.619" gradientUnits="userSpaceOnUse">
<stop stop-color="#FF5ABD"/>
<stop offset="1" stop-color="#390D8D"/>
</linearGradient>
<linearGradient id="paint9_linear_764_70" x1="626" y1="0" x2="626" y2="407.619" gradientUnits="userSpaceOnUse">
<stop stop-color="#FF5ABD"/>
<stop offset="1" stop-color="#390D8D"/>
</linearGradient>
<linearGradient id="paint10_linear_764_70" x1="626" y1="0" x2="626" y2="407.619" gradientUnits="userSpaceOnUse">
<stop stop-color="#FF5ABD"/>
<stop offset="1" stop-color="#390D8D"/>
</linearGradient>
<linearGradient id="paint11_linear_764_70" x1="626" y1="0" x2="626" y2="407.619" gradientUnits="userSpaceOnUse">
<stop stop-color="#FF5ABD"/>
<stop offset="1" stop-color="#390D8D"/>
</linearGradient>
<linearGradient id="paint12_linear_764_70" x1="626" y1="0" x2="626" y2="407.619" gradientUnits="userSpaceOnUse">
<stop stop-color="#FF5ABD"/>
<stop offset="1" stop-color="#390D8D"/>
</linearGradient>
<linearGradient id="paint13_linear_764_70" x1="626" y1="0" x2="626" y2="407.619" gradientUnits="userSpaceOnUse">
<stop stop-color="#FF5ABD"/>
<stop offset="1" stop-color="#390D8D"/>
</linearGradient>
<linearGradient id="paint14_linear_764_70" x1="626" y1="0" x2="626" y2="407.619" gradientUnits="userSpaceOnUse">
<stop stop-color="#FF5ABD"/>
<stop offset="1" stop-color="#390D8D"/>
</linearGradient>
<linearGradient id="paint15_linear_764_70" x1="626" y1="0" x2="626" y2="407.619" gradientUnits="userSpaceOnUse">
<stop stop-color="#FF5ABD"/>
<stop offset="1" stop-color="#390D8D"/>
</linearGradient>
<linearGradient id="paint16_linear_764_70" x1="626" y1="0" x2="626" y2="407.619" gradientUnits="userSpaceOnUse">
<stop stop-color="#FF5ABD"/>
<stop offset="1" stop-color="#390D8D"/>
</linearGradient>
<linearGradient id="paint17_linear_764_70" x1="626" y1="0" x2="626" y2="407.619" gradientUnits="userSpaceOnUse">
<stop stop-color="#FF5ABD"/>
<stop offset="1" stop-color="#390D8D"/>
</linearGradient>
<linearGradient id="paint18_linear_764_70" x1="626" y1="0" x2="626" y2="407.619" gradientUnits="userSpaceOnUse">
<stop stop-color="#FF5ABD"/>
<stop offset="1" stop-color="#390D8D"/>
</linearGradient>
<linearGradient id="paint19_linear_764_70" x1="626" y1="0" x2="626" y2="407.619" gradientUnits="userSpaceOnUse">
<stop stop-color="#FF5ABD"/>
<stop offset="1" stop-color="#390D8D"/>
</linearGradient>
<linearGradient id="paint20_linear_764_70" x1="626" y1="0" x2="626" y2="407.619" gradientUnits="userSpaceOnUse">
<stop stop-color="#FF5ABD"/>
<stop offset="1" stop-color="#390D8D"/>
</linearGradient>
<linearGradient id="paint21_linear_764_70" x1="626" y1="0" x2="626" y2="407.619" gradientUnits="userSpaceOnUse">
<stop stop-color="#FF5ABD"/>
<stop offset="1" stop-color="#390D8D"/>
</linearGradient>
<linearGradient id="paint22_linear_764_70" x1="626" y1="0" x2="626" y2="407.619" gradientUnits="userSpaceOnUse">
<stop stop-color="#FF5ABD"/>
<stop offset="1" stop-color="#390D8D"/>
</linearGradient>
<linearGradient id="paint23_linear_764_70" x1="626" y1="0" x2="626" y2="407.619" gradientUnits="userSpaceOnUse">
<stop stop-color="#FF5ABD"/>
<stop offset="1" stop-color="#390D8D"/>
</linearGradient>
<linearGradient id="paint24_linear_764_70" x1="626" y1="0" x2="626" y2="407.619" gradientUnits="userSpaceOnUse">
<stop stop-color="#FF5ABD"/>
<stop offset="1" stop-color="#390D8D"/>
</linearGradient>
<linearGradient id="paint25_linear_764_70" x1="626" y1="0" x2="626" y2="407.619" gradientUnits="userSpaceOnUse">
<stop stop-color="#FF5ABD"/>
<stop offset="1" stop-color="#390D8D"/>
</linearGradient>
<linearGradient id="paint26_linear_764_70" x1="626" y1="0" x2="626" y2="407.619" gradientUnits="userSpaceOnUse">
<stop stop-color="#FF5ABD"/>
<stop offset="1" stop-color="#390D8D"/>
</linearGradient>
<linearGradient id="paint27_linear_764_70" x1="626" y1="0" x2="626" y2="407.619" gradientUnits="userSpaceOnUse">
<stop stop-color="#FF5ABD"/>
<stop offset="1" stop-color="#390D8D"/>
</linearGradient>
<linearGradient id="paint28_linear_764_70" x1="626" y1="0" x2="626" y2="407.619" gradientUnits="userSpaceOnUse">
<stop stop-color="#FF5ABD"/>
<stop offset="1" stop-color="#390D8D"/>
</linearGradient>
<linearGradient id="paint29_linear_764_70" x1="626" y1="0" x2="626" y2="407.619" gradientUnits="userSpaceOnUse">
<stop stop-color="#FF5ABD"/>
<stop offset="1" stop-color="#390D8D"/>
</linearGradient>
<linearGradient id="paint30_linear_764_70" x1="626" y1="0" x2="626" y2="407.619" gradientUnits="userSpaceOnUse">
<stop stop-color="#FF5ABD"/>
<stop offset="1" stop-color="#390D8D"/>
</linearGradient>
<linearGradient id="paint31_linear_764_70" x1="626" y1="0" x2="626" y2="407.619" gradientUnits="userSpaceOnUse">
<stop stop-color="#FF5ABD"/>
<stop offset="1" stop-color="#390D8D"/>
</linearGradient>
<linearGradient id="paint32_linear_764_70" x1="626" y1="0" x2="626" y2="407.619" gradientUnits="userSpaceOnUse">
<stop stop-color="#FF5ABD"/>
<stop offset="1" stop-color="#390D8D"/>
</linearGradient>
<linearGradient id="paint33_linear_764_70" x1="626" y1="0" x2="626" y2="407.619" gradientUnits="userSpaceOnUse">
<stop stop-color="#FF5ABD"/>
<stop offset="1" stop-color="#390D8D"/>
</linearGradient>
<linearGradient id="paint34_linear_764_70" x1="626" y1="0" x2="626" y2="407.619" gradientUnits="userSpaceOnUse">
<stop stop-color="#FF5ABD"/>
<stop offset="1" stop-color="#390D8D"/>
</linearGradient>
<linearGradient id="paint35_linear_764_70" x1="626" y1="0" x2="626" y2="407.619" gradientUnits="userSpaceOnUse">
<stop stop-color="#FF5ABD"/>
<stop offset="1" stop-color="#390D8D"/>
</linearGradient>
<linearGradient id="paint36_linear_764_70" x1="626" y1="0" x2="626" y2="407.619" gradientUnits="userSpaceOnUse">
<stop stop-color="#FF5ABD"/>
<stop offset="1" stop-color="#390D8D"/>
</linearGradient>
<linearGradient id="paint37_linear_764_70" x1="626" y1="0" x2="626" y2="407.619" gradientUnits="userSpaceOnUse">
<stop stop-color="#FF5ABD"/>
<stop offset="1" stop-color="#390D8D"/>
</linearGradient>
<linearGradient id="paint38_linear_764_70" x1="626" y1="0" x2="626" y2="407.619" gradientUnits="userSpaceOnUse">
<stop stop-color="#FF5ABD"/>
<stop offset="1" stop-color="#390D8D"/>
</linearGradient>
<linearGradient id="paint39_linear_764_70" x1="626" y1="0" x2="626" y2="407.619" gradientUnits="userSpaceOnUse">
<stop stop-color="#FF5ABD"/>
<stop offset="1" stop-color="#390D8D"/>
</linearGradient>
<linearGradient id="paint40_linear_764_70" x1="626" y1="0" x2="626" y2="407.619" gradientUnits="userSpaceOnUse">
<stop stop-color="#FF5ABD"/>
<stop offset="1" stop-color="#390D8D"/>
</linearGradient>
<linearGradient id="paint41_linear_764_70" x1="626" y1="0" x2="626" y2="407.619" gradientUnits="userSpaceOnUse">
<stop stop-color="#FF5ABD"/>
<stop offset="1" stop-color="#390D8D"/>
</linearGradient>
<linearGradient id="paint42_linear_764_70" x1="626" y1="0" x2="626" y2="407.619" gradientUnits="userSpaceOnUse">
<stop stop-color="#FF5ABD"/>
<stop offset="1" stop-color="#390D8D"/>
</linearGradient>
</defs>
</svg>
