<svg width="100" height="100" viewBox="0 0 100 100" fill="none" xmlns="http://www.w3.org/2000/svg">
<g clip-path="url(#clip0_36_2947)">
<path fill-rule="evenodd" clip-rule="evenodd" d="M19.1064 34.0918C17.3951 34.3752 15.546 35.1354 13.5046 36.3951C11.1459 37.8505 8.11137 40.6408 5.93338 43.357C0.993456 49.5176 -1.15786 56.7995 0.613852 61.363C1.42702 63.4574 3.19756 64.9796 5.49888 65.5627C7.78072 66.1408 9.78439 65.8811 16.8385 64.0925C20.6564 63.1246 22.0037 62.9071 24.1897 62.906C26.2997 62.905 27.8309 63.2456 29.201 64.021C29.9017 64.4175 30.7961 65.2485 31.2339 65.9101L31.5359 66.3664L31.6557 66.1824C32.0927 65.5112 32.976 64.8291 33.8145 64.5151C35.941 63.7188 39.7388 64.3913 42.5075 66.0546C42.9045 66.293 43.1982 66.4303 43.1601 66.3595C43.0429 66.1416 41.5894 64.78 40.8624 64.207C39.7096 63.2984 38.2598 62.3325 37.3665 61.8778C33.7646 60.0449 29.2583 59.9642 22.6647 61.6146C19.2606 62.4666 14.7344 63.537 13.7103 63.7321C10.8335 64.2804 9.15157 64.1921 7.46157 63.4043C6.15361 62.7944 5.5268 62.2236 4.99595 61.1588C4.48355 60.1311 4.26153 58.4293 4.43452 56.8563C4.66452 54.7651 5.64989 51.7918 6.94871 49.2702C9.35599 44.5964 13.8606 39.1473 17.1335 36.9501C18.1948 36.2375 19.5927 35.621 20.4121 35.504C21.3654 35.3678 22.0666 36.0311 21.8045 36.8211C21.7274 37.0536 21.6789 37.0937 21.4751 37.0937C20.7629 37.0937 19.9912 37.6725 19.5883 38.5089C19.2693 39.171 19.2757 39.8538 19.6043 40.2197C19.7992 40.4367 19.8783 40.469 20.2103 40.4677C20.9283 40.4648 21.551 39.9745 22.1782 38.9181C23.3606 36.9269 23.0816 35.0062 21.498 34.2346C20.9841 33.9843 20.0816 33.9303 19.1064 34.0918ZM66.9674 34.176C65.5055 34.4501 63.376 35.3625 61.5322 36.5048C56.516 39.6123 51.109 45.8924 48.0895 52.1179C47.2473 53.8542 46.5358 55.7451 46.1745 57.2064C45.7137 59.0707 45.7683 61.1595 46.3172 62.664C46.8616 64.156 48.0788 65.3286 49.4529 65.6848C49.9857 65.8228 51.1727 65.8411 51.7724 65.7205C53.3722 65.3988 55.1029 64.3688 56.8749 62.6837C59.1931 60.4794 61.208 57.2229 61.895 54.5703C62.1436 53.6104 62.2321 52.1244 62.0792 51.4781C61.733 50.0151 60.7276 49.4903 59.1203 49.9334C58.0189 50.237 57.0897 50.787 56.1064 51.7171C54.4103 53.3215 53.1664 55.8512 52.6994 58.6458C52.5017 59.8293 52.4386 59.7827 53.2177 59.0287C53.597 58.6616 54.0833 58.2198 54.2983 58.0468C54.7593 57.676 55.8798 56.9456 56.3499 56.7094C56.5846 56.5916 56.6943 56.4811 56.7266 56.3301C56.9687 55.1999 57.4414 54.0683 58.0472 53.1691C58.9684 51.8019 59.835 51.2095 60.6128 51.4158C61.6032 51.6785 61.3478 54.1024 60.0519 56.7395C59.2219 58.4285 58.0454 60.0245 56.6566 61.3455C54.755 63.1541 53.0592 63.7763 51.7837 63.1332C51.252 62.8651 50.6559 62.2005 50.4367 61.6314C50.0356 60.5897 50.0646 59.4204 50.5444 57.2917C51.5636 52.7709 54.802 47.2108 59.5441 41.8398C62.0609 38.9893 65.3584 36.4037 67.4545 35.637C68.0248 35.4284 69.0308 35.3599 69.3026 35.5113C69.4268 35.5804 69.3578 35.6494 68.7832 36.0298C66.1481 37.7742 64.0592 40.1656 62.9016 42.7632C62.4302 43.821 62.2884 44.3452 62.2887 45.0298C62.2891 46.0188 62.7746 46.8155 63.4542 46.9423C64.1546 47.0731 65.17 46.7563 66.1262 46.1088C67.4933 45.183 69.3209 42.8007 70.1346 40.8838C70.8345 39.235 71.1886 37.7335 71.1426 36.61C71.132 36.3531 71.162 36.1182 71.2117 36.0688C71.26 36.0208 71.5614 35.9648 71.8816 35.9444C72.6235 35.897 73.4033 36.0633 74.5923 36.5224C75.9541 37.0482 76.1521 37.163 80.5075 39.9525C81.1155 40.342 81.754 40.7322 81.9264 40.8196L82.2398 40.9787L82.6126 40.5728C82.8175 40.3496 83.3513 39.7908 83.7988 39.3311C84.2462 38.8713 84.5901 38.4594 84.5629 38.4157C84.4264 38.1958 79.2178 35.2638 78.2091 34.839C76.8727 34.2762 75.2887 34.0216 73.8756 34.1425C72.9948 34.2179 72.432 34.3484 71.3291 34.7332L70.5293 35.0122L70.2423 34.7615C69.5315 34.1406 68.3156 33.9232 66.9674 34.176ZM99.1485 34.9279C97.6694 36.3392 96.0614 37.4487 94.2088 38.3363C92.3135 39.2444 90.8917 39.5926 89.0055 39.6108L87.817 39.6224L87.1826 40.3615C86.1224 41.5964 85.5973 42.3037 85.7116 42.3424C86.3678 42.5648 88.1875 42.6027 89.3005 42.4171C92.9731 41.8048 96.7932 39.1565 99.1118 35.6154C99.6179 34.8423 100.043 34.1345 99.9966 34.1407C99.9817 34.1428 99.6001 34.497 99.1485 34.9279ZM91.1325 34.4549C90.6655 34.5695 89.6566 35.0812 88.882 35.5962C87.2411 36.6875 83.999 39.7513 82.1518 41.9565C79.1033 45.5957 76.5443 49.5772 73.8756 54.8333L73.2237 56.1171L72.8426 56.2554C72.633 56.3315 72.2487 56.416 71.9887 56.4429C71.5995 56.4835 71.5241 56.4727 71.5619 56.3824C71.5872 56.3221 71.7473 55.9567 71.9177 55.5704C72.5953 54.0348 72.9444 52.5197 72.8316 51.6044C72.8052 51.3904 72.6774 50.9951 72.5475 50.726C72.2184 50.0435 71.8958 49.8394 71.0714 49.7919C70.7215 49.7718 70.2912 49.7967 70.0814 49.8492C68.9812 50.1248 67.3752 51.1341 66.1227 52.3371C63.3453 55.0045 60.9032 59.1598 60.4065 62.0635C60.1397 63.6222 60.3283 64.6748 60.9896 65.3181C61.3731 65.6911 61.7259 65.8258 62.3097 65.8221C64.6339 65.8072 68.095 62.5737 70.6797 58.0021C70.8194 57.7551 70.9914 57.5235 71.062 57.4876C71.1326 57.4515 71.4368 57.4017 71.7379 57.3767C72.039 57.3517 72.3975 57.308 72.5347 57.2795L72.7841 57.2277L72.2843 58.7342C71.4438 61.2675 71.1731 62.5593 71.2604 63.6185C71.3386 64.5682 71.7777 65.3285 72.4291 65.6422C73.6235 66.2174 75.2627 65.3598 77.2176 63.1369L77.6814 62.6095L77.6815 63.487C77.6816 64.479 77.7714 64.8231 78.1386 65.2392C78.4819 65.6282 78.9048 65.8001 79.5233 65.8022C79.961 65.8036 80.1265 65.7599 80.6573 65.503C81.4151 65.1361 82.0654 64.6643 82.8784 63.8914L83.4946 63.3058L83.4892 64.0026C83.4845 64.5899 83.5132 64.758 83.6716 65.0725C83.8997 65.5255 84.1774 65.7387 84.6205 65.8012C85.1079 65.8699 85.585 65.7643 86.2183 65.4474C87.8026 64.6545 89.1809 63.3915 90.9927 61.0723C91.596 60.3 92.804 58.5762 93.1975 57.9261L93.3741 57.6343L92.8399 57.6353L92.3056 57.6363L91.9146 58.2354C90.4658 60.455 88.8995 62.1732 87.8224 62.7243C87.5797 62.8485 87.549 62.8487 87.3644 62.7284C87.199 62.6205 87.1745 62.5592 87.2151 62.3538C87.2854 61.9979 88.0206 60.5431 88.676 59.4627C88.9875 58.9492 90.306 56.6559 91.6058 54.3665L93.9691 50.2039L92.3944 50.1818C91.1778 50.1648 90.8055 50.1824 90.7572 50.2596C90.7228 50.3145 90.6169 50.4899 90.5218 50.6493L90.349 50.939L90.0206 50.5167C89.6143 49.9943 89.3251 49.8407 88.6578 49.7932C87.9628 49.7438 87.2298 49.9679 86.4721 50.4618C84.2089 51.9369 82.3199 54.0528 79.7563 57.9844C78.1124 60.5054 77.9214 60.783 77.3098 61.5394C76.2493 62.8512 75.5272 63.2469 75.0985 62.751C74.8054 62.412 74.7862 61.919 75.0246 60.8577C75.2643 59.7911 75.6333 58.6497 76.1168 57.4787C76.8111 55.7973 76.7149 55.9244 78.0438 54.9321C78.7015 54.4409 79.6808 53.6676 80.2201 53.2135C82.0249 51.6937 84.8274 48.855 86.7631 46.5859C87.9849 45.1538 89.5254 43.1262 89.4446 43.0566C89.4267 43.0412 89.1941 43.0453 88.9276 43.0657L88.4433 43.1027L87.7777 43.9756C85.7637 46.6168 81.9733 50.5795 79.5096 52.6196C78.7285 53.2665 77.9751 53.7899 77.9136 53.7286C77.8591 53.6744 78.8269 51.82 79.7048 50.2967C80.7655 48.4564 81.8188 46.7703 83.0436 44.952C85.1296 41.8551 86.6806 39.9389 88.6896 37.9764C90.4614 36.2458 91.3701 35.5737 91.8619 35.6302C92.0668 35.6538 92.0709 35.6651 92.0665 36.1989C92.0631 36.6269 92.0151 36.8435 91.8425 37.2104C91.7217 37.4671 91.5025 37.9357 91.3554 38.2516L91.0879 38.8259L91.3406 38.7757C92.1285 38.6189 92.1776 38.5885 92.4227 38.1054C92.8495 37.2644 93.0685 36.4919 93.0735 35.8099C93.0786 35.1155 92.9759 34.8251 92.6371 34.5757C92.3868 34.3913 91.6369 34.3312 91.1325 34.4549ZM70.1347 36.9279C70.1347 37.9884 69.6809 39.6866 69.0411 41.0203C68.3192 42.525 66.9321 44.2344 65.6539 45.1942C64.6485 45.9493 64.1542 46.1094 63.6422 45.846C63.3279 45.6843 63.2351 45.475 63.2426 44.9448C63.2676 43.1815 65.8157 39.4639 68.2604 37.6242C68.8409 37.1874 69.9624 36.4762 70.076 36.473C70.1083 36.472 70.1347 36.6767 70.1347 36.9279ZM20.4359 41.9599C19.7887 42.1205 18.7016 42.6751 17.816 43.2966C16.2799 44.3745 14.007 46.8575 12.7637 48.8155C10.5294 52.3348 9.90131 56.1508 11.3431 57.4467C11.7693 57.8298 12.087 57.9456 12.7107 57.9451C13.3584 57.9446 13.7039 57.8548 14.4142 57.5027C15.5749 56.9271 16.9564 55.7653 18.3316 54.2081C19.2426 53.1764 19.7287 52.4931 20.8372 50.6854C21.3408 49.8642 21.7601 49.1821 21.7691 49.1695C21.7781 49.1569 22.0801 49.077 22.4401 48.9922C22.8002 48.9073 23.1559 48.8191 23.2306 48.7962C23.3281 48.7664 23.2012 49.0796 22.7803 49.9072C22.1316 51.1828 21.7397 52.1421 21.483 53.0827C21.0695 54.5982 21.4682 56.5748 22.3411 57.3374C22.8587 57.7895 23.3632 57.9601 24.1731 57.9567C25.9065 57.9493 27.2739 57.2176 29.6249 55.039C30.2916 54.4212 30.8489 53.9267 30.8633 53.9402C30.8776 53.9537 30.8139 54.265 30.7215 54.632C30.6157 55.0519 30.5528 55.5484 30.5516 55.9718C30.55 56.5599 30.5777 56.6989 30.7721 57.0773C30.9575 57.4378 31.0664 57.5476 31.4242 57.7343C31.8128 57.937 31.9133 57.9559 32.4793 57.9318C33.5064 57.888 34.3806 57.4042 35.658 56.1731L36.334 55.5214L36.3249 56.2083C36.3143 57.0117 36.4473 57.3664 36.8835 57.697C37.1314 57.885 37.2252 57.9065 37.7914 57.9052C38.3398 57.9041 38.49 57.8714 38.9328 57.6569C40.582 56.8584 42.9858 54.4458 45.1961 51.371C45.5652 50.8575 45.9295 50.341 46.0056 50.2233L46.144 50.0094L45.6071 50.0116L45.0702 50.0139L44.7183 50.4975C42.374 53.719 40.0261 55.6452 40.0261 54.347C40.0261 54.2251 40.0821 54.0174 40.1506 53.8856C40.2408 53.7122 46.5411 42.8029 46.804 42.365C46.8232 42.3329 46.1335 42.3066 45.271 42.3066H43.7031L43.5306 42.5685L43.3581 42.8303L42.9937 42.4581C42.7273 42.1859 42.5175 42.0528 42.2129 41.9629C41.6935 41.8094 41.5355 41.8093 40.9429 41.962C38.9582 42.4738 36.4699 44.825 33.4434 49.0485C30.5473 53.0901 28.3836 55.2188 26.7792 55.6048C25.5512 55.9003 24.7782 54.8309 25.0848 53.2609C25.2817 52.2532 26.3132 49.9575 27.258 48.4243C28.0318 47.1685 28.9958 45.9542 30.023 44.941C30.8197 44.1553 31.1338 43.9009 31.5844 43.6766C32.1685 43.386 32.5567 43.3278 32.856 43.4864C33.1113 43.6217 33.217 43.7948 33.2198 44.0819C33.2237 44.484 33.1022 44.6408 32.7869 44.6408C32.3846 44.6408 32.035 44.814 31.6658 45.1963C31.2051 45.6733 30.8762 46.3577 30.8762 46.8396C30.8762 47.173 30.9114 47.259 31.142 47.4885C31.3315 47.677 31.4785 47.753 31.6535 47.753C32.6086 47.753 33.8784 46.092 34.1621 44.4715C34.3455 43.4232 33.9519 42.5405 33.1104 42.1138C32.6856 41.8985 32.5837 41.8793 31.8982 41.8856C31.2822 41.8912 31.0532 41.9296 30.6033 42.103C29.4789 42.5363 28.2809 43.4043 26.8877 44.795C25.2651 46.4148 24.2738 47.2064 23.2855 47.6716C22.8399 47.8812 22.4301 47.9772 22.4301 47.8718C22.4301 47.8514 22.5372 47.5666 22.6682 47.2387C23.1081 46.1367 23.3017 45.3502 23.3456 44.4852C23.3937 43.5368 23.3186 43.1815 22.9569 42.6478C22.4863 41.9533 21.5225 41.6903 20.4359 41.9599ZM48.3093 43.6099C47.8682 44.3267 47.4936 44.9394 47.4768 44.9715C47.46 45.0035 48.1133 45.0298 48.9287 45.0298H50.411L51.2126 43.7266C51.6535 43.0098 52.0288 42.3971 52.0464 42.365C52.0642 42.3329 51.411 42.3066 50.595 42.3066H49.1113L48.3093 43.6099ZM21.9351 43.5829C22.1488 43.8301 22.2727 44.2495 22.2732 44.7281C22.2739 45.249 21.9461 46.4389 21.5793 47.2473L21.2616 47.9475L20.9017 47.9345C20.1178 47.906 19.121 47.1378 18.9141 46.4029C18.7196 45.7116 19.0392 44.8538 19.7606 44.1302C20.3828 43.5062 20.8135 43.3031 21.4109 43.352C21.6679 43.373 21.8064 43.434 21.9351 43.5829ZM42.5155 43.5321C42.6038 43.607 42.6869 43.7227 42.7001 43.7892C42.7411 43.9964 38.909 50.6238 37.7311 52.3824C37.0383 53.4169 36.2978 54.2312 35.6767 54.6413C35.1015 55.0212 34.7222 55.0032 34.5052 54.5856C34.356 54.2986 34.4487 53.7808 34.823 52.8104C35.6241 50.7334 36.9462 48.6582 39.4332 45.5745C40.4172 44.3542 40.8646 43.9245 41.4584 43.6293C41.9936 43.3632 42.2847 43.3365 42.5155 43.5321ZM18.2477 47.5535C18.6311 48.0246 19.3757 48.5323 20.0946 48.813C20.3898 48.9282 20.6314 49.0461 20.6314 49.0751C20.6314 49.1472 19.6917 50.6882 19.1839 51.4488C18.5413 52.4112 17.5655 53.5259 16.8974 54.0608C16.2215 54.6018 15.9079 54.7588 15.4677 54.7763C14.6106 54.8103 14.2775 54.013 14.6051 52.712C14.9642 51.2859 15.7186 49.7808 17.1395 47.6558C17.6858 46.8389 17.7015 46.8236 17.816 46.9934C17.8806 47.0891 18.0747 47.341 18.2477 47.5535ZM71.5018 51.3767C71.9351 51.8419 71.9299 52.8266 71.4871 54.1481C71.0928 55.3251 70.5998 56.2801 70.4035 56.2479C69.7959 56.1482 68.9837 55.4582 68.667 54.7726C68.1165 53.5808 68.6906 52.2026 70.0637 51.4192C70.6324 51.0948 71.2229 51.0773 71.5018 51.3767ZM89.5427 51.5386C89.7573 51.7318 89.7166 52.0198 89.4016 52.5381C89.2456 52.7948 88.4923 54.0941 87.7277 55.4253C85.2071 59.8143 84.1622 61.3701 83.1722 62.208C82.4094 62.8537 81.8252 62.9283 81.6254 62.4055C81.4463 61.9369 81.7985 60.6557 82.4878 59.2682C82.8791 58.4808 84.0202 56.6249 84.7841 55.5336C85.9017 53.9371 87.3865 52.3258 88.2981 51.7202C88.8198 51.3735 89.2842 51.3058 89.5427 51.5386ZM67.5883 55.2602C67.7014 55.4523 67.9767 55.7912 68.2001 56.0134C68.6133 56.4245 69.6985 57.1675 69.8858 57.1675C70.2209 57.1675 68.8814 59.3552 67.6408 60.8339C66.0664 62.7105 64.7278 63.2328 64.1937 62.1789C63.822 61.4454 64.3594 59.5969 65.5367 57.5601C66.0956 56.593 67.2271 54.9111 67.3187 54.9111C67.3539 54.9111 67.4752 55.0682 67.5883 55.2602Z" fill="white"/>
</g>
<defs>
<clipPath id="clip0_36_2947">
<rect width="100" height="100" fill="white"/>
</clipPath>
</defs>
</svg>
