<svg width="100" height="100" viewBox="0 0 100 100" fill="none" xmlns="http://www.w3.org/2000/svg">
<path d="M32 50.4616V72.1269H40.3673C50.0794 72.1269 53.1424 71.6787 57.326 69.6989C64.6848 66.1876 68.7564 58.0071 68.084 47.8468C67.5611 39.6289 64.1992 34.0258 58.0358 31.0748C54.0762 29.2071 51.0506 28.7962 40.965 28.7962H32V50.4616ZM51.312 39.1806C55.1969 41.1978 56.8778 46.1659 55.9813 52.9269C55.0848 59.6507 52.1338 62.4149 45.9331 62.4149H43.5798V50.2374V38.0227L46.7175 38.2468C48.7346 38.3962 50.3782 38.7324 51.312 39.1806Z" fill="white"/>
<circle cx="75.5178" cy="67.5516" r="4.48249" fill="white"/>
</svg>
