<svg width="100" height="100" viewBox="0 0 100 100" fill="none" xmlns="http://www.w3.org/2000/svg">
<path fill-rule="evenodd" clip-rule="evenodd" d="M6 33.2178V34.4278H14.525H23.05V33.2178V32.0078H14.525H6V33.2178ZM25.58 33.2138V34.4278H37.7484C51.3688 34.4278 50.259 34.506 48.979 33.6367C48.1217 33.0546 47.1667 32.6169 46.095 32.3149C45.2163 32.0673 45.2006 32.0669 35.3975 32.0334L25.58 32V33.2138ZM54.95 33.2178V34.4278H62.3318C68.1914 34.4278 69.7029 34.3994 69.6618 34.2903C69.6335 34.2147 69.4425 33.6705 69.2376 33.0809L68.865 32.0089L61.9075 32.0084L54.95 32.0078V33.2178ZM79.9721 32.1453C79.781 32.661 79.26 34.2654 79.26 34.3385C79.26 34.3875 82.5765 34.4278 86.63 34.4278H94V33.2178V32.0078H87.0116C81.5213 32.0078 80.0122 32.0373 79.9721 32.1453ZM6 37.9478V39.1578H14.525H23.05V37.9478V36.7378H14.525H6V37.9478ZM25.58 37.9478V39.1578H39.2177H52.8553L52.5692 38.3603C52.4117 37.9217 52.1891 37.3772 52.0743 37.1503L51.8655 36.7378H38.7228H25.58V37.9478ZM54.95 37.9478V39.1578H63.1353H71.3206L70.9209 37.9478L70.521 36.7378H62.7356H54.95V37.9478ZM78.3221 36.8753C78.131 37.391 77.61 38.9955 77.61 39.0685C77.61 39.1175 81.2978 39.1578 85.805 39.1578H94V37.9478V36.7378H86.1866C80.0363 36.7378 78.3623 36.7671 78.3221 36.8753ZM10.95 42.6228V43.8878H14.58H18.21V42.6228V41.3578H14.58H10.95V42.6228ZM30.468 41.5016C30.4369 41.5824 30.4258 42.1399 30.4433 42.7406L30.475 43.8328H34.105H37.735V42.6228V41.4128L34.1296 41.3838C31.2042 41.3602 30.5136 41.3824 30.468 41.5016ZM45.16 42.6228V43.8878H48.9498H52.7397L52.8541 43.4753C52.917 43.2485 53.0007 42.6792 53.0401 42.2103L53.1117 41.3578H49.1358H45.16V42.6228ZM59.79 42.6228V43.8878H66.335C71.9264 43.8878 72.88 43.8649 72.88 43.7311C72.88 43.6448 72.7009 43.0756 72.4819 42.4661L72.0839 41.3578H65.9369H59.79V42.6228ZM76.7959 41.4502C76.7051 41.5969 75.96 43.6836 75.96 43.7909C75.96 43.8457 78.806 43.8878 82.505 43.8878H89.05V42.6228V41.3578H82.9515C79.5973 41.3578 76.8273 41.3994 76.7959 41.4502ZM10.95 47.2978V48.5078H14.58H18.21V47.2978V46.0878H14.58H10.95V47.2978ZM30.42 47.2978V48.5078H40.1309H49.8419L50.4579 47.8753C51.0818 47.2348 51.76 46.3525 51.76 46.1813C51.76 46.1298 46.9585 46.0878 41.09 46.0878H30.42V47.2978ZM59.79 47.2978V48.5078H63.42H67.05V47.4563C67.05 46.878 67.0891 46.4289 67.1368 46.4585C67.1845 46.488 67.3671 46.9611 67.5425 47.51L67.8614 48.5078H74.4317H81.0019L81.3685 47.4353L81.735 46.3628L81.7665 47.4353L81.7979 48.5078H85.424H89.05V47.2978V46.0878H82.0857H75.1214L74.8047 47.0788C74.6305 47.6238 74.4541 48.0322 74.4126 47.9863C74.3713 47.9404 74.2034 47.4944 74.0396 46.9953L73.742 46.0878H66.766H59.79V47.2978ZM10.95 52.0278V53.2378H14.58H18.21V52.0278V50.8178H14.58H10.95V52.0278ZM30.42 52.0278V53.2378H41.09C46.9585 53.2378 51.76 53.2121 51.76 53.1806C51.76 53.016 51.1367 52.1775 50.541 51.5406L49.8648 50.8178H40.1423H30.42V52.0278ZM59.79 52.0278V53.2378H63.42H67.05V52.0278V50.8178H63.42H59.79V52.0278ZM69.1199 52.0003L69.5341 53.1828L74.4426 53.2114L79.3511 53.24L79.7067 52.1664C79.9023 51.5759 80.0851 51.031 80.1129 50.9553C80.153 50.8464 78.9715 50.8178 74.4346 50.8178H68.7057L69.1199 52.0003ZM81.79 52.0278V53.2378H85.42H89.05V52.0278V50.8178H85.42H81.79V52.0278ZM10.95 56.7578V57.9678H14.58H18.21V56.7578V55.5478H14.58H10.95V56.7578ZM30.4438 56.7303L30.475 57.9128H34.105H37.735L37.7662 56.7303L37.7975 55.5478H34.105H30.4125L30.4438 56.7303ZM45.16 56.7564V57.9678H49.1358H53.1117L53.0396 57.1153C53 56.6465 52.9274 56.1143 52.8785 55.9328L52.7893 55.6028L48.9746 55.5739L45.16 55.5449V56.7564ZM59.79 56.7578V57.9678H63.42H67.05V56.7578V55.5478H63.42H59.79V56.7578ZM70.7699 56.7303L71.184 57.9128L74.4424 57.942L77.7008 57.971L78.0565 56.897C78.2522 56.3061 78.4351 55.761 78.4629 55.6853C78.5029 55.5768 77.6515 55.5478 74.4346 55.5478H70.3557L70.7699 56.7303ZM81.79 56.7578V57.9678H85.42H89.05V56.7578V55.5478H85.42H81.79V56.7578ZM6 61.3778V62.5878H14.525H23.05V61.3778V60.1678H14.525H6V61.3778ZM25.58 61.3778V62.5878H38.7308H51.8815L52.203 61.9003C52.3799 61.5222 52.5951 60.9777 52.6815 60.6903L52.8384 60.1678H39.2092H25.58V61.3778ZM54.95 61.3778V62.5878H61H67.05V61.3778V60.1678H61H54.95V61.3778ZM72.0249 60.3053C72.0515 60.381 72.241 60.9254 72.4461 61.5153L72.8187 62.5878H74.4444C75.3385 62.5878 76.07 62.5728 76.07 62.5545C76.07 62.5361 76.2622 61.9916 76.4971 61.3445L76.9243 60.1678H74.4504C72.5188 60.1678 71.987 60.198 72.0249 60.3053ZM81.79 61.3778V62.5878H87.895H94V61.3778V60.1678H87.895H81.79V61.3778ZM6 66.1078V67.3178H14.525H23.05V66.1078V64.8978H14.525H6V66.1078ZM25.58 66.1078V67.3178L35.0125 67.3169C40.915 67.3165 44.7126 67.2739 45.16 67.2033C46.6603 66.9667 48.246 66.2918 49.3867 65.4047L50.0385 64.8978H37.8092H25.58V66.1078ZM54.95 66.1078V67.3178H61H67.05V66.1078V64.8978H61H54.95V66.1078ZM73.6771 65.0353C73.705 65.111 73.8626 65.5807 74.0275 66.0792C74.1924 66.5776 74.3687 67.0111 74.4193 67.0424C74.4963 67.09 75.19 65.2337 75.19 64.9801C75.19 64.9348 74.8382 64.8978 74.4082 64.8978C73.8292 64.8978 73.6395 64.9334 73.6771 65.0353ZM81.79 66.1078V67.3178H87.895H94V66.1078V64.8978H87.895H81.79V66.1078Z" fill="white"/>
</svg>
