<svg width="100" height="100" viewBox="0 0 100 100" fill="none" xmlns="http://www.w3.org/2000/svg">
<path fill-rule="evenodd" clip-rule="evenodd" d="M47.966 22.0592C42.2277 22.4696 36.7873 24.6402 32.2313 28.3369C31.2396 29.1416 29.1495 31.2317 28.3448 32.2234C24.1975 37.3348 22 43.4888 22 49.9921C22 56.4955 24.1975 62.6495 28.3448 67.7608C29.1495 68.7525 31.2396 70.8426 32.2313 71.6473C37.3411 75.7934 43.4988 77.9921 50 77.9921C56.5033 77.9921 62.6573 75.7947 67.7687 71.6473C68.7604 70.8426 70.8505 68.7525 71.6552 67.7608C75.8025 62.6495 78 56.4955 78 49.9921C78 43.4888 75.8025 37.3348 71.6552 32.2234C70.8505 31.2317 68.7604 29.1416 67.7687 28.3369C62.6052 24.1473 56.3954 21.9525 49.8407 22.0008C49.1925 22.0055 48.3489 22.0318 47.966 22.0592ZM51.0637 25.7937C51.162 25.8879 51.2424 26.0026 51.2424 26.0486C51.2424 26.1586 51.2776 26.1551 51.6731 26.0047C52.3 25.7665 52.9929 25.8598 53.4127 26.2391L53.6626 26.4649L53.9338 26.3557C54.0829 26.2957 54.4214 26.2315 54.686 26.213C55.3374 26.1676 55.8079 26.3058 56.1847 26.653C56.6178 27.0523 56.6327 27.1671 56.4378 28.6075C56.3461 29.2855 56.2882 29.8944 56.3092 29.9606C56.3302 30.0267 56.4387 30.1044 56.5503 30.1333C56.6671 30.1636 56.7625 30.2342 56.7751 30.2997C56.8027 30.4426 56.5089 30.7567 56.1985 30.9164C55.7095 31.1679 54.9384 30.9964 54.6843 30.5798C54.5214 30.3125 54.5211 30.0336 54.6828 28.8399C54.8516 27.5937 54.8495 27.4853 54.6556 27.397C54.4609 27.3083 54.2234 27.366 54.0262 27.5502C53.8869 27.6803 53.8575 27.8164 53.6988 29.0629C53.6029 29.8163 53.4948 30.4686 53.4587 30.5124C53.3782 30.6098 52.6475 30.6188 52.3146 30.5264C52.1861 30.4906 52.0221 30.412 51.9503 30.3515L51.8198 30.2416L52.0083 28.8399C52.2293 27.1974 52.2263 27.2527 52.0979 27.1243C51.9145 26.9408 51.345 27.044 51.2793 27.2728C51.2631 27.3288 51.1731 27.9767 51.0793 28.7125C50.8868 30.2215 50.8635 30.2742 50.3911 30.2724C50.031 30.2711 49.4018 30.1166 49.2864 30.0012C49.2027 29.9175 49.2155 29.7295 49.3972 28.3734C49.5948 26.8988 49.5986 26.8302 49.4966 26.5754L49.3906 26.3104L49.6154 26.0984C49.8609 25.867 50.4008 25.6311 50.6973 25.6258C50.8174 25.6237 50.9494 25.6842 51.0637 25.7937ZM47.2823 26.2921C47.9868 26.6083 48.4205 27.2099 48.5723 28.0818C48.7003 28.8169 48.5214 29.4663 48.048 29.9842C47.0512 31.0749 45.0541 31.1508 44.1387 30.1328C43.7126 29.6588 43.5709 29.2354 43.5678 28.4258C43.5648 27.6573 43.6728 27.3515 44.1044 26.9067C44.8601 26.1281 46.2973 25.8501 47.2823 26.2921ZM45.8316 27.1988C45.3788 27.2817 45.2228 27.5838 45.2717 28.2834C45.3168 28.9301 45.4093 29.2174 45.6607 29.4918C45.8356 29.6825 45.9096 29.7174 46.139 29.7174C46.7254 29.7174 46.9694 29.2901 46.8545 28.4639C46.7246 27.5292 46.3767 27.099 45.8316 27.1988ZM41.9313 27.5532C42.0445 27.6465 41.9972 28.0762 41.8376 28.4028L41.7175 28.6488L41.0938 28.6807C40.4523 28.7134 40.351 28.7586 40.3487 29.0129C40.3468 29.2237 40.5798 29.2718 41.3741 29.2244C41.9671 29.189 42.1971 29.2004 42.4649 29.2781C43.4818 29.5738 43.6393 30.8491 42.7574 31.6459C42.0547 32.2807 40.721 32.5911 39.9495 32.2993C39.746 32.2223 39.7299 32.0976 39.8655 31.6473C40.0139 31.1542 40.0752 31.1165 40.6204 31.1836C41.1248 31.2456 41.5384 31.1762 41.7147 30.9999C41.8356 30.8789 41.8369 30.84 41.7244 30.6862C41.6434 30.5754 41.5583 30.5665 40.7336 30.5824C39.5038 30.606 39.2033 30.4957 38.9391 29.923C38.4798 28.9279 39.5257 27.7368 41.1123 27.4481C41.3401 27.4067 41.8297 27.4695 41.9313 27.5532ZM59.7653 27.6966C59.8512 27.7568 59.922 27.8914 59.9457 28.0395L59.9847 28.2835L60.5352 28.3102C61.4373 28.3541 62.1394 28.7767 62.3218 29.3854C62.4296 29.7454 62.3838 29.9021 61.8197 31.1017C61.1791 32.4642 61.2075 32.3534 61.4427 32.5731C61.6731 32.7883 61.6556 32.8953 61.3608 33.0746C61.0817 33.2442 60.6523 33.3013 60.3457 33.2095C60.0405 33.118 59.6954 32.825 59.5882 32.5663C59.4536 32.241 59.5512 31.8786 60.0583 30.8217C60.5415 29.8146 60.6223 29.5256 60.4585 29.3896C60.298 29.2564 60.0103 29.2451 59.7829 29.3631C59.5882 29.4641 59.4957 29.6188 58.9725 30.7194L58.3817 31.9618L58.1291 31.9566C57.8176 31.9502 57.0742 31.5952 56.9385 31.3881C56.8448 31.245 56.8699 31.1762 57.4914 29.8798C58.0395 28.7363 58.1441 28.4687 58.1524 28.1886C58.1579 28.0055 58.1801 27.838 58.2018 27.8164C58.4128 27.6053 59.5145 27.5209 59.7653 27.6966ZM65.8402 29.118C66.4804 29.524 66.5771 29.9595 66.1348 30.4453C65.9245 30.6765 65.6879 30.6891 65.3196 30.4887C64.5975 30.0956 64.437 29.65 64.8521 29.1905C65.1441 28.8674 65.4139 28.8476 65.8402 29.118ZM37.1687 30.035C37.2877 30.1141 37.7151 30.62 38.1184 31.1593C38.5217 31.6985 38.9009 32.1708 38.961 32.2088C39.0441 32.2612 39.1156 32.2511 39.258 32.167C39.4345 32.0627 39.4519 32.0626 39.5539 32.1646C39.6391 32.2498 39.6548 32.345 39.6274 32.61C39.5656 33.2091 39.2174 33.6316 38.6583 33.786C38.4705 33.8378 38.3618 33.8301 38.1519 33.75C37.8253 33.6252 37.7244 33.5171 36.9657 32.4786C36.6357 32.027 36.3013 31.6152 36.2224 31.5634C36.0945 31.4795 36.0613 31.481 35.9144 31.5772C35.7126 31.7094 35.5479 32.0806 35.6076 32.2686C35.6317 32.3446 36.0081 32.8903 36.4439 33.4811C37.0745 34.3359 37.2288 34.5854 37.1994 34.7024C37.1232 35.0065 36.1684 35.6799 35.9386 35.5918C35.8867 35.5718 35.4371 35.0016 34.9395 34.3246C34.1965 33.3136 33.9898 33.0733 33.7827 32.98C33.6441 32.9174 33.5274 32.8204 33.5235 32.7644C33.4965 32.3744 33.7132 31.7659 33.9813 31.4789C34.1716 31.2752 34.3461 31.2522 34.6841 31.3862C34.761 31.4167 34.8308 31.3388 34.9659 31.0719C35.1639 30.6805 35.7064 30.1273 36.0303 29.9866C36.3634 29.8418 36.913 29.8652 37.1687 30.035ZM64.6996 30.602C65.0235 30.8089 65.3863 31.1843 65.3863 31.3126C65.3863 31.3561 64.9878 31.9249 64.5008 32.5767C63.3588 34.105 63.3794 34.0659 63.6082 34.279C63.903 34.5537 63.6168 34.7945 62.9937 34.796C62.491 34.7972 62.0926 34.5626 61.8913 34.147C61.6315 33.6101 61.6773 33.5016 62.8045 31.9884C64.1111 30.2339 64.0352 30.3201 64.2307 30.3684C64.3231 30.3912 64.5342 30.4964 64.6996 30.602ZM52.2936 32.5337C54.2884 32.7993 56.0041 33.3318 57.8684 34.2641C59.6537 35.157 60.9897 36.1232 62.4293 37.5629C63.8688 39.0023 64.8349 40.3382 65.728 42.1238C66.6856 44.0381 67.2415 45.8773 67.4999 47.9852C67.6055 48.8467 67.6055 51.1375 67.4999 51.999C67.2415 54.107 66.6856 55.9461 65.728 57.8605C64.8349 59.646 63.8688 60.9819 62.4293 62.4214C60.9898 63.8609 59.6539 64.8271 57.8684 65.7202C55.954 66.6777 54.1149 67.2336 52.0069 67.492C51.1454 67.5976 48.8546 67.5976 47.9931 67.492C45.8851 67.2336 44.046 66.6777 42.1316 65.7202C40.3461 64.8271 39.0102 63.8609 37.5707 62.4214C36.1312 60.9819 35.1651 59.646 34.272 57.8605C33.3144 55.9461 32.7585 54.107 32.5001 51.999C32.3945 51.1375 32.3945 48.8467 32.5001 47.9852C32.7585 45.8773 33.3144 44.0381 34.272 42.1238C35.1646 40.3392 36.1297 39.0045 37.5707 37.562C40.542 34.5874 44.2637 32.8443 48.5028 32.4417C49.3412 32.3621 51.375 32.4115 52.2936 32.5337ZM31.1808 32.687C31.5045 33.0107 31.5154 33.268 31.2211 33.6368C30.8108 34.1509 30.4904 34.302 30.1664 34.1344C29.8717 33.982 29.7079 33.7341 29.7079 33.4402C29.7079 33.2125 29.7497 33.142 30.08 32.8117C30.4023 32.4894 30.4843 32.4396 30.6928 32.4396C30.8874 32.4396 30.9808 32.487 31.1808 32.687ZM67.4805 33.0244C67.9209 33.2377 68.6623 33.9783 68.8886 34.4313C69.12 34.8944 69.1456 35.3823 68.9601 35.791C68.8535 36.0255 68.0139 36.9022 67.4444 37.3736C67.1854 37.588 67.132 37.7555 67.2605 37.9516C67.4196 38.1943 67.3854 38.2897 67.113 38.3631C66.5137 38.5245 65.8252 38.1565 65.7368 37.6276C65.6757 37.2626 65.6559 37.2191 65.5311 37.177C64.6665 36.8854 63.9867 36.0829 63.9853 35.3519C63.9845 34.9845 64.1541 34.6254 64.4437 34.3812C65.0585 33.8629 65.6887 33.9214 66.8194 34.6019C67.4381 34.9743 67.6162 35.0083 67.6162 34.7542C67.6162 34.5175 67.19 34.1251 66.5963 33.815C66.3338 33.6779 66.0989 33.5352 66.0744 33.4979C66.0067 33.3947 66.2106 33.203 66.565 33.0365C66.9605 32.8507 67.1173 32.8486 67.4805 33.0244ZM48.6138 33.4008C46.5658 33.5699 44.5567 34.1298 42.6681 35.0577C38.4036 37.1529 35.1988 41.025 33.9461 45.5953C33.4697 47.3338 33.2691 49.2834 33.3901 51.0018C33.5565 53.3665 34.0663 55.2902 35.0655 57.324C37.1608 61.5885 41.0329 64.7934 45.6032 66.046C47.3419 66.5225 49.3185 66.725 51.0291 66.6017C53.3874 66.4318 55.3062 65.9219 57.3319 64.9266C61.5964 62.8313 64.8012 58.9592 66.0539 54.389C66.5303 52.6504 66.7309 50.7008 66.6099 48.9824C66.4435 46.6178 65.9337 44.694 64.9345 42.6602C62.8387 38.3947 58.9673 35.1909 54.3944 33.9376C52.5441 33.4305 50.5247 33.243 48.6138 33.4008ZM33.3058 34.6695C34.5056 35.7716 34.6813 35.8827 34.8685 35.6571C34.9923 35.508 35.1827 35.5416 35.2524 35.7249C35.3415 35.9594 35.3289 36.4867 35.2285 36.7273C35.1136 37.0021 34.7396 37.3216 34.4212 37.417C33.9911 37.546 33.7507 37.3919 32.289 36.0504C31.5703 35.3907 30.9822 34.8157 30.9822 34.7727C30.9822 34.4934 31.8107 33.5996 32.08 33.5883C32.1056 33.5873 32.6573 34.0738 33.3058 34.6695ZM65.5427 35.4631C65.4567 35.5491 65.3864 35.6709 65.3866 35.7338C65.3869 35.9189 65.6279 36.2604 65.8058 36.3281C65.993 36.3992 66.1547 36.3077 66.5271 35.9201C66.714 35.7255 66.7324 35.6799 66.6592 35.5918C66.3973 35.2761 65.7986 35.2071 65.5427 35.4631ZM44.328 38.7443C44.3487 38.7779 44.2491 39.0373 44.1066 39.3207C43.964 39.6042 43.7571 40.1 43.6468 40.4225C43.4714 40.9352 43.4456 41.0967 43.4419 41.7096C43.4371 42.5126 43.5062 42.7021 44.0116 43.2711C44.3677 43.6721 44.3897 43.8614 44.1658 44.5993C43.941 45.3405 44.0528 46.1885 44.4934 47.0822C44.769 47.6415 44.8218 47.6901 45.6292 48.1275C46.0651 48.3637 46.1787 48.6047 46.2668 49.4796C46.3534 50.3406 46.484 50.6351 46.9218 50.9565C47.0984 51.0861 47.5445 51.315 47.9131 51.4653C48.6614 51.7702 49.0495 52.0014 49.0994 52.1718C49.1178 52.2344 49.1628 52.4548 49.1996 52.6614C49.3419 53.4615 49.541 53.6164 50.678 53.812C51.8607 54.0155 52.2071 54.2038 52.6477 54.8829C53.0385 55.4852 54.1511 55.603 55.1201 55.1445C55.5501 54.9411 55.7395 54.9702 56.2839 55.3233C57.2843 55.9723 58.0666 56.1374 59.1014 55.9181C59.6855 55.7944 60.3021 55.5018 61.0063 55.0142C61.3264 54.7925 61.6153 54.6112 61.6483 54.6112C61.7814 54.6112 61.6088 55.2507 61.3131 55.8536C60.7343 57.0334 59.926 58.1076 58.7877 59.2097C56.7317 61.2005 54.0993 62.4129 51.2154 62.6976C47.8389 63.0308 44.4093 61.9785 41.8449 59.8223C39.3956 57.7628 37.9331 55.1915 37.3756 51.9644C37.2036 50.969 37.2207 48.9633 37.4103 47.8896C37.8625 45.3295 38.9907 43.0805 40.73 41.272C41.729 40.2333 42.5505 39.5753 43.6483 38.9346C44.079 38.6832 44.259 38.6328 44.328 38.7443ZM29.2662 40.4695C29.4457 40.5656 29.4212 40.8014 29.1638 41.4552C28.5442 43.0295 27.9834 45.2105 27.6895 47.1888C27.529 48.2689 27.529 51.3039 27.6894 52.445C28.2802 56.6464 29.7418 60.5043 31.8465 63.4173C32.1068 63.7775 32.3198 64.1082 32.3199 64.152C32.3202 64.2638 32.085 64.4865 31.9666 64.4865C31.8242 64.4865 31.6144 64.2387 31.0527 63.4069C28.6466 59.8434 27.1806 55.398 26.9052 50.8303C26.7319 47.9548 27.3584 44.3291 28.5709 41.1898C28.8596 40.4424 28.9809 40.3168 29.2662 40.4695ZM71.1096 40.5202C71.3552 40.7659 72.1874 43.3196 72.5455 44.9271C72.9854 46.9008 73.124 48.3085 73.0774 50.3301C73.051 51.4736 73.0041 52.0947 72.8838 52.891C72.3238 56.5984 71.1122 59.9845 69.338 62.8007C68.8184 63.6254 68.2861 64.3371 68.1236 64.424C67.9544 64.5145 67.6799 64.3548 67.6799 64.1658C67.6799 64.0962 67.8415 63.8207 68.0391 63.5535C70.2084 60.6202 71.7193 56.67 72.3002 52.4131C72.4435 51.3631 72.4948 49.158 72.3996 48.1451C72.1979 46.0002 71.6396 43.5941 70.8713 41.5593C70.6304 40.9211 70.5653 40.6793 70.6114 40.5932C70.7235 40.3837 70.9412 40.3518 71.1096 40.5202ZM50.9745 41.3687L51.375 41.6966L51.8661 41.5644C52.3023 41.447 52.3734 41.4426 52.5007 41.5246C52.6822 41.6416 52.6803 41.7183 52.4847 42.1997C52.3971 42.4153 52.3255 42.6313 52.3255 42.6798C52.3255 42.7283 52.4401 42.9367 52.5803 43.1431C53.0088 43.7741 52.93 43.9077 52.1294 43.9077H51.5764L51.3036 44.2613C50.8191 44.8892 50.6193 44.8698 50.4499 44.1784C50.3914 43.94 50.3212 43.7088 50.2939 43.6645C50.2665 43.6202 50.0315 43.5015 49.7717 43.4006C49.3391 43.2327 49.2975 43.2007 49.2793 43.022C49.2613 42.8449 49.2964 42.8031 49.6593 42.5685C49.8793 42.4263 50.0813 42.2753 50.1083 42.2328C50.1353 42.1903 50.1577 41.9685 50.1583 41.7398C50.1593 41.2956 50.2715 41.0407 50.4658 41.0407C50.5253 41.0407 50.7542 41.1883 50.9745 41.3687ZM57.6135 43.5874C57.6135 43.9601 57.6161 43.9653 57.9002 44.1693C58.1837 44.373 58.2609 44.5525 58.1082 44.6525C58.0648 44.6809 57.9003 44.7471 57.7423 44.7996C57.5299 44.8704 57.4339 44.9448 57.3729 45.0863C57.0962 45.7285 57.0065 45.7587 56.6888 45.3165C56.465 45.005 56.4501 44.9964 56.1032 44.9779C55.6119 44.9517 55.541 44.8307 55.8161 44.4883C56.0387 44.2114 56.0597 44.0845 55.9461 43.7053C55.8836 43.4964 55.8874 43.4403 55.9701 43.3577C56.059 43.2687 56.103 43.2699 56.4212 43.3702L56.7737 43.4813L57.0741 43.2824C57.4926 43.0051 57.6135 43.0735 57.6135 43.5874ZM41.0012 43.9732C40.9225 44.0048 40.8008 44.1249 40.7306 44.2399C40.3142 44.923 41.0521 45.6617 41.735 45.2454C41.9685 45.103 42.0679 44.9002 42.0679 44.5661C42.0679 44.2357 41.7263 43.9062 41.3894 43.9117C41.2545 43.9139 41.0798 43.9416 41.0012 43.9732ZM55.8098 48.357C55.8976 48.5555 55.9976 48.7353 56.0321 48.7567C56.0665 48.778 56.2502 48.8303 56.4402 48.8728C57.0102 49.0004 57.0506 49.2768 56.5583 49.6803L56.2756 49.9119V50.3693C56.2756 51.0389 56.0928 51.1404 55.5208 50.7885C55.1529 50.5621 55.1561 50.5624 54.8012 50.7234C54.4345 50.8898 54.261 50.8846 54.1425 50.7038C54.0558 50.5715 54.0555 50.5213 54.1403 50.2419C54.2735 49.8028 54.2676 49.7722 53.982 49.4265C53.8418 49.2569 53.7271 49.0733 53.7271 49.0186C53.7271 48.8462 53.9275 48.686 54.1432 48.686C54.6158 48.686 54.7508 48.6182 54.975 48.2675C55.3108 47.7427 55.5496 47.7683 55.8098 48.357ZM40.21 48.7578C39.9082 48.8428 39.4852 49.2068 39.3262 49.5186C38.9554 50.2452 39.3776 51.2484 40.1516 51.4804C41.1311 51.7737 42.03 51.1227 42.0305 50.1195C42.031 49.1642 41.1385 48.4966 40.21 48.7578ZM45.8531 52.8203C45.2489 53.1888 45.1554 53.9276 45.6529 54.4029C46.3316 55.0513 47.4419 54.5257 47.3381 53.6052C47.2582 52.8955 46.4394 52.4628 45.8531 52.8203ZM41.154 54.1945C40.3575 54.4784 40.1488 55.5077 40.7699 56.0884C41.5956 56.8605 42.9305 56.0811 42.6457 54.9935C42.553 54.6399 42.2105 54.2727 41.881 54.174C41.5756 54.0825 41.4587 54.0858 41.154 54.1945ZM46.4003 56.9244C46.0876 57.0229 45.5543 57.5752 45.4584 57.8997C45.1835 58.83 45.6962 59.7068 46.6279 59.9002C47.5551 60.0927 48.4392 59.3449 48.437 58.3702C48.4347 57.3359 47.4076 56.6069 46.4003 56.9244ZM56.8567 56.95C56.1918 57.2776 56.2108 58.2369 56.8888 58.5651C57.5459 58.8832 58.2392 58.4015 58.1656 57.678C58.0994 57.0285 57.4409 56.6623 56.8567 56.95ZM51.5928 57.2464C50.7201 57.6519 50.709 58.8479 51.5737 59.2996C51.7922 59.4138 52.268 59.4153 52.5376 59.3026C53.3043 58.9823 53.4149 57.8933 52.7334 57.3736C52.4593 57.1646 51.9026 57.1025 51.5928 57.2464ZM37.8167 66.8893C38.0858 67.0165 38.3811 67.2262 38.6012 67.4463C38.904 67.749 38.9513 67.8285 38.9342 68.0049C38.9182 68.1688 38.8627 68.2395 38.6594 68.3543C38.3007 68.5568 38.0807 68.5454 37.9635 68.3186C37.9118 68.2187 37.7667 68.0466 37.641 67.9363C37.0941 67.456 36.306 67.8355 35.9011 68.774C35.7975 69.0143 35.8039 69.487 35.9137 69.698C36.1182 70.091 36.6415 70.3924 37.2251 70.4535C37.7066 70.5038 37.724 70.6072 37.314 70.985C37.0221 71.2541 37.0171 71.2559 36.6283 71.2247C36.123 71.1841 35.5317 70.8897 35.1115 70.4695C34.4273 69.7854 34.2629 68.9185 34.663 68.1057C34.8972 67.6302 35.2799 67.1698 35.6115 66.9648C36.0196 66.7127 36.2747 66.6514 36.8436 66.6686C37.3002 66.6825 37.4529 66.7171 37.8167 66.8893ZM63.4045 66.8208C63.5359 66.9128 63.5489 66.9595 63.5139 67.2148C63.492 67.3741 63.4328 67.5677 63.3822 67.6449C63.299 67.7719 63.2513 67.7822 62.8847 67.7527C62.2551 67.7022 61.9087 67.9545 62.0399 68.3681C62.1011 68.561 62.3343 68.5922 63.0282 68.5004C64.1045 68.3579 64.5442 68.4834 64.8126 69.0095C65.1144 69.6009 65.0114 70.1956 64.5198 70.7016C63.9757 71.2613 62.8198 71.6245 62.2326 71.4203C61.9837 71.3338 61.9781 71.3252 61.991 71.0505C61.9983 70.8959 62.0369 70.6907 62.0766 70.5947C62.1486 70.4209 62.152 70.4201 62.7323 70.4317C63.442 70.446 63.7485 70.3159 63.781 69.9865C63.8156 69.6364 63.6612 69.5576 63.0638 69.6202C62.1094 69.7202 61.623 69.6952 61.3611 69.5328C60.9051 69.25 60.728 68.5147 60.982 67.9587C61.3479 67.1577 62.8669 66.4442 63.4045 66.8208ZM54.777 68.1427C54.9459 68.3116 55.037 68.668 54.9748 68.9159C54.8979 69.2224 54.2742 69.4367 53.8893 69.289C53.6169 69.1844 53.4909 68.4273 53.7125 68.2268C54.0142 67.9538 54.5461 67.9118 54.777 68.1427ZM59.6087 68.5926C60.418 68.8812 60.5988 69.8473 59.9924 70.6424C59.785 70.9144 59.0333 71.4578 58.7228 71.5603C58.4517 71.6498 58.4495 71.7173 58.7125 71.8777C59.1655 72.1538 59.9017 71.986 60.4244 71.4874C60.6063 71.314 60.7865 71.1825 60.8249 71.1953C60.9136 71.2248 61.0139 71.8377 60.9631 72.04C60.8584 72.4571 60.0168 72.9734 59.2698 73.0787C57.9937 73.2587 57.1567 72.6542 56.8118 71.3037C56.5482 70.2713 56.97 69.2772 57.8655 68.8203C58.4474 68.5234 59.1554 68.4309 59.6087 68.5926ZM41.5582 68.7696C42.224 68.9685 42.7631 69.3796 43.0594 69.9144C43.2296 70.2218 43.2466 70.3071 43.2466 70.8576C43.2466 71.4135 43.2288 71.5007 43.0286 71.928C42.5062 73.0428 41.4887 73.5112 40.3557 73.1586C38.8997 72.7054 38.3365 71.5285 38.8813 70.0773C39.0318 69.6764 39.5345 69.0732 39.8633 68.8987C40.3192 68.6568 41.0056 68.6046 41.5582 68.7696ZM50.3388 68.6829C50.3963 68.7193 50.4745 69.2253 50.5875 70.2906C50.6781 71.1456 50.7607 71.8556 50.771 71.8683C50.7813 71.8811 50.8871 71.8313 51.0062 71.7577C51.2593 71.6012 51.6966 71.0027 51.853 70.5986C51.9131 70.4432 51.9796 70.2958 52.0008 70.2712C52.0521 70.2114 52.9712 70.1022 53.0802 70.143C53.1391 70.165 53.1537 70.2363 53.1269 70.3706C53.0586 70.7119 52.6014 71.5802 52.3241 71.8953L52.0567 72.199L52.3402 72.4681C52.4961 72.616 52.7501 72.9091 52.9046 73.1193C53.2698 73.6162 53.3252 73.6564 53.6475 73.6589C53.8815 73.6606 53.9182 73.6795 53.9182 73.798C53.9182 73.8788 53.7783 74.0751 53.5775 74.2758C53.2764 74.577 53.2065 74.6166 52.9753 74.6166C52.57 74.6166 52.4196 74.5106 51.9944 73.9254C51.4665 73.1987 51.2506 72.9601 51.1211 72.9601C50.9025 72.9601 50.8839 73.0654 50.9665 73.8358C51.0347 74.4726 51.0333 74.5981 50.9568 74.6747C50.8277 74.8037 49.8918 74.8529 49.8025 74.7355C49.7046 74.6065 49.1164 68.8806 49.1932 68.8038C49.3351 68.6618 50.1671 68.574 50.3388 68.6829ZM58.2994 69.5783C58.0921 69.7636 58.0913 69.7666 58.0913 70.3694C58.0913 70.7022 58.1122 70.9954 58.1379 71.021C58.2074 71.0905 58.6619 70.7671 58.8603 70.507C59.1005 70.1922 59.1483 69.7165 58.9588 69.527C58.7725 69.3408 58.5453 69.3585 58.2994 69.5783ZM40.7872 69.7289C40.383 70.0005 39.9643 70.8828 39.9664 71.4585C39.9676 71.793 40.0743 71.9972 40.3421 72.1777C40.8763 72.5377 41.4151 72.2168 41.7787 71.3222C42.0993 70.5331 42.0407 69.9751 41.6098 69.7124C41.3333 69.5438 41.0543 69.5493 40.7872 69.7289ZM55.1674 69.7856C55.1929 69.8267 55.3649 70.5497 55.5497 71.3923C55.7808 72.4462 55.9184 72.9483 55.9905 73.001C56.0493 73.044 56.1875 73.0628 56.3048 73.0437C56.583 72.9985 56.6264 73.0918 56.4807 73.4212C56.3 73.8296 55.952 74.1069 55.6203 74.1067C55.2735 74.1066 54.9402 73.9361 54.795 73.6843C54.7317 73.5746 54.5101 72.7145 54.3027 71.773C53.8791 69.8507 53.8741 69.9453 54.4069 69.8021C54.7991 69.6967 55.1084 69.69 55.1674 69.7856ZM47.0503 70.2805C47.4904 70.4477 47.9993 70.8898 48.1792 71.2613C48.5004 71.9248 48.4772 72.7718 48.1175 73.5121C47.8965 73.9672 47.6011 74.2498 47.1041 74.482C46.626 74.7053 45.797 74.7093 45.2216 74.4911C44.6983 74.2927 44.1164 73.7074 43.9614 73.2235C43.6557 72.2694 43.9918 71.0522 44.7128 70.5021C45.2785 70.0708 46.2543 69.9782 47.0503 70.2805ZM45.7052 71.1708C45.465 71.3952 45.3525 71.6497 45.2545 72.19C45.1094 72.9899 45.3166 73.5566 45.8119 73.7144C46.0507 73.7905 46.1056 73.787 46.3188 73.6826C46.5833 73.5528 46.8095 73.256 46.9122 72.9039C47.0262 72.5126 47.0609 71.7909 46.9778 71.5391C46.7954 70.9863 46.1139 70.789 45.7052 71.1708Z" fill="white"/>
</svg>
