<svg width="100" height="100" viewBox="0 0 100 100" fill="none" xmlns="http://www.w3.org/2000/svg">
<path d="M27.3659 53.7563V28.7807H18V52.1953C18 58.6297 22.2482 61.5604 26.1951 61.5604C27.3713 61.5604 28.5499 61.2911 29.6066 60.7978C29.7627 60.7253 30.0125 60.5692 30.0125 60.5692C30.0125 60.5692 29.7752 60.3194 29.6784 60.2094C28.1799 58.5048 27.3659 56.2866 27.3659 53.7563ZM82 47.5124V38.1465H78.658C77.2617 30.785 69.5247 25.9506 61.7495 28.8564C57.4193 30.4751 53.9024 35.6513 53.9024 40.2741V61.5518L54.2927 61.5526H54.3091C56.7208 61.4488 58.9748 60.4287 60.6544 58.6796C62.3403 56.9251 63.2683 54.6218 63.2683 52.1953H67.1707V42.8295H63.2683V40.2554C63.2683 39.2548 63.7967 38.319 64.6716 37.8328C67.07 36.5013 69.5122 38.2144 69.5122 40.488V49.0734C69.5122 52.4708 70.7938 55.6232 73.122 57.9514C75.3487 60.1781 78.359 61.4581 81.598 61.5549H82V52.1961C82 52.1961 82 52.1953 81.9992 52.1953C80.2486 52.1906 78.878 50.7803 78.878 49.0734V47.5124H82ZM42.1951 38.1465V50.6343C42.1951 51.4968 41.4966 52.1953 40.6341 52.1953C39.7717 52.1953 39.0732 51.4968 39.0732 50.6343V38.1465H29.7073V53.7563C29.7073 58.0599 33.2086 61.5612 37.5122 61.5612C39.3721 61.5612 41.1742 60.8954 42.5854 59.688C42.4394 60.84 41.8033 61.7992 40.745 62.4618C39.753 63.0831 38.4613 63.4109 37.0088 63.4117C35.5134 63.4117 33.9914 63.0597 32.6084 62.3939C32.6084 62.3939 32.361 62.2761 32.0488 62.0981V70.4174C34.1335 71.2618 36.4164 71.7083 38.6291 71.7083C42.128 71.7083 45.321 70.614 47.6187 68.6277C50.1982 66.3978 51.561 63.1448 51.561 59.2197V38.1465H42.1951Z" fill="white"/>
</svg>
