<svg width="100" height="100" viewBox="0 0 100 100" fill="none" xmlns="http://www.w3.org/2000/svg">
<path fill-rule="evenodd" clip-rule="evenodd" d="M37.5831 31.0062C35.9679 31.104 34.5245 31.5063 33.0394 32.2727C30.6093 33.5267 28.3714 35.718 26.5421 38.6348C24.5691 41.7809 23.1242 45.7374 22.4601 49.8132C22.0125 52.56 21.8836 55.4226 22.1081 57.6289C22.41 60.5951 23.3287 63.0706 24.8035 64.8918C25.0872 65.2422 25.6917 65.8511 26.0467 66.1441C27.2333 67.1234 28.6882 67.7823 30.2588 68.0516C30.9495 68.1701 31.2686 68.1931 32.2089 68.1924C33.4055 68.1916 34.0323 68.1139 34.9574 67.8519C38.1718 66.9413 40.9942 64.0035 44.8819 57.5214C45.3827 56.6865 45.7144 56.1117 46.6276 54.4965C46.8854 54.0404 47.2101 53.4669 47.3491 53.222C47.9187 52.2182 48.1549 51.8011 48.7923 50.6731C49.9469 48.6299 50.0123 48.518 50.0352 48.544C50.0608 48.573 50.8284 49.8337 51.3784 50.7499C51.7445 51.3598 52.3474 52.3727 54.4129 55.8477C57.0035 60.2061 58.7799 62.7635 60.4778 64.5792C62.9386 67.2106 65.3112 68.2717 68.5695 68.1982C69.3752 68.18 69.7935 68.1368 70.4241 68.0068C71.7216 67.7393 72.9586 67.163 73.9469 66.3658C74.3895 66.0087 75.0303 65.3366 75.3959 64.8459C76.8794 62.8546 77.7056 60.2884 77.9568 56.8918C78.0391 55.7783 77.9999 53.5299 77.8726 52.0704C77.4768 47.5325 76.2598 43.3475 74.2736 39.6943C73.1408 37.6108 71.5446 35.5634 70.0128 34.2289C69.8608 34.0965 69.6892 33.9463 69.6314 33.8952C69.278 33.5827 68.3546 32.9317 67.7864 32.5946C65.1029 31.0026 62.0504 30.5834 59.4147 31.4447C56.9963 32.2349 54.7366 33.9787 52.2443 36.9778C51.9841 37.291 51.6917 37.6503 51.5946 37.7762C51.057 38.4739 50.8262 38.7779 50.8029 38.819C50.7714 38.8748 50.8015 38.9059 50.3872 38.3891C48.8959 36.5287 47.3147 34.9185 45.9052 33.8253C45.0109 33.1315 44.3069 32.6842 43.4026 32.2353C42.0902 31.5836 40.8327 31.2137 39.424 31.065C38.9932 31.0196 37.9258 30.9855 37.5831 31.0062ZM62.796 35.8537C64.3406 36.1295 65.6587 36.8519 66.979 38.1465C69.8628 40.974 71.8931 46.0182 72.4998 51.8623C72.6891 53.6859 72.7447 55.7446 72.6375 56.9686C72.3827 59.8807 71.3306 61.593 69.5127 62.0541C68.7371 62.2509 67.7477 62.1989 67.0032 61.9222C66.0931 61.584 65.1462 60.7307 63.9941 59.2104C62.7574 57.5786 60.6528 54.2876 57.7587 49.46C55.9029 46.3643 55.6545 45.9555 55.1189 45.1146C54.6317 44.3497 54.5563 44.2333 53.9886 43.3706L53.4977 42.6247L53.9499 41.9517C55.4317 39.7469 56.6889 38.2774 57.9745 37.2474C58.519 36.8112 59.2947 36.3605 59.8962 36.1311C60.3178 35.9701 60.677 35.8859 61.3219 35.7966C61.5289 35.7679 62.5332 35.8069 62.796 35.8537ZM39.0725 37.1443C41.2724 37.5126 43.1892 38.954 45.6426 42.085C46.168 42.7555 47.1488 44.0992 47.1478 44.1472C47.1475 44.1641 46.9623 44.4612 46.7362 44.8075C46.3298 45.4299 45.3883 46.8815 44.9973 47.4883C44.8862 47.6607 44.5904 48.1195 44.34 48.508C43.7691 49.3935 42.5929 51.2326 41.9143 52.3007C40.8209 54.0219 39.4535 56.1121 38.9912 56.769C37.5575 58.8065 36.8496 59.6912 35.9525 60.5668C35.0673 61.4308 34.2738 61.8973 33.3758 62.0815C32.4916 62.2629 31.5462 62.1806 30.8171 61.8588C29.363 61.2172 28.4542 59.6629 28.1374 57.2757C28.0116 56.3274 28.0202 54.4103 28.1571 52.9149C28.7142 46.8262 31.1907 41.0551 34.3292 38.5316C35.3224 37.7331 36.2637 37.2866 37.3199 37.1134C37.6587 37.0579 38.6617 37.0755 39.0725 37.1443Z" fill="white"/>
</svg>
