<svg width="100" height="100" viewBox="0 0 100 100" fill="none" xmlns="http://www.w3.org/2000/svg">
<path fill-rule="evenodd" clip-rule="evenodd" d="M50.8465 34.557L48.2488 35.1098L48.2387 37.2677L48.2286 39.4256L48.3169 39.4235C48.3654 39.4223 49.5652 39.1708 50.9832 38.8645L53.5613 38.3077L53.5714 36.1518C53.581 34.1155 53.5777 33.9961 53.5128 34.0001C53.475 34.0024 52.2752 34.253 50.8465 34.557ZM29.1564 37.0183L26.5874 37.5701L26.5991 46.5545C26.61 55.0223 26.6147 55.5557 26.6805 55.8318C26.9611 57.0099 27.4561 57.9185 28.2082 58.6361C29.3582 59.7335 30.8099 60.2361 32.5848 60.1515C33.8854 60.0895 34.86 59.8984 35.6609 59.5485L35.8465 59.4674V57.3004V55.1334L35.5668 55.2285C34.8686 55.4659 33.8357 55.553 33.2777 55.4215C32.7167 55.2892 32.2501 54.9317 32.0276 54.4636C31.7801 53.9428 31.784 54.0185 31.784 49.6225V45.6365H33.8152H35.8465V43.3709V41.1053H33.8152H31.784V38.7811C31.784 37.5027 31.7708 36.459 31.7547 36.4616C31.7385 36.4642 30.5693 36.7147 29.1564 37.0183ZM18.5223 40.7584C17.5825 40.8008 16.6023 40.9921 15.8127 41.287C13.7894 42.0428 12.5234 43.4592 12.0883 45.4534C12.0132 45.7974 12.0013 45.9706 12.0001 46.7303C11.9989 47.5702 12.0037 47.6282 12.1094 48.0389C12.3657 49.0345 12.9134 49.873 13.7174 50.5008C14.565 51.1627 15.2991 51.5145 17.6238 52.3732C19.0935 52.916 19.6861 53.2703 19.9378 53.7567C20.0482 53.9699 20.0652 54.0416 20.0652 54.2935C20.0652 54.6077 20.0094 54.787 19.8441 55.0038C19.0596 56.0322 15.7611 55.6407 12.7508 54.1618L12.2137 53.8979V56.4238V58.9495L12.5137 59.0744C13.6305 59.5394 15.0938 59.9092 16.4715 60.0747C17.2499 60.1683 18.7953 60.1681 19.4988 60.0743C22.415 59.6857 24.3954 58.3386 25.1615 56.2225C25.3824 55.6123 25.4608 55.1651 25.4836 54.386C25.5068 53.5919 25.471 53.2039 25.3193 52.6059C25.1134 51.7943 24.7062 51.0935 24.0713 50.4584C23.2026 49.5895 22.2396 49.1 19.616 48.1939C18.243 47.7198 17.6047 47.3352 17.4301 46.8772C17.3261 46.6041 17.36 46.1636 17.5014 45.9499C17.6452 45.7326 17.8812 45.572 18.2074 45.4694C18.4564 45.3911 18.5629 45.3827 19.3035 45.3838C19.8889 45.3845 20.2525 45.4047 20.573 45.4542C21.695 45.6271 22.8996 45.9805 23.8543 46.4169C24.1443 46.5494 24.4036 46.6673 24.4305 46.6787C24.4692 46.6953 24.4793 46.1852 24.4793 44.2024V41.7051L23.825 41.4842C22.1029 40.9029 20.4208 40.6727 18.5223 40.7584ZM64.2644 40.7586C63.5206 40.8063 62.7291 41.0233 62.0379 41.369C61.6747 41.5506 61.0755 41.9518 60.8004 42.1976C60.6784 42.3066 60.5704 42.3822 60.5606 42.3658C60.5507 42.3492 60.484 42.0501 60.4123 41.701L60.2819 41.0662H57.947H55.6121V53.5076C55.6121 63.4347 55.622 65.949 55.6609 65.949C55.6878 65.9489 56.8696 65.7028 58.2871 65.4021C59.7047 65.1013 60.878 64.8553 60.8946 64.8553C60.9111 64.8553 60.9246 63.493 60.9246 61.8279C60.9246 60.1629 60.9314 58.8006 60.9397 58.8006C60.948 58.8006 61.1546 58.9342 61.3987 59.0974C62.1088 59.5722 62.7552 59.8527 63.5223 60.0189C64.0412 60.1313 65.0689 60.1575 65.6512 60.0732C67.085 59.8655 68.2381 59.3092 69.2555 58.3342C69.9477 57.671 70.3972 57.0473 70.848 56.1248C71.4155 54.9632 71.7292 53.8341 71.9277 52.2381C72.0266 51.4435 72.0264 49.2854 71.9275 48.5467C71.6305 46.3288 70.9049 44.5241 69.7696 43.1796C68.316 41.4581 66.4125 40.621 64.2644 40.7586ZM80.6087 40.7546C77.5269 40.9518 75.0671 42.8259 73.8421 45.91C73.2155 47.4875 72.951 49.2183 73.0369 51.1791C73.1642 54.0853 74.0528 56.3484 75.679 57.9083C76.8752 59.0557 78.3384 59.7301 80.2996 60.0381C80.9272 60.1367 82.899 60.1365 83.6348 60.0379C85.0992 59.8415 86.3125 59.4884 87.3992 58.9423L87.7605 58.7608V56.6327V54.5047L87.5359 54.6066C86.1578 55.2316 84.9889 55.524 83.4051 55.6398C80.6515 55.8412 79.0452 55.0425 78.5277 53.2147C78.476 53.032 78.4211 52.7728 78.4058 52.6385L78.3779 52.3943H83.591H88.8041L88.8292 52.1542C88.8682 51.7809 88.8581 49.692 88.8148 49.1912C88.6741 47.5628 88.2944 46.1139 87.6837 44.8748C87.3304 44.1581 87.0307 43.692 86.5732 43.1479C85.1427 41.4465 83.0319 40.5995 80.6087 40.7546ZM44.8936 40.9308C43.9443 41.1108 43.1838 41.6064 42.6887 42.3679C42.4954 42.665 42.4892 42.6704 42.4619 42.5632C42.4465 42.5025 42.3697 42.1541 42.2913 41.7889L42.1488 41.1248L39.8375 41.1147L37.5262 41.1047V50.4409V59.7772H40.2019H42.8777V53.4237V47.0702L43.1826 46.7698C43.6528 46.3065 44.1627 46.0374 44.8528 45.8882C45.4036 45.7692 46.4659 45.8144 46.8836 45.9747C46.9327 45.9936 46.9402 45.6701 46.9402 43.5499V41.1033L46.8337 41.0629C46.4056 40.9001 45.4123 40.8325 44.8936 40.9308ZM48.2293 50.4412V59.7772H50.9051H53.5809V50.4412V41.1053H50.9051H48.2293V50.4412ZM81.6587 45.1118C82.0311 45.1875 82.4393 45.3838 82.7307 45.6272C83.3868 46.1753 83.7419 46.9846 83.8359 48.1463L83.8635 48.4881H81.0855H78.3074L78.3075 48.3611C78.3077 48.1291 78.3928 47.535 78.4684 47.2381C78.5871 46.7715 78.8582 46.268 79.1713 45.9328C79.4906 45.5909 79.7794 45.3899 80.1687 45.2387C80.6597 45.0481 81.1428 45.0069 81.6587 45.1118ZM64.1082 45.5451C64.7766 45.7136 65.5127 46.3174 65.9339 47.0428C66.4972 48.0127 66.7556 49.0797 66.7569 50.4412C66.759 52.7526 65.9635 54.5002 64.5965 55.187C64.1746 55.399 63.86 55.4555 63.2384 55.4308C62.648 55.4074 62.2121 55.3058 61.7914 55.0934C61.5359 54.9644 61.0226 54.5747 60.964 54.4652C60.9383 54.4172 60.9246 53.0229 60.9246 50.4474V46.5032L61.1997 46.2485C61.5084 45.9628 62.0273 45.6827 62.4428 45.5777C62.9971 45.4376 63.6323 45.4252 64.1082 45.5451Z" fill="white"/>
</svg>
